<?xml version="1.0" encoding="UTF-8"?><svg id="_圖層_2" xmlns="http://www.w3.org/2000/svg" viewBox="0 0 134.87 209.74"><defs><style>.cls-1{fill:#85a29f;}.cls-2{fill:#fff;}</style></defs><g id="_圖層_1-2"><path class="cls-1" d="M67.43,0h0c37.22,0,67.43,30.22,67.43,67.43v142.31H0V67.43C0,30.22,30.22,0,67.43,0Z" transform="translate(134.87 209.74) rotate(180)"/><path class="cls-2" d="M57.55,129.98c0,1.86-1.47,3.06-3.83,3.06-.42,0-.88-.04-1.18-.08v4.24h-1.38v-9.95h2.56c2.54,0,3.83.98,3.83,2.73ZM56.08,130.14c0-1.57-.79-2.68-2.56-2.68h-.98v5.26c.24.05.56.1.95.1,1.72,0,2.59-1.01,2.59-2.68Z"/><path class="cls-2" d="M62.78,133.93h-3.85c-.6,1.6-.76,2.46-.8,3.27h-.94c.65-1.37,1.17-2.64,1.87-4.36l2.36-5.81h.05l4.11,10.17h-1.51l-1.3-3.27ZM62.69,133.68l-1.83-4.57-1.53,3.81-.3.75h3.66Z"/><path class="cls-2" d="M66.13,132.3c0-3.19,2.16-5.22,5.02-5.22,1.6,0,2.93.71,3.7,1.6l-.68.62c-.69-1.16-1.78-2-3.09-2-2.08,0-3.43,2-3.43,4.66,0,3.02,1.64,4.8,3.83,4.8,1.18,0,2.47-.51,3.35-1.87l.16.1c-.89,1.46-2.28,2.38-4.12,2.38-2.71,0-4.73-1.98-4.73-5.06Z"/><path class="cls-2" d="M76.52,127.24h1.38v9.95h-1.38v-9.95ZM80.46,130.44l-.98.94,4.49,4.35v1.76h-.08l-5.55-5.4,1.94-1.86c1.46-1.39,2.22-2.32,2.6-2.99h1.08v.03c-1.15.96-2.25,1.97-3.51,3.17Z"/><path class="cls-2" d="M28.51,146.6c0,1.86-1.47,3.06-3.83,3.06-.42,0-.88-.04-1.18-.08v4.24h-1.38v-9.95h2.56c2.54,0,3.83.98,3.83,2.73ZM27.05,146.77c0-1.57-.79-2.68-2.56-2.68h-.98v5.26c.24.05.56.1.95.1,1.72,0,2.59-1.01,2.59-2.68Z"/><path class="cls-2" d="M33.75,150.55h-3.85c-.6,1.6-.76,2.46-.8,3.27h-.94c.65-1.37,1.17-2.64,1.87-4.36l2.36-5.81h.05l4.11,10.17h-1.51l-1.3-3.27ZM33.65,150.31l-1.83-4.57-1.53,3.81-.3.75h3.66Z"/><path class="cls-2" d="M49.12,155.38v.05c-.58.29-1.29.44-2.05.44-1.74,0-3.7-.72-4.62-1.9-.11.01-.2.01-.31.01-2.82,0-5.05-1.9-5.05-5.04s2.28-5.24,5.22-5.24,5.05,1.9,5.05,5.04c0,2.52-1.41,4.32-3.45,4.96,1.17,1.18,2.48,1.79,3.97,1.79.41,0,.81-.04,1.23-.12ZM42.28,153.77c2.14,0,3.55-1.93,3.55-4.87s-1.5-4.98-3.63-4.98-3.59,1.94-3.59,4.87,1.51,4.98,3.68,4.98Z"/><path class="cls-2" d="M49.16,150.4v-6.54h1.38v6.51c0,2.13.95,3.2,2.7,3.2s2.71-1.03,2.71-3.13v-2.23c0-1.91-.08-3.25-.27-4.35h.81c-.18,1.09-.27,2.43-.27,4.35v2.16c0,2.32-1.1,3.61-3.49,3.61s-3.58-1.29-3.58-3.58Z"/><path class="cls-2" d="M64.69,152.9l-.26.92h-5.85v-9.95h5.68l.16.86h-.03c-1.25-.42-2.51-.62-3.69-.62h-.75v4.4h.62c1.46,0,2.43-.1,2.85-.27h.03v.85h-.03c-.42-.18-1.38-.33-2.85-.33h-.62v4.81h.79c1.17,0,2.6-.18,3.91-.67h.03Z"/><path class="cls-2" d="M72.79,144.84h-.03c-1.09-.52-1.84-.72-2.66-.72h-.31v9.71h-1.38v-9.71h-.33c-.81,0-1.57.21-2.66.72h-.03l.19-.97h7.03l.18.97Z"/><path class="cls-2" d="M80.4,152.9l-.26.92h-5.85v-9.95h5.68l.16.86h-.03c-1.25-.42-2.51-.62-3.69-.62h-.75v4.4h.62c1.46,0,2.43-.1,2.85-.27h.03v.85h-.03c-.42-.18-1.38-.33-2.85-.33h-.62v4.81h.79c1.17,0,2.6-.18,3.91-.67h.03Z"/><path class="cls-2" d="M93.95,148.73c0,3.21-2.12,5.09-5.47,5.09h-3.23v-9.95h3.46c3.13,0,5.24,1.71,5.24,4.87ZM92.43,148.8c0-2.82-1.51-4.72-3.84-4.72h-1.95v9.39c.35.08.99.12,2.08.12,2.36,0,3.72-1.74,3.72-4.8Z"/><path class="cls-2" d="M101.97,152.9l-.26.92h-5.85v-9.95h5.68l.16.86h-.03c-1.25-.42-2.51-.62-3.69-.62h-.75v4.4h.62c1.46,0,2.43-.1,2.85-.27h.03v.85h-.03c-.42-.18-1.38-.33-2.85-.33h-.62v4.81h.79c1.17,0,2.6-.18,3.91-.67h.03Z"/><path class="cls-2" d="M112.73,151.11h-1.25v2.71h-1.25v-2.71h-4.21l-.16-.42,5.34-6.89h.27v6.47h1.48l-.23.85ZM110.24,150.27v-4.81l-3.69,4.81h3.69Z"/><path class="cls-2" d="M28.76,167.74h-1.25v2.71h-1.25v-2.71h-4.21l-.16-.42,5.34-6.89h.27v6.47h1.48l-.23.85ZM26.27,166.89v-4.81l-3.69,4.81h3.69Z"/><path class="cls-2" d="M40.27,163.23c0,1.86-1.47,3.06-3.83,3.06-.42,0-.88-.04-1.18-.08v4.24h-1.38v-9.95h2.56c2.54,0,3.83.98,3.83,2.73ZM38.8,163.39c0-1.57-.79-2.68-2.56-2.68h-.98v5.26c.24.05.56.1.95.1,1.72,0,2.59-1.01,2.59-2.68Z"/><path class="cls-2" d="M45.5,167.18h-3.85c-.6,1.6-.76,2.46-.8,3.27h-.94c.65-1.37,1.17-2.64,1.87-4.36l2.36-5.81h.05l4.11,10.17h-1.51l-1.3-3.27ZM45.41,166.93l-1.83-4.57-1.53,3.81-.3.75h3.66Z"/><path class="cls-2" d="M56.8,169.01v1.74h-.08l-4.02-4.51c-.19-.22-.33-.29-.71-.29h-.91v4.5h-1.38v-9.95h2.43c2.6,0,4,.82,4,2.52,0,1.41-1.08,2.15-2.37,2.6l3.04,3.4ZM54.74,163.1c0-1.45-.87-2.39-2.66-2.39h-.99v4.94c.31.05.98.08,1.25.08,1.48,0,2.4-1.2,2.4-2.62Z"/><path class="cls-2" d="M68.1,163.23c0,1.86-1.47,3.06-3.83,3.06-.42,0-.88-.04-1.18-.08v4.24h-1.38v-9.95h2.56c2.54,0,3.83.98,3.83,2.73ZM66.64,163.39c0-1.57-.79-2.68-2.56-2.68h-.98v5.26c.24.05.56.1.95.1,1.72,0,2.59-1.01,2.59-2.68Z"/><path class="cls-2" d="M73.34,167.18h-3.85c-.6,1.6-.76,2.46-.8,3.27h-.94c.65-1.37,1.17-2.64,1.87-4.36l2.36-5.81h.05l4.11,10.17h-1.51l-1.3-3.27ZM73.24,166.93l-1.83-4.57-1.53,3.81-.3.75h3.66Z"/><path class="cls-2" d="M88.71,172v.05c-.58.29-1.29.44-2.05.44-1.74,0-3.7-.72-4.62-1.9-.11.01-.2.01-.31.01-2.82,0-5.05-1.9-5.05-5.04s2.28-5.24,5.22-5.24,5.05,1.9,5.05,5.04c0,2.52-1.41,4.32-3.45,4.96,1.17,1.18,2.48,1.79,3.97,1.79.41,0,.81-.04,1.23-.12ZM81.87,170.39c2.14,0,3.55-1.93,3.55-4.87s-1.5-4.98-3.63-4.98-3.59,1.94-3.59,4.87,1.51,4.98,3.68,4.98Z"/><path class="cls-2" d="M88.75,167.03v-6.54h1.38v6.51c0,2.13.95,3.2,2.7,3.2s2.71-1.03,2.71-3.13v-2.23c0-1.91-.08-3.25-.27-4.35h.81c-.18,1.09-.27,2.43-.27,4.35v2.16c0,2.32-1.1,3.61-3.49,3.61s-3.58-1.29-3.58-3.58Z"/><path class="cls-2" d="M104.28,169.53l-.26.92h-5.85v-9.95h5.68l.16.86h-.03c-1.25-.42-2.51-.62-3.69-.62h-.75v4.4h.62c1.46,0,2.43-.1,2.85-.27h.03v.85h-.03c-.42-.18-1.38-.33-2.85-.33h-.62v4.81h.79c1.17,0,2.6-.18,3.91-.67h.03Z"/><path class="cls-2" d="M112.38,161.46h-.03c-1.09-.52-1.84-.72-2.66-.72h-.31v9.71h-1.38v-9.71h-.33c-.81,0-1.57.21-2.66.72h-.03l.19-.97h7.03l.18.97Z"/><path class="cls-2" d="M34.49,115.71l2.2-8.29c7.49,8.14,14.54,12.59,25.12,12.59,13.81,0,25.56-9.92,25.56-26.65,0-13.77-10.14-25.02-26.15-26.95l-5.58-.59-.59-1.63,5.14-1.63c11.46-3.7,22.18-13.03,22.18-26.36,0-11.85-8.37-18.36-19.1-18.36-12.93,0-21.89,8.44-25.42,13.47l-1.91-.89c6.02-9.03,16.31-19.4,33.5-19.4,14.98,0,27.18,8.14,27.18,22.06,0,12.14-11.02,22.36-22.48,26.21v.3c13.96,2.52,26.44,13.62,26.44,29.32,0,20.29-16.6,33.46-38.78,33.46-8.52,0-17.48-2.07-27.33-6.66Z"/></g></svg>