<?xml version="1.0" encoding="UTF-8"?><svg id="_圖層_2" xmlns="http://www.w3.org/2000/svg" viewBox="0 0 134.87 209.74"><defs><style>.cls-1{fill:#85a29f;}.cls-2{fill:#fff;}</style></defs><g id="_圖層_1-2"><path class="cls-1" d="M67.43,0h0C104.65,0,134.87,30.22,134.87,67.43v142.31H0V67.43C0,30.22,30.22,0,67.43,0Z" transform="translate(134.87 209.74) rotate(180)"/><path class="cls-2" d="M59.01,129.98c0,1.86-1.47,3.06-3.83,3.06-.42,0-.88-.04-1.18-.08v4.24h-1.38v-9.95h2.56c2.54,0,3.83.98,3.83,2.73ZM57.54,130.14c0-1.57-.79-2.68-2.56-2.68h-.98v5.26c.24.05.56.1.95.1,1.72,0,2.59-1.01,2.59-2.68Z"/><path class="cls-2" d="M64.24,133.93h-3.85c-.6,1.6-.76,2.46-.8,3.27h-.94c.65-1.37,1.17-2.64,1.87-4.36l2.36-5.81h.05l4.11,10.17h-1.51l-1.3-3.27ZM64.15,133.68l-1.83-4.57-1.53,3.81-.3.75h3.66Z"/><path class="cls-2" d="M67.59,132.3c0-3.19,2.16-5.22,5.02-5.22,1.6,0,2.93.71,3.7,1.6l-.68.62c-.69-1.16-1.78-2-3.09-2-2.08,0-3.43,2-3.43,4.66,0,3.02,1.64,4.8,3.83,4.8,1.18,0,2.47-.51,3.35-1.87l.16.1c-.89,1.46-2.28,2.38-4.12,2.38-2.71,0-4.73-1.98-4.73-5.06Z"/><path class="cls-2" d="M77.99,127.24h1.38v9.95h-1.38v-9.95ZM81.92,130.44l-.98.94,4.49,4.35v1.76h-.08l-5.55-5.4,1.94-1.86c1.46-1.39,2.22-2.32,2.6-2.99h1.08v.03c-1.15.96-2.25,1.97-3.51,3.17Z"/><path class="cls-2" d="M29.97,146.6c0,1.86-1.47,3.06-3.83,3.06-.42,0-.88-.04-1.18-.08v4.24h-1.38v-9.95h2.56c2.54,0,3.83.98,3.83,2.73ZM28.51,146.77c0-1.57-.79-2.68-2.56-2.68h-.98v5.26c.24.05.56.1.95.1,1.72,0,2.59-1.01,2.59-2.68Z"/><path class="cls-2" d="M35.21,150.55h-3.85c-.6,1.6-.76,2.46-.8,3.27h-.94c.65-1.37,1.17-2.64,1.87-4.36l2.36-5.81h.05l4.11,10.17h-1.51l-1.3-3.27ZM35.11,150.31l-1.83-4.57-1.53,3.81-.3.75h3.66Z"/><path class="cls-2" d="M50.58,155.38v.05c-.58.29-1.29.44-2.05.44-1.74,0-3.7-.72-4.62-1.9-.11.01-.2.01-.31.01-2.82,0-5.05-1.9-5.05-5.04s2.28-5.24,5.22-5.24,5.05,1.9,5.05,5.04c0,2.52-1.41,4.32-3.45,4.96,1.17,1.18,2.48,1.79,3.97,1.79.41,0,.81-.04,1.23-.12ZM43.74,153.77c2.14,0,3.55-1.93,3.55-4.87s-1.5-4.98-3.63-4.98-3.59,1.94-3.59,4.87,1.51,4.98,3.68,4.98Z"/><path class="cls-2" d="M50.62,150.4v-6.54h1.38v6.51c0,2.13.95,3.2,2.7,3.2s2.71-1.03,2.71-3.13v-2.23c0-1.91-.08-3.25-.27-4.35h.81c-.18,1.09-.27,2.43-.27,4.35v2.16c0,2.32-1.1,3.61-3.49,3.61s-3.58-1.29-3.58-3.58Z"/><path class="cls-2" d="M66.15,152.9l-.26.92h-5.85v-9.95h5.68l.16.86h-.03c-1.25-.42-2.51-.62-3.69-.62h-.75v4.4h.62c1.46,0,2.43-.1,2.85-.27h.03v.85h-.03c-.42-.18-1.38-.33-2.85-.33h-.62v4.81h.79c1.17,0,2.6-.18,3.91-.67h.03Z"/><path class="cls-2" d="M74.25,144.84h-.03c-1.09-.52-1.84-.72-2.66-.72h-.31v9.71h-1.38v-9.71h-.33c-.81,0-1.57.21-2.66.72h-.03l.19-.97h7.03l.18.97Z"/><path class="cls-2" d="M81.86,152.9l-.26.92h-5.85v-9.95h5.68l.16.86h-.03c-1.25-.42-2.51-.62-3.69-.62h-.75v4.4h.62c1.46,0,2.43-.1,2.85-.27h.03v.85h-.03c-.42-.18-1.38-.33-2.85-.33h-.62v4.81h.79c1.17,0,2.6-.18,3.91-.67h.03Z"/><path class="cls-2" d="M95.41,148.73c0,3.21-2.12,5.09-5.47,5.09h-3.23v-9.95h3.46c3.13,0,5.24,1.71,5.24,4.87ZM93.89,148.8c0-2.82-1.51-4.72-3.84-4.72h-1.95v9.39c.35.08.99.12,2.08.12,2.36,0,3.72-1.74,3.72-4.8Z"/><path class="cls-2" d="M103.43,152.9l-.26.92h-5.85v-9.95h5.68l.16.86h-.03c-1.25-.42-2.51-.62-3.69-.62h-.75v4.4h.62c1.46,0,2.43-.1,2.85-.27h.03v.85h-.03c-.42-.18-1.38-.33-2.85-.33h-.62v4.81h.79c1.17,0,2.6-.18,3.91-.67h.03Z"/><path class="cls-2" d="M114.2,151.11h-1.25v2.71h-1.25v-2.71h-4.21l-.16-.42,5.34-6.89h.27v6.47h1.48l-.23.85ZM111.7,150.27v-4.81l-3.69,4.81h3.69Z"/><path class="cls-2" d="M30.22,167.74h-1.25v2.71h-1.25v-2.71h-4.21l-.16-.42,5.34-6.89h.27v6.47h1.48l-.23.85ZM27.73,166.89v-4.81l-3.69,4.81h3.69Z"/><path class="cls-2" d="M41.73,163.23c0,1.86-1.47,3.06-3.83,3.06-.42,0-.88-.04-1.18-.08v4.24h-1.38v-9.95h2.56c2.54,0,3.83.98,3.83,2.73ZM40.26,163.39c0-1.57-.79-2.68-2.56-2.68h-.98v5.26c.24.05.56.1.95.1,1.72,0,2.59-1.01,2.59-2.68Z"/><path class="cls-2" d="M46.96,167.18h-3.85c-.6,1.6-.76,2.46-.8,3.27h-.94c.65-1.37,1.17-2.64,1.87-4.36l2.36-5.81h.05l4.11,10.17h-1.51l-1.3-3.27ZM46.87,166.93l-1.83-4.57-1.53,3.81-.3.75h3.66Z"/><path class="cls-2" d="M58.26,169.01v1.74h-.08l-4.02-4.51c-.19-.22-.33-.29-.71-.29h-.91v4.5h-1.38v-9.95h2.43c2.6,0,4,.82,4,2.52,0,1.41-1.08,2.15-2.37,2.6l3.04,3.4ZM56.2,163.1c0-1.45-.87-2.39-2.66-2.39h-.99v4.94c.31.05.98.08,1.25.08,1.48,0,2.4-1.2,2.4-2.62Z"/><path class="cls-2" d="M69.56,163.23c0,1.86-1.47,3.06-3.83,3.06-.42,0-.88-.04-1.18-.08v4.24h-1.38v-9.95h2.56c2.54,0,3.83.98,3.83,2.73ZM68.1,163.39c0-1.57-.79-2.68-2.56-2.68h-.98v5.26c.24.05.56.1.95.1,1.72,0,2.59-1.01,2.59-2.68Z"/><path class="cls-2" d="M74.8,167.18h-3.85c-.6,1.6-.76,2.46-.8,3.27h-.94c.65-1.37,1.17-2.64,1.87-4.36l2.36-5.81h.05l4.11,10.17h-1.51l-1.3-3.27ZM74.7,166.93l-1.83-4.57-1.53,3.81-.3.75h3.66Z"/><path class="cls-2" d="M90.17,172v.05c-.58.29-1.29.44-2.05.44-1.74,0-3.7-.72-4.62-1.9-.11.01-.2.01-.31.01-2.82,0-5.05-1.9-5.05-5.04s2.28-5.24,5.22-5.24,5.05,1.9,5.05,5.04c0,2.52-1.41,4.32-3.45,4.96,1.17,1.18,2.48,1.79,3.97,1.79.41,0,.81-.04,1.23-.12ZM83.33,170.39c2.14,0,3.55-1.93,3.55-4.87s-1.5-4.98-3.63-4.98-3.59,1.94-3.59,4.87,1.51,4.98,3.68,4.98Z"/><path class="cls-2" d="M90.21,167.03v-6.54h1.38v6.51c0,2.13.95,3.2,2.7,3.2s2.71-1.03,2.71-3.13v-2.23c0-1.91-.08-3.25-.27-4.35h.81c-.18,1.09-.27,2.43-.27,4.35v2.16c0,2.32-1.1,3.61-3.49,3.61s-3.58-1.29-3.58-3.58Z"/><path class="cls-2" d="M105.74,169.53l-.26.92h-5.85v-9.95h5.68l.16.86h-.03c-1.25-.42-2.51-.62-3.69-.62h-.75v4.4h.62c1.46,0,2.43-.1,2.85-.27h.03v.85h-.03c-.42-.18-1.38-.33-2.85-.33h-.62v4.81h.79c1.17,0,2.6-.18,3.91-.67h.03Z"/><path class="cls-2" d="M113.84,161.46h-.03c-1.09-.52-1.84-.72-2.66-.72h-.31v9.71h-1.38v-9.71h-.33c-.81,0-1.57.21-2.66.72h-.03l.19-.97h7.03l.18.97Z"/><path class="cls-2" d="M94.78,91.28h-13.52v29.32h-13.52v-29.32H22.2l-1.76-4.59L78.32,12.06h2.94v70.04h16.01l-2.5,9.18ZM67.75,82.1V29.97l-39.96,52.12h39.96Z"/></g></svg>