<?xml version="1.0" encoding="UTF-8"?><svg id="_圖層_2" xmlns="http://www.w3.org/2000/svg" viewBox="0 0 1101.94 81.84"><defs><style>.cls-1{fill:none;stroke:#fff;stroke-miterlimit:10;}.cls-2{fill:#fff;}</style></defs><g id="_圖層_1-2"><path class="cls-2" d="M0,48.04V1.24h22.19c10.45,0,18.77,2.47,18.77,11.77,0,4.81-3.1,8.32-6.06,10.21,5.03,1.3,7.74,5.65,7.74,10.72,0,10.46-7.93,14.11-19.99,14.11H0ZM15.22,12.16v7.8h6.32c3.03,0,5.22-1.37,5.22-4.1,0-3.64-2.97-3.71-6.19-3.71h-5.35ZM15.22,28.47v8.64h6.64c3.74,0,6.58-.78,6.58-4.29,0-4.09-3.55-4.35-8.38-4.35h-4.84Z"/><path class="cls-2" d="M52.37,48.04V1.24h37.86v10.92h-22.64v6.7h19.16v10.92h-19.16v7.35h23.54v10.92h-38.76Z"/><path class="cls-2" d="M96.67,48.04L113.31,1.24h15.48l16.64,46.8h-15.16l-1.81-6.17h-15.16l-1.74,6.17h-14.9ZM120.93,15.34l-4.71,16.77h9.61l-4.9-16.77Z"/><path class="cls-2" d="M152.59,1.24h15.22v28.02c0,4.62.9,8.58,7.16,8.58,5.48,0,7.09-3.51,7.09-8.58V1.24h15.22v26.46c0,15.02-6.9,21.58-22.32,21.58-14.38,0-22.38-5.53-22.38-21.65V1.24Z"/><path class="cls-2" d="M205.73,1.24h42.57v12.29h-13.67v34.52h-15.22V13.52h-13.67V1.24Z"/><path class="cls-2" d="M257.13,48.04V1.24h15.22v46.8h-15.22Z"/><path class="cls-2" d="M284.03,48.04V1.24h36.12v10.92h-20.9v8.52h16.64v10.92h-16.64v16.45h-15.22Z"/><path class="cls-2" d="M356.91,48.04h-15.22v-17.03l-17.29-29.77h17.03l8,15.86,8-15.86h16.77l-17.29,29.51v17.29Z"/><path class="cls-2" d="M432.43,48.04h-15.22v-17.03l-17.29-29.77h17.03l8,15.86,8-15.86h16.77l-17.29,29.51v17.29Z"/><path class="cls-2" d="M503.05,24.38c0,15.93-10.64,24.9-24.38,24.9-14.58,0-24.32-9.1-24.32-25.03,0-14.69,9.87-24.25,24.32-24.25,16.58,0,24.38,12.03,24.38,24.38ZM469.58,24.38c0,5.98,1.81,13.46,9.09,13.46,6.58,0,9.16-5.72,9.16-13.46,0-6.37-2.58-13.13-9.29-12.94-6.9,0-8.97,7.02-8.97,12.94Z"/><path class="cls-2" d="M512.01,1.24h15.22v28.02c0,4.62.9,8.58,7.16,8.58,5.48,0,7.09-3.51,7.09-8.58V1.24h15.22v26.46c0,15.02-6.9,21.58-22.32,21.58-14.38,0-22.38-5.53-22.38-21.65V1.24Z"/><path class="cls-2" d="M582.31,31.72v16.31h-15.22V1.24h21.93c15.48,0,20.58,4.22,20.58,13.32,0,5.4-2.39,9.95-7.8,11.44,4.9,1.82,7.87,2.99,7.87,12.42,0,6.11-.19,8.19,1.61,8.19v1.43h-15.42c-.39-1.04-.77-4.03-.77-8.19,0-6.11-1.03-8.12-8.13-8.12h-4.64ZM582.31,21.45h6c4.71,0,7.22-1.17,7.22-4.42s-2.58-4.88-6.13-4.88h-7.09v9.3Z"/><path class="cls-2" d="M672.15,19.11c-.45-4.88-3.48-7.67-8.26-7.67-5.35,0-8.58,4.62-8.58,13.65,0,6.56,1.42,12.74,9.16,12.74,4.9,0,7.22-3.45,7.8-7.93h14.64c-1.35,12.09-9.93,19.37-22.19,19.37-15.35,0-24.64-9.49-24.64-24.7s10.19-24.57,23.16-24.57c14.19,0,22.12,7.09,23.35,19.11h-14.45Z"/><path class="cls-2" d="M742,24.38c0,15.93-10.64,24.9-24.38,24.9-14.58,0-24.32-9.1-24.32-25.03,0-14.69,9.87-24.25,24.32-24.25,16.58,0,24.38,12.03,24.38,24.38ZM708.52,24.38c0,5.98,1.81,13.46,9.09,13.46,6.58,0,9.16-5.72,9.16-13.46,0-6.37-2.58-13.13-9.29-12.94-6.9,0-8.96,7.02-8.96,12.94Z"/><path class="cls-2" d="M750.96,1.24h15.22v28.02c0,4.62.9,8.58,7.16,8.58,5.48,0,7.09-3.51,7.09-8.58V1.24h15.22v26.46c0,15.02-6.9,21.58-22.32,21.58-14.38,0-22.38-5.53-22.38-21.65V1.24Z"/><path class="cls-2" d="M821.26,31.72v16.31h-15.22V1.24h21.93c15.48,0,20.58,4.22,20.58,13.32,0,5.4-2.39,9.95-7.8,11.44,4.9,1.82,7.87,2.99,7.87,12.42,0,6.11-.19,8.19,1.61,8.19v1.43h-15.41c-.39-1.04-.77-4.03-.77-8.19,0-6.11-1.03-8.12-8.13-8.12h-4.64ZM821.26,21.45h6c4.71,0,7.22-1.17,7.22-4.42s-2.58-4.88-6.13-4.88h-7.09v9.3Z"/><path class="cls-2" d="M855.05,1.24h42.57v12.29h-13.67v34.52h-15.22V13.52h-13.67V1.24Z"/><path class="cls-2" d="M934.25,48.04h-15.22v-17.03l-17.29-29.77h17.03l8,15.86,8-15.86h16.77l-17.29,29.51v17.29Z"/><path class="cls-2" d="M949.6,48.04l16.64-46.8h15.48l16.64,46.8h-15.16l-1.81-6.17h-15.16l-1.74,6.17h-14.9ZM973.85,15.34l-4.71,16.77h9.61l-4.9-16.77Z"/><path class="cls-2" d="M1020.15,31.72v16.31h-15.22V1.24h21.93c15.48,0,20.58,4.22,20.58,13.32,0,5.4-2.39,9.95-7.8,11.44,4.9,1.82,7.87,2.99,7.87,12.42,0,6.11-.19,8.19,1.61,8.19v1.43h-15.42c-.39-1.04-.77-4.03-.77-8.19,0-6.11-1.03-8.12-8.13-8.12h-4.64ZM1020.15,21.45h6c4.71,0,7.22-1.17,7.22-4.42s-2.58-4.88-6.13-4.88h-7.09v9.3Z"/><path class="cls-2" d="M1057.3,48.04V1.24h20.38c14.96,0,24.25,7.02,24.25,22.43,0,17.62-9.74,24.38-24.64,24.38h-19.99ZM1072.52,37.12h3.22c7.09,0,10.96-3.77,10.96-12.61,0-9.75-3.16-12.35-11.29-12.35h-2.9v24.96Z"/><path class="cls-2" d="M278.74,61.3c-.91,2.21-1.58,4.14-2.51,6.77l-3.1,9.02h-.08l-4.13-12.1-4.21,12.1h-.08l-5.43-15.79h2.29l4.08,12.05,4.21-12.05h.08l4.11,12.05,1.85-5.41c1.1-3.1,1.43-5.09,1.6-6.64h1.31Z"/><path class="cls-2" d="M280.77,70.32v.38c0,3.52,1.71,5.39,3.98,5.39,1.26,0,2.76-.64,3.73-2.04l.25.15c-1.2,1.85-2.86,2.8-4.84,2.8-3.01,0-5.24-2.27-5.24-5.71,0-3.67,2.42-6.07,5.66-6.07,3.03,0,4.59,2.1,4.55,5.09h-8.09ZM280.79,69.98h6.15c.13-2.68-1.01-4.44-2.8-4.44s-3.14,1.85-3.35,4.44Z"/><path class="cls-2" d="M295.7,71.19c0-3.59,2.46-5.96,5.75-5.96s5.56,2.23,5.56,5.84-2.46,5.94-5.75,5.94-5.56-2.21-5.56-5.82ZM304.86,71.19c0-3.4-1.45-5.67-3.54-5.67s-3.47,2.19-3.47,5.54,1.45,5.65,3.54,5.65,3.47-2.19,3.47-5.52Z"/><path class="cls-2" d="M318.64,63.38v2.1h3.52l-.27.47h-3.24v10.8h-2v-10.8h-4.74v10.8h-2v-10.8h-1.62v-.47h1.62v-1.87c0-2.63,1.43-4.01,3.62-4.01,1.05,0,2.13.3,3.18.89l-.15.28c-.91-.38-1.56-.45-2.13-.45-1.58,0-2.53,1-2.53,3.18v1.97h4.74v-2c0-2.63,1.41-4.01,3.6-4.01,1.1,0,2.25.32,3.33.98l-.15.26c-.95-.43-1.64-.51-2.25-.51-1.6,0-2.53,1-2.53,3.18Z"/><path class="cls-2" d="M324.43,70.32v.38c0,3.52,1.71,5.39,3.98,5.39,1.26,0,2.76-.64,3.73-2.04l.25.15c-1.2,1.85-2.86,2.8-4.84,2.8-3.01,0-5.24-2.27-5.24-5.71,0-3.67,2.42-6.07,5.66-6.07,3.03,0,4.59,2.1,4.55,5.09h-8.09ZM324.45,69.98h6.15c.13-2.68-1.01-4.44-2.8-4.44s-3.14,1.85-3.35,4.44Z"/><path class="cls-2" d="M341.28,65.39l-.59,1.57c-.38-.17-.82-.25-1.16-.25-1.14,0-2.11.83-2.63,1.95v8.09h-2v-10.93l1.87-.57h.08v2.8c.78-1.72,1.96-2.78,3.43-2.78.38,0,.74.06.99.13Z"/><path class="cls-2" d="M357.12,76.24v.13c-.34.21-.99.53-1.75.53-1.35,0-1.62-1-1.66-1.57-1.1,1.04-2.57,1.63-3.9,1.63-1.77,0-2.95-1.04-2.95-2.61,0-1.97,1.87-3.21,4.76-3.52.76-.08,1.43-.13,2.06-.19v-1.21c0-2.1-.61-3.5-2.7-3.5-1.14,0-2.13.4-3.16,1.27l-.19-.23c1.14-1.06,2.32-1.74,4.13-1.74,2.59,0,3.92,1.27,3.92,4.01v5.43c0,1.02,0,1.61,1.03,1.61.15,0,.27-.02.4-.04ZM353.69,74.92v-3.97c-2.86.3-4.84,1-4.84,3.05,0,1.49.93,2.19,2.06,2.19.91,0,1.92-.43,2.78-1.27Z"/><path class="cls-2" d="M374.69,70.93c0,3.63-2.49,6.07-5.43,6.07-1.22,0-2.27-.43-3.09-1.17v5.75h-2v-15.77l1.92-.57h.08v1.76c1.03-1.1,2.27-1.78,3.73-1.78,2.74,0,4.8,2.36,4.8,5.71ZM372.54,71.12c0-3.46-1.37-5.2-3.26-5.2-1.05,0-2.19.53-3.12,1.61v6.96c.53,1.32,1.6,2.17,2.91,2.17,2.06,0,3.47-2.12,3.47-5.54Z"/><path class="cls-2" d="M376.59,71.19c0-3.59,2.46-5.96,5.75-5.96s5.56,2.23,5.56,5.84-2.46,5.94-5.75,5.94-5.56-2.21-5.56-5.82ZM385.75,71.19c0-3.4-1.45-5.67-3.54-5.67s-3.47,2.19-3.47,5.54,1.45,5.65,3.54,5.65,3.47-2.19,3.47-5.52Z"/><path class="cls-2" d="M389.58,75.98l.32-1.08c.86,1.02,2.21,1.8,3.87,1.8s2.74-.89,2.74-2.17c0-1.36-1.29-1.91-2.61-2.46l-.86-.36c-1.37-.6-3.24-1.38-3.24-3.4,0-1.78,1.52-3.1,3.92-3.1,1.5,0,2.91.47,3.64.89l-.29,1c-.74-.72-2.04-1.59-3.54-1.59s-2.38.89-2.38,1.93c0,1.34,1.45,1.87,2.63,2.38l.84.36c1.33.55,3.24,1.36,3.24,3.46,0,1.93-1.6,3.35-4.3,3.35-1.41,0-3.03-.4-3.98-1.02Z"/><path class="cls-2" d="M399.76,62.02l1.43-1.44,1.43,1.44-1.43,1.44-1.43-1.44ZM400.2,65.82l1.9-.57h.08v11.5h-1.98v-10.93Z"/><path class="cls-2" d="M411.74,76.01c-.88.59-1.77,1-2.95,1-2.59,0-2.74-2-2.74-2.91v-8.15h-1.62v-.36l1.54-.11,2-3.61h.08v3.61h3.6l-.27.47h-3.33v8.11c0,.62,0,2.23,1.7,2.23.48,0,1.12-.13,1.81-.53l.17.26Z"/><path class="cls-2" d="M413.02,62.02l1.43-1.44,1.43,1.44-1.43,1.44-1.43-1.44ZM413.47,65.82l1.9-.57h.08v11.5h-1.98v-10.93Z"/><path class="cls-2" d="M427.6,65.48c-.91,1.82-1.62,3.5-2.84,6.37l-2.23,5.22h-.15l-4.95-11.59h2.15l3.73,8.77,1.1-2.53c1.24-2.89,1.85-4.95,1.98-6.24h1.22Z"/><path class="cls-2" d="M430.38,70.32v.38c0,3.52,1.71,5.39,3.98,5.39,1.26,0,2.76-.64,3.73-2.04l.25.15c-1.2,1.85-2.86,2.8-4.84,2.8-3.01,0-5.24-2.27-5.24-5.71,0-3.67,2.42-6.07,5.66-6.07,3.03,0,4.59,2.1,4.55,5.09h-8.09ZM430.4,69.98h6.15c.13-2.68-1.01-4.44-2.8-4.44s-3.14,1.85-3.35,4.44Z"/><path class="cls-2" d="M454.43,76.94l-.55-1.74c-1.03,1.12-2.29,1.8-3.77,1.8-2.74,0-4.8-2.36-4.8-5.69,0-3.63,2.48-6.09,5.43-6.09,1.22,0,2.27.43,3.1,1.17v-6.2l1.92-.64h.08v15.26l.46,1.53-1.87.59ZM453.84,74.71v-6.98c-.53-1.29-1.6-2.14-2.91-2.14-2.06,0-3.47,2.1-3.47,5.52s1.39,5.2,3.31,5.2c1.05,0,2.15-.53,3.07-1.59Z"/><path class="cls-2" d="M458.54,62.02l1.43-1.44,1.43,1.44-1.43,1.44-1.43-1.44ZM458.98,65.82l1.9-.57h.08v11.5h-1.98v-10.93Z"/><path class="cls-2" d="M473.64,63.38v2.1h3.52l-.27.47h-3.24v10.8h-2v-10.8h-4.74v10.8h-2v-10.8h-1.62v-.47h1.62v-1.87c0-2.63,1.43-4.01,3.62-4.01,1.05,0,2.13.3,3.18.89l-.15.28c-.91-.38-1.56-.45-2.13-.45-1.58,0-2.53,1-2.53,3.18v1.97h4.74v-2c0-2.63,1.41-4.01,3.6-4.01,1.09,0,2.25.32,3.33.98l-.15.26c-.95-.43-1.64-.51-2.25-.51-1.6,0-2.53,1-2.53,3.18Z"/><path class="cls-2" d="M479.44,70.32v.38c0,3.52,1.7,5.39,3.98,5.39,1.26,0,2.76-.64,3.73-2.04l.25.15c-1.2,1.85-2.86,2.8-4.84,2.8-3.01,0-5.24-2.27-5.24-5.71,0-3.67,2.42-6.07,5.66-6.07,3.03,0,4.59,2.1,4.55,5.09h-8.09ZM479.46,69.98h6.15c.13-2.68-1.01-4.44-2.8-4.44s-3.14,1.85-3.35,4.44Z"/><path class="cls-2" d="M496.28,65.39l-.59,1.57c-.38-.17-.82-.25-1.16-.25-1.14,0-2.11.83-2.63,1.95v8.09h-2v-10.93l1.87-.57h.08v2.8c.78-1.72,1.96-2.78,3.43-2.78.38,0,.74.06.99.13Z"/><path class="cls-2" d="M498.73,70.32v.38c0,3.52,1.71,5.39,3.98,5.39,1.26,0,2.76-.64,3.73-2.04l.25.15c-1.2,1.85-2.86,2.8-4.84,2.8-3.01,0-5.24-2.27-5.24-5.71,0-3.67,2.42-6.07,5.66-6.07,3.03,0,4.59,2.1,4.55,5.09h-8.09ZM498.75,69.98h6.15c.13-2.68-1.01-4.44-2.8-4.44s-3.14,1.85-3.35,4.44Z"/><path class="cls-2" d="M518.88,69.23v7.51h-2v-7.55c0-.87,0-3.2-2.46-3.2-1.09,0-2.15.45-3.22,1.51v9.25h-2v-10.93l1.92-.57h.08v1.83c1.18-1.15,2.4-1.85,4.08-1.85,2.34,0,3.6,1.27,3.6,4.01Z"/><path class="cls-2" d="M521.29,71.23c0-3.61,2.46-6.01,5.52-6.01,1.92,0,3.31.74,4.23,1.93l-.86.76c-.88-1.42-1.85-2.38-3.26-2.38-2.02,0-3.45,2.04-3.45,5.22,0,3.46,1.62,5.33,3.83,5.33,1.22,0,2.65-.64,3.62-2.04l.25.15c-1.12,1.7-2.65,2.8-4.7,2.8-2.95,0-5.18-2.27-5.18-5.77Z"/><path class="cls-2" d="M534.68,70.32v.38c0,3.52,1.71,5.39,3.98,5.39,1.26,0,2.76-.64,3.73-2.04l.25.15c-1.2,1.85-2.86,2.8-4.84,2.8-3.01,0-5.24-2.27-5.24-5.71,0-3.67,2.42-6.07,5.66-6.07,3.03,0,4.59,2.1,4.55,5.09h-8.09ZM534.7,69.98h6.15c.13-2.68-1.01-4.44-2.8-4.44s-3.14,1.85-3.35,4.44Z"/><path class="cls-2" d="M544.6,79.63c.82-.51,1.24-1.19,1.24-1.91,0-.81-.59-1.59-1.52-2.16l1.09-1.38c1.12.45,1.81,1.36,1.81,2.44,0,1.34-1.18,2.5-2.53,3.16l-.11-.15Z"/><path class="cls-2" d="M549.28,62.02l1.43-1.44,1.43,1.44-1.43,1.44-1.43-1.44ZM549.72,65.82l1.9-.57h.08v11.5h-1.98v-10.93Z"/><path class="cls-2" d="M564.51,69.23v7.51h-2v-7.55c0-.87,0-3.2-2.46-3.2-1.09,0-2.15.45-3.22,1.51v9.25h-2v-10.93l1.92-.57h.08v1.83c1.18-1.15,2.4-1.85,4.08-1.85,2.34,0,3.6,1.27,3.6,4.01Z"/><path class="cls-2" d="M577.17,69.23v7.51h-2v-7.55c0-.87,0-3.2-2.46-3.2-1.09,0-2.15.45-3.22,1.51v9.25h-2v-10.93l1.92-.57h.08v1.83c1.18-1.15,2.4-1.85,4.08-1.85,2.34,0,3.6,1.27,3.6,4.01Z"/><path class="cls-2" d="M579.57,71.19c0-3.59,2.46-5.96,5.75-5.96s5.56,2.23,5.56,5.84-2.46,5.94-5.75,5.94-5.56-2.21-5.56-5.82ZM588.73,71.19c0-3.4-1.45-5.67-3.54-5.67s-3.47,2.19-3.47,5.54,1.45,5.65,3.54,5.65,3.47-2.19,3.47-5.52Z"/><path class="cls-2" d="M601.89,65.48c-.91,1.82-1.62,3.5-2.84,6.37l-2.23,5.22h-.15l-4.95-11.59h2.15l3.73,8.77,1.1-2.53c1.24-2.89,1.85-4.95,1.98-6.24h1.22Z"/><path class="cls-2" d="M612.45,76.24v.13c-.34.21-.99.53-1.75.53-1.35,0-1.62-1-1.66-1.57-1.1,1.04-2.57,1.63-3.9,1.63-1.77,0-2.95-1.04-2.95-2.61,0-1.97,1.87-3.21,4.76-3.52.76-.08,1.43-.13,2.06-.19v-1.21c0-2.1-.61-3.5-2.7-3.5-1.14,0-2.13.4-3.16,1.27l-.19-.23c1.14-1.06,2.32-1.74,4.13-1.74,2.59,0,3.92,1.27,3.92,4.01v5.43c0,1.02,0,1.61,1.03,1.61.15,0,.27-.02.4-.04ZM609.01,74.92v-3.97c-2.86.3-4.84,1-4.84,3.05,0,1.49.93,2.19,2.06,2.19.91,0,1.92-.43,2.78-1.27Z"/><path class="cls-2" d="M620.41,76.01c-.88.59-1.77,1-2.95,1-2.59,0-2.74-2-2.74-2.91v-8.15h-1.62v-.36l1.54-.11,2-3.61h.08v3.61h3.6l-.27.47h-3.33v8.11c0,.62,0,2.23,1.71,2.23.48,0,1.12-.13,1.81-.53l.17.26Z"/><path class="cls-2" d="M621.7,62.02l1.43-1.44,1.43,1.44-1.43,1.44-1.43-1.44ZM622.14,65.82l1.9-.57h.08v11.5h-1.98v-10.93Z"/><path class="cls-2" d="M626.67,71.19c0-3.59,2.46-5.96,5.75-5.96s5.56,2.23,5.56,5.84-2.46,5.94-5.75,5.94-5.56-2.21-5.56-5.82ZM635.83,71.19c0-3.4-1.45-5.67-3.54-5.67s-3.47,2.19-3.47,5.54,1.45,5.65,3.54,5.65,3.47-2.19,3.47-5.52Z"/><path class="cls-2" d="M650.13,69.23v7.51h-2v-7.55c0-.87,0-3.2-2.46-3.2-1.09,0-2.15.45-3.22,1.51v9.25h-2v-10.93l1.92-.57h.08v1.83c1.18-1.15,2.4-1.85,4.08-1.85,2.34,0,3.6,1.27,3.6,4.01Z"/><path class="cls-2" d="M652.76,79.63c.82-.51,1.24-1.19,1.24-1.91,0-.81-.59-1.59-1.52-2.16l1.1-1.38c1.12.45,1.81,1.36,1.81,2.44,0,1.34-1.18,2.5-2.53,3.16l-.11-.15Z"/><path class="cls-2" d="M672.43,69.23v7.51h-2v-7.55c0-.87,0-3.2-2.46-3.2-1.09,0-2.15.45-3.22,1.51v9.25h-2v-10.93l1.92-.57h.08v1.83c1.18-1.15,2.4-1.85,4.08-1.85,2.34,0,3.6,1.27,3.6,4.01Z"/><path class="cls-2" d="M676.96,70.32v.38c0,3.52,1.71,5.39,3.98,5.39,1.26,0,2.76-.64,3.73-2.04l.25.15c-1.2,1.85-2.86,2.8-4.84,2.8-3.01,0-5.24-2.27-5.24-5.71,0-3.67,2.42-6.07,5.66-6.07,3.03,0,4.59,2.1,4.55,5.09h-8.09ZM676.99,69.98h6.15c.13-2.68-1.01-4.44-2.8-4.44s-3.14,1.85-3.35,4.44Z"/><path class="cls-2" d="M701.71,65.48c-.82,1.82-1.47,3.5-2.63,6.47l-1.98,5.12h-.15l-3.08-8.36-3.16,8.36h-.15l-4.59-11.59h2.13l3.35,8.53,3.18-8.53h.13l3.14,8.47.82-2.17c1.2-3.1,1.64-5.03,1.75-6.3h1.24Z"/><path class="cls-2" d="M716.71,76.94l-.55-1.74c-1.03,1.12-2.29,1.8-3.77,1.8-2.74,0-4.8-2.36-4.8-5.69,0-3.63,2.48-6.09,5.43-6.09,1.22,0,2.27.43,3.1,1.17v-6.2l1.92-.64h.08v15.26l.46,1.53-1.87.59ZM716.12,74.71v-6.98c-.53-1.29-1.6-2.14-2.91-2.14-2.06,0-3.47,2.1-3.47,5.52s1.39,5.2,3.31,5.2c1.05,0,2.15-.53,3.07-1.59Z"/><path class="cls-2" d="M722.76,70.32v.38c0,3.52,1.71,5.39,3.98,5.39,1.26,0,2.76-.64,3.73-2.04l.25.15c-1.2,1.85-2.86,2.8-4.84,2.8-3.01,0-5.24-2.27-5.24-5.71,0-3.67,2.42-6.07,5.66-6.07,3.03,0,4.59,2.1,4.55,5.09h-8.09ZM722.78,69.98h6.15c.13-2.68-1.01-4.44-2.8-4.44s-3.14,1.85-3.35,4.44Z"/><path class="cls-2" d="M732.51,75.98l.32-1.08c.86,1.02,2.21,1.8,3.87,1.8s2.74-.89,2.74-2.17c0-1.36-1.29-1.91-2.61-2.46l-.86-.36c-1.37-.6-3.24-1.38-3.24-3.4,0-1.78,1.52-3.1,3.92-3.1,1.5,0,2.91.47,3.64.89l-.29,1c-.74-.72-2.04-1.59-3.54-1.59s-2.38.89-2.38,1.93c0,1.34,1.45,1.87,2.63,2.38l.84.36c1.33.55,3.24,1.36,3.24,3.46,0,1.93-1.6,3.35-4.3,3.35-1.41,0-3.03-.4-3.98-1.02Z"/><path class="cls-2" d="M742.68,62.02l1.43-1.44,1.43,1.44-1.43,1.44-1.43-1.44ZM743.12,65.82l1.9-.57h.08v11.5h-1.98v-10.93Z"/><path class="cls-2" d="M757.82,77.79c0,2.33-2.63,4.05-5.92,4.05-2.7,0-4.78-1.17-4.78-3.06,0-.45.1-.91.34-1.42l1.18-.34h.08c-.21.57-.34,1.1-.34,1.59,0,1.72,1.29,2.88,3.52,2.88,2.76,0,4.61-1.14,4.61-2.91,0-1.15-.88-1.8-2.76-1.91l-3.31-.21c-1.47-.08-2.46-.64-2.46-1.74,0-.81.5-1.36,1.5-1.95l.42-.25c-1.29-.64-2.13-1.85-2.13-3.38,0-2.31,1.94-3.93,4.51-3.93,1.12,0,2.13.3,2.88.85.55-.79,1.41-1.53,2.82-1.53l-.19,1.7c-.4-.13-.84-.23-1.22-.23-.46,0-.84.09-1.14.28.8.68,1.28,1.68,1.28,2.84,0,2.29-1.94,3.9-4.51,3.9-.72,0-1.37-.13-1.96-.36l-.46.32c-.48.32-.61.64-.61.95,0,.45.34.76,1.47.83l3.47.21c2.36.13,3.68,1.04,3.68,2.8ZM749.68,69.13c0,2.12,1.01,3.57,2.59,3.57s2.57-1.42,2.57-3.54-1.01-3.59-2.59-3.59-2.57,1.44-2.57,3.57Z"/><path class="cls-2" d="M769.68,69.23v7.51h-2v-7.55c0-.87,0-3.2-2.46-3.2-1.09,0-2.15.45-3.22,1.51v9.25h-2v-10.93l1.92-.57h.08v1.83c1.18-1.15,2.4-1.85,4.08-1.85,2.34,0,3.6,1.27,3.6,4.01Z"/><path class="cls-2" d="M771.94,75.98l.32-1.08c.86,1.02,2.21,1.8,3.87,1.8s2.74-.89,2.74-2.17c0-1.36-1.28-1.91-2.61-2.46l-.86-.36c-1.37-.6-3.24-1.38-3.24-3.4,0-1.78,1.52-3.1,3.92-3.1,1.5,0,2.91.47,3.64.89l-.29,1c-.74-.72-2.04-1.59-3.54-1.59s-2.38.89-2.38,1.93c0,1.34,1.45,1.87,2.63,2.38l.84.36c1.33.55,3.24,1.36,3.24,3.46,0,1.93-1.6,3.35-4.3,3.35-1.41,0-3.03-.4-3.98-1.02Z"/><path class="cls-2" d="M800.54,74.78v2.44h-.08l-2.76-2.36c-1.26,1.38-3.14,2.14-5.43,2.14-2.97,0-5.22-1.57-5.22-4.12,0-1.93,1.33-3.37,3.43-4.24-1.01-1.04-1.83-2.25-1.83-3.78,0-2.23,1.81-3.82,4.02-3.82s3.92,1.42,3.92,3.35-1.81,3.04-3.31,3.48l-.23-.21c1.33-.62,2.15-1.63,2.15-3.12,0-1.89-1.07-3.21-2.63-3.21-1.7,0-2.51,1.44-2.51,2.72,0,1.74,1.56,3.1,2.61,3.99l5.87,5.01c.38-.85.61-1.89.61-3.12,0-1.29-.46-2.14-.69-2.59l1.03-.4h.08v2.57c0,1.42-.27,2.7-.8,3.76l1.77,1.51ZM797.44,74.65l-5.58-4.75c-.38-.32-.8-.68-1.18-1.04-1.35.85-1.81,2.21-1.81,3.44,0,2.48,1.73,4.14,4.11,4.14,1.6,0,3.26-.55,4.46-1.78Z"/><path class="cls-2" d="M824.76,69.23v7.51h-1.98v-7.55c0-.87-.02-3.2-2.46-3.2-1.14,0-2.08.49-3.22,1.7.11.45.17.96.17,1.55v7.51h-2v-7.55c0-.87,0-3.2-2.44-3.2-1.09,0-2,.45-3.05,1.48v9.28h-2v-10.93l1.92-.57h.08v1.83c1.14-1.15,2.25-1.85,3.94-1.85s2.78.68,3.29,2.08c1.24-1.27,2.4-2.08,4.21-2.08,2.32,0,3.56,1.27,3.56,4.01Z"/><path class="cls-2" d="M827.19,71.19c0-3.59,2.46-5.96,5.75-5.96s5.56,2.23,5.56,5.84-2.46,5.94-5.75,5.94-5.56-2.21-5.56-5.82ZM836.35,71.19c0-3.4-1.45-5.67-3.54-5.67s-3.47,2.19-3.47,5.54,1.45,5.65,3.54,5.65,3.47-2.19,3.47-5.52Z"/><path class="cls-2" d="M847.34,65.39l-.59,1.57c-.38-.17-.82-.25-1.16-.25-1.14,0-2.11.83-2.63,1.95v8.09h-2v-10.93l1.87-.57h.08v2.8c.78-1.72,1.96-2.78,3.43-2.78.38,0,.74.06.99.13Z"/><path class="cls-2" d="M849.79,70.32v.38c0,3.52,1.71,5.39,3.98,5.39,1.26,0,2.76-.64,3.73-2.04l.25.15c-1.2,1.85-2.86,2.8-4.84,2.8-3.01,0-5.24-2.27-5.24-5.71,0-3.67,2.42-6.07,5.66-6.07,3.03,0,4.59,2.1,4.55,5.09h-8.09ZM849.81,69.98h6.15c.13-2.68-1.01-4.44-2.8-4.44s-3.14,1.85-3.35,4.44Z"/><path class="cls-2" d="M864.91,62.02l1.43-1.44,1.43,1.44-1.43,1.44-1.43-1.44ZM865.35,65.82l1.89-.57h.08v11.5h-1.98v-10.93Z"/><path class="cls-2" d="M880.14,69.23v7.51h-2v-7.55c0-.87,0-3.2-2.46-3.2-1.1,0-2.15.45-3.22,1.51v9.25h-2v-10.93l1.92-.57h.08v1.83c1.18-1.15,2.4-1.85,4.08-1.85,2.34,0,3.6,1.27,3.6,4.01Z"/><path class="cls-2" d="M882.39,75.98l.32-1.08c.86,1.02,2.21,1.8,3.88,1.8s2.74-.89,2.74-2.17c0-1.36-1.28-1.91-2.61-2.46l-.86-.36c-1.37-.6-3.24-1.38-3.24-3.4,0-1.78,1.52-3.1,3.92-3.1,1.5,0,2.91.47,3.64.89l-.29,1c-.74-.72-2.04-1.59-3.54-1.59s-2.38.89-2.38,1.93c0,1.34,1.45,1.87,2.63,2.38l.84.36c1.33.55,3.24,1.36,3.24,3.46,0,1.93-1.6,3.35-4.3,3.35-1.41,0-3.03-.4-3.98-1.02Z"/><path class="cls-2" d="M903.47,70.93c0,3.63-2.48,6.07-5.43,6.07-1.22,0-2.27-.43-3.1-1.17v5.75h-2v-15.77l1.92-.57h.08v1.76c1.03-1.1,2.27-1.78,3.73-1.78,2.74,0,4.8,2.36,4.8,5.71ZM901.33,71.12c0-3.46-1.37-5.2-3.26-5.2-1.05,0-2.19.53-3.12,1.61v6.96c.53,1.32,1.6,2.17,2.91,2.17,2.06,0,3.47-2.12,3.47-5.54Z"/><path class="cls-2" d="M905.56,62.02l1.43-1.44,1.43,1.44-1.43,1.44-1.43-1.44ZM906.01,65.82l1.89-.57h.09v11.5h-1.98v-10.93Z"/><path class="cls-2" d="M917.48,65.39l-.59,1.57c-.38-.17-.82-.25-1.16-.25-1.14,0-2.11.83-2.63,1.95v8.09h-2v-10.93l1.87-.57h.08v2.8c.78-1.72,1.96-2.78,3.43-2.78.38,0,.74.06.99.13Z"/><path class="cls-2" d="M928.08,76.24v.13c-.34.21-.99.53-1.75.53-1.35,0-1.62-1-1.66-1.57-1.09,1.04-2.57,1.63-3.9,1.63-1.77,0-2.95-1.04-2.95-2.61,0-1.97,1.87-3.21,4.76-3.52.76-.08,1.43-.13,2.06-.19v-1.21c0-2.1-.61-3.5-2.7-3.5-1.14,0-2.13.4-3.16,1.27l-.19-.23c1.14-1.06,2.32-1.74,4.13-1.74,2.59,0,3.92,1.27,3.92,4.01v5.43c0,1.02,0,1.61,1.03,1.61.15,0,.27-.02.4-.04ZM924.64,74.92v-3.97c-2.86.3-4.84,1-4.84,3.05,0,1.49.93,2.19,2.06,2.19.91,0,1.92-.43,2.78-1.27Z"/><path class="cls-2" d="M936.04,76.01c-.88.59-1.77,1-2.95,1-2.59,0-2.74-2-2.74-2.91v-8.15h-1.62v-.36l1.54-.11,2-3.61h.08v3.61h3.6l-.27.47h-3.33v8.11c0,.62,0,2.23,1.71,2.23.48,0,1.12-.13,1.81-.53l.17.26Z"/><path class="cls-2" d="M937.33,62.02l1.43-1.44,1.43,1.44-1.43,1.44-1.43-1.44ZM937.77,65.82l1.89-.57h.09v11.5h-1.98v-10.93Z"/><path class="cls-2" d="M942.3,71.19c0-3.59,2.46-5.96,5.75-5.96s5.56,2.23,5.56,5.84-2.46,5.94-5.75,5.94-5.56-2.21-5.56-5.82ZM951.46,71.19c0-3.4-1.45-5.67-3.54-5.67s-3.47,2.19-3.47,5.54,1.45,5.65,3.54,5.65,3.47-2.19,3.47-5.52Z"/><path class="cls-2" d="M965.76,69.23v7.51h-2v-7.55c0-.87,0-3.2-2.46-3.2-1.1,0-2.15.45-3.22,1.51v9.25h-2v-10.93l1.92-.57h.08v1.83c1.18-1.15,2.4-1.85,4.09-1.85,2.34,0,3.6,1.27,3.6,4.01Z"/><line class="cls-1" x1="168.03" y1="70.99" x2="247.79" y2="70.99"/></g></svg>