<?xml version="1.0" encoding="UTF-8"?><svg id="_圖層_2" xmlns="http://www.w3.org/2000/svg" viewBox="0 0 138.65 84.41"><defs><style>.cls-1{fill:none;}.cls-2{fill:#fff;}</style></defs><g id="_圖層_1-2"><path class="cls-1" d="M96.45,0h-54.25C18.89,0,0,18.9,0,42.2s18.89,42.2,42.2,42.2h54.25c23.31,0,42.2-18.9,42.2-42.2S119.76,0,96.45,0Z"/><path class="cls-2" d="M39.9,36.09c0,3.51-2.77,5.78-7.22,5.78-.79,0-1.66-.08-2.23-.16v8h-2.61v-18.78h4.84c4.79,0,7.22,1.86,7.22,5.16ZM37.14,36.4c0-2.97-1.49-5.06-4.84-5.06h-1.84v9.93c.46.1,1.05.18,1.79.18,3.25,0,4.89-1.91,4.89-5.06Z"/><path class="cls-2" d="M56.62,49.22l-2.28.72-.72-2.25v-.05c-1.25,1.37-2.94,2.37-4.92,2.37-2.84,0-4.38-1.55-4.38-4.85v-8.75l2.33-.7h.1v9.5c0,1.06,0,3.9,3,3.9,1.28,0,2.74-.8,3.87-2.06v-10.63l2.33-.7h.1v11.64l.56,1.86Z"/><path class="cls-2" d="M69.35,35.91l-.72,1.91c-.46-.21-1-.31-1.41-.31-1.38,0-2.56,1.01-3.2,2.37v9.83h-2.43v-13.29l2.28-.7h.1v3.41c.95-2.09,2.38-3.38,4.17-3.38.46,0,.9.08,1.2.15Z"/><path class="cls-2" d="M86.23,42.64c0,4.41-3.02,7.38-6.61,7.38-1.48,0-2.76-.52-3.76-1.42v6.99h-2.43v-19.17l2.33-.7h.1v2.14c1.25-1.34,2.77-2.17,4.53-2.17,3.33,0,5.84,2.86,5.84,6.94ZM83.62,42.87c0-4.21-1.66-6.32-3.97-6.32-1.28,0-2.66.64-3.79,1.96v8.46c.64,1.6,1.95,2.63,3.53,2.63,2.51,0,4.23-2.58,4.23-6.73Z"/><path class="cls-2" d="M91.09,29.59l2.33-.77h.1v20.9h-2.43v-20.13Z"/><path class="cls-2" d="M100.98,41.89v.46c0,4.28,2.07,6.55,4.84,6.55,1.54,0,3.35-.77,4.53-2.48l.31.18c-1.46,2.25-3.48,3.41-5.89,3.41-3.66,0-6.37-2.76-6.37-6.94,0-4.46,2.94-7.38,6.89-7.38,3.69,0,5.58,2.55,5.53,6.19h-9.83ZM101,41.48h7.48c.15-3.25-1.23-5.39-3.41-5.39s-3.82,2.25-4.07,5.39Z"/></g></svg>