<?xml version="1.0" encoding="UTF-8"?><svg id="_圖層_2" xmlns="http://www.w3.org/2000/svg" viewBox="0 0 138.65 84.41"><defs><style>.cls-1{fill:none;}.cls-2{fill:#fff;}</style></defs><g id="_圖層_1-2"><path class="cls-1" d="M96.45,0h-54.25C18.89,0,0,18.9,0,42.2s18.89,42.2,42.2,42.2h54.25c23.31,0,42.2-18.9,42.2-42.2S119.76,0,96.45,0Z"/><path class="cls-2" d="M52.8,22.81c-1,2.22-1.79,4.26-3.2,7.87l-2.41,6.22h-.18l-3.74-10.17-3.84,10.17h-.18l-5.58-14.09h2.59l4.07,10.37,3.87-10.37h.15l3.81,10.29,1-2.63c1.46-3.77,2-6.12,2.12-7.66h1.51Z"/><path class="cls-2" d="M67.52,35.9v.15c-.41.26-1.2.65-2.12.65-1.64,0-1.97-1.21-2.02-1.91-1.33,1.26-3.12,1.99-4.74,1.99-2.15,0-3.58-1.26-3.58-3.17,0-2.4,2.28-3.9,5.79-4.28.92-.1,1.74-.15,2.51-.23v-1.47c0-2.55-.74-4.26-3.28-4.26-1.38,0-2.59.49-3.84,1.55l-.23-.28c1.38-1.29,2.82-2.12,5.02-2.12,3.15,0,4.76,1.55,4.76,4.88v6.61c0,1.24,0,1.96,1.25,1.96.18,0,.33-.03.49-.05ZM63.35,34.3v-4.83c-3.48.36-5.89,1.21-5.89,3.72,0,1.81,1.13,2.66,2.51,2.66,1.1,0,2.33-.52,3.38-1.55Z"/><path class="cls-2" d="M79.51,22.71l-.72,1.91c-.46-.21-1-.31-1.41-.31-1.38,0-2.56,1.01-3.2,2.37v9.83h-2.43v-13.29l2.28-.7h.1v3.41c.95-2.09,2.38-3.38,4.17-3.38.46,0,.9.08,1.2.15Z"/><path class="cls-2" d="M104.24,27.38v9.13h-2.41v-9.19c0-1.06-.03-3.9-3-3.9-1.38,0-2.54.59-3.92,2.06.13.54.2,1.16.2,1.88v9.13h-2.43v-9.19c0-1.06,0-3.9-2.97-3.9-1.33,0-2.43.54-3.71,1.81v11.28h-2.43v-13.29l2.33-.7h.1v2.22c1.38-1.39,2.74-2.25,4.79-2.25s3.38.83,4,2.53c1.51-1.55,2.92-2.53,5.12-2.53,2.82,0,4.33,1.55,4.33,4.88Z"/><path class="cls-2" d="M52.8,47.81c-1,2.22-1.79,4.26-3.2,7.87l-2.41,6.22h-.18l-3.74-10.17-3.84,10.17h-.18l-5.58-14.09h2.59l4.07,10.37,3.87-10.37h.15l3.81,10.29,1-2.63c1.46-3.77,2-6.12,2.12-7.66h1.51Z"/><path class="cls-2" d="M68.62,52.38v9.13h-2.41v-9.19c0-1.06-.03-3.9-3-3.9-1.36,0-2.61.54-3.94,1.83v11.25h-2.41v-20.13l2.3-.77h.1v9.16c1.43-1.39,2.92-2.27,4.99-2.27,2.82,0,4.35,1.55,4.35,4.88Z"/><path class="cls-2" d="M73.59,43.61l1.74-1.75,1.74,1.75-1.74,1.75-1.74-1.75ZM74.13,48.23l2.3-.7h.1v13.99h-2.41v-13.29Z"/><path class="cls-2" d="M89.95,60.61c-1.08.72-2.15,1.21-3.58,1.21-3.15,0-3.33-2.43-3.33-3.54v-9.91h-1.97v-.44l1.87-.13,2.43-4.39h.1v4.39h4.38l-.33.57h-4.04v9.86c0,.75,0,2.71,2.07,2.71.59,0,1.36-.16,2.2-.65l.2.31Z"/><path class="cls-2" d="M95.15,53.7v.46c0,4.28,2.07,6.55,4.84,6.55,1.54,0,3.35-.77,4.53-2.48l.31.18c-1.46,2.25-3.48,3.41-5.89,3.41-3.66,0-6.38-2.76-6.38-6.94,0-4.46,2.94-7.38,6.89-7.38,3.69,0,5.58,2.55,5.53,6.19h-9.83ZM95.18,53.28h7.48c.15-3.25-1.23-5.39-3.41-5.39s-3.82,2.25-4.07,5.39Z"/></g></svg>