<?xml version="1.0" encoding="UTF-8"?><svg id="_圖層_2" xmlns="http://www.w3.org/2000/svg" viewBox="0 0 138.65 84.41"><defs><style>.cls-1{fill:none;}.cls-2{fill:#fff;}</style></defs><g id="_圖層_1-2"><path class="cls-1" d="M96.45,0h-54.25C18.89,0,0,18.9,0,42.2s18.89,42.2,42.2,42.2h54.25c23.31,0,42.2-18.9,42.2-42.2S119.76,0,96.45,0Z"/><path class="cls-2" d="M29.27,31.65l1.74-1.75,1.74,1.75-1.74,1.75-1.74-1.75ZM29.8,36.27l2.3-.7h.1v13.99h-2.41v-13.29Z"/><path class="cls-2" d="M49.57,40.42v9.13h-2.43v-9.19c0-1.06,0-3.9-3-3.9-1.33,0-2.61.54-3.92,1.83v11.25h-2.43v-13.29l2.33-.7h.1v2.22c1.43-1.39,2.92-2.25,4.97-2.25,2.84,0,4.38,1.55,4.38,4.88Z"/><path class="cls-2" d="M65.37,49.79l-.66-2.12c-1.25,1.37-2.79,2.19-4.58,2.19-3.33,0-5.84-2.86-5.84-6.92,0-4.41,3.02-7.41,6.61-7.41,1.49,0,2.77.52,3.76,1.42v-7.53l2.33-.77h.1v18.55l.56,1.86-2.28.72ZM64.65,47.08v-8.49c-.64-1.57-1.95-2.61-3.53-2.61-2.51,0-4.22,2.55-4.22,6.71s1.69,6.32,4.02,6.32c1.28,0,2.61-.64,3.74-1.93Z"/><path class="cls-2" d="M72.16,31.65l1.74-1.75,1.74,1.75-1.74,1.75-1.74-1.75ZM72.7,36.27l2.3-.7h.1v13.99h-2.41v-13.29Z"/><path class="cls-2" d="M92.36,50.82c0,2.84-3.2,4.93-7.19,4.93-3.28,0-5.81-1.42-5.81-3.72,0-.54.13-1.11.41-1.73l1.43-.41h.1c-.26.7-.41,1.34-.41,1.94,0,2.09,1.56,3.51,4.28,3.51,3.35,0,5.61-1.39,5.61-3.53,0-1.39-1.08-2.19-3.35-2.32l-4.02-.26c-1.79-.1-3-.77-3-2.12,0-.98.61-1.65,1.82-2.37l.51-.31c-1.56-.77-2.59-2.25-2.59-4.1,0-2.81,2.36-4.77,5.48-4.77,1.36,0,2.59.36,3.51,1.03.66-.96,1.71-1.86,3.43-1.86l-.23,2.06c-.49-.15-1.02-.28-1.49-.28-.56,0-1.02.1-1.38.33.97.83,1.56,2.04,1.56,3.46,0,2.79-2.36,4.75-5.48,4.75-.87,0-1.66-.15-2.38-.44l-.56.39c-.59.39-.74.77-.74,1.16,0,.54.41.93,1.79,1.01l4.22.26c2.87.16,4.48,1.26,4.48,3.41ZM82.45,40.29c0,2.58,1.23,4.33,3.15,4.33s3.12-1.73,3.12-4.31-1.23-4.36-3.15-4.36-3.12,1.75-3.12,4.33Z"/><path class="cls-2" d="M95.64,42.8c0-4.36,3-7.25,6.99-7.25s6.76,2.71,6.76,7.1-3,7.22-6.99,7.22-6.76-2.68-6.76-7.07ZM106.78,42.8c0-4.13-1.77-6.89-4.3-6.89s-4.22,2.66-4.22,6.73,1.77,6.86,4.3,6.86,4.22-2.66,4.22-6.71Z"/></g></svg>