<?xml version="1.0" encoding="UTF-8"?><svg id="_圖層_2" xmlns="http://www.w3.org/2000/svg" viewBox="0 0 138.65 84.41"><defs><style>.cls-1{fill:none;}.cls-2{fill:#fff;}</style></defs><g id="_圖層_1-2"><path class="cls-1" d="M96.45,0h-54.25C18.89,0,0,18.9,0,42.2s18.89,42.2,42.2,42.2h54.25c23.31,0,42.2-18.9,42.2-42.2S119.76,0,96.45,0Z"/><path class="cls-2" d="M54.87,42.43c0,4.41-3.02,7.38-6.61,7.38-1.97,0-3.51-.67-4.66-1.81l-1.43,1.6h-.1v-20.23l2.3-.77h.1v9.06c1.25-1.34,2.79-2.17,4.56-2.17,3.33,0,5.84,2.86,5.84,6.94ZM52.26,42.66c0-4.21-1.69-6.32-3.99-6.32-1.28,0-2.66.64-3.79,1.99v8.46c.67,1.57,1.97,2.61,3.56,2.61,2.48,0,4.22-2.58,4.22-6.73Z"/><path class="cls-2" d="M59.74,29.37l2.33-.77h.1v20.9h-2.43v-20.13Z"/><path class="cls-2" d="M79.89,49.01l-2.28.72-.72-2.25v-.05c-1.25,1.37-2.94,2.37-4.92,2.37-2.84,0-4.38-1.55-4.38-4.85v-8.75l2.33-.7h.1v9.5c0,1.06,0,3.9,3,3.9,1.28,0,2.74-.8,3.87-2.06v-10.63l2.33-.7h.1v11.64l.56,1.86Z"/><path class="cls-2" d="M86.75,41.68v.46c0,4.28,2.07,6.55,4.84,6.55,1.54,0,3.35-.77,4.53-2.48l.31.18c-1.46,2.25-3.48,3.41-5.89,3.41-3.66,0-6.37-2.76-6.37-6.94,0-4.46,2.94-7.38,6.89-7.38,3.69,0,5.58,2.55,5.53,6.19h-9.83ZM86.78,41.27h7.48c.15-3.25-1.23-5.39-3.41-5.39s-3.82,2.25-4.07,5.39Z"/></g></svg>