<?xml version="1.0" encoding="UTF-8"?><svg id="_圖層_2" xmlns="http://www.w3.org/2000/svg" viewBox="0 0 138.65 84.41"><defs><style>.cls-1{fill:none;}.cls-2{fill:#fff;}</style></defs><g id="_圖層_1-2"><path class="cls-1" d="M96.45,0h-54.25C18.89,0,0,18.9,0,42.2s18.89,42.2,42.2,42.2h54.25c23.31,0,42.2-18.9,42.2-42.2S119.76,0,96.45,0Z"/><path class="cls-2" d="M46,50.79c0,2.84-3.2,4.93-7.19,4.93-3.28,0-5.81-1.42-5.81-3.72,0-.54.13-1.11.41-1.73l1.43-.41h.1c-.26.7-.41,1.34-.41,1.94,0,2.09,1.56,3.51,4.28,3.51,3.35,0,5.61-1.39,5.61-3.53,0-1.39-1.08-2.19-3.35-2.32l-4.02-.26c-1.79-.1-3-.77-3-2.12,0-.98.61-1.65,1.82-2.37l.51-.31c-1.56-.77-2.59-2.25-2.59-4.1,0-2.81,2.36-4.77,5.48-4.77,1.36,0,2.59.36,3.51,1.03.66-.96,1.71-1.86,3.43-1.86l-.23,2.06c-.49-.15-1.02-.28-1.49-.28-.56,0-1.02.1-1.38.33.97.83,1.56,2.04,1.56,3.46,0,2.79-2.36,4.75-5.48,4.75-.87,0-1.66-.15-2.38-.44l-.56.39c-.59.39-.74.77-.74,1.16,0,.54.41.93,1.79,1.01l4.22.26c2.87.16,4.48,1.26,4.48,3.41ZM36.09,40.26c0,2.58,1.23,4.33,3.15,4.33s3.12-1.73,3.12-4.31-1.23-4.36-3.15-4.36-3.12,1.75-3.12,4.33Z"/><path class="cls-2" d="M58.19,35.72l-.72,1.91c-.46-.21-1-.31-1.41-.31-1.38,0-2.56,1.01-3.2,2.37v9.83h-2.43v-13.29l2.28-.7h.1v3.41c.95-2.09,2.38-3.38,4.17-3.38.46,0,.9.08,1.2.15Z"/><path class="cls-2" d="M62.95,41.71v.46c0,4.28,2.07,6.55,4.84,6.55,1.54,0,3.35-.77,4.53-2.48l.31.18c-1.46,2.25-3.48,3.41-5.89,3.41-3.66,0-6.37-2.76-6.37-6.94,0-4.46,2.94-7.38,6.89-7.38,3.69,0,5.58,2.55,5.53,6.19h-9.83ZM62.98,41.29h7.48c.15-3.25-1.23-5.39-3.41-5.39s-3.82,2.25-4.07,5.39Z"/><path class="cls-2" d="M79.37,41.71v.46c0,4.28,2.07,6.55,4.84,6.55,1.54,0,3.35-.77,4.53-2.48l.31.18c-1.46,2.25-3.48,3.41-5.89,3.41-3.66,0-6.38-2.76-6.38-6.94,0-4.46,2.94-7.38,6.89-7.38,3.69,0,5.58,2.55,5.53,6.19h-9.83ZM79.39,41.29h7.48c.15-3.25-1.23-5.39-3.41-5.39s-3.82,2.25-4.07,5.39Z"/><path class="cls-2" d="M105.66,40.39v9.13h-2.43v-9.19c0-1.06,0-3.9-3-3.9-1.33,0-2.61.54-3.92,1.83v11.25h-2.43v-13.29l2.33-.7h.1v2.22c1.43-1.39,2.92-2.25,4.97-2.25,2.84,0,4.38,1.55,4.38,4.88Z"/></g></svg>