<?xml version="1.0" encoding="UTF-8"?><svg id="_圖層_2" xmlns="http://www.w3.org/2000/svg" viewBox="0 0 138.65 84.41"><defs><style>.cls-1{fill:none;}.cls-2{fill:#fff;}</style></defs><g id="_圖層_1-2"><path class="cls-1" d="M96.45,0h-54.25C18.89,0,0,18.9,0,42.2s18.89,42.2,42.2,42.2h54.25c23.31,0,42.2-18.9,42.2-42.2S119.76,0,96.45,0Z"/><path class="cls-2" d="M57.23,35.69l-.72,1.91c-.46-.21-1-.31-1.41-.31-1.38,0-2.56,1.01-3.2,2.37v9.83h-2.43v-13.29l2.28-.7h.1v3.41c.95-2.09,2.38-3.38,4.17-3.38.46,0,.9.08,1.2.15Z"/><path class="cls-2" d="M61.99,41.68v.46c0,4.28,2.07,6.55,4.84,6.55,1.54,0,3.35-.77,4.53-2.48l.31.18c-1.46,2.25-3.48,3.41-5.89,3.41-3.66,0-6.37-2.76-6.37-6.94,0-4.46,2.94-7.38,6.89-7.38,3.69,0,5.58,2.55,5.53,6.19h-9.83ZM62.02,41.27h7.48c.15-3.25-1.23-5.39-3.41-5.39s-3.82,2.25-4.07,5.39Z"/><path class="cls-2" d="M86.91,49.73l-.66-2.12c-1.25,1.37-2.79,2.19-4.58,2.19-3.33,0-5.84-2.86-5.84-6.92,0-4.41,3.02-7.41,6.61-7.41,1.49,0,2.77.52,3.76,1.42v-7.53l2.33-.77h.1v18.55l.56,1.86-2.28.72ZM86.19,47.02v-8.49c-.64-1.57-1.95-2.61-3.53-2.61-2.51,0-4.22,2.55-4.22,6.71s1.69,6.32,4.02,6.32c1.28,0,2.61-.64,3.74-1.93Z"/></g></svg>