<?xml version="1.0" encoding="UTF-8"?><svg id="_圖層_2" xmlns="http://www.w3.org/2000/svg" viewBox="0 0 203.94 19.76"><g id="_圖層_1-2"><path d="M2.61.88v8.62h.92c2.77,0,4.58-.18,5.38-.52h.05v1.6h-.05c-.79-.33-2.61-.62-5.38-.62h-.92v9.24H0V.41h10.29l.33,1.62h-.05c-2.36-.8-4.76-1.16-6.96-1.16h-1Z"/><path d="M24.68,17.26l-.49,1.94h-8.91V.41h2.61v18.32h.49c1.54,0,3.58-.28,6.25-1.47h.05Z"/><path d="M29.37.41h2.61v18.78h-2.61V.41Z"/><path d="M37.36,9.96C37.36,3.95,41.43.1,46.83.1c3.02,0,5.53,1.34,6.99,3.02l-1.28,1.16c-1.31-2.19-3.35-3.77-5.84-3.77-3.92,0-6.48,3.77-6.48,8.8,0,5.7,3.1,9.06,7.22,9.06,2.23,0,4.66-.95,6.32-3.53l.31.18c-1.69,2.76-4.3,4.49-7.78,4.49-5.12,0-8.94-3.74-8.94-9.55Z"/><path d="M58.77.41h2.61v18.78h-2.61V.41ZM66.19,6.45l-1.84,1.78,8.48,8.2v3.33h-.15l-10.47-10.19,3.66-3.51c2.77-2.63,4.2-4.39,4.92-5.65h2.05v.05c-2.18,1.81-4.25,3.71-6.63,5.99Z"/><path d="M89.16,17.47l-.49,1.73h-11.04V.41h10.73l.31,1.62h-.05c-2.36-.8-4.74-1.16-6.96-1.16h-1.41v8.31h1.18c2.77,0,4.58-.18,5.38-.52h.05v1.6h-.05c-.79-.33-2.61-.62-5.38-.62h-1.18v9.08h1.49c2.2,0,4.92-.33,7.37-1.26h.05Z"/><path d="M107.4,16.49v3.28h-.15l-7.58-8.51c-.36-.41-.61-.54-1.33-.54h-1.72v8.49h-2.61V.41h4.58c4.92,0,7.55,1.55,7.55,4.75,0,2.66-2.05,4.05-4.48,4.9l5.74,6.42ZM103.5,5.34c0-2.73-1.64-4.51-5.02-4.51h-1.87v9.31c.59.1,1.84.15,2.36.15,2.79,0,4.53-2.27,4.53-4.95Z"/><path d="M122.86.88v8.62h.92c2.76,0,4.58-.18,5.38-.52h.05v1.6h-.05c-.79-.33-2.61-.62-5.38-.62h-.92v9.24h-2.61V.41h10.29l.33,1.62h-.05c-2.36-.8-4.76-1.16-6.96-1.16h-1Z"/><path d="M144.94,17.26l-.49,1.94h-8.91V.41h2.61v18.32h.49c1.54,0,3.58-.28,6.25-1.47h.05Z"/><path d="M158.23,13.03h-7.27c-1.13,3.02-1.43,4.64-1.51,6.17h-1.77c1.23-2.58,2.2-4.98,3.53-8.23l4.46-10.97h.1l7.76,19.2h-2.84l-2.46-6.17ZM158.05,12.57l-3.46-8.62-2.89,7.2-.56,1.42h6.91Z"/><path d="M184.29,19.2l-1.59-17.16-6.27,15.97h-.1l-6.94-15.33-.72,8.28c-.33,3.61-.31,6.17-.1,8.23h-1.54c.46-2.06.79-4.64,1.13-8.26l.82-9.24-.56-1.21v-.08h2.82l6.17,13.8,5.4-13.8h2.36l1.74,18.78h-2.61Z"/><path d="M203.94,17.47l-.49,1.73h-11.04V.41h10.73l.31,1.62h-.05c-2.36-.8-4.74-1.16-6.96-1.16h-1.41v8.31h1.18c2.77,0,4.58-.18,5.38-.52h.05v1.6h-.05c-.79-.33-2.61-.62-5.38-.62h-1.18v9.08h1.49c2.2,0,4.92-.33,7.37-1.26h.05Z"/></g></svg>