<?xml version="1.0" encoding="UTF-8"?><svg id="_圖層_2" xmlns="http://www.w3.org/2000/svg" viewBox="0 0 509.82 155.59"><defs><style>.cls-1{fill:#fff;}</style></defs><g id="_圖層_1-2"><path class="cls-1" d="M0,48.04V1.24h15.22v35.88h20.9v10.92H0Z"/><path class="cls-1" d="M44.95,48.04V1.24h37.86v10.92h-22.64v6.69h19.16v10.92h-19.16v7.35h23.54v10.92h-38.76Z"/><path class="cls-1" d="M92.74,48.04V1.24h20.38c14.96,0,24.25,7.02,24.25,22.43,0,17.62-9.74,24.38-24.64,24.38h-19.99ZM107.96,37.12h3.23c7.09,0,10.96-3.77,10.96-12.61,0-9.75-3.16-12.35-11.29-12.35h-2.9v24.96Z"/><path class="cls-1" d="M192.77,14.82c-.26-1.63-1.1-2.6-2.19-3.19-1.1-.59-2.45-.84-3.93-.84-3.35,0-4.84.97-4.84,2.66,0,7.02,26.7,2.66,26.7,19.7,0,10.86-8.97,16.12-21.74,16.12s-20.25-7.22-20.58-15.67h14.58c.32,1.69,1.23,2.92,2.52,3.71,1.23.78,2.84,1.17,4.32,1.17,3.81,0,6.32-1.23,6.32-3.44,0-7.09-26.7-2.21-26.7-20.09,0-9.95,8.51-14.95,20.12-14.95,12.9,0,18.77,6.63,19.87,14.82h-14.45Z"/><path class="cls-1" d="M227.47,13.98v5.07h.13c1.87-4.16,6.71-6.04,10.58-6.04,10.19,0,15.09,8.38,15.09,17.75,0,13.39-8.26,18.27-15.8,18.27-3.68,0-6.39-1.49-8.64-4.35v14.95h-13.42V13.98h12.06ZM239.85,30.94c0-5.4-2.32-7.93-5.87-7.93-3.23,0-5.42,3.12-5.42,7.67s2,8,5.48,8,5.81-3.05,5.81-7.74Z"/><path class="cls-1" d="M261.52,48.04V1.24h13.42v46.8h-13.42Z"/><path class="cls-1" d="M307.95,48.04l-.64-3.64c-3.81,3.58-7.68,4.62-12.71,4.62-6.39,0-12.06-3.18-12.06-10.27,0-15.47,24.06-8.45,24.06-14.82,0-2.47-2.97-2.79-4.39-2.79-1.87,0-4.39.39-4.71,3.32h-12.9c0-7.22,5.1-11.44,18.45-11.44,16,0,16.96,5.98,16.96,14.11v15.93c0,1.95.06,2.92,1.81,4.35v.65h-13.87ZM306.6,32.96c-4.39,2.14-10.19,1.1-10.19,5.52,0,1.69,1.61,2.86,4.26,2.86,4.71,0,6.26-3.7,5.93-8.38Z"/><path class="cls-1" d="M340.78,37.44c0,1.37.52,2.41,1.42,3.12.84.65,2,1.04,3.29,1.04,2.06,0,4.26-.65,4.26-3.05,0-5.46-20.7-1.11-20.7-14.3,0-8.71,8.97-11.25,16-11.25s16,1.69,16.77,10.73h-12.19c-.13-1.11-.58-1.89-1.29-2.47s-1.68-.84-2.71-.84c-2.32,0-3.81.71-3.81,2.41,0,4.75,21.35,1.56,21.35,14.3,0,7.09-5.8,11.89-18.19,11.89-7.74,0-16.25-2.4-16.96-11.57h12.77Z"/><path class="cls-1" d="M370.32,1.24h13.42v17.03c2.71-3.44,5.74-5.26,10.26-5.26,8.9,0,13.09,5.26,13.09,14.62v20.41h-13.42v-18.01c0-3.38-.9-6.37-4.71-6.37-4.13,0-5.22,2.66-5.22,7.02v17.36h-13.42V1.24Z"/><path class="cls-1" d="M0,113.04v-46.8h15.22v35.88h20.9v10.92H0Z"/><path class="cls-1" d="M55.46,99.06c0,4.03,3.1,6.7,6.64,6.7,2.13,0,4.06-.97,5.03-2.99h12.84c-2.32,8.45-10.84,11.25-18.7,11.25-10.84,0-19.22-6.24-19.22-17.68s8.32-18.33,19.16-18.33c12.51,0,20.06,8.71,19.87,21.06h-25.61ZM67.66,92.17c0-3.12-2.77-5.91-5.93-5.91-4,0-6.26,2.28-6.26,5.91h12.19Z"/><path class="cls-1" d="M88.1,78.98h12.25v5.33c3.03-4.09,6.32-6.3,11.42-6.3,8.9,0,13.09,5.26,13.09,14.62v20.41h-13.42v-18.01c0-3.38-.9-6.37-4.71-6.37-4.13,0-5.22,2.66-5.22,7.02v17.36h-13.42v-34.06Z"/><path class="cls-1" d="M144.85,102.44c0,1.37.52,2.41,1.42,3.12.84.65,2,1.04,3.29,1.04,2.06,0,4.26-.65,4.26-3.05,0-5.46-20.7-1.11-20.7-14.3,0-8.71,8.97-11.25,16-11.25s16,1.69,16.77,10.73h-12.19c-.13-1.11-.58-1.89-1.29-2.47s-1.68-.84-2.71-.84c-2.32,0-3.81.71-3.81,2.41,0,4.75,21.35,1.56,21.35,14.3,0,7.09-5.8,11.89-18.19,11.89-7.74,0-16.25-2.4-16.96-11.57h12.77Z"/><path class="cls-1" d="M199.61,113.04v-46.8h15.22v46.8h-15.22Z"/><path class="cls-1" d="M224.82,78.98h12.25v5.33c3.03-4.09,6.32-6.3,11.42-6.3,8.9,0,13.09,5.26,13.09,14.62v20.41h-13.42v-18.01c0-3.38-.9-6.37-4.71-6.37-4.13,0-5.22,2.66-5.22,7.02v17.36h-13.42v-34.06Z"/><path class="cls-1" d="M292.93,91.98c-.06-1.5-.58-2.67-1.42-3.51-.84-.91-2-1.36-3.48-1.36-5.03,0-5.87,5.26-5.87,9.29,0,5.13,1.94,8.52,5.87,8.52,3.48,0,4.84-2.41,5.22-5.07h13.54c-1.16,10.33-9.42,14.17-18.77,14.17-10.9,0-19.29-6.17-19.29-17.68s8.13-18.33,19.29-18.33c9.03,0,17.54,3.9,18.51,13.98h-13.61Z"/><path class="cls-1" d="M315.63,113.04v-46.8h13.42v46.8h-13.42Z"/><path class="cls-1" d="M374.9,113.04h-12.45v-5c-3.35,4.68-6.64,5.98-12.19,5.98-7.35,0-12.13-4.55-12.13-14.3v-20.74h13.42v18.4c0,4.68,1.61,6.18,4.84,6.18,3.87,0,5.1-2.92,5.1-8.19v-16.38h13.42v34.06Z"/><path class="cls-1" d="M407.85,113.04v-4.55c-3.16,4.16-6.06,5.52-10.38,5.52-10.19,0-15.35-7.73-15.35-17.36,0-11.31,6.26-18.66,14.32-18.66,4.26,0,7.22,1.04,10.06,4.42v-16.19h13.42v46.8h-12.06ZM406.95,96.33c0-3.77-1.29-7.87-5.74-7.87s-5.68,4.29-5.68,8.06c0,3.58.9,7.74,5.29,7.74,4.64,0,6.13-3.96,6.13-7.93Z"/><path class="cls-1" d="M440.36,99.06c0,4.03,3.1,6.7,6.64,6.7,2.13,0,4.06-.97,5.03-2.99h12.84c-2.32,8.45-10.84,11.25-18.7,11.25-10.84,0-19.22-6.24-19.22-17.68s8.32-18.33,19.16-18.33c12.51,0,20.06,8.71,19.87,21.06h-25.61ZM452.55,92.17c0-3.12-2.77-5.91-5.93-5.91-4,0-6.26,2.28-6.26,5.91h12.19Z"/><path class="cls-1" d="M497.76,113.04v-4.55c-3.16,4.16-6.06,5.52-10.38,5.52-10.19,0-15.35-7.73-15.35-17.36,0-11.31,6.26-18.66,14.32-18.66,4.26,0,7.22,1.04,10.06,4.42v-16.19h13.42v46.8h-12.06ZM496.85,96.33c0-3.77-1.29-7.87-5.74-7.87s-5.68,4.29-5.68,8.06c0,3.58.9,7.74,5.29,7.74,4.64,0,6.13-3.96,6.13-7.93Z"/><path class="cls-1" d="M0,131.39h2.53v18.2H0v-18.2Z"/><path class="cls-1" d="M26.32,140.74v8.85h-2.33v-8.9c0-1.03-.02-3.77-2.9-3.77-1.34,0-2.46.58-3.8,2,.12.53.2,1.12.2,1.83v8.85h-2.36v-8.9c0-1.03,0-3.77-2.88-3.77-1.29,0-2.36.52-3.6,1.75v10.92h-2.36v-12.87l2.26-.67h.1v2.15c1.34-1.35,2.65-2.17,4.64-2.17s3.28.8,3.87,2.45c1.46-1.5,2.83-2.45,4.96-2.45,2.73,0,4.19,1.5,4.19,4.72Z"/><path class="cls-1" d="M42.25,142.74c0,4.27-2.93,7.15-6.4,7.15-1.44,0-2.68-.5-3.65-1.38v6.77h-2.36v-18.57l2.26-.67h.1v2.07c1.22-1.3,2.68-2.1,4.39-2.1,3.23,0,5.66,2.77,5.66,6.72ZM39.72,142.97c0-4.07-1.61-6.12-3.85-6.12-1.24,0-2.58.62-3.67,1.9v8.2c.62,1.55,1.89,2.55,3.42,2.55,2.43,0,4.09-2.5,4.09-6.52Z"/><path class="cls-1" d="M52.66,136.22l-.69,1.85c-.45-.2-.97-.3-1.36-.3-1.34,0-2.48.97-3.1,2.3v9.52h-2.36v-12.87l2.21-.67h.1v3.3c.92-2.03,2.31-3.27,4.04-3.27.45,0,.87.08,1.17.15Z"/><path class="cls-1" d="M53.03,143.04c0-4.22,2.9-7.02,6.77-7.02s6.55,2.62,6.55,6.87-2.9,7-6.77,7-6.55-2.6-6.55-6.85ZM63.83,143.04c0-4-1.71-6.67-4.17-6.67s-4.09,2.57-4.09,6.52,1.71,6.65,4.17,6.65,4.09-2.57,4.09-6.5Z"/><path class="cls-1" d="M79.33,136.32c-1.07,2.15-1.91,4.12-3.35,7.5l-2.63,6.15h-.17l-5.83-13.65h2.53l4.39,10.32,1.29-2.97c1.46-3.4,2.18-5.82,2.33-7.35h1.44Z"/><path class="cls-1" d="M80.96,132.24l1.69-1.7,1.69,1.7-1.69,1.7-1.69-1.7ZM81.48,136.72l2.23-.67h.1v13.55h-2.33v-12.87Z"/><path class="cls-1" d="M98.9,140.74v8.85h-2.36v-8.9c0-1.03,0-3.77-2.9-3.77-1.29,0-2.53.52-3.8,1.77v10.9h-2.36v-12.87l2.26-.67h.1v2.15c1.39-1.35,2.83-2.17,4.81-2.17,2.75,0,4.24,1.5,4.24,4.72Z"/><path class="cls-1" d="M113.71,150.81c0,2.75-3.1,4.77-6.97,4.77-3.18,0-5.63-1.37-5.63-3.6,0-.52.12-1.08.4-1.67l1.39-.4h.1c-.25.67-.4,1.3-.4,1.87,0,2.02,1.51,3.4,4.14,3.4,3.25,0,5.43-1.35,5.43-3.42,0-1.35-1.04-2.12-3.25-2.25l-3.9-.25c-1.74-.1-2.9-.75-2.9-2.05,0-.95.6-1.6,1.76-2.3l.5-.3c-1.51-.75-2.51-2.17-2.51-3.97,0-2.72,2.28-4.62,5.31-4.62,1.31,0,2.51.35,3.4,1,.65-.92,1.66-1.8,3.32-1.8l-.22,2c-.47-.15-.99-.27-1.44-.27-.55,0-.99.1-1.34.32.94.8,1.51,1.97,1.51,3.35,0,2.7-2.28,4.6-5.31,4.6-.84,0-1.61-.15-2.31-.42l-.55.38c-.57.38-.72.75-.72,1.12,0,.52.4.9,1.74.97l4.09.25c2.78.15,4.34,1.22,4.34,3.3ZM104.11,140.62c0,2.5,1.19,4.2,3.05,4.2s3.03-1.67,3.03-4.17-1.19-4.22-3.05-4.22-3.03,1.7-3.03,4.2Z"/><path class="cls-1" d="M134.6,142.74c0,4.27-2.93,7.15-6.4,7.15-1.44,0-2.68-.5-3.65-1.38v6.77h-2.36v-18.57l2.26-.67h.1v2.07c1.22-1.3,2.68-2.1,4.39-2.1,3.23,0,5.66,2.77,5.66,6.72ZM132.06,142.97c0-4.07-1.61-6.12-3.85-6.12-1.24,0-2.58.62-3.67,1.9v8.2c.62,1.55,1.89,2.55,3.42,2.55,2.43,0,4.09-2.5,4.09-6.52Z"/><path class="cls-1" d="M145.01,136.22l-.69,1.85c-.45-.2-.97-.3-1.36-.3-1.34,0-2.48.97-3.1,2.3v9.52h-2.36v-12.87l2.21-.67h.1v3.3c.92-2.03,2.31-3.27,4.04-3.27.45,0,.87.08,1.17.15Z"/><path class="cls-1" d="M145.38,143.04c0-4.22,2.9-7.02,6.77-7.02s6.55,2.62,6.55,6.87-2.9,7-6.77,7-6.55-2.6-6.55-6.85ZM156.17,143.04c0-4-1.71-6.67-4.17-6.67s-4.09,2.57-4.09,6.52,1.71,6.65,4.17,6.65,4.09-2.57,4.09-6.5Z"/><path class="cls-1" d="M171.68,149.81l-.64-2.05c-1.22,1.32-2.7,2.12-4.44,2.12-3.23,0-5.66-2.77-5.66-6.7,0-4.27,2.93-7.17,6.4-7.17,1.44,0,2.68.5,3.65,1.37v-7.3l2.26-.75h.1v17.97l.55,1.8-2.21.7ZM170.98,147.19v-8.22c-.62-1.53-1.89-2.52-3.42-2.52-2.43,0-4.09,2.47-4.09,6.5s1.64,6.12,3.9,6.12c1.24,0,2.53-.62,3.62-1.88Z"/><path class="cls-1" d="M188.74,149.12l-2.21.7-.69-2.17v-.05c-1.22,1.33-2.85,2.3-4.76,2.3-2.75,0-4.24-1.5-4.24-4.7v-8.47l2.26-.67h.1v9.2c0,1.02,0,3.77,2.9,3.77,1.24,0,2.65-.77,3.75-2v-10.3l2.26-.67h.1v11.27l.55,1.8Z"/><path class="cls-1" d="M191.15,143.09c0-4.25,2.9-7.07,6.5-7.07,2.26,0,3.9.87,4.99,2.27l-1.02.9c-1.04-1.67-2.18-2.8-3.85-2.8-2.38,0-4.07,2.4-4.07,6.15,0,4.07,1.91,6.27,4.52,6.27,1.44,0,3.13-.75,4.27-2.4l.3.17c-1.31,2-3.13,3.3-5.53,3.3-3.47,0-6.1-2.67-6.1-6.8Z"/><path class="cls-1" d="M212.78,148.71c-1.04.7-2.08,1.17-3.47,1.17-3.05,0-3.23-2.35-3.23-3.42v-9.6h-1.91v-.42l1.81-.12,2.36-4.25h.1v4.25h4.24l-.32.55h-3.92v9.55c0,.72,0,2.62,2.01,2.62.57,0,1.31-.15,2.13-.62l.2.3Z"/><path class="cls-1" d="M214.14,131.09h2.08l-.92,7.2h-.25l-.92-7.2Z"/><path class="cls-1" d="M218.23,148.69l.37-1.28c1.02,1.2,2.6,2.12,4.56,2.12s3.23-1.05,3.23-2.55c0-1.6-1.51-2.25-3.08-2.9l-1.02-.42c-1.61-.7-3.82-1.62-3.82-4,0-2.1,1.79-3.65,4.61-3.65,1.76,0,3.42.55,4.29,1.05l-.35,1.17c-.87-.85-2.41-1.87-4.17-1.87s-2.8,1.05-2.8,2.27c0,1.57,1.71,2.2,3.1,2.8l.99.43c1.56.65,3.82,1.6,3.82,4.07,0,2.27-1.89,3.95-5.06,3.95-1.66,0-3.57-.47-4.69-1.2Z"/><path class="cls-1" d="M253.29,136.32c-.97,2.15-1.74,4.12-3.1,7.62l-2.33,6.02h-.17l-3.62-9.85-3.72,9.85h-.17l-5.41-13.65h2.51l3.94,10.05,3.75-10.05h.15l3.7,9.97.97-2.55c1.41-3.65,1.94-5.92,2.06-7.42h1.46Z"/><path class="cls-1" d="M265.81,148.99v.15c-.4.25-1.17.62-2.06.62-1.59,0-1.91-1.17-1.96-1.85-1.29,1.22-3.03,1.92-4.59,1.92-2.08,0-3.47-1.22-3.47-3.07,0-2.32,2.21-3.77,5.61-4.15.89-.1,1.69-.15,2.43-.22v-1.42c0-2.47-.72-4.12-3.18-4.12-1.34,0-2.51.47-3.72,1.5l-.22-.28c1.34-1.25,2.73-2.05,4.86-2.05,3.05,0,4.61,1.5,4.61,4.72v6.4c0,1.2,0,1.9,1.22,1.9.17,0,.32-.03.47-.05ZM261.77,147.44v-4.67c-3.37.35-5.71,1.17-5.71,3.6,0,1.75,1.09,2.58,2.43,2.58,1.07,0,2.26-.5,3.27-1.5Z"/><path class="cls-1" d="M275.19,148.71c-1.04.7-2.08,1.17-3.47,1.17-3.05,0-3.23-2.35-3.23-3.42v-9.6h-1.91v-.42l1.81-.12,2.36-4.25h.1v4.25h4.24l-.32.55h-3.92v9.55c0,.72,0,2.62,2.01,2.62.57,0,1.31-.15,2.13-.62l.2.3Z"/><path class="cls-1" d="M278.49,142.02v.45c0,4.15,2.01,6.35,4.69,6.35,1.49,0,3.25-.75,4.39-2.4l.3.17c-1.41,2.17-3.37,3.3-5.71,3.3-3.55,0-6.18-2.67-6.18-6.72,0-4.32,2.85-7.15,6.67-7.15,3.57,0,5.41,2.47,5.36,6h-9.53ZM278.51,141.62h7.25c.15-3.15-1.19-5.22-3.3-5.22s-3.7,2.17-3.94,5.22Z"/><path class="cls-1" d="M298.33,136.22l-.69,1.85c-.45-.2-.97-.3-1.36-.3-1.34,0-2.48.97-3.1,2.3v9.52h-2.36v-12.87l2.21-.67h.1v3.3c.92-2.03,2.31-3.27,4.04-3.27.45,0,.87.08,1.17.15Z"/><path class="cls-1" d="M313.41,136.22l-.69,1.85c-.45-.2-.97-.3-1.36-.3-1.34,0-2.48.97-3.1,2.3v9.52h-2.36v-12.87l2.21-.67h.1v3.3c.92-2.03,2.31-3.27,4.04-3.27.45,0,.87.08,1.17.15Z"/><path class="cls-1" d="M316.29,142.02v.45c0,4.15,2.01,6.35,4.69,6.35,1.49,0,3.25-.75,4.39-2.4l.3.17c-1.41,2.17-3.37,3.3-5.71,3.3-3.55,0-6.18-2.67-6.18-6.72,0-4.32,2.85-7.15,6.67-7.15,3.57,0,5.41,2.47,5.36,6h-9.53ZM316.31,141.62h7.25c.15-3.15-1.19-5.22-3.3-5.22s-3.7,2.17-3.94,5.22Z"/><path class="cls-1" d="M327.77,148.69l.37-1.28c1.02,1.2,2.6,2.12,4.56,2.12s3.23-1.05,3.23-2.55c0-1.6-1.51-2.25-3.08-2.9l-1.02-.42c-1.61-.7-3.82-1.62-3.82-4,0-2.1,1.79-3.65,4.61-3.65,1.76,0,3.42.55,4.29,1.05l-.35,1.17c-.87-.85-2.41-1.87-4.17-1.87s-2.8,1.05-2.8,2.27c0,1.57,1.71,2.2,3.1,2.8l.99.43c1.56.65,3.82,1.6,3.82,4.07,0,2.27-1.89,3.95-5.06,3.95-1.66,0-3.57-.47-4.69-1.2Z"/><path class="cls-1" d="M339.75,132.24l1.69-1.7,1.69,1.7-1.69,1.7-1.69-1.7ZM340.27,136.72l2.23-.67h.1v13.55h-2.33v-12.87Z"/><path class="cls-1" d="M345.43,148.69l.37-1.28c1.02,1.2,2.6,2.12,4.56,2.12s3.23-1.05,3.23-2.55c0-1.6-1.51-2.25-3.08-2.9l-1.02-.42c-1.61-.7-3.82-1.62-3.82-4,0-2.1,1.79-3.65,4.61-3.65,1.76,0,3.42.55,4.29,1.05l-.35,1.17c-.87-.85-2.41-1.87-4.17-1.87s-2.8,1.05-2.8,2.27c0,1.57,1.71,2.2,3.1,2.8l.99.43c1.56.65,3.82,1.6,3.82,4.07,0,2.27-1.89,3.95-5.06,3.95-1.66,0-3.57-.47-4.69-1.2Z"/><path class="cls-1" d="M365.31,148.71c-1.04.7-2.08,1.17-3.47,1.17-3.05,0-3.23-2.35-3.23-3.42v-9.6h-1.91v-.42l1.81-.12,2.36-4.25h.1v4.25h4.24l-.32.55h-3.92v9.55c0,.72,0,2.62,2.01,2.62.57,0,1.31-.15,2.13-.62l.2.3Z"/><path class="cls-1" d="M378.35,148.99v.15c-.4.25-1.17.62-2.06.62-1.59,0-1.91-1.17-1.96-1.85-1.29,1.22-3.03,1.92-4.59,1.92-2.08,0-3.47-1.22-3.47-3.07,0-2.32,2.21-3.77,5.61-4.15.89-.1,1.69-.15,2.43-.22v-1.42c0-2.47-.72-4.12-3.18-4.12-1.34,0-2.51.47-3.72,1.5l-.22-.28c1.34-1.25,2.73-2.05,4.86-2.05,3.05,0,4.61,1.5,4.61,4.72v6.4c0,1.2,0,1.9,1.22,1.9.17,0,.32-.03.47-.05ZM374.31,147.44v-4.67c-3.37.35-5.71,1.17-5.71,3.6,0,1.75,1.09,2.58,2.43,2.58,1.07,0,2.26-.5,3.27-1.5Z"/><path class="cls-1" d="M392.12,140.74v8.85h-2.36v-8.9c0-1.03,0-3.77-2.9-3.77-1.29,0-2.53.52-3.8,1.77v10.9h-2.36v-12.87l2.26-.67h.1v2.15c1.39-1.35,2.83-2.17,4.81-2.17,2.75,0,4.24,1.5,4.24,4.72Z"/><path class="cls-1" d="M394.94,143.09c0-4.25,2.9-7.07,6.5-7.07,2.26,0,3.9.87,4.99,2.27l-1.02.9c-1.04-1.67-2.18-2.8-3.85-2.8-2.38,0-4.07,2.4-4.07,6.15,0,4.07,1.91,6.27,4.52,6.27,1.44,0,3.13-.75,4.27-2.4l.3.17c-1.31,2-3.13,3.3-5.53,3.3-3.47,0-6.1-2.67-6.1-6.8Z"/><path class="cls-1" d="M410.72,142.02v.45c0,4.15,2.01,6.35,4.69,6.35,1.49,0,3.25-.75,4.39-2.4l.3.17c-1.41,2.17-3.37,3.3-5.71,3.3-3.55,0-6.18-2.67-6.18-6.72,0-4.32,2.85-7.15,6.67-7.15,3.57,0,5.41,2.47,5.36,6h-9.53ZM410.75,141.62h7.25c.15-3.15-1.19-5.22-3.3-5.22s-3.7,2.17-3.94,5.22Z"/></g></svg>