<?xml version="1.0" encoding="UTF-8"?><svg id="_圖層_2" xmlns="http://www.w3.org/2000/svg" viewBox="0 0 411.42 496.31"><defs><style>.cls-1{stroke:#183432;stroke-miterlimit:10;stroke-width:.75px;}.cls-1,.cls-2{fill:#183432;}.cls-3{fill:#796a56;}</style></defs><g id="_圖層_1-2"><path class="cls-2" d="M130,28.59l.73-2.56c1.94,2.4,5.77,4.07,9.04,4.07,3.91,0,6.58-2.44,6.58-5.77,0-3.9-3.47-5.65-6.45-7.04l-2.02-.89c-3.19-1.46-7.42-3.58-7.42-8.42,0-4.47,3.67-7.81,9.28-7.81,3.31,0,6.58,1.18,8.23,2.16l-.65,2.28c-1.77-1.87-4.68-3.78-8.03-3.78-3.75,0-5.89,2.36-5.89,5.2,0,3.5,3.07,5.04,6.29,6.55l2.02.94c3.63,1.71,7.54,3.66,7.54,8.7s-4.16,8.54-9.84,8.54c-3.51,0-7.58-1.22-9.4-2.16Z"/><path class="cls-2" d="M153.16,15.74c0-9.52,6.78-15.57,15.53-15.57s15.01,5.65,15.01,15.01-6.78,15.57-15.53,15.57-15.01-5.65-15.01-15ZM179.18,15.62c0-8.87-4.48-14.8-10.81-14.8s-10.69,5.77-10.69,14.48,4.48,14.8,10.93,14.8,10.57-5.73,10.57-14.48Z"/><path class="cls-2" d="M204.12,27.2l-.77,3.05h-14.04V.65h4.12v28.87h.77c2.42,0,5.65-.45,9.84-2.32h.08Z"/><path class="cls-2" d="M222.23,20.54h-11.46c-1.78,4.76-2.26,7.32-2.38,9.72h-2.78c1.94-4.07,3.47-7.85,5.57-12.97l7.02-17.28h.16l12.22,30.25h-4.48l-3.87-9.72ZM221.95,19.8l-5.45-13.58-4.56,11.35-.89,2.24h10.89Z"/><path class="cls-2" d="M255.84,25.98v5.16h-.24l-11.94-13.42c-.57-.65-.97-.85-2.1-.85h-2.7v13.38h-4.11V.65h7.22c7.75,0,11.9,2.44,11.9,7.48,0,4.19-3.23,6.38-7.06,7.73l9.04,10.13ZM249.71,8.42c0-4.31-2.58-7.12-7.91-7.12h-2.95v14.68c.93.16,2.91.24,3.71.24,4.4,0,7.14-3.58,7.14-7.81Z"/><path class="cls-2" d="M285.25,27.2l-.77,3.05h-14.04V.65h4.12v28.87h.77c2.42,0,5.65-.45,9.84-2.32h.08Z"/><path class="cls-2" d="M307.97,27.53l-.77,2.72h-17.39V.65h16.9l.48,2.56h-.08c-3.71-1.26-7.46-1.83-10.97-1.83h-2.22v13.09h1.86c4.36,0,7.22-.28,8.47-.81h.08v2.52h-.08c-1.25-.53-4.12-.98-8.47-.98h-1.86v14.31h2.34c3.47,0,7.75-.53,11.62-1.99h.08Z"/><path class="cls-2" d="M338.63,15.13c0,9.56-6.29,15.13-16.26,15.13h-9.6V.65h10.29c9.32,0,15.57,5.08,15.57,14.48ZM334.11,15.33c0-8.38-4.48-14.03-11.42-14.03h-5.81v27.94c1.05.24,2.95.37,6.17.37,7.02,0,11.05-5.16,11.05-14.27Z"/><path class="cls-2" d="M104.69,49.59c0,5.53-4.36,9.11-11.38,9.11-1.25,0-2.62-.12-3.51-.24v12.61h-4.12v-29.6h7.63c7.54,0,11.38,2.93,11.38,8.13ZM100.33,50.08c0-4.68-2.34-7.97-7.62-7.97h-2.91v15.66c.73.16,1.65.28,2.82.28,5.12,0,7.71-3.01,7.71-7.97Z"/><path class="cls-2" d="M120.26,61.34h-11.46c-1.78,4.76-2.26,7.32-2.38,9.72h-2.78c1.94-4.07,3.47-7.85,5.57-12.97l7.02-17.28h.16l12.22,30.25h-4.48l-3.87-9.72ZM119.98,60.61l-5.45-13.58-4.56,11.35-.89,2.24h10.89Z"/><path class="cls-2" d="M148.22,44.34h-.08c-3.23-1.54-5.49-2.16-7.91-2.16h-.93v28.87h-4.12v-28.87h-.97c-2.42,0-4.68.61-7.91,2.16h-.08l.56-2.89h20.9l.52,2.89Z"/><path class="cls-2" d="M175.29,41.46v29.6h-4.12v-15.05h-14.36v15.05h-4.12v-29.6h4.12v13.83h14.36v-13.83h4.12Z"/><path class="cls-2" d="M217.05,41.46c-1.74,4.23-3.03,7.93-4.8,12.97l-5.93,17.28h-.16l-7.91-23.18-8.07,23.18h-.16l-10.41-30.25h4.4l7.83,23.1,8.07-23.1h.16l7.87,23.1,3.55-10.37c2.1-5.94,2.74-9.76,3.07-12.73h2.5Z"/><path class="cls-2" d="M231.78,61.34h-11.46c-1.78,4.76-2.26,7.32-2.38,9.72h-2.78c1.94-4.07,3.47-7.85,5.57-12.97l7.02-17.28h.16l12.22,30.25h-4.48l-3.87-9.72ZM231.49,60.61l-5.45-13.58-4.56,11.35-.89,2.24h10.89Z"/><path class="cls-2" d="M254.49,53.53l-2.46,4.35v13.18h-4.12v-12.69l-9.6-16.92h4.72l8.63,15.45,2.1-3.74c2.99-5.29,4.48-9.03,5.12-11.71h2.54c-2.42,4.03-4.4,7.48-6.94,12.08Z"/><path class="cls-2" d="M289.39,68.01l-.77,3.05h-14.04v-29.6h4.12v28.87h.77c2.42,0,5.65-.45,9.84-2.32h.08Z"/><path class="cls-2" d="M293.95,41.46h4.12v29.6h-4.12v-29.6Z"/><path class="cls-2" d="M330.86,57.64v10.21c-2.58,1.91-6.25,3.7-11.46,3.7-9.4,0-15.69-5.57-15.69-15.09s6.66-15.49,15.45-15.49c4.72,0,8.67,2.03,11.05,4.76l-2.02,1.83c-2.02-3.42-5.21-5.94-9.4-5.94-6.46,0-10.57,5.73-10.57,14.56s4.52,14.64,11.38,14.64c2.95,0,5.69-1.02,7.46-2.44v-10h-6.74l-.44-.73h10.97Z"/><path class="cls-2" d="M359.27,41.46v29.6h-4.11v-15.05h-14.36v15.05h-4.11v-29.6h4.11v13.83h14.36v-13.83h4.11Z"/><path class="cls-2" d="M385.73,44.34h-.08c-3.23-1.54-5.49-2.16-7.91-2.16h-.93v28.87h-4.12v-28.87h-.97c-2.42,0-4.68.61-7.91,2.16h-.08l.56-2.89h20.9l.52,2.89Z"/><line class="cls-1" x1="63.26" y1="86.35" x2="405.26" y2="86.35"/><path class="cls-3" d="M107.64,104.5c0-7.06,4.5-11.57,10.47-11.57,3.34,0,6.11,1.58,7.72,3.54l-1.41,1.36c-1.44-2.57-3.71-4.42-6.45-4.42-4.33,0-7.16,4.42-7.16,10.33,0,6.69,3.42,10.63,7.98,10.63,2.46,0,5.15-1.12,6.99-4.15l.34.21c-1.87,3.24-4.75,5.27-8.6,5.27-5.66,0-9.87-4.39-9.87-11.21Z"/><path class="cls-3" d="M128.01,104.53c0-7.09,4.75-11.6,10.89-11.6s10.52,4.21,10.52,11.18-4.75,11.6-10.89,11.6-10.52-4.21-10.52-11.18ZM146.26,104.44c0-6.6-3.14-11.03-7.58-11.03s-7.5,4.3-7.5,10.78,3.14,11.02,7.67,11.02,7.41-4.27,7.41-10.78Z"/><path class="cls-3" d="M163.74,113.07l-.54,2.27h-9.84v-22.05h2.89v21.5h.54c1.7,0,3.96-.33,6.9-1.73h.06Z"/><path class="cls-3" d="M164.13,104.53c0-7.09,4.75-11.6,10.89-11.6s10.52,4.21,10.52,11.18-4.75,11.6-10.89,11.6-10.52-4.21-10.52-11.18ZM182.38,104.44c0-6.6-3.14-11.03-7.58-11.03s-7.5,4.3-7.5,10.78,3.14,11.02,7.67,11.02,7.41-4.27,7.41-10.78Z"/><path class="cls-3" d="M204.27,112.16v3.85h-.17l-8.37-10c-.4-.48-.68-.64-1.47-.64h-1.89v9.96h-2.89v-22.05h5.06c5.43,0,8.35,1.82,8.35,5.57,0,3.12-2.26,4.76-4.95,5.75l6.34,7.54ZM199.97,99.07c0-3.21-1.81-5.3-5.54-5.3h-2.06v10.93c.65.12,2.04.18,2.6.18,3.08,0,5.01-2.67,5.01-5.82Z"/><path class="cls-3" d="M213.55,104.5c0-7.06,4.5-11.57,10.47-11.57,3.34,0,6.11,1.58,7.72,3.54l-1.42,1.36c-1.44-2.57-3.71-4.42-6.45-4.42-4.33,0-7.16,4.42-7.16,10.33,0,6.69,3.42,10.63,7.98,10.63,2.46,0,5.15-1.12,6.99-4.15l.34.21c-1.87,3.24-4.75,5.27-8.6,5.27-5.66,0-9.87-4.39-9.87-11.21Z"/><path class="cls-3" d="M251.06,93.29v22.05h-2.89v-11.21h-10.07v11.21h-2.89v-22.05h2.89v10.3h10.07v-10.3h2.89Z"/><path class="cls-3" d="M265.49,108.1h-8.03c-1.25,3.54-1.58,5.45-1.67,7.24h-1.95c1.36-3.03,2.43-5.85,3.9-9.66l4.92-12.87h.11l8.57,22.53h-3.14l-2.72-7.24ZM265.29,107.56l-3.82-10.12-3.2,8.45-.62,1.67h7.64Z"/><path class="cls-3" d="M289.05,93.29c-.37,2.42-.57,5.39-.57,9.63v12.78h-.25l-13.1-19.41v9.42c0,4.24.17,7.21.57,9.63h-1.7c.37-2.42.57-5.39.57-9.63v-10.27l-1.39-2.06v-.09h3.42l11.32,17.08v-7.45c0-4.24-.17-7.21-.57-9.63h1.7Z"/><path class="cls-3" d="M311.54,105.34v7.6c-1.81,1.42-4.38,2.76-8.03,2.76-6.59,0-11-4.15-11-11.24s4.67-11.54,10.83-11.54c3.31,0,6.08,1.51,7.75,3.54l-1.41,1.36c-1.42-2.54-3.65-4.42-6.59-4.42-4.53,0-7.41,4.27-7.41,10.84s3.17,10.9,7.98,10.9c2.06,0,3.99-.76,5.23-1.82v-7.45h-4.72l-.31-.54h7.7Z"/><path class="cls-3" d="M315.61,93.29h2.89v22.05h-2.89v-22.05Z"/><path class="cls-3" d="M338.27,93.29c-.37,2.42-.57,5.39-.57,9.63v12.78h-.25l-13.1-19.41v9.42c0,4.24.17,7.21.57,9.63h-1.7c.37-2.42.57-5.39.57-9.63v-10.27l-1.39-2.06v-.09h3.42l11.32,17.08v-7.45c0-4.24-.17-7.21-.57-9.63h1.7Z"/><path class="cls-3" d="M360.76,105.34v7.6c-1.81,1.42-4.38,2.76-8.03,2.76-6.59,0-11-4.15-11-11.24s4.67-11.54,10.84-11.54c3.31,0,6.08,1.51,7.75,3.54l-1.41,1.36c-1.42-2.54-3.65-4.42-6.59-4.42-4.53,0-7.41,4.27-7.41,10.84s3.17,10.9,7.98,10.9c2.06,0,3.99-.76,5.23-1.82v-7.45h-4.72l-.31-.54h7.7Z"/><path class="cls-3" d="M149.38,150.37v3.48h-.11l-3.71-3.36c-1.7,1.97-4.21,3.06-7.3,3.06-3.99,0-7.02-2.24-7.02-5.88,0-2.76,1.78-4.82,4.61-6.06-1.36-1.48-2.46-3.21-2.46-5.39,0-3.18,2.43-5.45,5.4-5.45s5.26,2.03,5.26,4.79-2.43,4.33-4.44,4.97l-.31-.3c1.78-.88,2.89-2.33,2.89-4.45,0-2.7-1.44-4.57-3.54-4.57-2.29,0-3.37,2.06-3.37,3.88,0,2.48,2.09,4.42,3.51,5.69l7.89,7.15c.51-1.21.82-2.7.82-4.45,0-1.85-.62-3.06-.93-3.7l1.39-.58h.11v3.66c0,2.03-.37,3.85-1.07,5.36l2.38,2.15ZM145.23,150.19l-7.5-6.78c-.51-.45-1.08-.97-1.58-1.48-1.81,1.21-2.43,3.15-2.43,4.91,0,3.54,2.32,5.91,5.52,5.91,2.15,0,4.38-.79,6-2.54Z"/><path class="cls-3" d="M158.55,142.35c0-7.06,4.5-11.57,10.47-11.57,3.34,0,6.11,1.58,7.72,3.54l-1.42,1.36c-1.44-2.57-3.71-4.42-6.45-4.42-4.33,0-7.16,4.42-7.16,10.33,0,6.69,3.42,10.63,7.98,10.63,2.46,0,5.15-1.12,6.99-4.15l.34.21c-1.87,3.24-4.75,5.27-8.6,5.27-5.66,0-9.87-4.39-9.87-11.21Z"/><path class="cls-3" d="M178.91,142.38c0-7.09,4.75-11.6,10.89-11.6s10.52,4.21,10.52,11.18-4.75,11.6-10.89,11.6-10.52-4.21-10.52-11.18ZM197.16,142.29c0-6.6-3.14-11.03-7.58-11.03s-7.5,4.3-7.5,10.78,3.14,11.02,7.67,11.02,7.41-4.27,7.41-10.78Z"/><path class="cls-3" d="M214.64,150.92l-.54,2.27h-9.84v-22.05h2.89v21.5h.54c1.7,0,3.96-.33,6.9-1.73h.06Z"/><path class="cls-3" d="M215.04,142.38c0-7.09,4.75-11.6,10.89-11.6s10.52,4.21,10.52,11.18-4.75,11.6-10.89,11.6-10.52-4.21-10.52-11.18ZM233.28,142.29c0-6.6-3.14-11.03-7.58-11.03s-7.5,4.3-7.5,10.78,3.14,11.02,7.67,11.02,7.41-4.27,7.41-10.78Z"/><path class="cls-3" d="M255.18,150.01v3.85h-.17l-8.37-10c-.4-.48-.68-.64-1.47-.64h-1.89v9.96h-2.89v-22.05h5.06c5.43,0,8.35,1.82,8.35,5.57,0,3.12-2.26,4.76-4.95,5.75l6.34,7.54ZM250.88,136.93c0-3.21-1.81-5.3-5.54-5.3h-2.06v10.93c.65.12,2.04.18,2.6.18,3.08,0,5.01-2.67,5.01-5.82Z"/><path class="cls-3" d="M275.8,150.92l-.54,2.27h-9.84v-22.05h2.89v21.5h.54c1.7,0,3.96-.33,6.9-1.73h.06Z"/><path class="cls-3" d="M276.19,142.38c0-7.09,4.75-11.6,10.89-11.6s10.52,4.21,10.52,11.18-4.75,11.6-10.89,11.6-10.52-4.21-10.52-11.18ZM294.44,142.29c0-6.6-3.14-11.03-7.58-11.03s-7.5,4.3-7.5,10.78,3.14,11.02,7.67,11.02,7.41-4.27,7.41-10.78Z"/><path class="cls-3" d="M300.58,142.35c0-7.06,4.5-11.57,10.47-11.57,3.34,0,6.11,1.58,7.72,3.54l-1.42,1.36c-1.44-2.57-3.71-4.42-6.45-4.42-4.33,0-7.16,4.42-7.16,10.33,0,6.69,3.42,10.63,7.98,10.63,2.46,0,5.15-1.12,6.99-4.15l.34.21c-1.87,3.24-4.75,5.27-8.6,5.27-5.66,0-9.87-4.39-9.87-11.21Z"/><path class="cls-3" d="M322.25,131.14h2.89v22.05h-2.89v-22.05ZM330.45,138.23l-2.04,2.09,9.36,9.63v3.91h-.17l-11.57-11.96,4.04-4.12c3.06-3.09,4.64-5.15,5.43-6.63h2.26v.06c-2.41,2.12-4.7,4.36-7.33,7.03Z"/><path d="M12.05,193.24l.32-1.13c.86,1.06,2.55,1.8,4,1.8,1.73,0,2.91-1.08,2.91-2.56,0-1.73-1.54-2.5-2.86-3.11l-.89-.4c-1.41-.65-3.29-1.58-3.29-3.73,0-1.98,1.62-3.46,4.11-3.46,1.46,0,2.91.52,3.64.95l-.29,1.01c-.79-.83-2.07-1.67-3.55-1.67-1.66,0-2.61,1.04-2.61,2.3,0,1.55,1.36,2.23,2.79,2.9l.89.41c1.61.76,3.34,1.62,3.34,3.85s-1.84,3.78-4.36,3.78c-1.55,0-3.36-.54-4.16-.95Z"/><path d="M32.83,189.04c0,3.08-2.11,5.15-4.61,5.15-1.04,0-1.93-.36-2.62-.99v4.88h-1.7v-13.38l1.62-.49h.07v1.49c.87-.94,1.93-1.51,3.16-1.51,2.32,0,4.07,2,4.07,4.84ZM31.01,189.2c0-2.93-1.16-4.41-2.77-4.41-.89,0-1.86.45-2.64,1.37v5.91c.45,1.12,1.36,1.84,2.46,1.84,1.75,0,2.95-1.8,2.95-4.7Z"/><path d="M37.5,188.52v.32c0,2.99,1.45,4.57,3.37,4.57,1.07,0,2.34-.54,3.16-1.73l.21.13c-1.02,1.57-2.43,2.38-4.11,2.38-2.55,0-4.45-1.93-4.45-4.84,0-3.11,2.05-5.15,4.8-5.15,2.57,0,3.89,1.78,3.86,4.32h-6.86ZM37.51,188.23h5.21c.11-2.27-.86-3.76-2.37-3.76s-2.66,1.57-2.84,3.76Z"/><path d="M47.14,189.29c0-3.06,2.09-5.1,4.68-5.1,1.62,0,2.8.63,3.59,1.64l-.73.65c-.75-1.21-1.57-2.02-2.77-2.02-1.71,0-2.93,1.73-2.93,4.43,0,2.94,1.37,4.52,3.25,4.52,1.04,0,2.25-.54,3.07-1.73l.21.13c-.95,1.44-2.25,2.38-3.98,2.38-2.5,0-4.39-1.93-4.39-4.9Z"/><path d="M58.21,181.48l1.21-1.22,1.21,1.22-1.21,1.22-1.21-1.22ZM58.59,184.7l1.61-.49h.07v9.76h-1.68v-9.27Z"/><path d="M72.36,184.22h.07v9.76h-1.7v-9.16h-4.18v9.16h-1.7v-9.16h-1.37v-.4h1.37v-1.69c0-2.23,1.18-3.4,3.04-3.4.7,0,1.46.23,2.09.54l-.07.23c-.46-.13-.86-.16-1.21-.16-1.34,0-2.14.85-2.14,2.7v1.78h5.14l.66-.2ZM71.57,182.7l-1.21-1.22,1.21-1.22,1.21,1.22-1.21,1.22Z"/><path d="M75.82,189.29c0-3.06,2.09-5.1,4.68-5.1,1.62,0,2.8.63,3.59,1.64l-.73.65c-.75-1.21-1.57-2.02-2.77-2.02-1.71,0-2.93,1.73-2.93,4.43,0,2.94,1.37,4.52,3.25,4.52,1.04,0,2.25-.54,3.07-1.73l.21.13c-.95,1.44-2.25,2.38-3.98,2.38-2.5,0-4.39-1.93-4.39-4.9Z"/><path d="M95.2,193.54v.11c-.29.18-.84.45-1.48.45-1.14,0-1.37-.85-1.41-1.33-.93.88-2.18,1.39-3.3,1.39-1.5,0-2.5-.88-2.5-2.21,0-1.67,1.59-2.72,4.03-2.99.64-.07,1.21-.11,1.75-.16v-1.03c0-1.78-.52-2.97-2.29-2.97-.96,0-1.8.34-2.68,1.08l-.16-.2c.96-.9,1.96-1.48,3.5-1.48,2.2,0,3.32,1.08,3.32,3.4v4.61c0,.86,0,1.37.87,1.37.12,0,.23-.02.34-.04ZM92.29,192.43v-3.37c-2.43.25-4.11.85-4.11,2.59,0,1.26.79,1.85,1.75,1.85.77,0,1.62-.36,2.36-1.08Z"/><path d="M103.2,193.34c-.75.5-1.5.85-2.5.85-2.2,0-2.32-1.69-2.32-2.47v-6.91h-1.37v-.31l1.3-.09,1.7-3.06h.07v3.06h3.05l-.23.4h-2.82v6.88c0,.52,0,1.89,1.45,1.89.41,0,.95-.11,1.54-.45l.14.22Z"/><path d="M105.54,181.48l1.21-1.22,1.21,1.22-1.21,1.22-1.21-1.22ZM105.92,184.7l1.61-.49h.07v9.76h-1.68v-9.27Z"/><path d="M111.01,189.26c0-3.04,2.09-5.06,4.87-5.06s4.71,1.89,4.71,4.95-2.09,5.04-4.87,5.04-4.71-1.87-4.71-4.93ZM118.77,189.26c0-2.88-1.23-4.81-3-4.81s-2.95,1.85-2.95,4.7,1.23,4.79,3,4.79,2.95-1.85,2.95-4.68Z"/><path d="M132.15,187.6v6.37h-1.7v-6.41c0-.74,0-2.72-2.09-2.72-.93,0-1.82.38-2.73,1.28v7.85h-1.7v-9.27l1.62-.49h.07v1.55c1-.97,2.04-1.57,3.46-1.57,1.98,0,3.05,1.08,3.05,3.4Z"/><path d="M135.69,186.02l1.27-1.28,1.25,1.28-1.25,1.28-1.27-1.28ZM135.69,193.09l1.27-1.28,1.25,1.28-1.25,1.26-1.27-1.26Z"/><path d="M24.19,212.44c0,4.23-2.79,6.7-7.2,6.7h-4.25v-13.11h4.55c4.12,0,6.89,2.25,6.89,6.41ZM22.19,212.53c0-3.71-1.98-6.21-5.05-6.21h-2.57v12.37c.46.11,1.3.16,2.73.16,3.11,0,4.89-2.29,4.89-6.32Z"/><path d="M27.34,206.64l1.21-1.22,1.21,1.22-1.21,1.22-1.21-1.22ZM27.71,209.86l1.61-.49h.07v9.76h-1.68v-9.27Z"/><path d="M47.69,212.76v6.37h-1.68v-6.41c0-.74-.02-2.72-2.09-2.72-.96,0-1.77.41-2.73,1.44.09.38.14.81.14,1.31v6.37h-1.7v-6.41c0-.74,0-2.72-2.07-2.72-.93,0-1.7.38-2.59,1.26v7.87h-1.7v-9.27l1.62-.49h.07v1.55c.96-.97,1.91-1.57,3.34-1.57s2.36.58,2.79,1.76c1.05-1.08,2.04-1.76,3.57-1.76,1.96,0,3.02,1.08,3.02,3.4Z"/><path d="M52.8,213.68v.32c0,2.99,1.45,4.57,3.37,4.57,1.07,0,2.34-.54,3.16-1.73l.21.13c-1.02,1.57-2.43,2.38-4.11,2.38-2.55,0-4.45-1.93-4.45-4.84,0-3.11,2.05-5.15,4.8-5.15,2.57,0,3.89,1.78,3.86,4.32h-6.86ZM52.82,213.39h5.21c.11-2.27-.86-3.76-2.37-3.76s-2.66,1.57-2.84,3.76Z"/><path d="M71.14,212.76v6.37h-1.7v-6.41c0-.74,0-2.72-2.09-2.72-.93,0-1.82.38-2.73,1.28v7.85h-1.7v-9.27l1.62-.49h.07v1.55c1-.97,2.04-1.57,3.46-1.57,1.98,0,3.05,1.08,3.05,3.4Z"/><path d="M74.31,218.49l.27-.92c.73.86,1.87,1.53,3.28,1.53s2.32-.76,2.32-1.84c0-1.15-1.09-1.62-2.21-2.09l-.73-.31c-1.16-.5-2.75-1.17-2.75-2.88,0-1.51,1.29-2.63,3.32-2.63,1.27,0,2.46.4,3.09.76l-.25.85c-.62-.61-1.73-1.35-3-1.35s-2.02.76-2.02,1.64c0,1.13,1.23,1.58,2.23,2.02l.71.31c1.12.47,2.75,1.15,2.75,2.93,0,1.64-1.36,2.85-3.64,2.85-1.2,0-2.57-.34-3.37-.86Z"/><path d="M84.18,206.64l1.21-1.22,1.21,1.22-1.21,1.22-1.21-1.22ZM84.56,209.86l1.61-.49h.07v9.76h-1.68v-9.27Z"/><path d="M89.65,214.42c0-3.04,2.09-5.06,4.87-5.06s4.71,1.89,4.71,4.95-2.09,5.04-4.87,5.04-4.71-1.87-4.71-4.93ZM97.41,214.42c0-2.88-1.23-4.81-3-4.81s-2.95,1.85-2.95,4.7,1.23,4.79,3,4.79,2.95-1.85,2.95-4.68Z"/><path d="M110.79,212.76v6.37h-1.7v-6.41c0-.74,0-2.72-2.09-2.72-.93,0-1.82.38-2.73,1.28v7.85h-1.7v-9.27l1.62-.49h.07v1.55c1-.97,2.04-1.57,3.46-1.57,1.98,0,3.05,1.08,3.05,3.4Z"/><path d="M119.71,213.66c0-3.48,1.05-6.39,2.79-8.61l.23.16c-1.57,2.09-2.23,5.04-2.23,8.34s.66,6.32,2.23,8.41l-.23.16c-1.73-2.21-2.79-4.99-2.79-8.46Z"/><path d="M132.67,217.79l-.34,1.35h-6.21v-13.11h1.82v12.78h.34c1.07,0,2.5-.2,4.36-1.03h.04Z"/><path d="M139.55,213.38l2.84,3.67v2.48h-.09l-3.8-4.95-.96,1.37c-1,1.42-1.3,2.36-1.41,3.19h-1.5c.77-.79,1.68-1.98,2.64-3.37l1.02-1.46-3.64-4.74h1.98l2.73,3.53.3-.43c.98-1.4,1.5-2.29,1.71-3.1h1.09c-.73.83-1.48,1.76-2.54,3.26l-.37.54Z"/><path d="M160.87,206.03c-.77,1.87-1.34,3.51-2.12,5.74l-2.62,7.65h-.07l-3.5-10.26-3.57,10.26h-.07l-4.61-13.4h1.95l3.46,10.23,3.57-10.23h.07l3.48,10.23,1.57-4.59c.93-2.63,1.21-4.32,1.36-5.64h1.11Z"/><path d="M167.39,213.38l2.84,3.67v2.48h-.09l-3.8-4.95-.96,1.37c-1,1.42-1.3,2.36-1.41,3.19h-1.5c.77-.79,1.68-1.98,2.64-3.37l1.02-1.46-3.64-4.74h1.98l2.73,3.53.3-.43c.98-1.4,1.5-2.29,1.71-3.1h1.09c-.73.83-1.48,1.76-2.54,3.26l-.37.54Z"/><path d="M189.18,206.03v13.11h-1.82v-6.66h-6.36v6.66h-1.82v-13.11h1.82v6.12h6.36v-6.12h1.82Z"/><path d="M192.57,221.96c1.57-2.09,2.23-5.04,2.23-8.34s-.66-6.32-2.23-8.41l.23-.16c1.73,2.21,2.79,4.99,2.79,8.46s-1.05,6.39-2.79,8.61l-.23-.16Z"/><path d="M198.79,211.18l1.27-1.28,1.25,1.28-1.25,1.28-1.27-1.28ZM198.79,218.25l1.27-1.28,1.25,1.28-1.25,1.26-1.27-1.26Z"/><path d="M204.61,214.13c0-4,2.75-7.29,6.68-8.32l.09.27c-3.23,1.06-4.91,4.18-4.91,8.1,0,3.17,1.11,4.92,2.79,4.92,1.54,0,2.43-1.44,2.43-3.65s-1-3.64-2.52-3.64c-.62,0-1.25.22-1.82.68l-.18-.22c.75-.72,1.66-1.1,2.7-1.1,1.98,0,3.66,1.51,3.66,3.91,0,2.57-1.89,4.27-4.37,4.27-2.68,0-4.53-1.96-4.53-5.22Z"/><path d="M216.09,218.25l1.27-1.28,1.27,1.28-1.27,1.26-1.27-1.26Z"/><path d="M224.11,205.81v13.32h-1.64v-11.13c-.62.38-1.39.67-2.07.86v-.22c1.18-.45,2.71-1.55,3.64-2.84h.07Z"/><path d="M228.01,212.69c0-4.25,2-6.88,5.14-6.88,2.96,0,5.12,2.41,5.12,6.66s-2.02,6.88-5.16,6.88c-2.96,0-5.11-2.41-5.11-6.66ZM236.41,212.65c0-3.89-1.14-6.59-3.32-6.59s-3.23,2.66-3.23,6.43,1.14,6.61,3.32,6.61,3.23-2.66,3.23-6.45Z"/><path d="M241.44,205.81h1.5l-.66,5.19h-.18l-.66-5.19ZM243.94,205.81h1.5l-.66,5.19h-.18l-.66-5.19Z"/><path d="M257.76,213.38l2.84,3.67v2.48h-.09l-3.8-4.95-.96,1.37c-1,1.42-1.3,2.36-1.41,3.19h-1.5c.77-.79,1.68-1.98,2.64-3.37l1.02-1.46-3.64-4.74h1.98l2.73,3.53.3-.43c.98-1.4,1.5-2.29,1.71-3.1h1.09c-.73.83-1.48,1.76-2.54,3.26l-.38.54Z"/><path d="M263.48,214.13c0-4,2.75-7.29,6.68-8.32l.09.27c-3.23,1.06-4.91,4.18-4.91,8.1,0,3.17,1.11,4.92,2.79,4.92,1.54,0,2.43-1.44,2.43-3.65s-1-3.64-2.52-3.64c-.62,0-1.25.22-1.82.68l-.18-.22c.75-.72,1.66-1.1,2.7-1.1,1.98,0,3.66,1.51,3.66,3.91,0,2.57-1.89,4.27-4.37,4.27-2.68,0-4.53-1.96-4.53-5.22Z"/><path d="M274.96,218.25l1.27-1.28,1.27,1.28-1.27,1.26-1.27-1.26Z"/><path d="M282.98,205.81v13.32h-1.64v-11.13c-.62.38-1.39.67-2.07.86v-.22c1.18-.45,2.71-1.55,3.64-2.84h.07Z"/><path d="M286.87,212.69c0-4.25,2-6.88,5.14-6.88,2.96,0,5.12,2.41,5.12,6.66s-2.02,6.88-5.16,6.88c-2.96,0-5.11-2.41-5.11-6.66ZM295.28,212.65c0-3.89-1.14-6.59-3.32-6.59s-3.23,2.66-3.23,6.43,1.14,6.61,3.32,6.61,3.23-2.66,3.23-6.45Z"/><path d="M300.3,205.81h1.5l-.66,5.19h-.18l-.66-5.19ZM302.8,205.81h1.5l-.66,5.19h-.18l-.66-5.19Z"/><path d="M311.59,213.38l2.84,3.67v2.48h-.09l-3.8-4.95-.96,1.37c-1,1.42-1.3,2.36-1.41,3.19h-1.5c.77-.79,1.68-1.98,2.64-3.37l1.02-1.46-3.64-4.74h1.98l2.73,3.53.3-.43c.98-1.4,1.5-2.29,1.71-3.1h1.09c-.73.83-1.48,1.76-2.54,3.26l-.38.54Z"/><path d="M325.41,217.53l-.46,1.6h-8v-.07l1.04-1.08c3.5-3.66,5.21-6.16,5.21-8.41,0-1.78-1.07-2.88-2.64-2.88-1.18,0-2.41.56-3.34,2.2l-.23-.11c.5-1.01,1.66-2.97,4.32-2.97,2.11,0,3.77,1.26,3.77,3.51s-1.88,4.45-6.52,8.46l-.12.11h1.3c2.32,0,3.89-.11,5.68-.36Z"/><path d="M331.7,205.81v13.32h-1.64v-11.13c-.62.38-1.39.67-2.07.86v-.22c1.18-.45,2.71-1.55,3.64-2.84h.07Z"/><path d="M335.2,218.25l1.27-1.28,1.27,1.28-1.27,1.26-1.27-1.26Z"/><path d="M347.73,206.03v.07l-4.77,13.04h-1.61l5.59-11.83h-2.23c-2.32,0-4.21.14-5.43.43l.32-1.71h8.12Z"/><path d="M358.14,206.03v.07l-4.77,13.04h-1.61l5.59-11.83h-2.23c-2.32,0-4.21.14-5.43.43l.32-1.71h8.12Z"/><path d="M361.06,205.81h1.5l-.66,5.19h-.18l-.66-5.19ZM363.56,205.81h1.5l-.66,5.19h-.18l-.66-5.19Z"/><path d="M22.74,231.19v13.11h-1.82v-6.66h-6.36v6.66h-1.82v-13.11h1.82v6.12h6.36v-6.12h1.82Z"/><path d="M28.01,238.84v.32c0,2.99,1.45,4.57,3.37,4.57,1.07,0,2.34-.54,3.16-1.73l.21.13c-1.02,1.57-2.43,2.38-4.11,2.38-2.55,0-4.45-1.93-4.45-4.84,0-3.12,2.05-5.15,4.8-5.15,2.57,0,3.89,1.78,3.86,4.32h-6.86ZM28.03,238.55h5.21c.11-2.27-.86-3.76-2.37-3.76s-2.66,1.57-2.84,3.76Z"/><path d="M37.82,231.8l1.21-1.22,1.21,1.22-1.21,1.22-1.21-1.22ZM38.19,235.03l1.61-.49h.07v9.76h-1.68v-9.27Z"/><path d="M51.91,245.18c0,1.98-2.23,3.44-5.02,3.44-2.29,0-4.05-.99-4.05-2.59,0-.38.09-.77.29-1.21l1-.29h.07c-.18.49-.29.94-.29,1.35,0,1.46,1.09,2.45,2.98,2.45,2.34,0,3.91-.97,3.91-2.47,0-.97-.75-1.53-2.34-1.62l-2.8-.18c-1.25-.07-2.09-.54-2.09-1.48,0-.68.43-1.15,1.27-1.66l.36-.22c-1.09-.54-1.8-1.57-1.8-2.86,0-1.96,1.64-3.33,3.82-3.33.95,0,1.8.25,2.45.72.46-.67,1.2-1.3,2.39-1.3l-.16,1.44c-.34-.11-.71-.2-1.04-.2-.39,0-.71.07-.96.23.68.58,1.09,1.42,1.09,2.41,0,1.94-1.64,3.31-3.82,3.31-.61,0-1.16-.11-1.66-.31l-.39.27c-.41.27-.52.54-.52.81,0,.38.29.65,1.25.7l2.95.18c2,.11,3.12.88,3.12,2.38ZM45,237.83c0,1.8.86,3.02,2.2,3.02s2.18-1.21,2.18-3.01-.86-3.04-2.2-3.04-2.18,1.22-2.18,3.03Z"/><path d="M63.21,237.92v6.37h-1.68v-6.41c0-.74-.02-2.72-2.09-2.72-.95,0-1.82.38-2.75,1.28v7.85h-1.68v-14.04l1.61-.54h.07v6.39c1-.97,2.04-1.58,3.48-1.58,1.96,0,3.03,1.08,3.03,3.4Z"/><path d="M72.21,243.67c-.75.5-1.5.85-2.5.85-2.2,0-2.32-1.69-2.32-2.47v-6.91h-1.37v-.31l1.3-.09,1.7-3.06h.07v3.06h3.05l-.23.4h-2.82v6.88c0,.52,0,1.89,1.45,1.89.41,0,.95-.11,1.54-.45l.14.22Z"/><path d="M88.38,243.87v.11c-.29.18-.84.45-1.48.45-1.14,0-1.37-.85-1.41-1.33-.93.88-2.18,1.39-3.3,1.39-1.5,0-2.5-.88-2.5-2.21,0-1.67,1.59-2.72,4.03-2.99.64-.07,1.21-.11,1.75-.16v-1.03c0-1.78-.52-2.97-2.29-2.97-.96,0-1.8.34-2.68,1.08l-.16-.2c.96-.9,1.96-1.48,3.5-1.48,2.2,0,3.32,1.08,3.32,3.4v4.61c0,.86,0,1.37.87,1.37.12,0,.23-.02.34-.04ZM85.47,242.75v-3.37c-2.43.25-4.11.85-4.11,2.59,0,1.26.79,1.85,1.75,1.85.77,0,1.62-.36,2.36-1.08Z"/><path d="M100.27,239.36c0,3.08-2.11,5.15-4.61,5.15-1.37,0-2.45-.47-3.25-1.26l-1,1.12h-.07v-14.12l1.61-.54h.07v6.32c.87-.94,1.95-1.51,3.18-1.51,2.32,0,4.07,2,4.07,4.84ZM98.45,239.53c0-2.93-1.18-4.41-2.79-4.41-.89,0-1.86.45-2.64,1.39v5.91c.46,1.1,1.37,1.82,2.48,1.82,1.73,0,2.95-1.8,2.95-4.7Z"/><path d="M103.13,239.58c0-3.04,2.09-5.06,4.87-5.06s4.71,1.89,4.71,4.95-2.09,5.04-4.87,5.04-4.71-1.87-4.71-4.93ZM110.9,239.58c0-2.88-1.23-4.81-3-4.81s-2.95,1.85-2.95,4.7,1.23,4.79,3,4.79,2.95-1.85,2.95-4.68Z"/><path d="M123.31,234.74c-.77,1.55-1.37,2.97-2.41,5.4l-1.89,4.43h-.12l-4.2-9.83h1.82l3.16,7.44.93-2.14c1.05-2.45,1.57-4.2,1.68-5.29h1.04Z"/><path d="M126.92,238.84v.32c0,2.99,1.45,4.57,3.37,4.57,1.07,0,2.34-.54,3.16-1.73l.21.13c-1.02,1.57-2.43,2.38-4.11,2.38-2.55,0-4.45-1.93-4.45-4.84,0-3.12,2.05-5.15,4.8-5.15,2.57,0,3.89,1.78,3.86,4.32h-6.86ZM126.94,238.55h5.21c.11-2.27-.86-3.76-2.37-3.76s-2.66,1.57-2.84,3.76Z"/><path d="M150.71,245.18c0,1.98-2.23,3.44-5.02,3.44-2.29,0-4.05-.99-4.05-2.59,0-.38.09-.77.29-1.21l1-.29h.07c-.18.49-.29.94-.29,1.35,0,1.46,1.09,2.45,2.98,2.45,2.34,0,3.91-.97,3.91-2.47,0-.97-.75-1.53-2.34-1.62l-2.8-.18c-1.25-.07-2.09-.54-2.09-1.48,0-.68.43-1.15,1.27-1.66l.36-.22c-1.09-.54-1.8-1.57-1.8-2.86,0-1.96,1.64-3.33,3.82-3.33.95,0,1.8.25,2.45.72.46-.67,1.2-1.3,2.39-1.3l-.16,1.44c-.34-.11-.71-.2-1.04-.2-.39,0-.71.07-.96.23.68.58,1.09,1.42,1.09,2.41,0,1.94-1.64,3.31-3.82,3.31-.61,0-1.16-.11-1.66-.31l-.39.27c-.41.27-.52.54-.52.81,0,.38.29.65,1.25.7l2.95.18c2,.11,3.12.88,3.12,2.38ZM143.8,237.83c0,1.8.86,3.02,2.2,3.02s2.18-1.21,2.18-3.01-.86-3.04-2.2-3.04-2.18,1.22-2.18,3.03Z"/><path d="M159.21,234.67l-.5,1.33c-.32-.14-.7-.22-.98-.22-.96,0-1.79.7-2.23,1.66v6.86h-1.7v-9.27l1.59-.49h.07v2.38c.66-1.46,1.66-2.36,2.91-2.36.32,0,.62.05.84.11Z"/><path d="M160.73,239.58c0-3.04,2.09-5.06,4.87-5.06s4.71,1.89,4.71,4.95-2.09,5.04-4.87,5.04-4.71-1.87-4.71-4.93ZM168.49,239.58c0-2.88-1.23-4.81-3-4.81s-2.95,1.85-2.95,4.7,1.23,4.79,3,4.79,2.95-1.85,2.95-4.68Z"/><path d="M182.14,243.96l-1.59.5-.5-1.57v-.04c-.88.95-2.05,1.66-3.43,1.66-1.98,0-3.05-1.08-3.05-3.38v-6.1l1.62-.49h.07v6.63c0,.74,0,2.72,2.09,2.72.89,0,1.91-.56,2.7-1.44v-7.42l1.62-.49h.07v8.12l.39,1.3Z"/><path d="M193.82,237.92v6.37h-1.7v-6.41c0-.74,0-2.72-2.09-2.72-.93,0-1.82.38-2.73,1.28v7.85h-1.7v-9.27l1.62-.49h.07v1.55c1-.97,2.04-1.57,3.46-1.57,1.98,0,3.05,1.08,3.05,3.4Z"/><path d="M204.84,244.46l-.46-1.48c-.87.95-1.95,1.53-3.2,1.53-2.32,0-4.07-2-4.07-4.83,0-3.08,2.11-5.17,4.61-5.17,1.04,0,1.93.36,2.62.99v-5.26l1.62-.54h.07v12.95l.39,1.3-1.59.5ZM204.34,242.57v-5.92c-.45-1.1-1.36-1.82-2.46-1.82-1.75,0-2.95,1.78-2.95,4.68s1.18,4.41,2.8,4.41c.89,0,1.82-.45,2.61-1.35Z"/><path d="M209.66,236.34l1.27-1.28,1.25,1.28-1.25,1.28-1.27-1.28ZM209.66,243.42l1.27-1.28,1.25,1.28-1.25,1.26-1.27-1.26Z"/><path d="M224.22,230.97v13.32h-1.64v-11.13c-.62.38-1.39.67-2.07.86v-.22c1.18-.45,2.71-1.55,3.64-2.84h.07Z"/><path d="M235.57,240.27c0,2.56-2.05,4.25-4.62,4.25-1.07,0-2.21-.27-3.23-.81l.25-.86c.8.9,1.71,1.39,2.93,1.39,1.82,0,3.2-1.37,3.2-3.31s-1.5-3.55-4.96-3.55h-.61l.54-6.18h6.28l-.43,1.28h-5.61l-.29,3.35h.71c4.02,0,5.84,1.96,5.84,4.45Z"/><path d="M238.36,243.42l1.27-1.28,1.27,1.28-1.27,1.26-1.27-1.26Z"/><path d="M243.54,243.7l.27-1.01c.91.99,1.77,1.53,3.05,1.53,1.68,0,3.11-1.21,3.11-3.24,0-1.67-1.23-3.04-3.18-3.28l-.68-.07-.07-.2.62-.2c1.39-.45,2.7-1.58,2.7-3.2,0-1.44-1.02-2.23-2.32-2.23-1.57,0-2.66,1.03-3.09,1.64l-.23-.11c.73-1.1,1.98-2.36,4.07-2.36,1.82,0,3.3.99,3.3,2.68,0,1.48-1.34,2.72-2.73,3.19v.04c1.7.31,3.21,1.66,3.21,3.56,0,2.47-2.02,4.07-4.71,4.07-1.04,0-2.12-.25-3.32-.81Z"/><path d="M262.35,240.27c0,2.56-2.05,4.25-4.62,4.25-1.07,0-2.21-.27-3.23-.81l.25-.86c.8.9,1.71,1.39,2.93,1.39,1.82,0,3.2-1.37,3.2-3.31s-1.5-3.55-4.96-3.55h-.61l.54-6.18h6.28l-.43,1.28h-5.61l-.29,3.35h.71c4.02,0,5.84,1.96,5.84,4.45Z"/><path d="M265.44,235.6c.7-.43,1.05-1.01,1.05-1.64,0-.67-.5-1.35-1.29-1.84l.93-1.15c.95.36,1.54,1.13,1.54,2.07,0,1.13-1,2.12-2.14,2.68l-.09-.13ZM268.65,235.6c.7-.43,1.05-1.01,1.05-1.64,0-.67-.5-1.35-1.29-1.84l.93-1.15c.95.36,1.54,1.13,1.54,2.07,0,1.13-1,2.12-2.14,2.68l-.09-.13Z"/><path d="M22.33,265.86c0,2.21-1.95,3.6-5.39,3.6h-4.2v-13.11h4.3c2.98,0,4.5,1.17,4.5,3.06,0,1.75-1.52,2.79-3.14,3.12v.04c2.2.14,3.93,1.3,3.93,3.3ZM16.6,256.64h-2.04v5.92h2.3c1.75,0,2.75-1.3,2.75-2.95s-.93-2.97-3.02-2.97ZM20.33,266.11c0-1.95-1.2-3.26-3.16-3.26h-2.61v6.19c.37.09,1.37.13,1.84.13,2.73,0,3.93-1.13,3.93-3.06Z"/><path d="M31.05,259.83l-.5,1.33c-.32-.14-.7-.22-.98-.22-.96,0-1.79.7-2.23,1.66v6.86h-1.7v-9.27l1.59-.49h.07v2.38c.66-1.46,1.66-2.36,2.91-2.36.32,0,.62.05.84.11Z"/><path d="M33.57,256.96l1.21-1.22,1.21,1.22-1.21,1.22-1.21-1.22ZM33.94,260.19l1.61-.49h.07v9.76h-1.68v-9.27Z"/><path d="M47.66,270.34c0,1.98-2.23,3.44-5.02,3.44-2.29,0-4.05-.99-4.05-2.59,0-.38.09-.77.29-1.21l1-.29h.07c-.18.49-.29.94-.29,1.35,0,1.46,1.09,2.45,2.98,2.45,2.34,0,3.91-.97,3.91-2.47,0-.97-.75-1.53-2.34-1.62l-2.8-.18c-1.25-.07-2.09-.54-2.09-1.48,0-.68.43-1.15,1.27-1.66l.36-.22c-1.09-.54-1.8-1.57-1.8-2.86,0-1.96,1.64-3.33,3.82-3.33.95,0,1.8.25,2.45.72.46-.67,1.2-1.3,2.39-1.3l-.16,1.44c-.34-.11-.71-.2-1.04-.2-.39,0-.71.07-.96.23.68.58,1.09,1.42,1.09,2.41,0,1.94-1.64,3.31-3.82,3.31-.61,0-1.16-.11-1.66-.31l-.39.27c-.41.27-.52.54-.52.81,0,.38.29.65,1.25.7l2.95.18c2,.11,3.12.88,3.12,2.38ZM40.75,263c0,1.8.86,3.02,2.2,3.02s2.18-1.21,2.18-3.01-.86-3.04-2.2-3.04-2.18,1.22-2.18,3.03Z"/><path d="M58.96,263.09v6.37h-1.68v-6.41c0-.74-.02-2.72-2.09-2.72-.95,0-1.82.38-2.75,1.28v7.85h-1.68v-14.04l1.61-.54h.07v6.39c1-.97,2.04-1.58,3.48-1.58,1.96,0,3.03,1.08,3.03,3.4Z"/><path d="M67.96,268.83c-.75.5-1.5.85-2.5.85-2.2,0-2.32-1.69-2.32-2.47v-6.91h-1.37v-.31l1.3-.09,1.7-3.06h.07v3.06h3.05l-.23.4h-2.82v6.88c0,.52,0,1.89,1.45,1.89.41,0,.95-.11,1.54-.45l.14.22Z"/><path d="M78.84,263.09v6.37h-1.7v-6.41c0-.74,0-2.72-2.09-2.72-.93,0-1.82.38-2.73,1.28v7.85h-1.7v-9.27l1.62-.49h.07v1.55c1-.97,2.04-1.57,3.46-1.57,1.98,0,3.05,1.08,3.05,3.4Z"/><path d="M83.93,264v.32c0,2.99,1.45,4.57,3.37,4.57,1.07,0,2.34-.54,3.16-1.73l.21.13c-1.02,1.57-2.43,2.38-4.11,2.38-2.55,0-4.45-1.93-4.45-4.84,0-3.12,2.05-5.15,4.8-5.15,2.57,0,3.89,1.78,3.86,4.32h-6.86ZM83.95,263.72h5.21c.11-2.27-.86-3.76-2.37-3.76s-2.66,1.57-2.84,3.76Z"/><path d="M93.45,268.81l.27-.92c.73.86,1.87,1.53,3.28,1.53s2.32-.76,2.32-1.84c0-1.15-1.09-1.62-2.21-2.09l-.73-.31c-1.16-.5-2.75-1.17-2.75-2.88,0-1.51,1.29-2.63,3.32-2.63,1.27,0,2.46.4,3.09.76l-.25.85c-.62-.61-1.73-1.35-3-1.35s-2.02.76-2.02,1.64c0,1.13,1.23,1.59,2.23,2.02l.71.31c1.12.47,2.75,1.15,2.75,2.93,0,1.64-1.36,2.84-3.64,2.84-1.2,0-2.57-.34-3.37-.86Z"/><path d="M103.02,268.81l.27-.92c.73.86,1.87,1.53,3.28,1.53s2.32-.76,2.32-1.84c0-1.15-1.09-1.62-2.21-2.09l-.73-.31c-1.16-.5-2.75-1.17-2.75-2.88,0-1.51,1.29-2.63,3.32-2.63,1.27,0,2.46.4,3.09.76l-.25.85c-.62-.61-1.73-1.35-3-1.35s-2.02.76-2.02,1.64c0,1.13,1.23,1.59,2.23,2.02l.71.31c1.12.47,2.75,1.15,2.75,2.93,0,1.64-1.36,2.84-3.64,2.84-1.2,0-2.57-.34-3.37-.86Z"/><path d="M112.99,261.5l1.27-1.28,1.25,1.28-1.25,1.28-1.27-1.28ZM112.99,268.58l1.27-1.28,1.25,1.28-1.25,1.26-1.27-1.26Z"/><path d="M132.67,265.9h-1.64v3.57h-1.64v-3.57h-5.53l-.21-.56,7.03-9.08h.36v8.52h1.95l-.3,1.12ZM129.38,264.78v-6.34l-4.86,6.34h4.86Z"/><path d="M135.88,263.01c0-4.25,2-6.88,5.14-6.88,2.96,0,5.12,2.41,5.12,6.66s-2.02,6.88-5.16,6.88c-2.96,0-5.11-2.41-5.11-6.66ZM144.29,262.98c0-3.89-1.14-6.59-3.32-6.59s-3.23,2.66-3.23,6.43,1.14,6.61,3.32,6.61,3.23-2.66,3.23-6.45Z"/><path d="M162.08,268.11l-.34,1.35h-6.21v-13.11h1.82v12.78h.34c1.07,0,2.5-.2,4.36-1.03h.04Z"/><path d="M173.28,269.12l-1.59.5-.5-1.57v-.04c-.87.95-2.05,1.66-3.43,1.66-1.98,0-3.05-1.08-3.05-3.38v-6.1l1.62-.49h.07v6.63c0,.74,0,2.72,2.09,2.72.89,0,1.91-.56,2.7-1.44v-7.42l1.62-.49h.07v8.12l.39,1.3Z"/><path d="M191.16,263.09v6.37h-1.68v-6.41c0-.74-.02-2.72-2.09-2.72-.96,0-1.77.41-2.73,1.44.09.38.14.81.14,1.31v6.37h-1.7v-6.41c0-.74,0-2.72-2.07-2.72-.93,0-1.7.38-2.59,1.26v7.87h-1.7v-9.27l1.62-.49h.07v1.55c.96-.97,1.91-1.57,3.34-1.57s2.36.58,2.79,1.76c1.05-1.08,2.04-1.76,3.57-1.76,1.96,0,3.02,1.08,3.02,3.4Z"/><path d="M196.27,264v.32c0,2.99,1.45,4.57,3.37,4.57,1.07,0,2.34-.54,3.16-1.73l.21.13c-1.02,1.57-2.43,2.38-4.11,2.38-2.55,0-4.45-1.93-4.45-4.84,0-3.12,2.05-5.15,4.8-5.15,2.57,0,3.89,1.78,3.86,4.32h-6.86ZM196.29,263.72h5.21c.11-2.27-.86-3.76-2.37-3.76s-2.66,1.57-2.84,3.76Z"/><path d="M214.61,263.09v6.37h-1.7v-6.41c0-.74,0-2.72-2.09-2.72-.93,0-1.82.38-2.73,1.28v7.85h-1.7v-9.27l1.62-.49h.07v1.55c1-.97,2.04-1.57,3.46-1.57,1.98,0,3.05,1.08,3.05,3.4Z"/><path d="M217.77,268.81l.27-.92c.73.86,1.87,1.53,3.28,1.53s2.32-.76,2.32-1.84c0-1.15-1.09-1.62-2.21-2.09l-.73-.31c-1.16-.5-2.75-1.17-2.75-2.88,0-1.51,1.29-2.63,3.32-2.63,1.27,0,2.46.4,3.09.76l-.25.85c-.62-.61-1.73-1.35-3-1.35s-2.02.76-2.02,1.64c0,1.13,1.23,1.59,2.23,2.02l.71.31c1.12.47,2.75,1.15,2.75,2.93,0,1.64-1.36,2.84-3.64,2.84-1.2,0-2.57-.34-3.37-.86Z"/><path d="M12.14,288.18c0-4.2,2.84-6.88,6.61-6.88,2.11,0,3.86.94,4.87,2.11l-.89.81c-.91-1.53-2.34-2.63-4.07-2.63-2.73,0-4.52,2.63-4.52,6.14,0,3.98,2.16,6.32,5.04,6.32,1.55,0,3.25-.67,4.41-2.47l.21.13c-1.18,1.93-3,3.13-5.43,3.13-3.57,0-6.23-2.61-6.23-6.66Z"/><path d="M26.32,289.9c0-3.04,2.09-5.06,4.87-5.06s4.71,1.89,4.71,4.95-2.09,5.04-4.87,5.04-4.71-1.87-4.71-4.93ZM34.08,289.9c0-2.88-1.23-4.81-3-4.81s-2.95,1.85-2.95,4.7,1.23,4.79,3,4.79,2.95-1.85,2.95-4.68Z"/><path d="M47.46,288.25v6.37h-1.7v-6.41c0-.74,0-2.72-2.09-2.72-.93,0-1.82.38-2.73,1.28v7.85h-1.7v-9.27l1.62-.49h.07v1.55c1-.97,2.04-1.57,3.46-1.57,1.98,0,3.05,1.08,3.05,3.4Z"/><path d="M50.62,293.97l.27-.92c.73.86,1.87,1.53,3.28,1.53s2.32-.76,2.32-1.84c0-1.15-1.09-1.62-2.21-2.09l-.73-.31c-1.16-.5-2.75-1.17-2.75-2.88,0-1.51,1.29-2.63,3.32-2.63,1.27,0,2.46.4,3.09.76l-.25.85c-.62-.61-1.73-1.35-3-1.35s-2.02.76-2.02,1.64c0,1.13,1.23,1.59,2.23,2.02l.71.31c1.12.47,2.75,1.15,2.75,2.93,0,1.64-1.36,2.84-3.64,2.84-1.2,0-2.57-.34-3.37-.86Z"/><path d="M66.18,293.99c-.75.5-1.5.85-2.5.85-2.2,0-2.32-1.69-2.32-2.47v-6.91h-1.37v-.31l1.3-.09,1.7-3.06h.07v3.06h3.05l-.23.4h-2.82v6.88c0,.52,0,1.89,1.45,1.89.41,0,.95-.11,1.54-.45l.14.22Z"/><path d="M74.25,284.99l-.5,1.33c-.32-.14-.7-.22-.98-.22-.96,0-1.79.7-2.23,1.66v6.86h-1.7v-9.27l1.59-.49h.07v2.38c.66-1.46,1.66-2.36,2.91-2.36.32,0,.62.05.84.11Z"/><path d="M85.57,294.28l-1.59.5-.5-1.57v-.04c-.87.95-2.05,1.66-3.43,1.66-1.98,0-3.05-1.08-3.05-3.38v-6.1l1.62-.49h.07v6.63c0,.74,0,2.72,2.09,2.72.89,0,1.91-.56,2.7-1.44v-7.42l1.62-.49h.07v8.12l.39,1.3Z"/><path d="M88.56,289.94c0-3.06,2.09-5.1,4.68-5.1,1.62,0,2.8.63,3.59,1.64l-.73.65c-.75-1.21-1.57-2.02-2.77-2.02-1.71,0-2.93,1.73-2.93,4.43,0,2.93,1.37,4.52,3.25,4.52,1.04,0,2.25-.54,3.07-1.73l.21.13c-.95,1.44-2.25,2.38-3.98,2.38-2.5,0-4.39-1.93-4.39-4.9Z"/><path d="M105.38,293.99c-.75.5-1.5.85-2.5.85-2.2,0-2.32-1.69-2.32-2.47v-6.91h-1.37v-.31l1.3-.09,1.7-3.06h.07v3.06h3.05l-.23.4h-2.82v6.88c0,.52,0,1.89,1.45,1.89.41,0,.95-.11,1.54-.45l.14.22Z"/><path d="M107.72,282.13l1.21-1.22,1.21,1.22-1.21,1.22-1.21-1.22ZM108.1,285.35l1.61-.49h.07v9.76h-1.68v-9.27Z"/><path d="M113.19,289.9c0-3.04,2.09-5.06,4.87-5.06s4.71,1.89,4.71,4.95-2.09,5.04-4.87,5.04-4.71-1.87-4.71-4.93ZM120.95,289.9c0-2.88-1.23-4.81-3-4.81s-2.95,1.85-2.95,4.7,1.23,4.79,3,4.79,2.95-1.85,2.95-4.68Z"/><path d="M134.33,288.25v6.37h-1.7v-6.41c0-.74,0-2.72-2.09-2.72-.93,0-1.82.38-2.73,1.28v7.85h-1.7v-9.27l1.62-.49h.07v1.55c1-.97,2.04-1.57,3.46-1.57,1.98,0,3.05,1.08,3.05,3.4Z"/><path d="M137.87,286.66l1.27-1.28,1.25,1.28-1.25,1.28-1.27-1.28ZM137.87,293.74l1.27-1.28,1.25,1.28-1.25,1.26-1.27-1.26Z"/><path d="M149.07,293.88l.32-1.13c.86,1.06,2.55,1.8,4,1.8,1.73,0,2.91-1.08,2.91-2.56,0-1.73-1.54-2.5-2.86-3.12l-.89-.4c-1.41-.65-3.29-1.58-3.29-3.73,0-1.98,1.62-3.46,4.11-3.46,1.46,0,2.91.52,3.64.95l-.29,1.01c-.79-.83-2.07-1.67-3.55-1.67-1.66,0-2.61,1.04-2.61,2.3,0,1.55,1.36,2.23,2.79,2.9l.89.41c1.61.76,3.34,1.62,3.34,3.85s-1.84,3.78-4.36,3.78c-1.55,0-3.36-.54-4.16-.95Z"/><path d="M166.05,293.99c-.75.5-1.5.85-2.5.85-2.2,0-2.32-1.69-2.32-2.47v-6.91h-1.37v-.31l1.3-.09,1.7-3.06h.07v3.06h3.05l-.23.4h-2.82v6.88c0,.52,0,1.89,1.45,1.89.41,0,.95-.11,1.54-.45l.14.22Z"/><path d="M169.68,289.17v.32c0,2.99,1.45,4.57,3.37,4.57,1.07,0,2.34-.54,3.16-1.73l.21.13c-1.02,1.57-2.43,2.38-4.11,2.38-2.55,0-4.45-1.93-4.45-4.84,0-3.12,2.05-5.15,4.8-5.15,2.57,0,3.89,1.78,3.86,4.32h-6.86ZM169.69,288.88h5.21c.11-2.27-.86-3.76-2.37-3.76s-2.66,1.57-2.84,3.76Z"/><path d="M181.12,289.17v.32c0,2.99,1.45,4.57,3.37,4.57,1.07,0,2.34-.54,3.16-1.73l.21.13c-1.02,1.57-2.43,2.38-4.11,2.38-2.55,0-4.45-1.93-4.45-4.84,0-3.12,2.05-5.15,4.8-5.15,2.57,0,3.89,1.78,3.86,4.32h-6.86ZM181.14,288.88h5.21c.11-2.27-.86-3.76-2.37-3.76s-2.66,1.57-2.84,3.76Z"/><path d="M191.3,280.58l1.62-.54h.07v14.58h-1.7v-14.04Z"/><path d="M202.06,288.18c0-4.2,2.84-6.88,6.61-6.88,2.11,0,3.86.94,4.87,2.11l-.89.81c-.91-1.53-2.34-2.63-4.07-2.63-2.73,0-4.52,2.63-4.52,6.14,0,3.98,2.16,6.32,5.03,6.32,1.55,0,3.25-.67,4.41-2.47l.21.13c-1.18,1.93-3,3.13-5.43,3.13-3.57,0-6.23-2.61-6.23-6.66Z"/><path d="M224.7,294.19v.11c-.29.18-.84.45-1.48.45-1.14,0-1.37-.85-1.41-1.33-.93.88-2.18,1.39-3.3,1.39-1.5,0-2.5-.88-2.5-2.21,0-1.67,1.59-2.72,4.03-2.99.64-.07,1.21-.11,1.75-.16v-1.03c0-1.78-.52-2.97-2.29-2.97-.96,0-1.8.34-2.68,1.08l-.16-.2c.96-.9,1.96-1.48,3.5-1.48,2.2,0,3.32,1.08,3.32,3.4v4.61c0,.86,0,1.37.87,1.37.12,0,.23-.02.34-.04ZM221.79,293.07v-3.37c-2.43.25-4.11.85-4.11,2.59,0,1.26.79,1.85,1.75,1.85.77,0,1.62-.36,2.36-1.08Z"/><path d="M236.57,289.69c0,3.08-2.11,5.15-4.61,5.15-1.04,0-1.93-.36-2.62-.99v4.88h-1.7v-13.38l1.62-.49h.07v1.49c.87-.94,1.93-1.51,3.16-1.51,2.32,0,4.07,2,4.07,4.84ZM234.75,289.85c0-2.93-1.16-4.41-2.77-4.41-.89,0-1.86.45-2.64,1.37v5.91c.45,1.12,1.36,1.84,2.46,1.84,1.75,0,2.95-1.8,2.95-4.7Z"/><path d="M256.47,292.95v2.07h-.07l-2.34-2c-1.07,1.17-2.66,1.82-4.61,1.82-2.52,0-4.43-1.33-4.43-3.49,0-1.64,1.12-2.86,2.91-3.6-.86-.88-1.55-1.91-1.55-3.21,0-1.89,1.54-3.24,3.41-3.24s3.32,1.21,3.32,2.84-1.54,2.58-2.8,2.95l-.2-.18c1.12-.52,1.82-1.39,1.82-2.65,0-1.6-.91-2.72-2.23-2.72-1.45,0-2.12,1.22-2.12,2.3,0,1.48,1.32,2.63,2.21,3.39l4.98,4.25c.32-.72.52-1.6.52-2.65,0-1.1-.39-1.82-.59-2.2l.88-.34h.07v2.18c0,1.21-.23,2.29-.68,3.19l1.5,1.28ZM253.85,292.84l-4.73-4.03c-.32-.27-.68-.58-1-.88-1.14.72-1.54,1.87-1.54,2.92,0,2.11,1.46,3.51,3.48,3.51,1.36,0,2.77-.47,3.79-1.51Z"/><path d="M273.78,285.11c0,2.45-1.93,4.03-5.04,4.03-.55,0-1.16-.05-1.55-.11v5.58h-1.82v-13.11h3.37c3.34,0,5.04,1.3,5.04,3.6ZM271.85,285.33c0-2.07-1.04-3.53-3.37-3.53h-1.29v6.93c.32.07.73.13,1.25.13,2.27,0,3.41-1.33,3.41-3.53Z"/><path d="M275.96,289.9c0-3.04,2.09-5.06,4.87-5.06s4.71,1.89,4.71,4.95-2.09,5.04-4.87,5.04-4.71-1.87-4.71-4.93ZM283.72,289.9c0-2.88-1.23-4.81-3-4.81s-2.95,1.85-2.95,4.7,1.23,4.79,3,4.79,2.95-1.85,2.95-4.68Z"/><path d="M288.94,280.58l1.62-.54h.07v14.58h-1.7v-14.04Z"/><path d="M295.84,289.17v.32c0,2.99,1.45,4.57,3.37,4.57,1.07,0,2.34-.54,3.16-1.73l.21.13c-1.02,1.57-2.43,2.38-4.11,2.38-2.55,0-4.45-1.93-4.45-4.84,0-3.12,2.05-5.15,4.8-5.15,2.57,0,3.89,1.78,3.86,4.32h-6.86ZM295.85,288.88h5.21c.11-2.27-.86-3.76-2.37-3.76s-2.66,1.57-2.84,3.76Z"/><path d="M305.5,297.07c.7-.43,1.05-1.01,1.05-1.62,0-.68-.5-1.35-1.29-1.84l.93-1.17c.95.38,1.54,1.15,1.54,2.07,0,1.13-1,2.12-2.14,2.68l-.09-.13Z"/><path d="M325.14,285.11c0,2.45-1.93,4.03-5.04,4.03-.55,0-1.16-.05-1.55-.11v5.58h-1.82v-13.11h3.37c3.34,0,5.04,1.3,5.04,3.6ZM323.21,285.33c0-2.07-1.04-3.53-3.37-3.53h-1.29v6.93c.32.07.73.13,1.25.13,2.27,0,3.41-1.33,3.41-3.53Z"/><path d="M328.09,288.18c0-4.2,2.84-6.88,6.61-6.88,2.11,0,3.86.94,4.87,2.11l-.89.81c-.91-1.53-2.34-2.63-4.07-2.63-2.73,0-4.52,2.63-4.52,6.14,0,3.98,2.16,6.32,5.03,6.32,1.55,0,3.25-.67,4.41-2.47l.21.13c-1.18,1.93-3,3.13-5.43,3.13-3.57,0-6.23-2.61-6.23-6.66Z"/><path d="M355.09,293.27l-.34,1.35h-6.21v-13.11h1.82v12.78h.34c1.07,0,2.5-.2,4.36-1.03h.04Z"/><path d="M358.81,289.17v.32c0,2.99,1.45,4.57,3.37,4.57,1.07,0,2.34-.54,3.16-1.73l.21.13c-1.02,1.57-2.43,2.38-4.11,2.38-2.55,0-4.45-1.93-4.45-4.84,0-3.12,2.05-5.15,4.8-5.15,2.57,0,3.89,1.78,3.86,4.32h-6.86ZM358.83,288.88h5.21c.11-2.27-.86-3.76-2.37-3.76s-2.66,1.57-2.84,3.76Z"/><path d="M377.15,288.25v6.37h-1.7v-6.41c0-.74,0-2.72-2.09-2.72-.93,0-1.82.38-2.73,1.28v7.85h-1.7v-9.27l1.62-.49h.07v1.55c1-.97,2.04-1.57,3.46-1.57,1.98,0,3.05,1.08,3.05,3.4Z"/><path d="M380.31,293.97l.27-.92c.73.86,1.87,1.53,3.28,1.53s2.32-.76,2.32-1.84c0-1.15-1.09-1.62-2.21-2.09l-.73-.31c-1.16-.5-2.75-1.17-2.75-2.88,0-1.51,1.29-2.63,3.32-2.63,1.27,0,2.46.4,3.09.76l-.25.85c-.62-.61-1.73-1.35-3-1.35s-2.02.76-2.02,1.64c0,1.13,1.23,1.59,2.23,2.02l.71.31c1.12.47,2.75,1.15,2.75,2.93,0,1.64-1.36,2.84-3.64,2.84-1.2,0-2.57-.34-3.38-.86Z"/><path d="M24.19,313.09c0,4.23-2.79,6.7-7.2,6.7h-4.25v-13.11h4.55c4.12,0,6.89,2.25,6.89,6.41ZM22.19,313.18c0-3.71-1.98-6.21-5.05-6.21h-2.57v12.37c.46.11,1.3.16,2.73.16,3.11,0,4.89-2.29,4.89-6.32Z"/><path d="M36.17,319.44l-1.59.5-.5-1.57v-.04c-.87.95-2.05,1.66-3.43,1.66-1.98,0-3.05-1.08-3.05-3.38v-6.1l1.62-.49h.07v6.63c0,.74,0,2.72,2.09,2.72.89,0,1.91-.56,2.7-1.44v-7.42l1.62-.49h.07v8.12l.39,1.3Z"/><path d="M47.62,319.35v.11c-.29.18-.84.45-1.48.45-1.14,0-1.37-.85-1.41-1.33-.93.88-2.18,1.39-3.3,1.39-1.5,0-2.5-.88-2.5-2.21,0-1.67,1.59-2.72,4.03-2.99.64-.07,1.21-.11,1.75-.16v-1.03c0-1.78-.52-2.97-2.29-2.97-.96,0-1.8.34-2.68,1.08l-.16-.2c.96-.9,1.96-1.48,3.5-1.48,2.2,0,3.32,1.08,3.32,3.4v4.61c0,.86,0,1.37.87,1.37.12,0,.23-.02.34-.04ZM44.71,318.23v-3.37c-2.43.25-4.11.85-4.11,2.59,0,1.26.79,1.85,1.75,1.85.77,0,1.62-.36,2.36-1.08Z"/><path d="M50.62,305.74l1.62-.54h.07v14.58h-1.7v-14.04Z"/><path d="M61.29,319.05l.32-1.13c.86,1.06,2.55,1.8,4,1.8,1.73,0,2.91-1.08,2.91-2.56,0-1.73-1.54-2.5-2.86-3.12l-.89-.4c-1.41-.65-3.29-1.58-3.29-3.73,0-1.98,1.62-3.46,4.11-3.46,1.46,0,2.91.52,3.64.95l-.29,1.01c-.79-.83-2.07-1.67-3.55-1.67-1.66,0-2.61,1.05-2.61,2.3,0,1.55,1.36,2.23,2.79,2.9l.89.41c1.61.76,3.34,1.62,3.34,3.85s-1.84,3.78-4.36,3.78c-1.55,0-3.36-.54-4.16-.95Z"/><path d="M74.47,314.33v.32c0,2.99,1.45,4.57,3.37,4.57,1.07,0,2.34-.54,3.16-1.73l.21.13c-1.02,1.57-2.43,2.38-4.11,2.38-2.55,0-4.45-1.93-4.45-4.84,0-3.12,2.05-5.15,4.8-5.15,2.57,0,3.89,1.78,3.86,4.32h-6.86ZM74.48,314.04h5.21c.11-2.27-.86-3.76-2.37-3.76s-2.66,1.57-2.84,3.76Z"/><path d="M89.88,319.15c-.75.5-1.5.85-2.5.85-2.2,0-2.32-1.69-2.32-2.47v-6.91h-1.37v-.31l1.3-.09,1.7-3.06h.07v3.06h3.05l-.23.4h-2.82v6.88c0,.52,0,1.89,1.45,1.89.41,0,.95-.11,1.54-.45l.14.22Z"/><path d="M98.02,319.15c-.75.5-1.5.85-2.5.85-2.2,0-2.32-1.69-2.32-2.47v-6.91h-1.37v-.31l1.3-.09,1.7-3.06h.07v3.06h3.05l-.23.4h-2.82v6.88c0,.52,0,1.89,1.45,1.89.41,0,.95-.11,1.54-.45l.14.22Z"/><path d="M100.36,307.29l1.21-1.22,1.21,1.22-1.21,1.22-1.21-1.22ZM100.74,310.51l1.61-.49h.07v9.76h-1.68v-9.27Z"/><path d="M114.52,313.41v6.37h-1.7v-6.41c0-.74,0-2.72-2.09-2.72-.93,0-1.82.38-2.73,1.28v7.85h-1.7v-9.27l1.62-.49h.07v1.55c1-.97,2.04-1.57,3.46-1.57,1.98,0,3.05,1.08,3.05,3.4Z"/><path d="M126.43,320.67c0,1.98-2.23,3.44-5.02,3.44-2.29,0-4.05-.99-4.05-2.59,0-.38.09-.77.29-1.21l1-.29h.07c-.18.49-.29.94-.29,1.35,0,1.46,1.09,2.45,2.98,2.45,2.34,0,3.91-.97,3.91-2.47,0-.97-.75-1.53-2.34-1.62l-2.8-.18c-1.25-.07-2.09-.54-2.09-1.48,0-.68.43-1.15,1.27-1.66l.36-.22c-1.09-.54-1.8-1.57-1.8-2.86,0-1.96,1.64-3.33,3.82-3.33.95,0,1.8.25,2.45.72.46-.67,1.2-1.3,2.39-1.3l-.16,1.44c-.34-.11-.71-.2-1.04-.2-.39,0-.71.07-.96.23.68.58,1.09,1.42,1.09,2.41,0,1.94-1.64,3.31-3.82,3.31-.61,0-1.16-.11-1.66-.31l-.39.27c-.41.27-.52.54-.52.81,0,.38.29.65,1.25.7l2.95.18c2,.11,3.12.88,3.12,2.38ZM119.53,313.32c0,1.8.86,3.02,2.2,3.02s2.18-1.21,2.18-3.01-.86-3.04-2.2-3.04-2.18,1.22-2.18,3.03Z"/><path d="M128.9,319.14l.27-.92c.73.86,1.87,1.53,3.28,1.53s2.32-.76,2.32-1.84c0-1.15-1.09-1.62-2.21-2.09l-.73-.31c-1.16-.5-2.75-1.17-2.75-2.88,0-1.51,1.29-2.63,3.32-2.63,1.27,0,2.46.4,3.09.76l-.25.85c-.62-.61-1.73-1.35-3-1.35s-2.02.76-2.02,1.64c0,1.13,1.23,1.58,2.23,2.02l.71.31c1.12.47,2.75,1.15,2.75,2.93,0,1.64-1.36,2.84-3.64,2.84-1.2,0-2.57-.34-3.37-.86Z"/><path d="M138.87,311.83l1.27-1.28,1.25,1.28-1.25,1.28-1.27-1.28ZM138.87,318.9l1.27-1.28,1.25,1.28-1.25,1.26-1.27-1.26Z"/><path d="M28.11,331.84c-.77,1.87-1.34,3.51-2.12,5.74l-2.62,7.65h-.07l-3.5-10.26-3.57,10.26h-.07l-4.61-13.4h1.95l3.46,10.23,3.57-10.23h.07l3.48,10.23,1.57-4.59c.93-2.63,1.21-4.32,1.36-5.63h1.11Z"/><path d="M37.74,344.51v.11c-.29.18-.84.45-1.48.45-1.14,0-1.37-.85-1.41-1.33-.93.88-2.18,1.39-3.3,1.39-1.5,0-2.5-.88-2.5-2.21,0-1.67,1.59-2.72,4.03-2.99.64-.07,1.21-.11,1.75-.16v-1.03c0-1.78-.52-2.97-2.29-2.97-.96,0-1.8.34-2.68,1.08l-.16-.2c.96-.9,1.96-1.48,3.5-1.48,2.2,0,3.32,1.08,3.32,3.4v4.61c0,.86,0,1.37.87,1.37.12,0,.23-.02.34-.04ZM34.83,343.4v-3.37c-2.43.25-4.11.85-4.11,2.59,0,1.26.79,1.85,1.75,1.85.77,0,1.62-.36,2.36-1.08Z"/><path d="M46.1,335.31l-.5,1.33c-.32-.14-.7-.22-.98-.22-.96,0-1.79.7-2.23,1.66v6.86h-1.7v-9.27l1.59-.49h.07v2.38c.66-1.46,1.66-2.36,2.91-2.36.32,0,.62.05.84.11Z"/><path d="M63.35,338.57v6.37h-1.68v-6.41c0-.74-.02-2.72-2.09-2.72-.96,0-1.77.41-2.73,1.44.09.38.14.81.14,1.31v6.37h-1.7v-6.41c0-.74,0-2.72-2.07-2.72-.93,0-1.7.38-2.59,1.26v7.87h-1.7v-9.27l1.62-.49h.07v1.55c.96-.97,1.91-1.57,3.34-1.57s2.36.58,2.79,1.76c1.05-1.08,2.04-1.76,3.57-1.76,1.96,0,3.02,1.08,3.02,3.4Z"/><path d="M87.8,331.84c-.77,1.87-1.34,3.51-2.12,5.74l-2.62,7.65h-.07l-3.5-10.26-3.57,10.26h-.07l-4.61-13.4h1.95l3.46,10.23,3.57-10.23h.07l3.48,10.23,1.57-4.59c.93-2.63,1.21-4.32,1.36-5.63h1.11Z"/><path d="M98.82,338.57v6.37h-1.68v-6.41c0-.74-.02-2.72-2.09-2.72-.95,0-1.82.38-2.75,1.28v7.85h-1.68v-14.04l1.61-.54h.07v6.39c1-.97,2.04-1.58,3.48-1.58,1.96,0,3.03,1.08,3.03,3.4Z"/><path d="M102.29,332.45l1.21-1.22,1.21,1.22-1.21,1.22-1.21-1.22ZM102.67,335.67l1.61-.49h.07v9.76h-1.68v-9.27Z"/><path d="M113.7,344.31c-.75.5-1.5.85-2.5.85-2.2,0-2.32-1.69-2.32-2.47v-6.91h-1.37v-.31l1.3-.09,1.7-3.06h.07v3.06h3.05l-.23.4h-2.82v6.88c0,.52,0,1.89,1.45,1.89.41,0,.95-.11,1.54-.45l.14.22Z"/><path d="M117.33,339.49v.32c0,2.99,1.45,4.57,3.37,4.57,1.07,0,2.34-.54,3.16-1.73l.21.13c-1.02,1.57-2.43,2.38-4.11,2.38-2.55,0-4.45-1.93-4.45-4.84,0-3.12,2.05-5.15,4.8-5.15,2.57,0,3.89,1.78,3.86,4.32h-6.86ZM117.35,339.2h5.21c.11-2.27-.86-3.76-2.37-3.76s-2.66,1.57-2.84,3.76Z"/><path d="M12.14,363.66c0-4.2,2.84-6.88,6.61-6.88,2.11,0,3.86.94,4.87,2.11l-.89.81c-.91-1.53-2.34-2.63-4.07-2.63-2.73,0-4.52,2.63-4.52,6.14,0,3.98,2.16,6.32,5.04,6.32,1.55,0,3.25-.67,4.41-2.47l.21.13c-1.18,1.93-3,3.13-5.43,3.13-3.57,0-6.23-2.61-6.23-6.66Z"/><path d="M26.32,365.39c0-3.04,2.09-5.06,4.87-5.06s4.71,1.89,4.71,4.95-2.09,5.04-4.87,5.04-4.71-1.87-4.71-4.93ZM34.08,365.39c0-2.88-1.23-4.81-3-4.81s-2.95,1.85-2.95,4.7,1.23,4.79,3,4.79,2.95-1.85,2.95-4.68Z"/><path d="M39.3,356.06l1.62-.54h.07v14.58h-1.7v-14.04Z"/><path d="M44.39,365.39c0-3.04,2.09-5.06,4.87-5.06s4.71,1.89,4.71,4.95-2.09,5.04-4.87,5.04-4.71-1.87-4.71-4.93ZM52.16,365.39c0-2.88-1.23-4.81-3-4.81s-2.95,1.85-2.95,4.7,1.23,4.79,3,4.79,2.95-1.85,2.95-4.68Z"/><path d="M62.73,360.47l-.5,1.33c-.32-.14-.7-.22-.98-.22-.96,0-1.79.7-2.23,1.66v6.86h-1.7v-9.27l1.59-.49h.07v2.38c.66-1.46,1.66-2.36,2.91-2.36.32,0,.62.05.84.11Z"/><path d="M70.34,363.66c0-4.2,2.84-6.88,6.61-6.88,2.11,0,3.86.94,4.87,2.11l-.89.81c-.91-1.53-2.34-2.63-4.07-2.63-2.73,0-4.52,2.63-4.52,6.14,0,3.98,2.16,6.32,5.03,6.32,1.55,0,3.25-.67,4.41-2.47l.21.13c-1.18,1.93-3,3.13-5.43,3.13-3.57,0-6.23-2.61-6.23-6.66Z"/><path d="M93.22,363.73v6.37h-1.68v-6.41c0-.74-.02-2.72-2.09-2.72-.95,0-1.82.38-2.75,1.28v7.85h-1.68v-14.04l1.61-.54h.07v6.39c1-.97,2.04-1.58,3.48-1.58,1.96,0,3.03,1.08,3.03,3.4Z"/><path d="M104.99,369.68v.11c-.29.18-.84.45-1.48.45-1.14,0-1.37-.85-1.41-1.33-.93.88-2.18,1.39-3.3,1.39-1.5,0-2.5-.88-2.5-2.21,0-1.67,1.59-2.72,4.03-2.99.64-.07,1.21-.11,1.75-.16v-1.03c0-1.78-.52-2.97-2.29-2.97-.96,0-1.8.34-2.68,1.08l-.16-.2c.96-.9,1.96-1.48,3.5-1.48,2.2,0,3.32,1.08,3.32,3.4v4.61c0,.86,0,1.37.87,1.37.12,0,.23-.02.34-.04ZM102.08,368.56v-3.37c-2.43.25-4.11.85-4.11,2.59,0,1.26.79,1.85,1.75,1.85.77,0,1.62-.36,2.36-1.08Z"/><path d="M116.15,363.73v6.37h-1.7v-6.41c0-.74,0-2.72-2.09-2.72-.93,0-1.82.38-2.73,1.28v7.85h-1.7v-9.27l1.62-.49h.07v1.55c1-.97,2.04-1.57,3.46-1.57,1.98,0,3.05,1.08,3.05,3.4Z"/><path d="M128.06,370.99c0,1.98-2.23,3.44-5.02,3.44-2.29,0-4.05-.99-4.05-2.59,0-.38.09-.77.29-1.21l1-.29h.07c-.18.49-.29.94-.29,1.35,0,1.46,1.09,2.45,2.98,2.45,2.34,0,3.91-.97,3.91-2.47,0-.97-.75-1.53-2.34-1.62l-2.8-.18c-1.25-.07-2.09-.54-2.09-1.48,0-.68.43-1.15,1.27-1.66l.36-.22c-1.09-.54-1.8-1.57-1.8-2.86,0-1.96,1.64-3.33,3.82-3.33.95,0,1.8.25,2.45.72.46-.67,1.2-1.3,2.39-1.3l-.16,1.44c-.34-.11-.71-.2-1.04-.2-.39,0-.71.07-.96.23.68.58,1.09,1.42,1.09,2.41,0,1.94-1.64,3.31-3.82,3.31-.61,0-1.16-.11-1.66-.31l-.39.27c-.41.27-.52.54-.52.81,0,.38.29.65,1.25.7l2.95.18c2,.11,3.12.88,3.12,2.38ZM121.15,363.64c0,1.8.86,3.02,2.2,3.02s2.18-1.21,2.18-3.01-.86-3.04-2.2-3.04-2.18,1.22-2.18,3.03Z"/><path d="M130.83,357.61l1.21-1.22,1.21,1.22-1.21,1.22-1.21-1.22ZM131.21,360.83l1.61-.49h.07v9.76h-1.68v-9.27Z"/><path d="M144.99,363.73v6.37h-1.7v-6.41c0-.74,0-2.72-2.09-2.72-.93,0-1.82.38-2.73,1.28v7.85h-1.7v-9.27l1.62-.49h.07v1.55c1-.97,2.04-1.57,3.46-1.57,1.98,0,3.05,1.08,3.05,3.4Z"/><path d="M156.9,370.99c0,1.98-2.23,3.44-5.02,3.44-2.29,0-4.05-.99-4.05-2.59,0-.38.09-.77.29-1.21l1-.29h.07c-.18.49-.29.94-.29,1.35,0,1.46,1.09,2.45,2.98,2.45,2.34,0,3.91-.97,3.91-2.47,0-.97-.75-1.53-2.34-1.62l-2.8-.18c-1.25-.07-2.09-.54-2.09-1.48,0-.68.43-1.15,1.27-1.66l.36-.22c-1.09-.54-1.8-1.57-1.8-2.86,0-1.96,1.64-3.33,3.82-3.33.95,0,1.8.25,2.45.72.46-.67,1.2-1.3,2.39-1.3l-.16,1.44c-.34-.11-.71-.2-1.04-.2-.39,0-.71.07-.96.23.68.58,1.09,1.42,1.09,2.41,0,1.94-1.64,3.31-3.82,3.31-.61,0-1.16-.11-1.66-.31l-.39.27c-.41.27-.52.54-.52.81,0,.38.29.65,1.25.7l2.95.18c2,.11,3.12.88,3.12,2.38ZM149.99,363.64c0,1.8.86,3.02,2.2,3.02s2.18-1.21,2.18-3.01-.86-3.04-2.2-3.04-2.18,1.22-2.18,3.03Z"/><path d="M12.14,388.82c0-4.2,2.84-6.88,6.61-6.88,2.11,0,3.86.94,4.87,2.11l-.89.81c-.91-1.53-2.34-2.63-4.07-2.63-2.73,0-4.52,2.63-4.52,6.14,0,3.98,2.16,6.32,5.04,6.32,1.55,0,3.25-.67,4.41-2.47l.21.13c-1.18,1.93-3,3.13-5.43,3.13-3.57,0-6.23-2.61-6.23-6.66Z"/><path d="M26.32,390.55c0-3.04,2.09-5.06,4.87-5.06s4.71,1.89,4.71,4.95-2.09,5.04-4.87,5.04-4.71-1.87-4.71-4.93ZM34.08,390.55c0-2.88-1.23-4.81-3-4.81s-2.95,1.85-2.95,4.7,1.23,4.79,3,4.79,2.95-1.85,2.95-4.68Z"/><path d="M39.3,381.22l1.62-.54h.07v14.58h-1.7v-14.04Z"/><path d="M44.39,390.55c0-3.04,2.09-5.06,4.87-5.06s4.71,1.89,4.71,4.95-2.09,5.04-4.87,5.04-4.71-1.87-4.71-4.93ZM52.16,390.55c0-2.88-1.23-4.81-3-4.81s-2.95,1.85-2.95,4.7,1.23,4.79,3,4.79,2.95-1.85,2.95-4.68Z"/><path d="M62.73,385.64l-.5,1.33c-.32-.14-.7-.22-.98-.22-.96,0-1.79.7-2.23,1.66v6.86h-1.7v-9.27l1.59-.49h.07v2.38c.66-1.46,1.66-2.36,2.91-2.36.32,0,.62.05.84.11Z"/><path d="M77.5,393.92l-.34,1.35h-6.21v-13.11h1.82v12.78h.34c1.07,0,2.5-.2,4.36-1.03h.04Z"/><path d="M79.41,390.55c0-3.04,2.09-5.06,4.87-5.06s4.71,1.89,4.71,4.95-2.09,5.04-4.87,5.04-4.71-1.87-4.71-4.93ZM87.18,390.55c0-2.88-1.23-4.81-3-4.81s-2.95,1.85-2.95,4.7,1.23,4.79,3,4.79,2.95-1.85,2.95-4.68Z"/><path d="M91.86,390.59c0-3.06,2.09-5.1,4.68-5.1,1.62,0,2.8.63,3.59,1.64l-.73.65c-.75-1.21-1.57-2.02-2.77-2.02-1.71,0-2.93,1.73-2.93,4.43,0,2.93,1.37,4.52,3.25,4.52,1.04,0,2.25-.54,3.07-1.73l.21.13c-.95,1.44-2.25,2.38-3.98,2.38-2.5,0-4.39-1.93-4.39-4.9Z"/><path d="M104.88,380.68h.07v14.58h-1.68v-14.04l1.61-.54ZM111.17,393.38v2.29h-.09l-5.66-5.8,1.57-1.37c1.39-1.22,2.18-1.94,2.89-2.79h1.23v.04c-1.41.94-2.54,1.78-3.93,3.02l-.32.29,4.3,4.32Z"/><path d="M15.4,407.11v13.32h-1.64v-11.13c-.62.38-1.39.67-2.07.86v-.22c1.18-.45,2.71-1.55,3.64-2.84h.07Z"/><path d="M27.85,416.97c0,2.07-1.89,3.67-4.45,3.67-2.16,0-4.2-1.13-4.2-3.15,0-1.76,1.14-2.94,2.98-3.57-1.29-.67-2.41-1.69-2.41-3.37,0-1.87,1.52-3.46,3.89-3.46,1.96,0,3.64,1.19,3.64,2.88s-1.25,2.68-2.66,3.24c1.84.81,3.2,1.93,3.2,3.75ZM26.49,417.62c0-1.48-1.18-2.32-2.71-2.97l-.87-.38c-.14-.05-.29-.13-.43-.2-1.34.81-1.95,2.07-1.95,3.35,0,1.82,1.41,2.97,3.02,2.97s2.95-1.21,2.95-2.77ZM23.65,412.8l.66.29c1.09-.76,1.7-1.84,1.7-3.06,0-1.53-.98-2.67-2.45-2.67-1.55,0-2.43,1.15-2.43,2.58s1.02,2.23,2.52,2.86Z"/><path d="M31.09,415.42c0-4,2.75-7.29,6.68-8.32l.09.27c-3.23,1.06-4.91,4.18-4.91,8.1,0,3.17,1.11,4.91,2.79,4.91,1.54,0,2.43-1.44,2.43-3.66s-1-3.64-2.52-3.64c-.62,0-1.25.22-1.82.68l-.18-.22c.75-.72,1.66-1.1,2.7-1.1,1.98,0,3.66,1.51,3.66,3.91,0,2.57-1.89,4.27-4.37,4.27-2.68,0-4.53-1.96-4.53-5.22Z"/><path d="M50.43,416.4c0,2.56-2.05,4.25-4.62,4.25-1.07,0-2.21-.27-3.23-.81l.25-.86c.8.9,1.71,1.39,2.93,1.39,1.82,0,3.2-1.37,3.2-3.31s-1.5-3.55-4.96-3.55h-.61l.54-6.18h6.28l-.43,1.28h-5.61l-.29,3.35h.71c4.02,0,5.84,1.96,5.84,4.45Z"/><path d="M53.61,413.98c0-4.25,2-6.88,5.14-6.88,2.96,0,5.12,2.41,5.12,6.66s-2.02,6.88-5.16,6.88c-2.96,0-5.11-2.41-5.11-6.66ZM62.01,413.95c0-3.89-1.14-6.59-3.32-6.59s-3.23,2.67-3.23,6.43,1.14,6.61,3.32,6.61,3.23-2.66,3.23-6.45Z"/><path d="M72.43,419.84l.27-1.01c.91.99,1.77,1.53,3.05,1.53,1.68,0,3.11-1.21,3.11-3.24,0-1.67-1.23-3.04-3.18-3.28l-.68-.07-.07-.2.62-.2c1.39-.45,2.7-1.58,2.7-3.2,0-1.44-1.02-2.23-2.32-2.23-1.57,0-2.66,1.03-3.09,1.64l-.23-.11c.73-1.1,1.98-2.36,4.07-2.36,1.82,0,3.3.99,3.3,2.68,0,1.48-1.34,2.72-2.73,3.19v.04c1.7.31,3.21,1.66,3.21,3.56,0,2.47-2.02,4.07-4.71,4.07-1.04,0-2.12-.25-3.32-.81Z"/><path d="M83.16,419.55l1.27-1.28,1.27,1.28-1.27,1.26-1.27-1.26Z"/><path d="M95.7,407.32v.07l-4.77,13.04h-1.61l5.59-11.83h-2.23c-2.32,0-4.21.14-5.43.43l.32-1.71h8.12Z"/><path d="M108.95,407.32c-.86,1.8-1.54,3.48-2.46,5.74l-3.11,7.65h-.07l-5.41-13.4h1.98l4.25,10.64,2.02-5.02c1.21-2.99,1.5-4.36,1.57-5.62h1.23Z"/><path d="M119.63,407.11v13.32h-1.64v-11.13c-.62.38-1.39.67-2.07.86v-.22c1.18-.45,2.71-1.55,3.64-2.84h.07Z"/><path d="M131.58,418.83l-.46,1.6h-8v-.07l1.04-1.08c3.5-3.66,5.21-6.16,5.21-8.41,0-1.78-1.07-2.88-2.64-2.88-1.18,0-2.41.56-3.34,2.2l-.23-.11c.5-1.01,1.66-2.97,4.32-2.97,2.11,0,3.77,1.26,3.77,3.51s-1.87,4.45-6.52,8.46l-.12.11h1.3c2.32,0,3.89-.11,5.68-.36Z"/><path d="M134.71,413.98c0-4.25,2-6.88,5.14-6.88,2.96,0,5.12,2.41,5.12,6.66s-2.02,6.88-5.16,6.88c-2.96,0-5.11-2.41-5.11-6.66ZM143.12,413.95c0-3.89-1.14-6.59-3.32-6.59s-3.23,2.67-3.23,6.43,1.14,6.61,3.32,6.61,3.23-2.66,3.23-6.45Z"/><path d="M148.33,413.98c0-4.25,2-6.88,5.14-6.88,2.96,0,5.12,2.41,5.12,6.66s-2.02,6.88-5.16,6.88c-2.96,0-5.11-2.41-5.11-6.66ZM156.74,413.95c0-3.89-1.14-6.59-3.32-6.59s-3.23,2.67-3.23,6.43,1.14,6.61,3.32,6.61,3.23-2.66,3.23-6.45Z"/><path d="M176.6,414.06v6.37h-1.68v-6.41c0-.74-.02-2.72-2.09-2.72-.96,0-1.77.41-2.73,1.44.09.38.14.81.14,1.31v6.37h-1.7v-6.41c0-.74,0-2.72-2.07-2.72-.93,0-1.7.38-2.59,1.26v7.87h-1.7v-9.27l1.62-.49h.07v1.55c.96-.97,1.91-1.57,3.34-1.57s2.36.58,2.79,1.76c1.05-1.08,2.04-1.76,3.57-1.76,1.96,0,3.02,1.08,3.02,3.4Z"/><path d="M186.66,416.13h-5.07c-.79,2.11-1,3.24-1.05,4.3h-1.23c.86-1.8,1.54-3.47,2.46-5.74l3.11-7.65h.07l5.41,13.4h-1.98l-1.71-4.3ZM186.53,415.8l-2.41-6.01-2.02,5.02-.39.99h4.82Z"/><path d="M201.39,414.06v6.37h-1.68v-6.41c0-.74-.02-2.72-2.09-2.72-.95,0-1.82.38-2.75,1.28v7.85h-1.68v-14.04l1.61-.54h.07v6.39c1-.97,2.04-1.58,3.48-1.58,1.96,0,3.03,1.08,3.03,3.4Z"/><path d="M216.11,410.8l-.5,1.33c-.32-.14-.7-.22-.98-.22-.96,0-1.79.7-2.23,1.66v6.86h-1.7v-9.27l1.59-.49h.07v2.38c.66-1.46,1.66-2.36,2.91-2.36.32,0,.62.05.84.11Z"/><path d="M219.43,414.97v.32c0,2.99,1.45,4.57,3.37,4.57,1.07,0,2.34-.54,3.16-1.73l.21.13c-1.02,1.57-2.43,2.38-4.11,2.38-2.55,0-4.45-1.93-4.45-4.84,0-3.12,2.05-5.15,4.8-5.15,2.57,0,3.89,1.78,3.86,4.32h-6.86ZM219.45,414.69h5.21c.11-2.27-.86-3.76-2.37-3.76s-2.66,1.57-2.84,3.76Z"/><path d="M229.08,415.75c0-3.06,2.09-5.1,4.68-5.1,1.62,0,2.8.63,3.59,1.64l-.73.65c-.75-1.21-1.57-2.02-2.77-2.02-1.71,0-2.93,1.73-2.93,4.43,0,2.93,1.37,4.52,3.25,4.52,1.04,0,2.25-.54,3.07-1.73l.21.13c-.95,1.44-2.25,2.38-3.98,2.38-2.5,0-4.39-1.93-4.39-4.9Z"/><path d="M248.68,414.06v6.37h-1.68v-6.41c0-.74-.02-2.72-2.09-2.72-.95,0-1.82.38-2.75,1.28v7.85h-1.68v-14.04l1.61-.54h.07v6.39c1-.97,2.04-1.58,3.48-1.58,1.96,0,3.03,1.08,3.03,3.4Z"/><path d="M260.45,420v.11c-.29.18-.84.45-1.48.45-1.14,0-1.37-.85-1.41-1.33-.93.88-2.18,1.39-3.3,1.39-1.5,0-2.5-.88-2.5-2.21,0-1.67,1.59-2.72,4.03-2.99.64-.07,1.21-.11,1.75-.16v-1.03c0-1.78-.52-2.97-2.29-2.97-.96,0-1.8.34-2.68,1.08l-.16-.2c.96-.9,1.96-1.48,3.5-1.48,2.2,0,3.32,1.08,3.32,3.4v4.61c0,.86,0,1.37.87,1.37.12,0,.23-.02.34-.04ZM257.54,418.88v-3.37c-2.43.25-4.11.85-4.11,2.59,0,1.26.79,1.85,1.75,1.85.77,0,1.62-.36,2.36-1.08Z"/><path d="M268.81,410.8l-.5,1.33c-.32-.14-.7-.22-.98-.22-.96,0-1.79.7-2.23,1.66v6.86h-1.7v-9.27l1.59-.49h.07v2.38c.66-1.46,1.66-2.36,2.91-2.36.32,0,.62.05.84.11Z"/><path d="M279.38,421.31c0,1.98-2.23,3.44-5.02,3.44-2.29,0-4.05-.99-4.05-2.59,0-.38.09-.77.29-1.21l1-.29h.07c-.18.49-.29.94-.29,1.35,0,1.46,1.09,2.45,2.98,2.45,2.34,0,3.91-.97,3.91-2.47,0-.97-.75-1.53-2.34-1.62l-2.8-.18c-1.25-.07-2.09-.54-2.09-1.48,0-.68.43-1.15,1.27-1.66l.36-.22c-1.09-.54-1.8-1.57-1.8-2.86,0-1.96,1.64-3.33,3.82-3.33.95,0,1.8.25,2.45.72.46-.67,1.2-1.3,2.39-1.3l-.16,1.44c-.34-.11-.71-.2-1.04-.2-.39,0-.71.07-.96.23.68.58,1.09,1.42,1.09,2.41,0,1.94-1.64,3.31-3.82,3.31-.61,0-1.16-.11-1.66-.31l-.39.27c-.41.27-.52.54-.52.81,0,.38.29.65,1.25.7l2.95.18c2,.11,3.12.88,3.12,2.38ZM272.47,413.97c0,1.8.86,3.02,2.2,3.02s2.18-1.21,2.18-3.01-.86-3.04-2.2-3.04-2.18,1.22-2.18,3.03Z"/><path d="M283.48,414.97v.32c0,2.99,1.45,4.57,3.37,4.57,1.07,0,2.34-.54,3.16-1.73l.21.13c-1.02,1.57-2.43,2.38-4.11,2.38-2.55,0-4.45-1.93-4.45-4.84,0-3.12,2.05-5.15,4.8-5.15,2.57,0,3.89,1.78,3.86,4.32h-6.86ZM283.49,414.69h5.21c.11-2.27-.86-3.76-2.37-3.76s-2.66,1.57-2.84,3.76Z"/><path d="M301.58,420v.11c-.29.18-.84.45-1.48.45-1.14,0-1.37-.85-1.41-1.33-.93.88-2.18,1.39-3.3,1.39-1.5,0-2.5-.88-2.5-2.21,0-1.67,1.59-2.72,4.03-2.99.64-.07,1.21-.11,1.75-.16v-1.03c0-1.78-.52-2.97-2.29-2.97-.96,0-1.8.34-2.68,1.08l-.16-.2c.96-.9,1.96-1.48,3.5-1.48,2.2,0,3.32,1.08,3.32,3.4v4.61c0,.86,0,1.37.87,1.37.12,0,.23-.02.34-.04ZM298.67,418.88v-3.37c-2.43.25-4.11.85-4.11,2.59,0,1.26.79,1.85,1.75,1.85.77,0,1.62-.36,2.36-1.08Z"/><path d="M313.48,415.5c0,3.08-2.11,5.15-4.61,5.15-1.37,0-2.45-.47-3.25-1.26l-1,1.12h-.07v-14.12l1.61-.54h.07v6.32c.88-.94,1.95-1.51,3.18-1.51,2.32,0,4.07,2,4.07,4.84ZM311.66,415.66c0-2.93-1.18-4.41-2.79-4.41-.89,0-1.86.45-2.64,1.39v5.91c.46,1.1,1.37,1.82,2.48,1.82,1.73,0,2.95-1.8,2.95-4.7Z"/><path d="M316.88,406.39l1.62-.54h.07v14.58h-1.7v-14.04Z"/><path d="M323.77,414.97v.32c0,2.99,1.45,4.57,3.37,4.57,1.07,0,2.34-.54,3.16-1.73l.21.13c-1.02,1.57-2.43,2.38-4.11,2.38-2.55,0-4.45-1.93-4.45-4.84,0-3.12,2.05-5.15,4.8-5.15,2.57,0,3.89,1.78,3.86,4.32h-6.86ZM323.79,414.69h5.21c.11-2.27-.86-3.76-2.37-3.76s-2.66,1.57-2.84,3.76Z"/><path d="M348.36,415.5c0,3.08-2.11,5.15-4.61,5.15-1.37,0-2.45-.47-3.25-1.26l-1,1.12h-.07v-14.12l1.61-.54h.07v6.32c.88-.94,1.95-1.51,3.18-1.51,2.32,0,4.07,2,4.07,4.84ZM346.54,415.66c0-2.93-1.18-4.41-2.79-4.41-.89,0-1.86.45-2.64,1.39v5.91c.46,1.1,1.37,1.82,2.48,1.82,1.73,0,2.95-1.8,2.95-4.7Z"/><path d="M359.56,420v.11c-.29.18-.84.45-1.48.45-1.14,0-1.37-.85-1.41-1.33-.93.88-2.18,1.39-3.3,1.39-1.5,0-2.5-.88-2.5-2.21,0-1.67,1.59-2.72,4.03-2.99.64-.07,1.21-.11,1.75-.16v-1.03c0-1.78-.52-2.97-2.29-2.97-.96,0-1.8.34-2.68,1.08l-.16-.2c.96-.9,1.96-1.48,3.5-1.48,2.2,0,3.32,1.08,3.32,3.4v4.61c0,.86,0,1.37.87,1.37.12,0,.23-.02.34-.04ZM356.65,418.88v-3.37c-2.43.25-4.11.85-4.11,2.59,0,1.26.79,1.85,1.75,1.85.77,0,1.62-.36,2.36-1.08Z"/><path d="M367.56,419.8c-.75.5-1.5.85-2.5.85-2.2,0-2.32-1.69-2.32-2.47v-6.91h-1.37v-.31l1.3-.09,1.7-3.06h.07v3.06h3.05l-.23.4h-2.82v6.88c0,.52,0,1.89,1.45,1.89.41,0,.95-.11,1.54-.45l.14.22Z"/><path d="M375.7,419.8c-.75.5-1.5.85-2.5.85-2.2,0-2.32-1.69-2.32-2.47v-6.91h-1.37v-.31l1.3-.09,1.7-3.06h.07v3.06h3.05l-.23.4h-2.82v6.88c0,.52,0,1.89,1.45,1.89.41,0,.95-.11,1.54-.45l.14.22Z"/><path d="M379.33,414.97v.32c0,2.99,1.45,4.57,3.37,4.57,1.07,0,2.34-.54,3.16-1.73l.21.13c-1.02,1.57-2.43,2.38-4.11,2.38-2.55,0-4.45-1.93-4.45-4.84,0-3.12,2.05-5.15,4.8-5.15,2.57,0,3.89,1.78,3.86,4.32h-6.86ZM379.35,414.69h5.21c.11-2.27-.86-3.76-2.37-3.76s-2.66,1.57-2.84,3.76Z"/><path d="M394.87,410.8l-.5,1.33c-.32-.14-.7-.22-.98-.22-.96,0-1.79.7-2.23,1.66v6.86h-1.7v-9.27l1.59-.49h.07v2.38c.66-1.46,1.66-2.36,2.91-2.36.32,0,.62.05.84.11Z"/><path d="M405.37,410.87c-.75,1.55-1.32,3.01-2.29,5.35l-2.36,5.73c-.86,2.07-2.23,2.7-3.84,2.7l.11-1.03c.29.09.59.13.88.13.88,0,1.96-.49,2.52-1.82l.59-1.44-4.16-9.61h1.82l3.21,7.45.93-2.23c.96-2.36,1.45-4.12,1.55-5.22h1.04Z"/><path d="M21.15,436.08c0,2.45-1.93,4.03-5.04,4.03-.55,0-1.16-.05-1.55-.11v5.58h-1.82v-13.11h3.37c3.34,0,5.04,1.3,5.04,3.6ZM19.22,436.3c0-2.07-1.04-3.53-3.37-3.53h-1.29v6.93c.32.07.73.13,1.25.13,2.27,0,3.41-1.33,3.41-3.53Z"/><path d="M23.33,440.87c0-3.04,2.09-5.06,4.87-5.06s4.71,1.89,4.71,4.95-2.09,5.04-4.87,5.04-4.71-1.87-4.71-4.93ZM31.1,440.87c0-2.88-1.23-4.81-3-4.81s-2.95,1.85-2.95,4.7,1.23,4.79,3,4.79,2.95-1.85,2.95-4.68Z"/><path d="M36.32,431.55l1.62-.54h.07v14.58h-1.7v-14.04Z"/><path d="M49.44,436.03c-.75,1.55-1.32,3.01-2.29,5.35l-2.36,5.73c-.86,2.07-2.23,2.7-3.84,2.7l.11-1.03c.29.09.59.13.87.13.87,0,1.96-.49,2.52-1.82l.59-1.44-4.16-9.61h1.82l3.21,7.45.93-2.23c.96-2.36,1.45-4.12,1.55-5.22h1.04Z"/><path d="M51.34,440.91c0-3.06,2.09-5.1,4.68-5.1,1.62,0,2.8.63,3.59,1.64l-.73.65c-.75-1.21-1.57-2.02-2.77-2.02-1.71,0-2.93,1.73-2.93,4.43,0,2.93,1.37,4.52,3.25,4.52,1.04,0,2.25-.54,3.07-1.73l.21.13c-.95,1.44-2.25,2.38-3.98,2.38-2.5,0-4.39-1.93-4.39-4.9Z"/><path d="M70.71,445.16v.11c-.29.18-.84.45-1.48.45-1.14,0-1.37-.85-1.41-1.33-.93.88-2.18,1.39-3.3,1.39-1.5,0-2.5-.88-2.5-2.21,0-1.67,1.59-2.72,4.03-2.99.64-.07,1.21-.11,1.75-.16v-1.03c0-1.78-.52-2.97-2.29-2.97-.96,0-1.8.34-2.68,1.08l-.16-.2c.96-.9,1.96-1.48,3.5-1.48,2.2,0,3.32,1.08,3.32,3.4v4.61c0,.86,0,1.37.87,1.37.12,0,.23-.02.34-.04ZM67.8,444.04v-3.37c-2.43.25-4.11.85-4.11,2.59,0,1.26.79,1.85,1.75,1.85.77,0,1.62-.36,2.36-1.08Z"/><path d="M79.07,435.96l-.5,1.33c-.32-.14-.7-.22-.98-.22-.96,0-1.79.7-2.23,1.66v6.86h-1.7v-9.27l1.59-.49h.07v2.38c.66-1.46,1.66-2.36,2.91-2.36.32,0,.62.05.84.11Z"/><path d="M90.86,440.66c0,3.08-2.11,5.15-4.61,5.15-1.37,0-2.45-.47-3.25-1.26l-1,1.12h-.07v-14.12l1.61-.54h.07v6.32c.87-.94,1.95-1.51,3.18-1.51,2.32,0,4.07,2,4.07,4.84ZM89.04,440.82c0-2.93-1.18-4.41-2.79-4.41-.89,0-1.86.45-2.64,1.39v5.91c.46,1.1,1.37,1.82,2.48,1.82,1.73,0,2.95-1.8,2.95-4.7Z"/><path d="M93.72,440.87c0-3.04,2.09-5.06,4.87-5.06s4.71,1.89,4.71,4.95-2.09,5.04-4.87,5.04-4.71-1.87-4.71-4.93ZM101.49,440.87c0-2.88-1.23-4.81-3-4.81s-2.95,1.85-2.95,4.7,1.23,4.79,3,4.79,2.95-1.85,2.95-4.68Z"/><path d="M114.86,439.22v6.37h-1.7v-6.41c0-.74,0-2.72-2.09-2.72-.93,0-1.82.38-2.73,1.28v7.85h-1.7v-9.27l1.62-.49h.07v1.55c1-.97,2.04-1.57,3.46-1.57,1.98,0,3.05,1.08,3.05,3.4Z"/><path d="M126.61,445.16v.11c-.29.18-.84.45-1.48.45-1.14,0-1.37-.85-1.41-1.33-.93.88-2.18,1.39-3.3,1.39-1.5,0-2.5-.88-2.5-2.21,0-1.67,1.59-2.72,4.03-2.99.64-.07,1.21-.11,1.75-.16v-1.03c0-1.78-.52-2.97-2.29-2.97-.96,0-1.8.34-2.68,1.08l-.16-.2c.96-.9,1.96-1.48,3.5-1.48,2.2,0,3.32,1.08,3.32,3.4v4.61c0,.86,0,1.37.87,1.37.12,0,.23-.02.34-.04ZM123.7,444.04v-3.37c-2.43.25-4.11.85-4.11,2.59,0,1.26.79,1.85,1.75,1.85.77,0,1.62-.36,2.36-1.08Z"/><path d="M134.62,444.96c-.75.5-1.5.85-2.5.85-2.2,0-2.32-1.69-2.32-2.47v-6.91h-1.37v-.31l1.3-.09,1.7-3.06h.07v3.06h3.05l-.23.4h-2.82v6.88c0,.52,0,1.89,1.45,1.89.41,0,.95-.11,1.54-.45l.14.22Z"/><path d="M138.24,440.14v.32c0,2.99,1.45,4.57,3.37,4.57,1.07,0,2.34-.54,3.16-1.73l.21.13c-1.02,1.57-2.43,2.38-4.11,2.38-2.55,0-4.45-1.93-4.45-4.84,0-3.12,2.05-5.15,4.8-5.15,2.57,0,3.89,1.78,3.86,4.32h-6.86ZM138.26,439.85h5.21c.11-2.27-.86-3.76-2.37-3.76s-2.66,1.57-2.84,3.76Z"/><path d="M153.51,440.12c0-3.47,1.05-6.39,2.79-8.61l.23.16c-1.57,2.09-2.23,5.04-2.23,8.34s.66,6.32,2.23,8.41l-.23.16c-1.73-2.21-2.79-4.99-2.79-8.46Z"/><path d="M168.33,436.08c0,2.45-1.93,4.03-5.04,4.03-.55,0-1.16-.05-1.55-.11v5.58h-1.82v-13.11h3.37c3.34,0,5.04,1.3,5.04,3.6ZM166.4,436.3c0-2.07-1.04-3.53-3.37-3.53h-1.29v6.93c.32.07.73.13,1.25.13,2.27,0,3.41-1.33,3.41-3.53Z"/><path d="M171.28,439.14c0-4.2,2.84-6.88,6.61-6.88,2.11,0,3.86.94,4.87,2.11l-.89.81c-.91-1.53-2.34-2.63-4.07-2.63-2.73,0-4.52,2.63-4.52,6.14,0,3.98,2.16,6.32,5.04,6.32,1.55,0,3.25-.67,4.41-2.47l.21.13c-1.18,1.93-3,3.13-5.43,3.13-3.57,0-6.23-2.61-6.23-6.66Z"/><path d="M185.13,448.42c1.57-2.09,2.23-5.04,2.23-8.34s-.66-6.32-2.23-8.41l.23-.16c1.73,2.21,2.79,4.99,2.79,8.46s-1.05,6.39-2.79,8.61l-.23-.16Z"/><path d="M196.66,444.85l.32-1.13c.86,1.06,2.55,1.8,4,1.8,1.73,0,2.91-1.08,2.91-2.56,0-1.73-1.54-2.5-2.86-3.12l-.89-.4c-1.41-.65-3.29-1.58-3.29-3.73,0-1.98,1.62-3.46,4.11-3.46,1.46,0,2.91.52,3.64.95l-.29,1.01c-.79-.83-2.07-1.67-3.55-1.67-1.66,0-2.61,1.05-2.61,2.3,0,1.55,1.36,2.23,2.79,2.9l.89.41c1.61.76,3.34,1.62,3.34,3.85s-1.84,3.78-4.36,3.78c-1.55,0-3.36-.54-4.16-.95Z"/><path d="M208.04,440.87c0-3.04,2.09-5.06,4.87-5.06s4.71,1.89,4.71,4.95-2.09,5.04-4.87,5.04-4.71-1.87-4.71-4.93ZM215.8,440.87c0-2.88-1.23-4.81-3-4.81s-2.95,1.85-2.95,4.7,1.23,4.79,3,4.79,2.95-1.85,2.95-4.68Z"/><path d="M221.02,431.55l1.62-.54h.07v14.58h-1.7v-14.04Z"/><path d="M234.58,445.16v.11c-.29.18-.84.45-1.48.45-1.14,0-1.37-.85-1.41-1.33-.93.88-2.18,1.39-3.3,1.39-1.5,0-2.5-.88-2.5-2.21,0-1.67,1.59-2.72,4.03-2.99.64-.07,1.21-.11,1.75-.16v-1.03c0-1.78-.52-2.97-2.29-2.97-.96,0-1.8.34-2.68,1.08l-.16-.2c.96-.9,1.96-1.48,3.5-1.48,2.2,0,3.32,1.08,3.32,3.4v4.61c0,.86,0,1.37.87,1.37.12,0,.23-.02.34-.04ZM231.67,444.04v-3.37c-2.43.25-4.11.85-4.11,2.59,0,1.26.79,1.85,1.75,1.85.77,0,1.62-.36,2.36-1.08Z"/><path d="M242.93,435.96l-.5,1.33c-.32-.14-.7-.22-.98-.22-.96,0-1.79.7-2.23,1.66v6.86h-1.7v-9.27l1.59-.49h.07v2.38c.66-1.46,1.66-2.36,2.91-2.36.32,0,.62.05.84.11Z"/><path d="M259.56,436.08c0,2.45-1.93,4.03-5.04,4.03-.55,0-1.16-.05-1.55-.11v5.58h-1.82v-13.11h3.37c3.34,0,5.04,1.3,5.04,3.6ZM257.63,436.3c0-2.07-1.04-3.53-3.37-3.53h-1.29v6.93c.32.07.73.13,1.25.13,2.27,0,3.41-1.33,3.41-3.53Z"/><path d="M270.44,445.16v.11c-.29.18-.84.45-1.48.45-1.14,0-1.37-.85-1.41-1.33-.93.88-2.18,1.39-3.3,1.39-1.5,0-2.5-.88-2.5-2.21,0-1.67,1.59-2.72,4.03-2.99.64-.07,1.21-.11,1.75-.16v-1.03c0-1.78-.52-2.97-2.29-2.97-.96,0-1.8.34-2.68,1.08l-.16-.2c.96-.9,1.96-1.48,3.5-1.48,2.2,0,3.32,1.08,3.32,3.4v4.61c0,.86,0,1.37.87,1.37.12,0,.23-.02.34-.04ZM267.53,444.04v-3.37c-2.43.25-4.11.85-4.11,2.59,0,1.26.79,1.85,1.75,1.85.77,0,1.62-.36,2.36-1.08Z"/><path d="M281.6,439.22v6.37h-1.7v-6.41c0-.74,0-2.72-2.09-2.72-.93,0-1.82.38-2.73,1.28v7.85h-1.7v-9.27l1.62-.49h.07v1.55c1-.97,2.04-1.57,3.46-1.57,1.98,0,3.05,1.08,3.05,3.4Z"/><path d="M286.69,440.14v.32c0,2.99,1.45,4.57,3.37,4.57,1.07,0,2.34-.54,3.16-1.73l.21.13c-1.02,1.57-2.43,2.38-4.11,2.38-2.55,0-4.45-1.93-4.45-4.84,0-3.12,2.05-5.15,4.8-5.15,2.57,0,3.89,1.78,3.86,4.32h-6.86ZM286.71,439.85h5.21c.11-2.27-.86-3.76-2.37-3.76s-2.66,1.57-2.84,3.76Z"/><path d="M296.87,431.55l1.62-.54h.07v14.58h-1.7v-14.04Z"/><path d="M319.68,438.89c0,4.23-2.79,6.7-7.2,6.7h-4.25v-13.11h4.55c4.12,0,6.89,2.25,6.89,6.41ZM317.68,438.98c0-3.71-1.98-6.21-5.05-6.21h-2.57v12.37c.46.11,1.3.16,2.73.16,3.11,0,4.89-2.29,4.89-6.32Z"/><path d="M331.66,445.25l-1.59.5-.5-1.57v-.04c-.88.95-2.05,1.66-3.43,1.66-1.98,0-3.05-1.08-3.05-3.38v-6.1l1.62-.49h.07v6.63c0,.74,0,2.72,2.09,2.72.89,0,1.91-.56,2.7-1.44v-7.42l1.62-.49h.07v8.12l.39,1.3Z"/><path d="M334.52,444.94l.27-.92c.73.86,1.87,1.53,3.28,1.53s2.32-.76,2.32-1.84c0-1.15-1.09-1.62-2.21-2.09l-.73-.31c-1.16-.5-2.75-1.17-2.75-2.88,0-1.51,1.29-2.63,3.32-2.63,1.27,0,2.46.4,3.09.76l-.25.85c-.62-.61-1.73-1.35-3-1.35s-2.02.76-2.02,1.64c0,1.13,1.23,1.58,2.23,2.02l.71.31c1.12.47,2.75,1.15,2.75,2.93,0,1.64-1.36,2.84-3.64,2.84-1.2,0-2.57-.34-3.38-.86Z"/><path d="M350.07,444.96c-.75.5-1.5.85-2.5.85-2.2,0-2.32-1.69-2.32-2.47v-6.91h-1.37v-.31l1.3-.09,1.7-3.06h.07v3.06h3.05l-.23.4h-2.82v6.88c0,.52,0,1.89,1.45,1.89.41,0,.95-.11,1.54-.45l.14.22Z"/><path d="M357.92,439.14c0-4.2,2.84-6.88,6.61-6.88,2.11,0,3.86.94,4.87,2.11l-.89.81c-.91-1.53-2.34-2.63-4.07-2.63-2.73,0-4.52,2.63-4.52,6.14,0,3.98,2.16,6.32,5.03,6.32,1.55,0,3.25-.67,4.41-2.47l.21.13c-1.18,1.93-3,3.13-5.43,3.13-3.57,0-6.23-2.61-6.23-6.66Z"/><path d="M372.1,440.87c0-3.04,2.09-5.06,4.87-5.06s4.71,1.89,4.71,4.95-2.09,5.04-4.87,5.04-4.71-1.87-4.71-4.93ZM379.86,440.87c0-2.88-1.23-4.81-3-4.81s-2.95,1.85-2.95,4.7,1.23,4.79,3,4.79,2.95-1.85,2.95-4.68Z"/><path d="M392.28,436.03c-.77,1.55-1.38,2.97-2.41,5.4l-1.89,4.43h-.12l-4.2-9.83h1.82l3.16,7.44.93-2.14c1.05-2.45,1.57-4.2,1.68-5.29h1.04Z"/><path d="M395.89,440.14v.32c0,2.99,1.45,4.57,3.37,4.57,1.07,0,2.34-.54,3.16-1.73l.21.13c-1.02,1.57-2.43,2.38-4.11,2.38-2.55,0-4.45-1.93-4.45-4.84,0-3.12,2.05-5.15,4.8-5.15,2.57,0,3.89,1.78,3.86,4.32h-6.86ZM395.9,439.85h5.21c.11-2.27-.86-3.76-2.37-3.76s-2.66,1.57-2.84,3.76Z"/><path d="M411.42,435.96l-.5,1.33c-.32-.14-.7-.22-.98-.22-.96,0-1.79.7-2.23,1.66v6.86h-1.7v-9.27l1.59-.49h.07v2.38c.66-1.46,1.66-2.36,2.91-2.36.32,0,.62.05.84.11Z"/><path d="M12.05,470.02l.32-1.13c.86,1.06,2.55,1.8,4,1.8,1.73,0,2.91-1.08,2.91-2.56,0-1.73-1.54-2.5-2.86-3.12l-.89-.4c-1.41-.65-3.29-1.58-3.29-3.73,0-1.98,1.62-3.46,4.11-3.46,1.46,0,2.91.52,3.64.95l-.29,1.01c-.79-.83-2.07-1.67-3.55-1.67-1.66,0-2.61,1.04-2.61,2.3,0,1.55,1.36,2.23,2.79,2.9l.89.41c1.61.76,3.34,1.62,3.34,3.85s-1.84,3.78-4.36,3.78c-1.55,0-3.36-.54-4.16-.95Z"/><path d="M32.12,464.38v6.37h-1.68v-6.41c0-.74-.02-2.72-2.09-2.72-.95,0-1.82.38-2.75,1.28v7.85h-1.68v-14.04l1.61-.54h.07v6.39c1-.97,2.04-1.59,3.48-1.59,1.96,0,3.03,1.08,3.03,3.4Z"/><path d="M43.89,470.32v.11c-.29.18-.84.45-1.48.45-1.14,0-1.37-.85-1.41-1.33-.93.88-2.18,1.39-3.3,1.39-1.5,0-2.5-.88-2.5-2.21,0-1.67,1.59-2.72,4.03-2.99.64-.07,1.21-.11,1.75-.16v-1.03c0-1.78-.52-2.97-2.29-2.97-.96,0-1.8.34-2.68,1.08l-.16-.2c.96-.9,1.96-1.48,3.5-1.48,2.2,0,3.32,1.08,3.32,3.4v4.61c0,.86,0,1.37.87,1.37.12,0,.23-.02.34-.04ZM40.98,469.2v-3.37c-2.43.25-4.11.85-4.11,2.59,0,1.26.79,1.85,1.75,1.85.77,0,1.62-.36,2.36-1.08Z"/><path d="M51.89,470.12c-.75.5-1.5.85-2.5.85-2.2,0-2.32-1.69-2.32-2.47v-6.91h-1.37v-.31l1.3-.09,1.7-3.06h.07v3.06h3.05l-.23.4h-2.82v6.88c0,.52,0,1.89,1.45,1.89.41,0,.95-.11,1.54-.45l.14.22Z"/><path d="M60.03,470.12c-.75.5-1.5.85-2.5.85-2.2,0-2.32-1.69-2.32-2.47v-6.91h-1.37v-.31l1.3-.09,1.7-3.06h.07v3.06h3.05l-.23.4h-2.82v6.88c0,.52,0,1.89,1.45,1.89.41,0,.95-.11,1.54-.45l.14.22Z"/><path d="M63.66,465.3v.32c0,2.99,1.45,4.57,3.37,4.57,1.07,0,2.34-.54,3.16-1.73l.21.13c-1.02,1.57-2.43,2.38-4.11,2.38-2.55,0-4.45-1.93-4.45-4.84,0-3.12,2.05-5.15,4.8-5.15,2.57,0,3.89,1.78,3.86,4.32h-6.86ZM63.68,465.01h5.21c.11-2.27-.86-3.76-2.37-3.76s-2.66,1.57-2.84,3.76Z"/><path d="M79.2,461.12l-.5,1.33c-.32-.14-.7-.22-.98-.22-.96,0-1.79.7-2.23,1.66v6.86h-1.7v-9.27l1.59-.49h.07v2.38c.66-1.46,1.66-2.36,2.91-2.36.32,0,.62.05.84.11Z"/><path d="M95.82,461.25c0,2.45-1.93,4.03-5.04,4.03-.55,0-1.16-.05-1.55-.11v5.58h-1.82v-13.11h3.37c3.34,0,5.04,1.3,5.04,3.6ZM93.89,461.46c0-2.07-1.04-3.53-3.37-3.53h-1.29v6.93c.32.07.73.13,1.25.13,2.27,0,3.41-1.33,3.41-3.53Z"/><path d="M104.38,461.12l-.5,1.33c-.32-.14-.7-.22-.98-.22-.96,0-1.79.7-2.23,1.66v6.86h-1.7v-9.27l1.59-.49h.07v2.38c.66-1.46,1.66-2.36,2.91-2.36.32,0,.62.05.84.11Z"/><path d="M105.9,466.04c0-3.04,2.09-5.06,4.87-5.06s4.71,1.89,4.71,4.95-2.09,5.04-4.87,5.04-4.71-1.87-4.71-4.93ZM113.67,466.04c0-2.88-1.23-4.81-3-4.81s-2.95,1.85-2.95,4.7,1.23,4.79,3,4.79,2.95-1.85,2.95-4.68Z"/><path d="M118.35,466.04c0-3.04,2.09-5.06,4.87-5.06s4.71,1.89,4.71,4.95-2.09,5.04-4.87,5.04-4.71-1.87-4.71-4.93ZM126.11,466.04c0-2.88-1.23-4.81-3-4.81s-2.95,1.85-2.95,4.7,1.23,4.79,3,4.79,2.95-1.85,2.95-4.68Z"/><path d="M133.33,459.41v1.78h3l-.25.4h-2.75v9.17h-1.7v-9.17h-1.37v-.4h1.37v-1.69c0-2.23,1.21-3.4,3.07-3.4.93,0,1.89.27,2.8.83l-.12.22c-.8-.36-1.39-.43-1.91-.43-1.34,0-2.14.85-2.14,2.7Z"/><path d="M152.78,461.25c0,2.45-1.93,4.03-5.04,4.03-.55,0-1.16-.05-1.55-.11v5.58h-1.82v-13.11h3.37c3.34,0,5.04,1.3,5.04,3.6ZM150.85,461.46c0-2.07-1.04-3.53-3.37-3.53h-1.29v6.93c.32.07.73.13,1.25.13,2.27,0,3.41-1.33,3.41-3.53Z"/><path d="M154.96,466.04c0-3.04,2.09-5.06,4.87-5.06s4.71,1.89,4.71,4.95-2.09,5.04-4.87,5.04-4.71-1.87-4.71-4.93ZM162.73,466.04c0-2.88-1.23-4.81-3-4.81s-2.95,1.85-2.95,4.7,1.23,4.79,3,4.79,2.95-1.85,2.95-4.68Z"/><path d="M167.94,456.71l1.62-.54h.07v14.58h-1.7v-14.04Z"/><path d="M181.07,461.19c-.75,1.55-1.32,3.01-2.29,5.35l-2.36,5.73c-.86,2.07-2.23,2.7-3.84,2.7l.11-1.03c.29.09.59.13.87.13.87,0,1.96-.49,2.52-1.82l.59-1.44-4.16-9.61h1.82l3.21,7.45.93-2.23c.96-2.36,1.45-4.12,1.55-5.22h1.04Z"/><path d="M182.96,466.07c0-3.06,2.09-5.1,4.68-5.1,1.62,0,2.8.63,3.59,1.64l-.73.65c-.75-1.21-1.57-2.02-2.77-2.02-1.71,0-2.93,1.73-2.93,4.43,0,2.93,1.37,4.52,3.25,4.52,1.04,0,2.25-.54,3.07-1.73l.21.13c-.95,1.44-2.25,2.38-3.98,2.38-2.5,0-4.39-1.93-4.39-4.9Z"/><path d="M202.34,470.32v.11c-.29.18-.84.45-1.48.45-1.14,0-1.37-.85-1.41-1.33-.93.88-2.18,1.39-3.3,1.39-1.5,0-2.5-.88-2.5-2.21,0-1.67,1.59-2.72,4.03-2.99.64-.07,1.21-.11,1.75-.16v-1.03c0-1.78-.52-2.97-2.29-2.97-.96,0-1.8.34-2.68,1.08l-.16-.2c.96-.9,1.96-1.48,3.5-1.48,2.2,0,3.32,1.08,3.32,3.4v4.61c0,.86,0,1.37.87,1.37.12,0,.23-.02.34-.04ZM199.43,469.2v-3.37c-2.43.25-4.11.85-4.11,2.59,0,1.26.79,1.85,1.75,1.85.77,0,1.62-.36,2.36-1.08Z"/><path d="M210.7,461.12l-.5,1.33c-.32-.14-.7-.22-.98-.22-.96,0-1.79.7-2.23,1.66v6.86h-1.7v-9.27l1.59-.49h.07v2.38c.66-1.46,1.66-2.36,2.91-2.36.32,0,.62.05.84.11Z"/><path d="M222.48,465.82c0,3.08-2.11,5.15-4.61,5.15-1.37,0-2.45-.47-3.25-1.26l-1,1.12h-.07v-14.12l1.61-.54h.07v6.32c.87-.94,1.95-1.51,3.18-1.51,2.32,0,4.07,2,4.07,4.84ZM220.66,465.98c0-2.93-1.18-4.41-2.79-4.41-.89,0-1.86.45-2.64,1.39v5.91c.46,1.1,1.37,1.82,2.48,1.82,1.73,0,2.95-1.8,2.95-4.7Z"/><path d="M225.34,466.04c0-3.04,2.09-5.06,4.87-5.06s4.71,1.89,4.71,4.95-2.09,5.04-4.87,5.04-4.71-1.87-4.71-4.93ZM233.11,466.04c0-2.88-1.23-4.81-3-4.81s-2.95,1.85-2.95,4.7,1.23,4.79,3,4.79,2.95-1.85,2.95-4.68Z"/><path d="M246.49,464.38v6.37h-1.7v-6.41c0-.74,0-2.72-2.09-2.72-.93,0-1.82.38-2.73,1.28v7.85h-1.7v-9.27l1.62-.49h.07v1.55c1-.97,2.04-1.57,3.46-1.57,1.98,0,3.05,1.08,3.05,3.4Z"/><path d="M258.24,470.32v.11c-.29.18-.84.45-1.48.45-1.14,0-1.37-.85-1.41-1.33-.93.88-2.18,1.39-3.3,1.39-1.5,0-2.5-.88-2.5-2.21,0-1.67,1.59-2.72,4.03-2.99.64-.07,1.21-.11,1.75-.16v-1.03c0-1.78-.52-2.97-2.29-2.97-.96,0-1.8.34-2.68,1.08l-.16-.2c.96-.9,1.96-1.48,3.5-1.48,2.2,0,3.32,1.08,3.32,3.4v4.61c0,.86,0,1.37.87,1.37.12,0,.23-.02.34-.04ZM255.33,469.2v-3.37c-2.43.25-4.11.85-4.11,2.59,0,1.26.79,1.85,1.75,1.85.77,0,1.62-.36,2.36-1.08Z"/><path d="M266.24,470.12c-.75.5-1.5.85-2.5.85-2.2,0-2.32-1.69-2.32-2.47v-6.91h-1.37v-.31l1.3-.09,1.7-3.06h.07v3.06h3.05l-.23.4h-2.82v6.88c0,.52,0,1.89,1.45,1.89.41,0,.95-.11,1.54-.45l.14.22Z"/><path d="M269.87,465.3v.32c0,2.99,1.45,4.57,3.37,4.57,1.07,0,2.34-.54,3.16-1.73l.21.13c-1.02,1.57-2.43,2.38-4.11,2.38-2.55,0-4.45-1.93-4.45-4.84,0-3.12,2.05-5.15,4.8-5.15,2.57,0,3.89,1.78,3.86,4.32h-6.86ZM269.89,465.01h5.21c.11-2.27-.86-3.76-2.37-3.76s-2.66,1.57-2.84,3.76Z"/><path d="M285.14,465.28c0-3.47,1.05-6.39,2.79-8.61l.23.16c-1.57,2.09-2.23,5.04-2.23,8.34s.66,6.32,2.23,8.41l-.23.16c-1.73-2.21-2.79-4.99-2.79-8.46Z"/><path d="M299.96,461.25c0,2.45-1.93,4.03-5.04,4.03-.55,0-1.16-.05-1.55-.11v5.58h-1.82v-13.11h3.37c3.34,0,5.04,1.3,5.04,3.6ZM298.03,461.46c0-2.07-1.04-3.53-3.37-3.53h-1.29v6.93c.32.07.73.13,1.25.13,2.27,0,3.41-1.33,3.41-3.53Z"/><path d="M302.91,464.31c0-4.2,2.84-6.88,6.61-6.88,2.11,0,3.86.94,4.87,2.11l-.89.81c-.91-1.53-2.34-2.63-4.07-2.63-2.73,0-4.52,2.63-4.52,6.14,0,3.98,2.16,6.32,5.03,6.32,1.55,0,3.25-.67,4.41-2.47l.21.13c-1.18,1.93-3,3.13-5.43,3.13-3.57,0-6.23-2.61-6.23-6.66Z"/><path d="M316.75,473.58c1.57-2.09,2.23-5.04,2.23-8.34s-.66-6.32-2.23-8.41l.23-.16c1.73,2.21,2.79,4.99,2.79,8.46s-1.05,6.39-2.79,8.61l-.23-.16Z"/><path d="M335.54,469.4l-.34,1.35h-6.21v-13.11h1.82v12.78h.34c1.07,0,2.5-.2,4.36-1.03h.04Z"/><path d="M339.25,465.3v.32c0,2.99,1.45,4.57,3.37,4.57,1.07,0,2.34-.54,3.16-1.73l.21.13c-1.02,1.57-2.43,2.38-4.11,2.38-2.55,0-4.45-1.93-4.45-4.84,0-3.12,2.05-5.15,4.8-5.15,2.57,0,3.89,1.78,3.86,4.32h-6.86ZM339.27,465.01h5.21c.11-2.27-.86-3.76-2.37-3.76s-2.66,1.57-2.84,3.76Z"/><path d="M357.59,464.38v6.37h-1.7v-6.41c0-.74,0-2.72-2.09-2.72-.93,0-1.82.38-2.73,1.28v7.85h-1.7v-9.27l1.62-.49h.07v1.55c1-.97,2.04-1.57,3.46-1.57,1.98,0,3.05,1.08,3.05,3.4Z"/><path d="M360.76,470.11l.27-.92c.73.86,1.87,1.53,3.28,1.53s2.32-.76,2.32-1.84c0-1.15-1.09-1.62-2.21-2.09l-.73-.31c-1.16-.5-2.75-1.17-2.75-2.88,0-1.51,1.29-2.63,3.32-2.63,1.27,0,2.46.4,3.09.76l-.25.85c-.62-.61-1.73-1.35-3-1.35s-2.02.76-2.02,1.64c0,1.13,1.23,1.58,2.23,2.02l.71.31c1.12.47,2.75,1.15,2.75,2.93,0,1.64-1.36,2.84-3.64,2.84-1.2,0-2.57-.34-3.38-.86Z"/><path d="M12.74,482.81h1.82v13.11h-1.82v-13.11Z"/><path d="M27.33,486.41c0,2.45-1.93,4.03-5.04,4.03-.55,0-1.16-.05-1.55-.11v5.58h-1.82v-13.11h3.37c3.34,0,5.04,1.3,5.04,3.6ZM25.4,486.62c0-2.07-1.04-3.53-3.37-3.53h-1.29v6.93c.32.07.73.13,1.25.13,2.27,0,3.41-1.33,3.41-3.53Z"/><path d="M35.58,488.35l4.14,5.28v2.68h-.09l-5.25-6.63-1.18,1.66c-1.43,2.05-1.95,3.49-2.16,4.57h-1.89c1.04-1.08,2.41-2.84,3.78-4.77l1.21-1.75-5.21-6.59h2.29l4.12,5.26.5-.7c1.43-2.03,2.27-3.47,2.57-4.56h1.41c-.96,1.08-2.21,2.63-3.7,4.75l-.55.79Z"/><path d="M50.78,492.35h-1.64v3.57h-1.64v-3.57h-5.53l-.21-.56,7.03-9.08h.36v8.52h1.95l-.3,1.12ZM47.5,491.23v-6.34l-4.86,6.34h4.86Z"/><path d="M3.7,187.52c0,1.02-.83,1.85-1.85,1.85s-1.85-.83-1.85-1.85.83-1.85,1.85-1.85,1.85.83,1.85,1.85Z"/><path d="M3.7,261.55c0,1.02-.83,1.85-1.85,1.85s-1.85-.83-1.85-1.85.83-1.85,1.85-1.85,1.85.83,1.85,1.85Z"/><path d="M3.7,288.22c0,1.02-.83,1.85-1.85,1.85s-1.85-.83-1.85-1.85.83-1.85,1.85-1.85,1.85.83,1.85,1.85Z"/><path d="M3.7,314.89c0,1.02-.83,1.85-1.85,1.85s-1.85-.83-1.85-1.85.83-1.85,1.85-1.85,1.85.83,1.85,1.85Z"/><path d="M3.7,414.7c0,1.02-.83,1.85-1.85,1.85s-1.85-.83-1.85-1.85.83-1.85,1.85-1.85,1.85.83,1.85,1.85Z"/><path d="M3.7,439.12c0,1.02-.83,1.85-1.85,1.85s-1.85-.83-1.85-1.85.83-1.85,1.85-1.85,1.85.83,1.85,1.85Z"/><path d="M3.7,463.54c0,1.02-.83,1.85-1.85,1.85s-1.85-.83-1.85-1.85.83-1.85,1.85-1.85,1.85.83,1.85,1.85Z"/><path d="M3.7,487.95c0,1.02-.83,1.85-1.85,1.85s-1.85-.83-1.85-1.85.83-1.85,1.85-1.85,1.85.83,1.85,1.85Z"/></g></svg>