<?xml version="1.0" encoding="UTF-8"?><svg id="_圖層_2" xmlns="http://www.w3.org/2000/svg" viewBox="0 0 1101.61 153.51"><defs><style>.cls-1{fill:#fff;}</style></defs><g id="_圖層_1-2"><path class="cls-1" d="M326.75,48.04V1.24h20.38c14.96,0,24.25,7.02,24.25,22.43,0,17.62-9.74,24.38-24.64,24.38h-19.99ZM341.98,37.12h3.23c7.09,0,10.96-3.77,10.96-12.61,0-9.75-3.16-12.35-11.29-12.35h-2.9v24.96Z"/><path class="cls-1" d="M414.53,48.04h-12.45v-5c-3.35,4.68-6.64,5.98-12.19,5.98-7.35,0-12.13-4.55-12.13-14.3V13.98h13.42v18.4c0,4.68,1.61,6.18,4.84,6.18,3.87,0,5.1-2.92,5.1-8.19V13.98h13.42v34.06Z"/><path class="cls-1" d="M446.65,48.04l-.64-3.64c-3.81,3.58-7.68,4.62-12.71,4.62-6.39,0-12.06-3.18-12.06-10.27,0-15.47,24.06-8.45,24.06-14.82,0-2.47-2.97-2.79-4.39-2.79-1.87,0-4.39.39-4.71,3.32h-12.9c0-7.22,5.1-11.44,18.45-11.44,16,0,16.96,5.98,16.96,14.11v15.93c0,1.95.06,2.92,1.81,4.35v.65h-13.87ZM445.29,32.96c-4.39,2.14-10.19,1.1-10.19,5.52,0,1.69,1.61,2.86,4.26,2.86,4.71,0,6.26-3.71,5.93-8.38Z"/><path class="cls-1" d="M468.57,48.04V1.24h13.42v46.8h-13.42Z"/><path class="cls-1" d="M540.1,14.82c-.26-1.63-1.1-2.6-2.19-3.19-1.1-.58-2.45-.84-3.93-.84-3.35,0-4.84.97-4.84,2.67,0,7.02,26.7,2.67,26.7,19.7,0,10.86-8.97,16.12-21.74,16.12s-20.25-7.22-20.58-15.67h14.58c.32,1.69,1.23,2.92,2.52,3.7,1.23.78,2.84,1.17,4.32,1.17,3.81,0,6.32-1.23,6.32-3.44,0-7.09-26.7-2.21-26.7-20.09,0-9.95,8.51-14.95,20.12-14.95,12.9,0,18.77,6.63,19.87,14.82h-14.45Z"/><path class="cls-1" d="M575.31,34.06c0,4.03,3.1,6.7,6.64,6.7,2.13,0,4.06-.97,5.03-2.99h12.84c-2.32,8.45-10.84,11.25-18.71,11.25-10.84,0-19.22-6.24-19.22-17.68s8.32-18.33,19.16-18.33c12.51,0,20.06,8.71,19.87,21.06h-25.61ZM587.5,27.17c0-3.12-2.77-5.91-5.93-5.91-4,0-6.26,2.28-6.26,5.91h12.19Z"/><path class="cls-1" d="M630.26,48.04c-17.61.97-19.74-.26-19.74-12.03v-14.24h-4.77v-7.8h4.97V3.38h13.22v10.59h6.45v7.8h-6.45v12.35c0,3.12.45,4.22,4.19,4.22h2.13v9.69Z"/><path class="cls-1" d="M660.83,48.04c-17.61.97-19.74-.26-19.74-12.03v-14.24h-4.77v-7.8h4.97V3.38h13.22v10.59h6.45v7.8h-6.45v12.35c0,3.12.45,4.22,4.19,4.22h2.13v9.69Z"/><path class="cls-1" d="M669.98,0h13.42v9.62h-13.42V0ZM669.98,48.04V13.98h13.42v34.06h-13.42Z"/><path class="cls-1" d="M692.49,13.98h12.25v5.33c3.03-4.09,6.32-6.3,11.42-6.3,8.9,0,13.09,5.26,13.09,14.62v20.41h-13.42v-18.01c0-3.38-.9-6.37-4.71-6.37-4.13,0-5.22,2.67-5.22,7.02v17.36h-13.42V13.98Z"/><path class="cls-1" d="M751.76,49.79c0,.39.26.98.84,1.5.58.52,1.55.84,2.9.84,3.87,0,5.42-1.75,5.42-6.63v-2.8c-1.93,1.95-4.84,3.71-9.67,3.71-9.35,0-14.71-7.41-14.71-16.12s4-17.29,15.09-17.29c4.06,0,7.87,2.14,10.26,5.46v-4.49h11.8v27.43c0,10.21-1.16,18.2-17.8,18.2-11.93,0-16.96-4.81-17.61-9.82h13.48ZM749.96,30.42c0,3.38,1.68,6.56,5.29,6.63,4.13.2,5.68-3.38,5.68-7.02s-1.42-7.34-5.68-7.34c-4.06-.07-5.29,3.31-5.29,7.74Z"/><path class="cls-1" d="M0,113.04v-46.8h22.38c13.35,0,19.8,6.17,19.8,15.8s-5.93,16.45-19.29,16.45h-7.68v14.56H0ZM21.54,87.56c3.55,0,6.13-1.43,6.13-5.46,0-4.35-4.9-4.94-8.13-4.94h-4.32v10.4h6.32Z"/><path class="cls-1" d="M71.85,113.04l-.64-3.64c-3.81,3.58-7.68,4.62-12.71,4.62-6.39,0-12.06-3.18-12.06-10.27,0-15.47,24.06-8.45,24.06-14.82,0-2.47-2.97-2.79-4.39-2.79-1.87,0-4.39.39-4.71,3.32h-12.9c0-7.22,5.1-11.44,18.45-11.44,16,0,16.96,5.98,16.96,14.11v15.93c0,1.95.06,2.92,1.81,4.35v.65h-13.87ZM70.49,97.96c-4.39,2.14-10.19,1.1-10.19,5.52,0,1.69,1.61,2.86,4.26,2.86,4.71,0,6.26-3.71,5.93-8.38Z"/><path class="cls-1" d="M93.77,113.04v-46.8h13.42v46.8h-13.42Z"/><path class="cls-1" d="M116.09,78.98h12.32v5.07c1.68-2.6,5.87-6.04,10.71-6.04,6.06,0,9.42,2.6,11.03,6.24,2.9-4.1,6.71-6.24,11.67-6.24,9.87,0,12.96,5.59,12.96,14.89v20.15h-13.42v-17.36c0-5.01-.97-7.02-4.52-7.02-3.93,0-4.71,3.45-4.71,7.54v16.84h-13.42v-17.36c0-5.01-.97-7.02-4.51-7.02-3.93,0-4.71,3.45-4.71,7.54v16.84h-13.42v-34.06Z"/><path class="cls-1" d="M231.73,79.82c-.26-1.63-1.1-2.6-2.19-3.19-1.1-.58-2.45-.84-3.93-.84-3.35,0-4.84.97-4.84,2.67,0,7.02,26.7,2.67,26.7,19.7,0,10.86-8.97,16.12-21.74,16.12s-20.25-7.22-20.58-15.67h14.58c.32,1.69,1.23,2.92,2.52,3.7,1.23.78,2.84,1.17,4.32,1.17,3.81,0,6.32-1.23,6.32-3.44,0-7.09-26.7-2.21-26.7-20.09,0-9.95,8.51-14.95,20.12-14.95,12.9,0,18.77,6.63,19.87,14.82h-14.45Z"/><path class="cls-1" d="M254.62,66.24h13.42v17.03c2.71-3.44,5.74-5.26,10.26-5.26,8.9,0,13.09,5.26,13.09,14.62v20.41h-13.42v-18.01c0-3.38-.9-6.37-4.71-6.37-4.13,0-5.22,2.67-5.22,7.02v17.36h-13.42v-46.8Z"/><path class="cls-1" d="M323.5,113.04l-.64-3.64c-3.81,3.58-7.68,4.62-12.71,4.62-6.39,0-12.06-3.18-12.06-10.27,0-15.47,24.06-8.45,24.06-14.82,0-2.47-2.97-2.79-4.39-2.79-1.87,0-4.39.39-4.71,3.32h-12.9c0-7.22,5.1-11.44,18.45-11.44,16,0,16.96,5.98,16.96,14.11v15.93c0,1.95.06,2.92,1.81,4.35v.65h-13.87ZM322.14,97.96c-4.39,2.14-10.19,1.1-10.19,5.52,0,1.69,1.61,2.86,4.26,2.86,4.71,0,6.26-3.71,5.93-8.38Z"/><path class="cls-1" d="M369.29,113.04v-4.55c-3.16,4.16-6.06,5.52-10.38,5.52-10.19,0-15.35-7.73-15.35-17.36,0-11.31,6.26-18.66,14.32-18.66,4.26,0,7.22,1.04,10.06,4.42v-16.19h13.42v46.8h-12.06ZM368.39,96.33c0-3.77-1.29-7.87-5.74-7.87s-5.68,4.29-5.68,8.06c0,3.58.9,7.74,5.29,7.74,4.64,0,6.13-3.96,6.13-7.93Z"/><path class="cls-1" d="M407.79,78c11.93,0,19.29,7.08,19.29,17.68,0,12.48-8.38,18.33-19.22,18.33s-19.22-5.98-19.22-17.62,7.74-18.4,19.16-18.4ZM402.05,95.68c0,6.44,2.39,9.23,5.8,9.23,3.61,0,5.81-2.79,5.81-9.23,0-5.01-2.19-8.78-5.68-8.58-4.58,0-5.93,4.75-5.93,8.58Z"/><path class="cls-1" d="M472.8,100.04h.13l5.22-21.06h12.71l-10.77,34.06h-13.09l-5.22-19.96h-.13l-4.71,19.96h-13.09l-11.16-34.06h13.09l5.16,21.06h.13l5.22-21.06h11.35l5.16,21.06Z"/><path class="cls-1" d="M552.19,109.07c-3.1,2.66-9.29,5.2-15.35,5.2-8.51,0-16.38-3.97-16.38-13,0-6.89,3.87-11.57,9.74-14.56-2.39-2.54-4-5.13-4-8.78,0-8.78,8.45-11.7,15.8-11.7,8.58,0,15.48,4.81,15.48,12.35,0,5.59-2.84,9.23-7.55,11.83l4,4.16c1.29-1.1,2.26-2.41,3.03-3.9h12.25c-2.13,4.1-4.64,8-7.8,11.38l10.58,10.99h-16.12l-3.68-3.96ZM538.39,94.45c-2.52,1.3-5.03,2.92-5.03,5.59s1.87,4.29,4.52,4.29c1.48,0,3.87-.91,5.16-1.69,1.87-1.11,2.19-.91,1.35-1.82l-6-6.37ZM537.81,77.87c0,2.34,1.74,3.96,3.93,5.46,3.03-1.43,5.74-3.06,4.58-6.89-.64-1.43-2.52-2.08-4-2.08-2.26,0-4.52.91-4.52,3.51Z"/><path class="cls-1" d="M605.01,113.04v-46.8h36.12v10.92h-20.9v8.51h16.64v10.92h-16.64v16.45h-15.22Z"/><path class="cls-1" d="M649.19,113.04v-46.8h13.42v46.8h-13.42Z"/><path class="cls-1" d="M672.6,65h13.42v9.62h-13.42v-9.62ZM672.6,113.04v-34.06h13.42v34.06h-13.42Z"/><path class="cls-1" d="M718.26,91.98c-.06-1.5-.58-2.67-1.42-3.51-.84-.91-2-1.36-3.48-1.36-5.03,0-5.87,5.26-5.87,9.29,0,5.13,1.94,8.52,5.87,8.52,3.48,0,4.84-2.41,5.22-5.07h13.54c-1.16,10.34-9.42,14.17-18.77,14.17-10.9,0-19.29-6.17-19.29-17.68s8.13-18.33,19.29-18.33c9.03,0,17.54,3.9,18.51,13.98h-13.61Z"/><path class="cls-1" d="M753.79,103.48v9.56h-13.42v-46.8h13.42v23.14l8.58-10.4h15.67l-12.51,13.2,14.12,20.87h-16.12l-7.22-12.09-2.52,2.54Z"/><path class="cls-1" d="M797.33,99.06c0,4.03,3.1,6.7,6.64,6.7,2.13,0,4.06-.97,5.03-2.99h12.84c-2.32,8.45-10.84,11.25-18.71,11.25-10.84,0-19.22-6.24-19.22-17.68s8.32-18.33,19.16-18.33c12.51,0,20.06,8.71,19.87,21.06h-25.61ZM809.52,92.17c0-3.12-2.77-5.91-5.93-5.91-4,0-6.26,2.28-6.26,5.91h12.19Z"/><path class="cls-1" d="M830.22,78.98h12.19v6.89h.13c1.87-5.33,5.16-7.87,10.38-7.87.58,0,1.16.13,1.74.19v13.52c-.9-.13-1.87-.39-2.77-.39-5.48,0-8.26,2.6-8.26,9.95v11.77h-13.42v-34.06Z"/><path class="cls-1" d="M885.61,113.04v-46.8h36.12v10.92h-20.9v8.51h16.64v10.92h-16.64v16.45h-15.22Z"/><path class="cls-1" d="M929.79,113.04v-46.8h13.42v46.8h-13.42Z"/><path class="cls-1" d="M976.23,113.04l-.65-3.64c-3.8,3.58-7.67,4.62-12.71,4.62-6.38,0-12.06-3.18-12.06-10.27,0-15.47,24.06-8.45,24.06-14.82,0-2.47-2.97-2.79-4.39-2.79-1.87,0-4.39.39-4.71,3.32h-12.9c0-7.22,5.1-11.44,18.45-11.44,16,0,16.96,5.98,16.96,14.11v15.93c0,1.95.06,2.92,1.81,4.35v.65h-13.87ZM974.87,97.96c-4.39,2.14-10.19,1.1-10.19,5.52,0,1.69,1.61,2.86,4.26,2.86,4.71,0,6.26-3.71,5.93-8.38Z"/><path class="cls-1" d="M997.06,78.98h12.32v5.07c1.68-2.6,5.87-6.04,10.71-6.04,6.06,0,9.42,2.6,11.03,6.24,2.9-4.1,6.71-6.24,11.67-6.24,9.87,0,12.96,5.59,12.96,14.89v20.15h-13.42v-17.36c0-5.01-.97-7.02-4.52-7.02-3.93,0-4.71,3.45-4.71,7.54v16.84h-13.42v-17.36c0-5.01-.97-7.02-4.51-7.02-3.93,0-4.71,3.45-4.71,7.54v16.84h-13.42v-34.06Z"/><path class="cls-1" d="M1076,99.06c0,4.03,3.1,6.7,6.64,6.7,2.13,0,4.06-.97,5.03-2.99h12.84c-2.32,8.45-10.84,11.25-18.71,11.25-10.84,0-19.22-6.24-19.22-17.68s8.32-18.33,19.16-18.33c12.51,0,20.06,8.71,19.87,21.06h-25.61ZM1088.19,92.17c0-3.12-2.77-5.91-5.93-5.91-4,0-6.26,2.28-6.26,5.91h12.19Z"/><path class="cls-1" d="M317.69,138.22c0,5.87-3.87,9.3-10,9.3h-5.91v-18.2h6.33c5.73,0,9.58,3.12,9.58,8.9ZM314.91,138.34c0-5.15-2.75-8.62-7.02-8.62h-3.57v17.17c.64.15,1.81.22,3.8.22,4.32,0,6.8-3.17,6.8-8.77Z"/><path class="cls-1" d="M332.6,147.04l-2.21.7-.69-2.17v-.05c-1.22,1.33-2.85,2.3-4.76,2.3-2.75,0-4.24-1.5-4.24-4.7v-8.47l2.26-.67h.1v9.2c0,1.02,0,3.77,2.9,3.77,1.24,0,2.65-.77,3.75-2v-10.3l2.26-.67h.1v11.27l.55,1.8Z"/><path class="cls-1" d="M346.76,146.92v.15c-.4.25-1.17.62-2.06.62-1.59,0-1.91-1.17-1.96-1.85-1.29,1.22-3.03,1.92-4.59,1.92-2.08,0-3.47-1.22-3.47-3.07,0-2.32,2.21-3.77,5.61-4.15.89-.1,1.69-.15,2.43-.22v-1.42c0-2.47-.72-4.12-3.18-4.12-1.34,0-2.51.47-3.72,1.5l-.22-.28c1.34-1.25,2.73-2.05,4.86-2.05,3.05,0,4.61,1.5,4.61,4.72v6.4c0,1.2,0,1.9,1.22,1.9.17,0,.32-.03.47-.05ZM342.72,145.37v-4.67c-3.37.35-5.71,1.17-5.71,3.6,0,1.75,1.09,2.58,2.43,2.58,1.07,0,2.26-.5,3.27-1.5Z"/><path class="cls-1" d="M349.19,128.02l2.26-.75h.1v20.25h-2.36v-19.5Z"/><path class="cls-1" d="M360.52,146.49l.45-1.58c1.19,1.47,3.55,2.5,5.56,2.5,2.41,0,4.04-1.5,4.04-3.55,0-2.4-2.13-3.47-3.97-4.32l-1.24-.55c-1.96-.9-4.56-2.2-4.56-5.17,0-2.75,2.26-4.8,5.71-4.8,2.03,0,4.04.72,5.06,1.32l-.4,1.4c-1.09-1.15-2.88-2.32-4.94-2.32-2.31,0-3.62,1.45-3.62,3.2,0,2.15,1.89,3.1,3.87,4.02l1.24.57c2.23,1.05,4.64,2.25,4.64,5.35s-2.56,5.25-6.05,5.25c-2.16,0-4.66-.75-5.78-1.32Z"/><path class="cls-1" d="M377.09,139.94v.45c0,4.15,2.01,6.35,4.69,6.35,1.49,0,3.25-.75,4.39-2.4l.3.17c-1.41,2.17-3.37,3.3-5.71,3.3-3.55,0-6.18-2.67-6.18-6.72,0-4.32,2.85-7.15,6.67-7.15,3.57,0,5.41,2.47,5.36,6h-9.53ZM377.12,139.54h7.25c.15-3.15-1.19-5.22-3.3-5.22s-3.7,2.17-3.94,5.22Z"/><path class="cls-1" d="M396.77,146.64c-1.04.7-2.08,1.17-3.47,1.17-3.05,0-3.23-2.35-3.23-3.42v-9.6h-1.91v-.42l1.81-.12,2.36-4.25h.1v4.25h4.24l-.32.55h-3.92v9.55c0,.72,0,2.62,2.01,2.62.57,0,1.31-.15,2.13-.62l.2.3Z"/><path class="cls-1" d="M406.34,146.64c-1.04.7-2.08,1.17-3.47,1.17-3.05,0-3.23-2.35-3.23-3.42v-9.6h-1.91v-.42l1.81-.12,2.36-4.25h.1v4.25h4.24l-.32.55h-3.92v9.55c0,.72,0,2.62,2.01,2.62.57,0,1.31-.15,2.13-.62l.2.3Z"/><path class="cls-1" d="M407.85,130.17l1.69-1.7,1.69,1.7-1.69,1.7-1.69-1.7ZM408.37,134.64l2.23-.67h.1v13.55h-2.33v-12.87Z"/><path class="cls-1" d="M425.79,138.67v8.85h-2.36v-8.9c0-1.03,0-3.77-2.9-3.77-1.29,0-2.53.52-3.8,1.77v10.9h-2.36v-12.87l2.26-.67h.1v2.15c1.39-1.35,2.83-2.17,4.81-2.17,2.75,0,4.24,1.5,4.24,4.72Z"/><path class="cls-1" d="M440.6,148.74c0,2.75-3.1,4.77-6.97,4.77-3.18,0-5.63-1.37-5.63-3.6,0-.52.12-1.08.4-1.67l1.39-.4h.1c-.25.67-.4,1.3-.4,1.87,0,2.02,1.51,3.4,4.14,3.4,3.25,0,5.43-1.35,5.43-3.42,0-1.35-1.04-2.12-3.25-2.25l-3.9-.25c-1.74-.1-2.9-.75-2.9-2.05,0-.95.6-1.6,1.76-2.3l.5-.3c-1.51-.75-2.51-2.17-2.51-3.97,0-2.72,2.28-4.62,5.31-4.62,1.31,0,2.51.35,3.4,1,.65-.92,1.66-1.8,3.32-1.8l-.22,2c-.47-.15-.99-.27-1.44-.27-.55,0-.99.1-1.34.32.94.8,1.51,1.97,1.51,3.35,0,2.7-2.28,4.6-5.31,4.6-.84,0-1.61-.15-2.31-.42l-.55.38c-.57.38-.72.75-.72,1.12,0,.52.4.9,1.74.97l4.09.25c2.78.15,4.34,1.22,4.34,3.3ZM430.99,138.54c0,2.5,1.19,4.2,3.05,4.2s3.03-1.67,3.03-4.17-1.19-4.22-3.05-4.22-3.03,1.7-3.03,4.2Z"/><path class="cls-1" d="M442.28,146.62l.37-1.28c1.02,1.2,2.6,2.12,4.56,2.12s3.23-1.05,3.23-2.55c0-1.6-1.51-2.25-3.08-2.9l-1.02-.42c-1.61-.7-3.82-1.62-3.82-4,0-2.1,1.79-3.65,4.61-3.65,1.76,0,3.42.55,4.29,1.05l-.35,1.17c-.87-.85-2.41-1.87-4.17-1.87s-2.8,1.05-2.8,2.27c0,1.57,1.71,2.2,3.1,2.8l.99.43c1.56.65,3.82,1.6,3.82,4.07,0,2.27-1.89,3.95-5.06,3.95-1.66,0-3.57-.47-4.69-1.2Z"/><path class="cls-1" d="M454.39,136.47l1.76-1.78,1.74,1.78-1.74,1.77-1.76-1.77ZM454.39,146.29l1.76-1.77,1.74,1.77-1.74,1.75-1.76-1.75Z"/><path class="cls-1" d="M479.12,134.32c0,3.4-2.68,5.6-7,5.6-.77,0-1.61-.08-2.16-.15v7.75h-2.53v-18.2h4.69c4.64,0,7,1.8,7,5ZM476.44,134.62c0-2.88-1.44-4.9-4.69-4.9h-1.79v9.62c.45.1,1.02.17,1.74.17,3.15,0,4.74-1.85,4.74-4.9Z"/><path class="cls-1" d="M492.49,146.92v.15c-.4.25-1.17.62-2.06.62-1.59,0-1.91-1.17-1.96-1.85-1.29,1.22-3.03,1.92-4.59,1.92-2.08,0-3.47-1.22-3.47-3.07,0-2.32,2.21-3.77,5.61-4.15.89-.1,1.69-.15,2.43-.22v-1.42c0-2.47-.72-4.12-3.18-4.12-1.34,0-2.51.47-3.72,1.5l-.22-.28c1.34-1.25,2.73-2.05,4.86-2.05,3.05,0,4.61,1.5,4.61,4.72v6.4c0,1.2,0,1.9,1.22,1.9.17,0,.32-.03.47-.05ZM488.44,145.37v-4.67c-3.37.35-5.71,1.17-5.71,3.6,0,1.75,1.09,2.58,2.43,2.58,1.07,0,2.26-.5,3.27-1.5Z"/><path class="cls-1" d="M494.92,128.02l2.26-.75h.1v20.25h-2.36v-19.5Z"/><path class="cls-1" d="M520.94,138.67v8.85h-2.33v-8.9c0-1.03-.02-3.77-2.9-3.77-1.34,0-2.46.58-3.8,2,.12.53.2,1.12.2,1.83v8.85h-2.36v-8.9c0-1.03,0-3.77-2.88-3.77-1.29,0-2.36.52-3.6,1.75v10.92h-2.36v-12.87l2.26-.67h.1v2.15c1.34-1.35,2.65-2.17,4.64-2.17s3.28.8,3.87,2.45c1.46-1.5,2.83-2.45,4.96-2.45,2.73,0,4.19,1.5,4.19,4.72Z"/><path class="cls-1" d="M529.79,146.49l.45-1.58c1.19,1.47,3.55,2.5,5.56,2.5,2.41,0,4.04-1.5,4.04-3.55,0-2.4-2.13-3.47-3.97-4.32l-1.24-.55c-1.96-.9-4.56-2.2-4.56-5.17,0-2.75,2.26-4.8,5.71-4.8,2.03,0,4.04.72,5.06,1.32l-.4,1.4c-1.09-1.15-2.88-2.32-4.94-2.32-2.31,0-3.62,1.45-3.62,3.2,0,2.15,1.89,3.1,3.87,4.02l1.24.57c2.23,1.05,4.64,2.25,4.64,5.35s-2.56,5.25-6.05,5.25c-2.16,0-4.66-.75-5.78-1.32Z"/><path class="cls-1" d="M555.94,138.67v8.85h-2.33v-8.9c0-1.03-.02-3.77-2.9-3.77-1.31,0-2.53.52-3.82,1.77v10.9h-2.33v-19.5l2.23-.75h.1v8.87c1.39-1.35,2.83-2.2,4.84-2.2,2.73,0,4.22,1.5,4.22,4.72Z"/><path class="cls-1" d="M570.55,146.92v.15c-.4.25-1.17.62-2.06.62-1.59,0-1.91-1.17-1.96-1.85-1.29,1.22-3.03,1.92-4.59,1.92-2.08,0-3.47-1.22-3.47-3.07,0-2.32,2.21-3.77,5.61-4.15.89-.1,1.69-.15,2.43-.22v-1.42c0-2.47-.72-4.12-3.18-4.12-1.34,0-2.51.47-3.72,1.5l-.22-.28c1.34-1.25,2.73-2.05,4.86-2.05,3.05,0,4.61,1.5,4.61,4.72v6.4c0,1.2,0,1.9,1.22,1.9.17,0,.32-.03.47-.05ZM566.51,145.37v-4.67c-3.37.35-5.71,1.17-5.71,3.6,0,1.75,1.09,2.58,2.43,2.58,1.07,0,2.26-.5,3.28-1.5Z"/><path class="cls-1" d="M582.73,147.74l-.64-2.05c-1.22,1.32-2.7,2.12-4.44,2.12-3.23,0-5.66-2.77-5.66-6.7,0-4.27,2.93-7.17,6.4-7.17,1.44,0,2.68.5,3.65,1.37v-7.3l2.26-.75h.1v17.97l.55,1.8-2.21.7ZM582.04,145.12v-8.22c-.62-1.53-1.89-2.52-3.42-2.52-2.43,0-4.09,2.47-4.09,6.5s1.64,6.12,3.9,6.12c1.24,0,2.53-.62,3.62-1.88Z"/><path class="cls-1" d="M587.34,140.97c0-4.22,2.9-7.02,6.77-7.02s6.55,2.62,6.55,6.87-2.9,7-6.77,7-6.55-2.6-6.55-6.85ZM598.13,140.97c0-4-1.71-6.67-4.17-6.67s-4.09,2.57-4.09,6.52,1.71,6.65,4.17,6.65,4.09-2.57,4.09-6.5Z"/><path class="cls-1" d="M620.29,134.25c-.97,2.15-1.74,4.12-3.1,7.62l-2.33,6.02h-.17l-3.62-9.85-3.72,9.85h-.17l-5.41-13.65h2.51l3.95,10.05,3.75-10.05h.15l3.7,9.97.97-2.55c1.41-3.65,1.94-5.92,2.06-7.42h1.46Z"/><path class="cls-1" d="M643.2,145.19v2.87h-.1l-3.25-2.77c-1.49,1.62-3.7,2.52-6.4,2.52-3.5,0-6.15-1.85-6.15-4.85,0-2.27,1.56-3.97,4.04-5-1.19-1.22-2.16-2.65-2.16-4.45,0-2.62,2.13-4.5,4.74-4.5s4.61,1.67,4.61,3.95-2.13,3.57-3.9,4.1l-.27-.25c1.56-.72,2.53-1.92,2.53-3.67,0-2.22-1.26-3.77-3.1-3.77-2.01,0-2.95,1.7-2.95,3.2,0,2.05,1.84,3.65,3.08,4.7l6.92,5.9c.45-1,.72-2.22.72-3.67,0-1.52-.55-2.52-.82-3.05l1.22-.47h.1v3.02c0,1.67-.32,3.17-.94,4.42l2.08,1.77ZM639.56,145.04l-6.58-5.6c-.45-.38-.94-.8-1.39-1.22-1.59,1-2.13,2.6-2.13,4.05,0,2.92,2.04,4.87,4.84,4.87,1.89,0,3.85-.65,5.26-2.1Z"/><path class="cls-1" d="M654.61,129.77v8.35h.89c2.68,0,4.44-.17,5.21-.5h.05v1.55h-.05c-.77-.33-2.53-.6-5.21-.6h-.89v8.95h-2.53v-18.2h9.97l.32,1.57h-.05c-2.28-.77-4.61-1.12-6.75-1.12h-.97Z"/><path class="cls-1" d="M664.81,128.02l2.26-.75h.1v20.25h-2.36v-19.5Z"/><path class="cls-1" d="M670.36,130.17l1.69-1.7,1.69,1.7-1.69,1.7-1.69-1.7ZM670.88,134.64l2.23-.67h.1v13.55h-2.33v-12.87Z"/><path class="cls-1" d="M676.22,141.02c0-4.25,2.9-7.07,6.5-7.07,2.26,0,3.9.87,4.99,2.27l-1.02.9c-1.04-1.67-2.18-2.8-3.85-2.8-2.38,0-4.07,2.4-4.07,6.15,0,4.07,1.91,6.27,4.52,6.27,1.44,0,3.13-.75,4.27-2.4l.3.17c-1.32,2-3.13,3.3-5.53,3.3-3.47,0-6.1-2.67-6.1-6.8Z"/><path class="cls-1" d="M692.56,127.27h.1v20.25h-2.33v-19.5l2.23-.75ZM701.3,144.89v3.17h-.12l-7.87-8.05,2.18-1.9c1.94-1.7,3.03-2.7,4.02-3.87h1.71v.05c-1.96,1.3-3.52,2.47-5.46,4.2l-.45.4,5.98,6Z"/><path class="cls-1" d="M704.97,139.94v.45c0,4.15,2.01,6.35,4.69,6.35,1.49,0,3.25-.75,4.39-2.4l.3.17c-1.41,2.17-3.37,3.3-5.71,3.3-3.55,0-6.18-2.67-6.18-6.72,0-4.32,2.85-7.15,6.67-7.15,3.57,0,5.41,2.47,5.36,6h-9.53ZM704.99,139.54h7.25c.15-3.15-1.19-5.22-3.3-5.22s-3.7,2.17-3.95,5.22Z"/><path class="cls-1" d="M724.81,134.14l-.7,1.85c-.45-.2-.97-.3-1.36-.3-1.34,0-2.48.97-3.1,2.3v9.52h-2.36v-12.87l2.21-.67h.1v3.3c.92-2.03,2.31-3.27,4.04-3.27.45,0,.87.08,1.17.15Z"/><path class="cls-1" d="M735.28,129.77v8.35h.89c2.68,0,4.44-.17,5.21-.5h.05v1.55h-.05c-.77-.33-2.53-.6-5.21-.6h-.89v8.95h-2.53v-18.2h9.97l.32,1.57h-.05c-2.28-.77-4.62-1.12-6.75-1.12h-.97Z"/><path class="cls-1" d="M745.47,128.02l2.26-.75h.1v20.25h-2.36v-19.5Z"/><path class="cls-1" d="M762.57,146.92v.15c-.4.25-1.17.62-2.06.62-1.59,0-1.91-1.17-1.96-1.85-1.29,1.22-3.03,1.92-4.59,1.92-2.08,0-3.47-1.22-3.47-3.07,0-2.32,2.21-3.77,5.61-4.15.89-.1,1.69-.15,2.43-.22v-1.42c0-2.47-.72-4.12-3.18-4.12-1.34,0-2.51.47-3.72,1.5l-.22-.28c1.34-1.25,2.73-2.05,4.86-2.05,3.05,0,4.62,1.5,4.62,4.72v6.4c0,1.2,0,1.9,1.22,1.9.17,0,.32-.03.47-.05ZM758.52,145.37v-4.67c-3.37.35-5.71,1.17-5.71,3.6,0,1.75,1.09,2.58,2.43,2.58,1.07,0,2.26-.5,3.27-1.5Z"/><path class="cls-1" d="M784.94,138.67v8.85h-2.33v-8.9c0-1.03-.03-3.77-2.9-3.77-1.34,0-2.46.58-3.8,2,.12.53.2,1.12.2,1.83v8.85h-2.36v-8.9c0-1.03,0-3.77-2.88-3.77-1.29,0-2.36.52-3.6,1.75v10.92h-2.36v-12.87l2.26-.67h.1v2.15c1.34-1.35,2.65-2.17,4.64-2.17s3.28.8,3.87,2.45c1.46-1.5,2.83-2.45,4.96-2.45,2.73,0,4.19,1.5,4.19,4.72Z"/><path class="cls-1" d="M790.3,139.94v.45c0,4.15,2.01,6.35,4.69,6.35,1.49,0,3.25-.75,4.39-2.4l.3.17c-1.41,2.17-3.37,3.3-5.71,3.3-3.55,0-6.18-2.67-6.18-6.72,0-4.32,2.85-7.15,6.67-7.15,3.57,0,5.41,2.47,5.36,6h-9.53ZM790.32,139.54h7.25c.15-3.15-1.19-5.22-3.3-5.22s-3.7,2.17-3.95,5.22Z"/></g></svg>