<?xml version="1.0" encoding="UTF-8"?><svg id="_圖層_2" xmlns="http://www.w3.org/2000/svg" viewBox="0 0 569.03 414.23"><defs><style>.cls-1{fill:#183432;stroke:#183432;stroke-miterlimit:10;stroke-width:.75px;}.cls-2{fill:#e7932e;}.cls-3{fill:#355c5a;}</style></defs><g id="_圖層_1-2"><path d="M12.05,111.15l.32-1.13c.86,1.06,2.55,1.8,4,1.8,1.73,0,2.91-1.08,2.91-2.56,0-1.73-1.54-2.5-2.86-3.11l-.89-.4c-1.41-.65-3.29-1.58-3.29-3.73,0-1.98,1.62-3.46,4.11-3.46,1.46,0,2.91.52,3.64.95l-.29,1.01c-.79-.83-2.07-1.67-3.55-1.67-1.66,0-2.61,1.04-2.61,2.3,0,1.55,1.36,2.23,2.79,2.9l.89.41c1.61.76,3.34,1.62,3.34,3.85s-1.84,3.78-4.36,3.78c-1.55,0-3.36-.54-4.16-.95Z"/><path d="M32.83,106.96c0,3.08-2.11,5.15-4.61,5.15-1.04,0-1.93-.36-2.62-.99v4.88h-1.7v-13.38l1.62-.49h.07v1.49c.87-.94,1.93-1.51,3.16-1.51,2.32,0,4.07,2,4.07,4.84ZM31.01,107.12c0-2.93-1.16-4.41-2.77-4.41-.89,0-1.86.45-2.64,1.37v5.91c.45,1.12,1.36,1.84,2.46,1.84,1.75,0,2.95-1.8,2.95-4.7Z"/><path d="M37.5,106.43v.32c0,2.99,1.45,4.57,3.37,4.57,1.07,0,2.34-.54,3.16-1.73l.21.13c-1.02,1.57-2.43,2.38-4.11,2.38-2.55,0-4.45-1.93-4.45-4.84,0-3.11,2.05-5.15,4.8-5.15,2.57,0,3.89,1.78,3.86,4.32h-6.86ZM37.51,106.15h5.21c.11-2.27-.86-3.76-2.37-3.76s-2.66,1.57-2.84,3.76Z"/><path d="M47.14,107.21c0-3.06,2.09-5.1,4.68-5.1,1.62,0,2.8.63,3.59,1.64l-.73.65c-.75-1.21-1.57-2.02-2.77-2.02-1.71,0-2.93,1.73-2.93,4.43,0,2.94,1.37,4.52,3.25,4.52,1.04,0,2.25-.54,3.07-1.73l.21.13c-.95,1.44-2.25,2.38-3.98,2.38-2.5,0-4.39-1.93-4.39-4.9Z"/><path d="M58.21,99.39l1.21-1.22,1.21,1.22-1.21,1.22-1.21-1.22ZM58.59,102.62l1.61-.49h.07v9.76h-1.68v-9.27Z"/><path d="M72.36,102.13h.07v9.76h-1.7v-9.16h-4.18v9.16h-1.7v-9.16h-1.37v-.4h1.37v-1.69c0-2.23,1.18-3.4,3.04-3.4.7,0,1.46.23,2.09.54l-.07.23c-.46-.13-.86-.16-1.21-.16-1.34,0-2.14.85-2.14,2.7v1.78h5.14l.66-.2ZM71.57,100.62l-1.21-1.22,1.21-1.22,1.21,1.22-1.21,1.22Z"/><path d="M75.82,107.21c0-3.06,2.09-5.1,4.68-5.1,1.62,0,2.8.63,3.59,1.64l-.73.65c-.75-1.21-1.57-2.02-2.77-2.02-1.71,0-2.93,1.73-2.93,4.43,0,2.94,1.37,4.52,3.25,4.52,1.04,0,2.25-.54,3.07-1.73l.21.13c-.95,1.44-2.25,2.38-3.98,2.38-2.5,0-4.39-1.93-4.39-4.9Z"/><path d="M95.2,111.46v.11c-.29.18-.84.45-1.48.45-1.14,0-1.37-.85-1.41-1.33-.93.88-2.18,1.39-3.3,1.39-1.5,0-2.5-.88-2.5-2.21,0-1.67,1.59-2.72,4.03-2.99.64-.07,1.21-.11,1.75-.16v-1.03c0-1.78-.52-2.97-2.29-2.97-.96,0-1.8.34-2.68,1.08l-.16-.2c.96-.9,1.96-1.48,3.5-1.48,2.2,0,3.32,1.08,3.32,3.4v4.61c0,.86,0,1.37.87,1.37.12,0,.23-.02.34-.04ZM92.29,110.34v-3.37c-2.43.25-4.11.85-4.11,2.59,0,1.26.79,1.85,1.75,1.85.77,0,1.62-.36,2.36-1.08Z"/><path d="M103.2,111.26c-.75.5-1.5.85-2.5.85-2.2,0-2.32-1.69-2.32-2.47v-6.91h-1.37v-.31l1.3-.09,1.7-3.06h.07v3.06h3.05l-.23.4h-2.82v6.88c0,.52,0,1.89,1.45,1.89.41,0,.95-.11,1.54-.45l.14.22Z"/><path d="M105.54,99.39l1.21-1.22,1.21,1.22-1.21,1.22-1.21-1.22ZM105.92,102.62l1.61-.49h.07v9.76h-1.68v-9.27Z"/><path d="M111.01,107.17c0-3.04,2.09-5.06,4.87-5.06s4.71,1.89,4.71,4.95-2.09,5.04-4.87,5.04-4.71-1.87-4.71-4.93ZM118.77,107.17c0-2.88-1.23-4.81-3-4.81s-2.95,1.85-2.95,4.7,1.23,4.79,3,4.79,2.95-1.85,2.95-4.68Z"/><path d="M132.15,105.52v6.37h-1.7v-6.41c0-.74,0-2.72-2.09-2.72-.93,0-1.82.38-2.73,1.28v7.85h-1.7v-9.27l1.62-.49h.07v1.55c1-.97,2.04-1.57,3.46-1.57,1.98,0,3.05,1.08,3.05,3.4Z"/><path d="M135.69,103.93l1.27-1.28,1.25,1.28-1.25,1.28-1.27-1.28ZM135.69,111.01l1.27-1.28,1.25,1.28-1.25,1.26-1.27-1.26Z"/><path d="M24.19,130.35c0,4.23-2.79,6.7-7.2,6.7h-4.25v-13.11h4.55c4.12,0,6.89,2.25,6.89,6.41ZM22.19,130.44c0-3.71-1.98-6.21-5.05-6.21h-2.57v12.37c.46.11,1.3.16,2.73.16,3.11,0,4.89-2.29,4.89-6.32Z"/><path d="M27.34,124.56l1.21-1.22,1.21,1.22-1.21,1.22-1.21-1.22ZM27.71,127.78l1.61-.49h.07v9.76h-1.68v-9.27Z"/><path d="M47.69,130.68v6.37h-1.68v-6.41c0-.74-.02-2.72-2.09-2.72-.96,0-1.77.41-2.73,1.44.09.38.14.81.14,1.31v6.37h-1.7v-6.41c0-.74,0-2.72-2.07-2.72-.93,0-1.7.38-2.59,1.26v7.87h-1.7v-9.27l1.62-.49h.07v1.55c.96-.97,1.91-1.57,3.34-1.57s2.36.58,2.79,1.76c1.05-1.08,2.04-1.76,3.57-1.76,1.96,0,3.02,1.08,3.02,3.4Z"/><path d="M52.8,131.6v.32c0,2.99,1.45,4.57,3.37,4.57,1.07,0,2.34-.54,3.16-1.73l.21.13c-1.02,1.57-2.43,2.38-4.11,2.38-2.55,0-4.45-1.93-4.45-4.84,0-3.11,2.05-5.15,4.8-5.15,2.57,0,3.89,1.78,3.86,4.32h-6.86ZM52.82,131.31h5.21c.11-2.27-.86-3.76-2.37-3.76s-2.66,1.57-2.84,3.76Z"/><path d="M71.14,130.68v6.37h-1.7v-6.41c0-.74,0-2.72-2.09-2.72-.93,0-1.82.38-2.73,1.28v7.85h-1.7v-9.27l1.62-.49h.07v1.55c1-.97,2.04-1.57,3.46-1.57,1.98,0,3.05,1.08,3.05,3.4Z"/><path d="M74.31,136.4l.27-.92c.73.86,1.87,1.53,3.28,1.53s2.32-.76,2.32-1.84c0-1.15-1.09-1.62-2.21-2.09l-.73-.31c-1.16-.5-2.75-1.17-2.75-2.88,0-1.51,1.29-2.63,3.32-2.63,1.27,0,2.46.4,3.09.76l-.25.85c-.62-.61-1.73-1.35-3-1.35s-2.02.76-2.02,1.64c0,1.13,1.23,1.58,2.23,2.02l.71.31c1.12.47,2.75,1.15,2.75,2.93,0,1.64-1.36,2.85-3.64,2.85-1.2,0-2.57-.34-3.37-.86Z"/><path d="M84.18,124.56l1.21-1.22,1.21,1.22-1.21,1.22-1.21-1.22ZM84.56,127.78l1.61-.49h.07v9.76h-1.68v-9.27Z"/><path d="M89.65,132.33c0-3.04,2.09-5.06,4.87-5.06s4.71,1.89,4.71,4.95-2.09,5.04-4.87,5.04-4.71-1.87-4.71-4.93ZM97.41,132.33c0-2.88-1.23-4.81-3-4.81s-2.95,1.85-2.95,4.7,1.23,4.79,3,4.79,2.95-1.85,2.95-4.68Z"/><path d="M110.79,130.68v6.37h-1.7v-6.41c0-.74,0-2.72-2.09-2.72-.93,0-1.82.38-2.73,1.28v7.85h-1.7v-9.27l1.62-.49h.07v1.55c1-.97,2.04-1.57,3.46-1.57,1.98,0,3.05,1.08,3.05,3.4Z"/><path d="M119.71,131.58c0-3.48,1.05-6.39,2.79-8.61l.23.16c-1.57,2.09-2.23,5.04-2.23,8.34s.66,6.32,2.23,8.41l-.23.16c-1.73-2.21-2.79-4.99-2.79-8.46Z"/><path d="M132.67,135.7l-.34,1.35h-6.21v-13.11h1.82v12.78h.34c1.07,0,2.5-.2,4.36-1.03h.04Z"/><path d="M144.53,131.29l2.84,3.67v2.48h-.09l-3.8-4.95-.96,1.37c-1,1.42-1.3,2.36-1.41,3.19h-1.5c.77-.79,1.68-1.98,2.64-3.37l1.02-1.46-3.64-4.74h1.98l2.73,3.53.3-.43c.98-1.4,1.5-2.29,1.71-3.1h1.09c-.73.83-1.48,1.76-2.54,3.26l-.37.54Z"/><path d="M171.19,123.94c-.77,1.87-1.34,3.51-2.12,5.74l-2.62,7.65h-.07l-3.5-10.26-3.57,10.26h-.07l-4.61-13.4h1.95l3.46,10.23,3.57-10.23h.07l3.48,10.23,1.57-4.59c.93-2.63,1.21-4.32,1.36-5.64h1.11Z"/><path d="M182.82,131.29l2.84,3.67v2.48h-.09l-3.8-4.95-.96,1.37c-1,1.42-1.3,2.36-1.41,3.19h-1.5c.77-.79,1.68-1.98,2.64-3.37l1.02-1.46-3.64-4.74h1.98l2.73,3.53.3-.43c.98-1.4,1.5-2.29,1.71-3.1h1.09c-.73.83-1.48,1.76-2.54,3.26l-.37.54Z"/><path d="M204.61,123.94v13.11h-1.82v-6.66h-6.36v6.66h-1.82v-13.11h1.82v6.12h6.36v-6.12h1.82Z"/><path d="M208,139.88c1.57-2.09,2.23-5.04,2.23-8.34s-.66-6.32-2.23-8.41l.23-.16c1.73,2.21,2.79,4.99,2.79,8.46s-1.05,6.39-2.79,8.61l-.23-.16Z"/><path d="M214.22,129.09l1.27-1.28,1.25,1.28-1.25,1.28-1.27-1.28ZM214.22,136.17l1.27-1.28,1.25,1.28-1.25,1.26-1.27-1.26Z"/><path d="M233.9,133.49h-1.64v3.56h-1.64v-3.56h-5.53l-.21-.56,7.03-9.07h.36v8.52h1.95l-.3,1.12ZM230.61,132.37v-6.34l-4.86,6.34h4.86Z"/><path d="M236.42,136.17l1.27-1.28,1.27,1.28-1.27,1.26-1.27-1.26Z"/><path d="M241.56,132.05c0-4,2.75-7.29,6.68-8.32l.09.27c-3.23,1.06-4.91,4.18-4.91,8.1,0,3.17,1.11,4.92,2.79,4.92,1.54,0,2.43-1.44,2.43-3.65s-1-3.64-2.52-3.64c-.62,0-1.25.22-1.82.68l-.18-.22c.75-.72,1.66-1.1,2.7-1.1,1.98,0,3.66,1.51,3.66,3.91,0,2.57-1.89,4.27-4.37,4.27-2.68,0-4.53-1.96-4.53-5.22Z"/><path d="M260.4,123.94v.07l-4.77,13.04h-1.61l5.59-11.83h-2.23c-2.32,0-4.21.14-5.43.43l.32-1.71h8.12Z"/><path d="M263.22,128.35c.7-.43,1.05-1.01,1.05-1.64,0-.67-.5-1.35-1.29-1.84l.93-1.15c.95.36,1.54,1.13,1.54,2.07,0,1.13-1,2.12-2.14,2.68l-.09-.13ZM266.44,128.35c.7-.43,1.05-1.01,1.05-1.64,0-.67-.5-1.35-1.29-1.84l.93-1.15c.95.36,1.54,1.13,1.54,2.07,0,1.13-1,2.12-2.14,2.68l-.09-.13Z"/><path d="M286.39,131.29l2.84,3.67v2.48h-.09l-3.8-4.95-.96,1.37c-1,1.42-1.3,2.36-1.41,3.19h-1.5c.77-.79,1.68-1.98,2.64-3.37l1.02-1.46-3.64-4.74h1.98l2.73,3.53.3-.43c.98-1.4,1.5-2.29,1.71-3.1h1.09c-.73.83-1.48,1.76-2.54,3.26l-.38.54Z"/><path d="M297.35,136.46l.27-1.01c.91.99,1.77,1.53,3.05,1.53,1.68,0,3.11-1.21,3.11-3.24,0-1.67-1.23-3.04-3.18-3.28l-.68-.07-.07-.2.62-.2c1.39-.45,2.7-1.58,2.7-3.21,0-1.44-1.02-2.23-2.32-2.23-1.57,0-2.66,1.03-3.09,1.64l-.23-.11c.73-1.1,1.98-2.36,4.07-2.36,1.82,0,3.3.99,3.3,2.68,0,1.48-1.34,2.72-2.73,3.19v.04c1.7.31,3.21,1.66,3.21,3.57,0,2.47-2.02,4.07-4.71,4.07-1.04,0-2.12-.25-3.32-.81Z"/><path d="M308.09,136.17l1.27-1.28,1.27,1.28-1.27,1.26-1.27-1.26Z"/><path d="M313.27,136.46l.27-1.01c.91.99,1.77,1.53,3.05,1.53,1.68,0,3.11-1.21,3.11-3.24,0-1.67-1.23-3.04-3.18-3.28l-.68-.07-.07-.2.62-.2c1.39-.45,2.7-1.58,2.7-3.21,0-1.44-1.02-2.23-2.32-2.23-1.57,0-2.66,1.03-3.09,1.64l-.23-.11c.73-1.1,1.98-2.36,4.07-2.36,1.82,0,3.3.99,3.3,2.68,0,1.48-1.34,2.72-2.73,3.19v.04c1.7.31,3.21,1.66,3.21,3.57,0,2.47-2.02,4.07-4.71,4.07-1.04,0-2.12-.25-3.32-.81Z"/><path d="M332.36,123.94v.07l-4.77,13.04h-1.61l5.59-11.83h-2.23c-2.32,0-4.21.14-5.43.43l.32-1.71h8.12Z"/><path d="M335.18,128.35c.7-.43,1.05-1.01,1.05-1.64,0-.67-.5-1.35-1.29-1.84l.93-1.15c.95.36,1.54,1.13,1.54,2.07,0,1.13-1,2.12-2.14,2.68l-.09-.13ZM338.4,128.35c.7-.43,1.05-1.01,1.05-1.64,0-.67-.5-1.35-1.29-1.84l.93-1.15c.95.36,1.54,1.13,1.54,2.07,0,1.13-1,2.12-2.14,2.68l-.09-.13Z"/><path d="M352.83,131.29l2.84,3.67v2.48h-.09l-3.8-4.95-.96,1.37c-1,1.42-1.3,2.36-1.41,3.19h-1.5c.77-.79,1.68-1.98,2.64-3.37l1.02-1.46-3.64-4.74h1.98l2.73,3.53.3-.43c.98-1.4,1.5-2.29,1.71-3.1h1.09c-.73.83-1.48,1.76-2.54,3.26l-.38.54Z"/><path d="M372.17,135.45l-.46,1.6h-8v-.07l1.04-1.08c3.5-3.66,5.21-6.16,5.21-8.41,0-1.78-1.07-2.88-2.64-2.88-1.18,0-2.41.56-3.34,2.2l-.23-.11c.5-1.01,1.66-2.97,4.32-2.97,2.11,0,3.77,1.26,3.77,3.51s-1.88,4.45-6.52,8.46l-.12.11h1.3c2.32,0,3.89-.11,5.68-.36Z"/><path d="M378.45,123.73v13.32h-1.64v-11.13c-.62.38-1.39.67-2.07.86v-.22c1.18-.45,2.71-1.55,3.64-2.84h.07Z"/><path d="M381.96,136.17l1.27-1.28,1.27,1.28-1.27,1.26-1.27-1.26Z"/><path d="M396.01,133.59c0,2.07-1.89,3.67-4.45,3.67-2.16,0-4.2-1.13-4.2-3.15,0-1.76,1.14-2.93,2.98-3.56-1.29-.67-2.41-1.69-2.41-3.37,0-1.87,1.52-3.46,3.89-3.46,1.96,0,3.64,1.19,3.64,2.88s-1.25,2.68-2.66,3.24c1.84.81,3.2,1.93,3.2,3.75ZM394.65,134.24c0-1.48-1.18-2.32-2.71-2.97l-.88-.38c-.14-.05-.29-.13-.43-.2-1.34.81-1.95,2.07-1.95,3.35,0,1.82,1.41,2.97,3.02,2.97s2.95-1.21,2.95-2.77ZM391.81,129.42l.66.29c1.09-.76,1.7-1.84,1.7-3.06,0-1.53-.98-2.66-2.45-2.66-1.55,0-2.43,1.15-2.43,2.57s1.02,2.23,2.52,2.86Z"/><path d="M407.05,123.94v.07l-4.77,13.04h-1.61l5.59-11.83h-2.23c-2.32,0-4.21.14-5.43.43l.32-1.71h8.12Z"/><path d="M409.87,128.35c.7-.43,1.05-1.01,1.05-1.64,0-.67-.5-1.35-1.29-1.84l.93-1.15c.95.36,1.54,1.13,1.54,2.07,0,1.13-1,2.12-2.14,2.68l-.09-.13ZM413.08,128.35c.7-.43,1.05-1.01,1.05-1.64,0-.67-.5-1.35-1.29-1.84l.93-1.15c.95.36,1.54,1.13,1.54,2.07,0,1.13-1,2.12-2.14,2.68l-.09-.13Z"/><path d="M22.74,149.11v13.11h-1.82v-6.66h-6.36v6.66h-1.82v-13.11h1.82v6.12h6.36v-6.12h1.82Z"/><path d="M28.01,156.76v.32c0,2.99,1.45,4.57,3.37,4.57,1.07,0,2.34-.54,3.16-1.73l.21.13c-1.02,1.57-2.43,2.38-4.11,2.38-2.55,0-4.45-1.93-4.45-4.84,0-3.12,2.05-5.15,4.8-5.15,2.57,0,3.89,1.78,3.86,4.32h-6.86ZM28.03,156.47h5.21c.11-2.27-.86-3.76-2.37-3.76s-2.66,1.57-2.84,3.76Z"/><path d="M37.82,149.72l1.21-1.22,1.21,1.22-1.21,1.22-1.21-1.22ZM38.19,152.94l1.61-.49h.07v9.76h-1.68v-9.27Z"/><path d="M51.91,163.09c0,1.98-2.23,3.44-5.02,3.44-2.29,0-4.05-.99-4.05-2.59,0-.38.09-.77.29-1.21l1-.29h.07c-.18.49-.29.94-.29,1.35,0,1.46,1.09,2.45,2.98,2.45,2.34,0,3.91-.97,3.91-2.47,0-.97-.75-1.53-2.34-1.62l-2.8-.18c-1.25-.07-2.09-.54-2.09-1.48,0-.68.43-1.15,1.27-1.66l.36-.22c-1.09-.54-1.8-1.57-1.8-2.86,0-1.96,1.64-3.33,3.82-3.33.95,0,1.8.25,2.45.72.46-.67,1.2-1.3,2.39-1.3l-.16,1.44c-.34-.11-.71-.2-1.04-.2-.39,0-.71.07-.96.23.68.58,1.09,1.42,1.09,2.41,0,1.94-1.64,3.31-3.82,3.31-.61,0-1.16-.11-1.66-.31l-.39.27c-.41.27-.52.54-.52.81,0,.38.29.65,1.25.7l2.95.18c2,.11,3.12.88,3.12,2.38ZM45,155.75c0,1.8.86,3.02,2.2,3.02s2.18-1.21,2.18-3.01-.86-3.04-2.2-3.04-2.18,1.22-2.18,3.03Z"/><path d="M63.21,155.84v6.37h-1.68v-6.41c0-.74-.02-2.72-2.09-2.72-.95,0-1.82.38-2.75,1.28v7.85h-1.68v-14.04l1.61-.54h.07v6.39c1-.97,2.04-1.58,3.48-1.58,1.96,0,3.03,1.08,3.03,3.4Z"/><path d="M72.21,161.58c-.75.5-1.5.85-2.5.85-2.2,0-2.32-1.69-2.32-2.47v-6.91h-1.37v-.31l1.3-.09,1.7-3.06h.07v3.06h3.05l-.23.4h-2.82v6.88c0,.52,0,1.89,1.45,1.89.41,0,.95-.11,1.54-.45l.14.22Z"/><path d="M88.38,161.78v.11c-.29.18-.84.45-1.48.45-1.14,0-1.37-.85-1.41-1.33-.93.88-2.18,1.39-3.3,1.39-1.5,0-2.5-.88-2.5-2.21,0-1.67,1.59-2.72,4.03-2.99.64-.07,1.21-.11,1.75-.16v-1.03c0-1.78-.52-2.97-2.29-2.97-.96,0-1.8.34-2.68,1.08l-.16-.2c.96-.9,1.96-1.48,3.5-1.48,2.2,0,3.32,1.08,3.32,3.4v4.61c0,.86,0,1.37.87,1.37.12,0,.23-.02.34-.04ZM85.47,160.66v-3.37c-2.43.25-4.11.85-4.11,2.59,0,1.26.79,1.85,1.75,1.85.77,0,1.62-.36,2.36-1.08Z"/><path d="M100.27,157.28c0,3.08-2.11,5.15-4.61,5.15-1.37,0-2.45-.47-3.25-1.26l-1,1.12h-.07v-14.12l1.61-.54h.07v6.32c.87-.94,1.95-1.51,3.18-1.51,2.32,0,4.07,2,4.07,4.84ZM98.45,157.44c0-2.93-1.18-4.41-2.79-4.41-.89,0-1.86.45-2.64,1.39v5.91c.46,1.1,1.37,1.82,2.48,1.82,1.73,0,2.95-1.8,2.95-4.7Z"/><path d="M103.13,157.49c0-3.04,2.09-5.06,4.87-5.06s4.71,1.89,4.71,4.95-2.09,5.04-4.87,5.04-4.71-1.87-4.71-4.93ZM110.9,157.49c0-2.88-1.23-4.81-3-4.81s-2.95,1.85-2.95,4.7,1.23,4.79,3,4.79,2.95-1.85,2.95-4.68Z"/><path d="M123.31,152.65c-.77,1.55-1.37,2.97-2.41,5.4l-1.89,4.43h-.12l-4.2-9.83h1.82l3.16,7.44.93-2.14c1.05-2.45,1.57-4.2,1.68-5.29h1.04Z"/><path d="M126.92,156.76v.32c0,2.99,1.45,4.57,3.37,4.57,1.07,0,2.34-.54,3.16-1.73l.21.13c-1.02,1.57-2.43,2.38-4.11,2.38-2.55,0-4.45-1.93-4.45-4.84,0-3.12,2.05-5.15,4.8-5.15,2.57,0,3.89,1.78,3.86,4.32h-6.86ZM126.94,156.47h5.21c.11-2.27-.86-3.76-2.37-3.76s-2.66,1.57-2.84,3.76Z"/><path d="M150.71,163.09c0,1.98-2.23,3.44-5.02,3.44-2.29,0-4.05-.99-4.05-2.59,0-.38.09-.77.29-1.21l1-.29h.07c-.18.49-.29.94-.29,1.35,0,1.46,1.09,2.45,2.98,2.45,2.34,0,3.91-.97,3.91-2.47,0-.97-.75-1.53-2.34-1.62l-2.8-.18c-1.25-.07-2.09-.54-2.09-1.48,0-.68.43-1.15,1.27-1.66l.36-.22c-1.09-.54-1.8-1.57-1.8-2.86,0-1.96,1.64-3.33,3.82-3.33.95,0,1.8.25,2.45.72.46-.67,1.2-1.3,2.39-1.3l-.16,1.44c-.34-.11-.71-.2-1.04-.2-.39,0-.71.07-.96.23.68.58,1.09,1.42,1.09,2.41,0,1.94-1.64,3.31-3.82,3.31-.61,0-1.16-.11-1.66-.31l-.39.27c-.41.27-.52.54-.52.81,0,.38.29.65,1.25.7l2.95.18c2,.11,3.12.88,3.12,2.38ZM143.8,155.75c0,1.8.86,3.02,2.2,3.02s2.18-1.21,2.18-3.01-.86-3.04-2.2-3.04-2.18,1.22-2.18,3.03Z"/><path d="M159.21,152.58l-.5,1.33c-.32-.14-.7-.22-.98-.22-.96,0-1.79.7-2.23,1.66v6.86h-1.7v-9.27l1.59-.49h.07v2.38c.66-1.46,1.66-2.36,2.91-2.36.32,0,.62.05.84.11Z"/><path d="M160.73,157.49c0-3.04,2.09-5.06,4.87-5.06s4.71,1.89,4.71,4.95-2.09,5.04-4.87,5.04-4.71-1.87-4.71-4.93ZM168.49,157.49c0-2.88-1.23-4.81-3-4.81s-2.95,1.85-2.95,4.7,1.23,4.79,3,4.79,2.95-1.85,2.95-4.68Z"/><path d="M182.14,161.87l-1.59.5-.5-1.57v-.04c-.88.95-2.05,1.66-3.43,1.66-1.98,0-3.05-1.08-3.05-3.38v-6.1l1.62-.49h.07v6.63c0,.74,0,2.72,2.09,2.72.89,0,1.91-.56,2.7-1.44v-7.42l1.62-.49h.07v8.12l.39,1.3Z"/><path d="M193.82,155.84v6.37h-1.7v-6.41c0-.74,0-2.72-2.09-2.72-.93,0-1.82.38-2.73,1.28v7.85h-1.7v-9.27l1.62-.49h.07v1.55c1-.97,2.04-1.57,3.46-1.57,1.98,0,3.05,1.08,3.05,3.4Z"/><path d="M204.84,162.37l-.46-1.48c-.87.95-1.95,1.53-3.2,1.53-2.32,0-4.07-2-4.07-4.83,0-3.08,2.11-5.17,4.61-5.17,1.04,0,1.93.36,2.62.99v-5.26l1.62-.54h.07v12.95l.39,1.3-1.59.5ZM204.34,160.48v-5.92c-.45-1.1-1.36-1.82-2.46-1.82-1.75,0-2.95,1.78-2.95,4.68s1.18,4.41,2.8,4.41c.89,0,1.82-.45,2.61-1.35Z"/><path d="M209.66,154.25l1.27-1.28,1.25,1.28-1.25,1.28-1.27-1.28ZM209.66,161.33l1.27-1.28,1.25,1.28-1.25,1.26-1.27-1.26Z"/><path d="M224.22,148.89v13.32h-1.64v-11.13c-.62.38-1.39.67-2.07.86v-.22c1.18-.45,2.71-1.55,3.64-2.84h.07Z"/><path d="M235.57,158.18c0,2.56-2.05,4.25-4.62,4.25-1.07,0-2.21-.27-3.23-.81l.25-.86c.8.9,1.71,1.39,2.93,1.39,1.82,0,3.2-1.37,3.2-3.31s-1.5-3.55-4.96-3.55h-.61l.54-6.18h6.28l-.43,1.28h-5.61l-.29,3.35h.71c4.02,0,5.84,1.96,5.84,4.45Z"/><path d="M238.36,161.33l1.27-1.28,1.27,1.28-1.27,1.26-1.27-1.26Z"/><path d="M251.33,158.18c0,2.56-2.05,4.25-4.62,4.25-1.07,0-2.21-.27-3.23-.81l.25-.86c.8.9,1.71,1.39,2.93,1.39,1.82,0,3.2-1.37,3.2-3.31s-1.5-3.55-4.96-3.55h-.61l.54-6.18h6.28l-.43,1.28h-5.61l-.29,3.35h.71c4.02,0,5.84,1.96,5.84,4.45Z"/><path d="M262.31,160.61l-.46,1.6h-8v-.07l1.04-1.08c3.5-3.66,5.21-6.16,5.21-8.41,0-1.78-1.07-2.88-2.64-2.88-1.18,0-2.41.56-3.34,2.2l-.23-.11c.5-1.01,1.66-2.97,4.32-2.97,2.11,0,3.77,1.26,3.77,3.51s-1.88,4.45-6.52,8.46l-.12.11h1.3c2.32,0,3.89-.11,5.68-.36Z"/><path d="M265.35,153.52c.7-.43,1.05-1.01,1.05-1.64,0-.67-.5-1.35-1.29-1.84l.93-1.15c.95.36,1.54,1.13,1.54,2.07,0,1.13-1,2.12-2.14,2.68l-.09-.13ZM268.56,153.52c.7-.43,1.05-1.01,1.05-1.64,0-.67-.5-1.35-1.29-1.84l.93-1.15c.95.36,1.54,1.13,1.54,2.07,0,1.13-1,2.12-2.14,2.68l-.09-.13Z"/><path d="M22.33,183.77c0,2.21-1.95,3.6-5.39,3.6h-4.2v-13.11h4.3c2.98,0,4.5,1.17,4.5,3.06,0,1.75-1.52,2.79-3.14,3.12v.04c2.2.14,3.93,1.3,3.93,3.3ZM16.6,174.55h-2.04v5.92h2.3c1.75,0,2.75-1.3,2.75-2.95s-.93-2.97-3.02-2.97ZM20.33,184.03c0-1.95-1.2-3.26-3.16-3.26h-2.61v6.19c.37.09,1.37.13,1.84.13,2.73,0,3.93-1.13,3.93-3.06Z"/><path d="M31.05,177.74l-.5,1.33c-.32-.14-.7-.22-.98-.22-.96,0-1.79.7-2.23,1.66v6.86h-1.7v-9.27l1.59-.49h.07v2.38c.66-1.46,1.66-2.36,2.91-2.36.32,0,.62.05.84.11Z"/><path d="M33.57,174.88l1.21-1.22,1.21,1.22-1.21,1.22-1.21-1.22ZM33.94,178.1l1.61-.49h.07v9.76h-1.68v-9.27Z"/><path d="M47.66,188.26c0,1.98-2.23,3.44-5.02,3.44-2.29,0-4.05-.99-4.05-2.59,0-.38.09-.77.29-1.21l1-.29h.07c-.18.49-.29.94-.29,1.35,0,1.46,1.09,2.45,2.98,2.45,2.34,0,3.91-.97,3.91-2.47,0-.97-.75-1.53-2.34-1.62l-2.8-.18c-1.25-.07-2.09-.54-2.09-1.48,0-.68.43-1.15,1.27-1.66l.36-.22c-1.09-.54-1.8-1.57-1.8-2.86,0-1.96,1.64-3.33,3.82-3.33.95,0,1.8.25,2.45.72.46-.67,1.2-1.3,2.39-1.3l-.16,1.44c-.34-.11-.71-.2-1.04-.2-.39,0-.71.07-.96.23.68.58,1.09,1.42,1.09,2.41,0,1.94-1.64,3.31-3.82,3.31-.61,0-1.16-.11-1.66-.31l-.39.27c-.41.27-.52.54-.52.81,0,.38.29.65,1.25.7l2.95.18c2,.11,3.12.88,3.12,2.38ZM40.75,180.91c0,1.8.86,3.02,2.2,3.02s2.18-1.21,2.18-3.01-.86-3.04-2.2-3.04-2.18,1.22-2.18,3.03Z"/><path d="M58.96,181v6.37h-1.68v-6.41c0-.74-.02-2.72-2.09-2.72-.95,0-1.82.38-2.75,1.28v7.85h-1.68v-14.04l1.61-.54h.07v6.39c1-.97,2.04-1.58,3.48-1.58,1.96,0,3.03,1.08,3.03,3.4Z"/><path d="M67.96,186.74c-.75.5-1.5.85-2.5.85-2.2,0-2.32-1.69-2.32-2.47v-6.91h-1.37v-.31l1.3-.09,1.7-3.06h.07v3.06h3.05l-.23.4h-2.82v6.88c0,.52,0,1.89,1.45,1.89.41,0,.95-.11,1.54-.45l.14.22Z"/><path d="M78.84,181v6.37h-1.7v-6.41c0-.74,0-2.72-2.09-2.72-.93,0-1.82.38-2.73,1.28v7.85h-1.7v-9.27l1.62-.49h.07v1.55c1-.97,2.04-1.57,3.46-1.57,1.98,0,3.05,1.08,3.05,3.4Z"/><path d="M83.93,181.92v.32c0,2.99,1.45,4.57,3.37,4.57,1.07,0,2.34-.54,3.16-1.73l.21.13c-1.02,1.57-2.43,2.38-4.11,2.38-2.55,0-4.45-1.93-4.45-4.84,0-3.12,2.05-5.15,4.8-5.15,2.57,0,3.89,1.78,3.86,4.32h-6.86ZM83.95,181.63h5.21c.11-2.27-.86-3.76-2.37-3.76s-2.66,1.57-2.84,3.76Z"/><path d="M93.45,186.73l.27-.92c.73.86,1.87,1.53,3.28,1.53s2.32-.76,2.32-1.84c0-1.15-1.09-1.62-2.21-2.09l-.73-.31c-1.16-.5-2.75-1.17-2.75-2.88,0-1.51,1.29-2.63,3.32-2.63,1.27,0,2.46.4,3.09.76l-.25.85c-.62-.61-1.73-1.35-3-1.35s-2.02.76-2.02,1.64c0,1.13,1.23,1.59,2.23,2.02l.71.31c1.12.47,2.75,1.15,2.75,2.93,0,1.64-1.36,2.84-3.64,2.84-1.2,0-2.57-.34-3.37-.86Z"/><path d="M103.02,186.73l.27-.92c.73.86,1.87,1.53,3.28,1.53s2.32-.76,2.32-1.84c0-1.15-1.09-1.62-2.21-2.09l-.73-.31c-1.16-.5-2.75-1.17-2.75-2.88,0-1.51,1.29-2.63,3.32-2.63,1.27,0,2.46.4,3.09.76l-.25.85c-.62-.61-1.73-1.35-3-1.35s-2.02.76-2.02,1.64c0,1.13,1.23,1.59,2.23,2.02l.71.31c1.12.47,2.75,1.15,2.75,2.93,0,1.64-1.36,2.84-3.64,2.84-1.2,0-2.57-.34-3.37-.86Z"/><path d="M112.99,179.42l1.27-1.28,1.25,1.28-1.25,1.28-1.27-1.28ZM112.99,186.49l1.27-1.28,1.25,1.28-1.25,1.26-1.27-1.26Z"/><path d="M132.67,183.81h-1.64v3.57h-1.64v-3.57h-5.53l-.21-.56,7.03-9.08h.36v8.52h1.95l-.3,1.12ZM129.38,182.69v-6.34l-4.86,6.34h4.86Z"/><path d="M135.88,180.93c0-4.25,2-6.88,5.14-6.88,2.96,0,5.12,2.41,5.12,6.66s-2.02,6.88-5.16,6.88c-2.96,0-5.11-2.41-5.11-6.66ZM144.29,180.89c0-3.89-1.14-6.59-3.32-6.59s-3.23,2.66-3.23,6.43,1.14,6.61,3.32,6.61,3.23-2.66,3.23-6.45Z"/><path d="M162.08,186.02l-.34,1.35h-6.21v-13.11h1.82v12.78h.34c1.07,0,2.5-.2,4.36-1.03h.04Z"/><path d="M173.28,187.03l-1.59.5-.5-1.57v-.04c-.87.95-2.05,1.66-3.43,1.66-1.98,0-3.05-1.08-3.05-3.38v-6.1l1.62-.49h.07v6.63c0,.74,0,2.72,2.09,2.72.89,0,1.91-.56,2.7-1.44v-7.42l1.62-.49h.07v8.12l.39,1.3Z"/><path d="M191.16,181v6.37h-1.68v-6.41c0-.74-.02-2.72-2.09-2.72-.96,0-1.77.41-2.73,1.44.09.38.14.81.14,1.31v6.37h-1.7v-6.41c0-.74,0-2.72-2.07-2.72-.93,0-1.7.38-2.59,1.26v7.87h-1.7v-9.27l1.62-.49h.07v1.55c.96-.97,1.91-1.57,3.34-1.57s2.36.58,2.79,1.76c1.05-1.08,2.04-1.76,3.57-1.76,1.96,0,3.02,1.08,3.02,3.4Z"/><path d="M196.27,181.92v.32c0,2.99,1.45,4.57,3.37,4.57,1.07,0,2.34-.54,3.16-1.73l.21.13c-1.02,1.57-2.43,2.38-4.11,2.38-2.55,0-4.45-1.93-4.45-4.84,0-3.12,2.05-5.15,4.8-5.15,2.57,0,3.89,1.78,3.86,4.32h-6.86ZM196.29,181.63h5.21c.11-2.27-.86-3.76-2.37-3.76s-2.66,1.57-2.84,3.76Z"/><path d="M214.61,181v6.37h-1.7v-6.41c0-.74,0-2.72-2.09-2.72-.93,0-1.82.38-2.73,1.28v7.85h-1.7v-9.27l1.62-.49h.07v1.55c1-.97,2.04-1.57,3.46-1.57,1.98,0,3.05,1.08,3.05,3.4Z"/><path d="M217.77,186.73l.27-.92c.73.86,1.87,1.53,3.28,1.53s2.32-.76,2.32-1.84c0-1.15-1.09-1.62-2.21-2.09l-.73-.31c-1.16-.5-2.75-1.17-2.75-2.88,0-1.51,1.29-2.63,3.32-2.63,1.27,0,2.46.4,3.09.76l-.25.85c-.62-.61-1.73-1.35-3-1.35s-2.02.76-2.02,1.64c0,1.13,1.23,1.59,2.23,2.02l.71.31c1.12.47,2.75,1.15,2.75,2.93,0,1.64-1.36,2.84-3.64,2.84-1.2,0-2.57-.34-3.37-.86Z"/><path d="M12.14,206.09c0-4.2,2.84-6.88,6.61-6.88,2.11,0,3.86.94,4.87,2.11l-.89.81c-.91-1.53-2.34-2.63-4.07-2.63-2.73,0-4.52,2.63-4.52,6.14,0,3.98,2.16,6.32,5.04,6.32,1.55,0,3.25-.67,4.41-2.47l.21.13c-1.18,1.93-3,3.13-5.43,3.13-3.57,0-6.23-2.61-6.23-6.66Z"/><path d="M26.32,207.82c0-3.04,2.09-5.06,4.87-5.06s4.71,1.89,4.71,4.95-2.09,5.04-4.87,5.04-4.71-1.87-4.71-4.93ZM34.08,207.82c0-2.88-1.23-4.81-3-4.81s-2.95,1.85-2.95,4.7,1.23,4.79,3,4.79,2.95-1.85,2.95-4.68Z"/><path d="M47.46,206.16v6.37h-1.7v-6.41c0-.74,0-2.72-2.09-2.72-.93,0-1.82.38-2.73,1.28v7.85h-1.7v-9.27l1.62-.49h.07v1.55c1-.97,2.04-1.57,3.46-1.57,1.98,0,3.05,1.08,3.05,3.4Z"/><path d="M50.62,211.89l.27-.92c.73.86,1.87,1.53,3.28,1.53s2.32-.76,2.32-1.84c0-1.15-1.09-1.62-2.21-2.09l-.73-.31c-1.16-.5-2.75-1.17-2.75-2.88,0-1.51,1.29-2.63,3.32-2.63,1.27,0,2.46.4,3.09.76l-.25.85c-.62-.61-1.73-1.35-3-1.35s-2.02.76-2.02,1.64c0,1.13,1.23,1.59,2.23,2.02l.71.31c1.12.47,2.75,1.15,2.75,2.93,0,1.64-1.36,2.84-3.64,2.84-1.2,0-2.57-.34-3.37-.86Z"/><path d="M66.18,211.91c-.75.5-1.5.85-2.5.85-2.2,0-2.32-1.69-2.32-2.47v-6.91h-1.37v-.31l1.3-.09,1.7-3.06h.07v3.06h3.05l-.23.4h-2.82v6.88c0,.52,0,1.89,1.45,1.89.41,0,.95-.11,1.54-.45l.14.22Z"/><path d="M74.25,202.9l-.5,1.33c-.32-.14-.7-.22-.98-.22-.96,0-1.79.7-2.23,1.66v6.86h-1.7v-9.27l1.59-.49h.07v2.38c.66-1.46,1.66-2.36,2.91-2.36.32,0,.62.05.84.11Z"/><path d="M85.57,212.19l-1.59.5-.5-1.57v-.04c-.87.95-2.05,1.66-3.43,1.66-1.98,0-3.05-1.08-3.05-3.38v-6.1l1.62-.49h.07v6.63c0,.74,0,2.72,2.09,2.72.89,0,1.91-.56,2.7-1.44v-7.42l1.62-.49h.07v8.12l.39,1.3Z"/><path d="M88.56,207.85c0-3.06,2.09-5.1,4.68-5.1,1.62,0,2.8.63,3.59,1.64l-.73.65c-.75-1.21-1.57-2.02-2.77-2.02-1.71,0-2.93,1.73-2.93,4.43,0,2.93,1.37,4.52,3.25,4.52,1.04,0,2.25-.54,3.07-1.73l.21.13c-.95,1.44-2.25,2.38-3.98,2.38-2.5,0-4.39-1.93-4.39-4.9Z"/><path d="M105.38,211.91c-.75.5-1.5.85-2.5.85-2.2,0-2.32-1.69-2.32-2.47v-6.91h-1.37v-.31l1.3-.09,1.7-3.06h.07v3.06h3.05l-.23.4h-2.82v6.88c0,.52,0,1.89,1.45,1.89.41,0,.95-.11,1.54-.45l.14.22Z"/><path d="M107.72,200.04l1.21-1.22,1.21,1.22-1.21,1.22-1.21-1.22ZM108.1,203.26l1.61-.49h.07v9.76h-1.68v-9.27Z"/><path d="M113.19,207.82c0-3.04,2.09-5.06,4.87-5.06s4.71,1.89,4.71,4.95-2.09,5.04-4.87,5.04-4.71-1.87-4.71-4.93ZM120.95,207.82c0-2.88-1.23-4.81-3-4.81s-2.95,1.85-2.95,4.7,1.23,4.79,3,4.79,2.95-1.85,2.95-4.68Z"/><path d="M134.33,206.16v6.37h-1.7v-6.41c0-.74,0-2.72-2.09-2.72-.93,0-1.82.38-2.73,1.28v7.85h-1.7v-9.27l1.62-.49h.07v1.55c1-.97,2.04-1.57,3.46-1.57,1.98,0,3.05,1.08,3.05,3.4Z"/><path d="M137.87,204.58l1.27-1.28,1.25,1.28-1.25,1.28-1.27-1.28ZM137.87,211.65l1.27-1.28,1.25,1.28-1.25,1.26-1.27-1.26Z"/><path d="M149.07,211.8l.32-1.13c.86,1.06,2.55,1.8,4,1.8,1.73,0,2.91-1.08,2.91-2.56,0-1.73-1.54-2.5-2.86-3.12l-.89-.4c-1.41-.65-3.29-1.58-3.29-3.73,0-1.98,1.62-3.46,4.11-3.46,1.46,0,2.91.52,3.64.95l-.29,1.01c-.79-.83-2.07-1.67-3.55-1.67-1.66,0-2.61,1.04-2.61,2.3,0,1.55,1.36,2.23,2.79,2.9l.89.41c1.61.76,3.34,1.62,3.34,3.85s-1.84,3.78-4.36,3.78c-1.55,0-3.36-.54-4.16-.95Z"/><path d="M166.05,211.91c-.75.5-1.5.85-2.5.85-2.2,0-2.32-1.69-2.32-2.47v-6.91h-1.37v-.31l1.3-.09,1.7-3.06h.07v3.06h3.05l-.23.4h-2.82v6.88c0,.52,0,1.89,1.45,1.89.41,0,.95-.11,1.54-.45l.14.22Z"/><path d="M169.68,207.08v.32c0,2.99,1.45,4.57,3.37,4.57,1.07,0,2.34-.54,3.16-1.73l.21.13c-1.02,1.57-2.43,2.38-4.11,2.38-2.55,0-4.45-1.93-4.45-4.84,0-3.12,2.05-5.15,4.8-5.15,2.57,0,3.89,1.78,3.86,4.32h-6.86ZM169.69,206.79h5.21c.11-2.27-.86-3.76-2.37-3.76s-2.66,1.57-2.84,3.76Z"/><path d="M181.12,207.08v.32c0,2.99,1.45,4.57,3.37,4.57,1.07,0,2.34-.54,3.16-1.73l.21.13c-1.02,1.57-2.43,2.38-4.11,2.38-2.55,0-4.45-1.93-4.45-4.84,0-3.12,2.05-5.15,4.8-5.15,2.57,0,3.89,1.78,3.86,4.32h-6.86ZM181.14,206.79h5.21c.11-2.27-.86-3.76-2.37-3.76s-2.66,1.57-2.84,3.76Z"/><path d="M191.3,198.49l1.62-.54h.07v14.58h-1.7v-14.04Z"/><path d="M24.19,231c0,4.23-2.79,6.7-7.2,6.7h-4.25v-13.11h4.55c4.12,0,6.89,2.25,6.89,6.41ZM22.19,231.09c0-3.71-1.98-6.21-5.05-6.21h-2.57v12.37c.46.11,1.3.16,2.73.16,3.11,0,4.89-2.29,4.89-6.32Z"/><path d="M36.17,237.36l-1.59.5-.5-1.57v-.04c-.87.95-2.05,1.66-3.43,1.66-1.98,0-3.05-1.08-3.05-3.38v-6.1l1.62-.49h.07v6.63c0,.74,0,2.72,2.09,2.72.89,0,1.91-.56,2.7-1.44v-7.42l1.62-.49h.07v8.12l.39,1.3Z"/><path d="M47.62,237.27v.11c-.29.18-.84.45-1.48.45-1.14,0-1.37-.85-1.41-1.33-.93.88-2.18,1.39-3.3,1.39-1.5,0-2.5-.88-2.5-2.21,0-1.67,1.59-2.72,4.03-2.99.64-.07,1.21-.11,1.75-.16v-1.03c0-1.78-.52-2.97-2.29-2.97-.96,0-1.8.34-2.68,1.08l-.16-.2c.96-.9,1.96-1.48,3.5-1.48,2.2,0,3.32,1.08,3.32,3.4v4.61c0,.86,0,1.37.87,1.37.12,0,.23-.02.34-.04ZM44.71,236.15v-3.37c-2.43.25-4.11.85-4.11,2.59,0,1.26.79,1.85,1.75,1.85.77,0,1.62-.36,2.36-1.08Z"/><path d="M50.62,223.65l1.62-.54h.07v14.58h-1.7v-14.04Z"/><path d="M61.29,236.96l.32-1.13c.86,1.06,2.55,1.8,4,1.8,1.73,0,2.91-1.08,2.91-2.56,0-1.73-1.54-2.5-2.86-3.12l-.89-.4c-1.41-.65-3.29-1.58-3.29-3.73,0-1.98,1.62-3.46,4.11-3.46,1.46,0,2.91.52,3.64.95l-.29,1.01c-.79-.83-2.07-1.67-3.55-1.67-1.66,0-2.61,1.05-2.61,2.3,0,1.55,1.36,2.23,2.79,2.9l.89.41c1.61.76,3.34,1.62,3.34,3.85s-1.84,3.78-4.36,3.78c-1.55,0-3.36-.54-4.16-.95Z"/><path d="M74.47,232.24v.32c0,2.99,1.45,4.57,3.37,4.57,1.07,0,2.34-.54,3.16-1.73l.21.13c-1.02,1.57-2.43,2.38-4.11,2.38-2.55,0-4.45-1.93-4.45-4.84,0-3.12,2.05-5.15,4.8-5.15,2.57,0,3.89,1.78,3.86,4.32h-6.86ZM74.48,231.95h5.21c.11-2.27-.86-3.76-2.37-3.76s-2.66,1.57-2.84,3.76Z"/><path d="M89.88,237.07c-.75.5-1.5.85-2.5.85-2.2,0-2.32-1.69-2.32-2.47v-6.91h-1.37v-.31l1.3-.09,1.7-3.06h.07v3.06h3.05l-.23.4h-2.82v6.88c0,.52,0,1.89,1.45,1.89.41,0,.95-.11,1.54-.45l.14.22Z"/><path d="M98.02,237.07c-.75.5-1.5.85-2.5.85-2.2,0-2.32-1.69-2.32-2.47v-6.91h-1.37v-.31l1.3-.09,1.7-3.06h.07v3.06h3.05l-.23.4h-2.82v6.88c0,.52,0,1.89,1.45,1.89.41,0,.95-.11,1.54-.45l.14.22Z"/><path d="M100.36,225.2l1.21-1.22,1.21,1.22-1.21,1.22-1.21-1.22ZM100.74,228.43l1.61-.49h.07v9.76h-1.68v-9.27Z"/><path d="M114.52,231.32v6.37h-1.7v-6.41c0-.74,0-2.72-2.09-2.72-.93,0-1.82.38-2.73,1.28v7.85h-1.7v-9.27l1.62-.49h.07v1.55c1-.97,2.04-1.57,3.46-1.57,1.98,0,3.05,1.08,3.05,3.4Z"/><path d="M126.43,238.58c0,1.98-2.23,3.44-5.02,3.44-2.29,0-4.05-.99-4.05-2.59,0-.38.09-.77.29-1.21l1-.29h.07c-.18.49-.29.94-.29,1.35,0,1.46,1.09,2.45,2.98,2.45,2.34,0,3.91-.97,3.91-2.47,0-.97-.75-1.53-2.34-1.62l-2.8-.18c-1.25-.07-2.09-.54-2.09-1.48,0-.68.43-1.15,1.27-1.66l.36-.22c-1.09-.54-1.8-1.57-1.8-2.86,0-1.96,1.64-3.33,3.82-3.33.95,0,1.8.25,2.45.72.46-.67,1.2-1.3,2.39-1.3l-.16,1.44c-.34-.11-.71-.2-1.04-.2-.39,0-.71.07-.96.23.68.58,1.09,1.42,1.09,2.41,0,1.94-1.64,3.31-3.82,3.31-.61,0-1.16-.11-1.66-.31l-.39.27c-.41.27-.52.54-.52.81,0,.38.29.65,1.25.7l2.95.18c2,.11,3.12.88,3.12,2.38ZM119.53,231.23c0,1.8.86,3.02,2.2,3.02s2.18-1.21,2.18-3.01-.86-3.04-2.2-3.04-2.18,1.22-2.18,3.03Z"/><path d="M128.9,237.05l.27-.92c.73.86,1.87,1.53,3.28,1.53s2.32-.76,2.32-1.84c0-1.15-1.09-1.62-2.21-2.09l-.73-.31c-1.16-.5-2.75-1.17-2.75-2.88,0-1.51,1.29-2.63,3.32-2.63,1.27,0,2.46.4,3.09.76l-.25.85c-.62-.61-1.73-1.35-3-1.35s-2.02.76-2.02,1.64c0,1.13,1.23,1.58,2.23,2.02l.71.31c1.12.47,2.75,1.15,2.75,2.93,0,1.64-1.36,2.84-3.64,2.84-1.2,0-2.57-.34-3.37-.86Z"/><path d="M138.87,229.74l1.27-1.28,1.25,1.28-1.25,1.28-1.27-1.28ZM138.87,236.82l1.27-1.28,1.25,1.28-1.25,1.26-1.27-1.26Z"/><path d="M14.56,250.07v6.01h.64c1.93,0,3.2-.13,3.75-.36h.04v1.12h-.04c-.55-.23-1.82-.43-3.75-.43h-.64v6.45h-1.82v-13.11h7.18l.23,1.13h-.04c-1.64-.56-3.32-.81-4.86-.81h-.7Z"/><path d="M23.16,248.82l1.62-.54h.07v14.58h-1.7v-14.04Z"/><path d="M28.41,250.36l1.21-1.22,1.21,1.22-1.21,1.22-1.21-1.22ZM28.78,253.59l1.61-.49h.07v9.76h-1.68v-9.27Z"/><path d="M33.87,258.18c0-3.06,2.09-5.1,4.68-5.1,1.62,0,2.8.63,3.59,1.64l-.73.65c-.75-1.21-1.57-2.02-2.77-2.02-1.71,0-2.93,1.73-2.93,4.43,0,2.93,1.37,4.52,3.25,4.52,1.04,0,2.25-.54,3.07-1.73l.21.13c-.95,1.44-2.25,2.38-3.98,2.38-2.5,0-4.39-1.93-4.39-4.9Z"/><path d="M46.89,248.27h.07v14.58h-1.68v-14.04l1.61-.54ZM53.18,260.97v2.29h-.09l-5.66-5.8,1.57-1.37c1.39-1.22,2.18-1.95,2.89-2.79h1.23v.04c-1.41.94-2.54,1.78-3.93,3.02l-.32.29,4.3,4.32Z"/><path d="M57.07,257.4v.32c0,2.99,1.45,4.57,3.37,4.57,1.07,0,2.34-.54,3.16-1.73l.21.13c-1.02,1.57-2.43,2.38-4.11,2.38-2.55,0-4.45-1.93-4.45-4.84,0-3.12,2.05-5.15,4.8-5.15,2.57,0,3.89,1.78,3.86,4.32h-6.86ZM57.09,257.11h5.21c.11-2.27-.86-3.76-2.37-3.76s-2.66,1.57-2.84,3.76Z"/><path d="M72.61,253.23l-.5,1.33c-.32-.14-.7-.22-.98-.22-.96,0-1.79.7-2.23,1.66v6.86h-1.7v-9.27l1.59-.49h.07v2.38c.66-1.46,1.66-2.36,2.91-2.36.32,0,.62.05.84.11Z"/><path d="M82.65,250.07v6.01h.64c1.93,0,3.2-.13,3.75-.36h.04v1.12h-.04c-.55-.23-1.82-.43-3.75-.43h-.64v6.45h-1.82v-13.11h7.18l.23,1.13h-.04c-1.64-.56-3.32-.81-4.86-.81h-.7Z"/><path d="M91.24,248.82l1.62-.54h.07v14.58h-1.7v-14.04Z"/><path d="M104.79,262.43v.11c-.29.18-.84.45-1.48.45-1.14,0-1.37-.85-1.41-1.33-.93.88-2.18,1.39-3.3,1.39-1.5,0-2.5-.88-2.5-2.21,0-1.67,1.59-2.72,4.03-2.99.64-.07,1.21-.11,1.75-.16v-1.03c0-1.78-.52-2.97-2.29-2.97-.96,0-1.8.34-2.68,1.08l-.16-.2c.96-.9,1.96-1.48,3.5-1.48,2.2,0,3.32,1.08,3.32,3.4v4.61c0,.86,0,1.37.87,1.37.12,0,.23-.02.34-.04ZM101.88,261.31v-3.37c-2.43.25-4.11.85-4.11,2.59,0,1.26.79,1.85,1.75,1.85.77,0,1.62-.36,2.36-1.08Z"/><path d="M122.15,256.49v6.37h-1.68v-6.41c0-.74-.02-2.72-2.09-2.72-.96,0-1.77.41-2.73,1.44.09.38.14.81.14,1.31v6.37h-1.7v-6.41c0-.74,0-2.72-2.07-2.72-.93,0-1.7.38-2.59,1.26v7.87h-1.7v-9.27l1.62-.49h.07v1.55c.96-.97,1.91-1.57,3.34-1.57s2.36.58,2.79,1.76c1.05-1.08,2.04-1.76,3.57-1.76,1.96,0,3.02,1.08,3.02,3.4Z"/><path d="M127.26,257.4v.32c0,2.99,1.45,4.57,3.37,4.57,1.07,0,2.34-.54,3.16-1.73l.21.13c-1.02,1.57-2.43,2.38-4.11,2.38-2.55,0-4.45-1.93-4.45-4.84,0-3.12,2.05-5.15,4.8-5.15,2.57,0,3.89,1.78,3.86,4.32h-6.86ZM127.28,257.11h5.21c.11-2.27-.86-3.76-2.37-3.76s-2.66,1.57-2.84,3.76Z"/><path d="M28.11,274.91c-.77,1.87-1.34,3.51-2.12,5.74l-2.62,7.65h-.07l-3.5-10.26-3.57,10.26h-.07l-4.61-13.4h1.95l3.46,10.23,3.57-10.23h.07l3.48,10.23,1.57-4.59c.93-2.63,1.21-4.32,1.36-5.63h1.11Z"/><path d="M37.74,287.59v.11c-.29.18-.84.45-1.48.45-1.14,0-1.37-.85-1.41-1.33-.93.88-2.18,1.39-3.3,1.39-1.5,0-2.5-.88-2.5-2.21,0-1.67,1.59-2.72,4.03-2.99.64-.07,1.21-.11,1.75-.16v-1.03c0-1.78-.52-2.97-2.29-2.97-.96,0-1.8.34-2.68,1.08l-.16-.2c.96-.9,1.96-1.48,3.5-1.48,2.2,0,3.32,1.08,3.32,3.4v4.61c0,.86,0,1.37.87,1.37.12,0,.23-.02.34-.04ZM34.83,286.47v-3.37c-2.43.25-4.11.85-4.11,2.59,0,1.26.79,1.85,1.75,1.85.77,0,1.62-.36,2.36-1.08Z"/><path d="M46.1,278.39l-.5,1.33c-.32-.14-.7-.22-.98-.22-.96,0-1.79.7-2.23,1.66v6.86h-1.7v-9.27l1.59-.49h.07v2.38c.66-1.46,1.66-2.36,2.91-2.36.32,0,.62.05.84.11Z"/><path d="M63.35,281.65v6.37h-1.68v-6.41c0-.74-.02-2.72-2.09-2.72-.96,0-1.77.41-2.73,1.44.09.38.14.81.14,1.31v6.37h-1.7v-6.41c0-.74,0-2.72-2.07-2.72-.93,0-1.7.38-2.59,1.26v7.87h-1.7v-9.27l1.62-.49h.07v1.55c.96-.97,1.91-1.57,3.34-1.57s2.36.58,2.79,1.76c1.05-1.08,2.04-1.76,3.57-1.76,1.96,0,3.02,1.08,3.02,3.4Z"/><path d="M87.8,274.91c-.77,1.87-1.34,3.51-2.12,5.74l-2.62,7.65h-.07l-3.5-10.26-3.57,10.26h-.07l-4.61-13.4h1.95l3.46,10.23,3.57-10.23h.07l3.48,10.23,1.57-4.59c.93-2.63,1.21-4.32,1.36-5.63h1.11Z"/><path d="M98.82,281.65v6.37h-1.68v-6.41c0-.74-.02-2.72-2.09-2.72-.95,0-1.82.38-2.75,1.28v7.85h-1.68v-14.04l1.61-.54h.07v6.39c1-.97,2.04-1.58,3.48-1.58,1.96,0,3.03,1.08,3.03,3.4Z"/><path d="M102.29,275.52l1.21-1.22,1.21,1.22-1.21,1.22-1.21-1.22ZM102.67,278.75l1.61-.49h.07v9.76h-1.68v-9.27Z"/><path d="M113.7,287.39c-.75.5-1.5.85-2.5.85-2.2,0-2.32-1.69-2.32-2.47v-6.91h-1.37v-.31l1.3-.09,1.7-3.06h.07v3.06h3.05l-.23.4h-2.82v6.88c0,.52,0,1.89,1.45,1.89.41,0,.95-.11,1.54-.45l.14.22Z"/><path d="M117.33,282.57v.32c0,2.99,1.45,4.57,3.37,4.57,1.07,0,2.34-.54,3.16-1.73l.21.13c-1.02,1.57-2.43,2.38-4.11,2.38-2.55,0-4.45-1.93-4.45-4.84,0-3.12,2.05-5.15,4.8-5.15,2.57,0,3.89,1.78,3.86,4.32h-6.86ZM117.35,282.28h5.21c.11-2.27-.86-3.76-2.37-3.76s-2.66,1.57-2.84,3.76Z"/><path d="M141.65,278.51c0,2.45-1.93,4.03-5.04,4.03-.55,0-1.16-.05-1.55-.11v5.58h-1.82v-13.11h3.37c3.34,0,5.04,1.3,5.04,3.6ZM139.72,278.73c0-2.07-1.04-3.53-3.37-3.53h-1.29v6.93c.32.07.73.13,1.25.13,2.27,0,3.41-1.33,3.41-3.53Z"/><path d="M152.53,287.59v.11c-.29.18-.84.45-1.48.45-1.14,0-1.37-.85-1.41-1.33-.93.88-2.18,1.39-3.3,1.39-1.5,0-2.5-.88-2.5-2.21,0-1.67,1.59-2.72,4.03-2.99.64-.07,1.21-.11,1.75-.16v-1.03c0-1.78-.52-2.97-2.29-2.97-.96,0-1.8.34-2.68,1.08l-.16-.2c.96-.9,1.96-1.48,3.5-1.48,2.2,0,3.32,1.08,3.32,3.4v4.61c0,.86,0,1.37.87,1.37.12,0,.23-.02.34-.04ZM149.62,286.47v-3.37c-2.43.25-4.11.85-4.11,2.59,0,1.26.79,1.85,1.75,1.85.77,0,1.62-.36,2.36-1.08Z"/><path d="M155.53,273.98l1.62-.54h.07v14.58h-1.7v-14.04Z"/><path d="M175.51,281.65v6.37h-1.68v-6.41c0-.74-.02-2.72-2.09-2.72-.96,0-1.77.41-2.73,1.44.09.38.14.81.14,1.31v6.37h-1.7v-6.41c0-.74,0-2.72-2.07-2.72-.93,0-1.7.38-2.59,1.26v7.87h-1.7v-9.27l1.62-.49h.07v1.55c.96-.97,1.91-1.57,3.34-1.57s2.36.58,2.79,1.76c1.05-1.08,2.04-1.76,3.57-1.76,1.96,0,3.02,1.08,3.02,3.4Z"/><path d="M184.39,287.28l.32-1.13c.86,1.06,2.55,1.8,4,1.8,1.73,0,2.91-1.08,2.91-2.56,0-1.73-1.54-2.5-2.86-3.12l-.89-.4c-1.41-.65-3.29-1.58-3.29-3.73,0-1.98,1.62-3.46,4.11-3.46,1.46,0,2.91.52,3.64.95l-.29,1.01c-.79-.83-2.07-1.67-3.55-1.67-1.66,0-2.61,1.04-2.61,2.3,0,1.55,1.36,2.23,2.79,2.9l.89.41c1.61.76,3.34,1.62,3.34,3.85s-1.84,3.78-4.36,3.78c-1.55,0-3.36-.54-4.16-.95Z"/><path d="M204.46,281.65v6.37h-1.68v-6.41c0-.74-.02-2.72-2.09-2.72-.95,0-1.82.38-2.75,1.28v7.85h-1.68v-14.04l1.61-.54h.07v6.39c1-.97,2.04-1.58,3.48-1.58,1.96,0,3.03,1.08,3.03,3.4Z"/><path d="M216.23,287.59v.11c-.29.18-.84.45-1.48.45-1.14,0-1.37-.85-1.41-1.33-.93.88-2.18,1.39-3.3,1.39-1.5,0-2.5-.88-2.5-2.21,0-1.67,1.59-2.72,4.03-2.99.64-.07,1.21-.11,1.75-.16v-1.03c0-1.78-.52-2.97-2.29-2.97-.96,0-1.8.34-2.68,1.08l-.16-.2c.96-.9,1.96-1.48,3.5-1.48,2.2,0,3.32,1.08,3.32,3.4v4.61c0,.86,0,1.37.87,1.37.12,0,.23-.02.34-.04ZM213.32,286.47v-3.37c-2.43.25-4.11.85-4.11,2.59,0,1.26.79,1.85,1.75,1.85.77,0,1.62-.36,2.36-1.08Z"/><path d="M226.25,288.18l-.46-1.48c-.87.95-1.95,1.53-3.2,1.53-2.32,0-4.07-2-4.07-4.83,0-3.08,2.11-5.17,4.61-5.17,1.04,0,1.93.36,2.62.99v-5.26l1.62-.54h.07v12.95l.39,1.3-1.59.5ZM225.75,286.29v-5.92c-.45-1.1-1.36-1.82-2.46-1.82-1.75,0-2.95,1.78-2.95,4.68s1.18,4.41,2.8,4.41c.89,0,1.82-.45,2.61-1.35Z"/><path d="M230.83,283.3c0-3.04,2.09-5.06,4.87-5.06s4.71,1.89,4.71,4.95-2.09,5.04-4.87,5.04-4.71-1.87-4.71-4.93ZM238.59,283.3c0-2.88-1.23-4.81-3-4.81s-2.95,1.85-2.95,4.7,1.23,4.79,3,4.79,2.95-1.85,2.95-4.68Z"/><path d="M255.79,278.46c-.7,1.55-1.25,2.97-2.23,5.49l-1.68,4.34h-.12l-2.61-7.09-2.68,7.09h-.12l-3.89-9.83h1.8l2.84,7.24,2.7-7.24h.11l2.66,7.18.7-1.84c1.02-2.63,1.39-4.27,1.48-5.35h1.05Z"/><path d="M15.4,299.86v13.32h-1.64v-11.13c-.62.38-1.39.67-2.07.86v-.22c1.18-.45,2.71-1.55,3.64-2.84h.07Z"/><path d="M27.85,309.73c0,2.07-1.89,3.67-4.45,3.67-2.16,0-4.2-1.13-4.2-3.15,0-1.76,1.14-2.94,2.98-3.57-1.29-.67-2.41-1.69-2.41-3.37,0-1.87,1.52-3.46,3.89-3.46,1.96,0,3.64,1.19,3.64,2.88s-1.25,2.68-2.66,3.24c1.84.81,3.2,1.93,3.2,3.75ZM26.49,310.37c0-1.48-1.18-2.32-2.71-2.97l-.87-.38c-.14-.05-.29-.13-.43-.2-1.34.81-1.95,2.07-1.95,3.35,0,1.82,1.41,2.97,3.02,2.97s2.95-1.21,2.95-2.77ZM23.65,305.55l.66.29c1.09-.76,1.7-1.84,1.7-3.06,0-1.53-.98-2.66-2.45-2.66-1.55,0-2.43,1.15-2.43,2.58s1.02,2.23,2.52,2.86Z"/><path d="M31.09,308.18c0-4,2.75-7.29,6.68-8.32l.09.27c-3.23,1.06-4.91,4.18-4.91,8.1,0,3.17,1.11,4.91,2.79,4.91,1.54,0,2.43-1.44,2.43-3.66s-1-3.64-2.52-3.64c-.62,0-1.25.22-1.82.68l-.18-.22c.75-.72,1.66-1.1,2.7-1.1,1.98,0,3.66,1.51,3.66,3.91,0,2.57-1.89,4.27-4.37,4.27-2.68,0-4.53-1.96-4.53-5.22Z"/><path d="M50.43,309.15c0,2.56-2.05,4.25-4.62,4.25-1.07,0-2.21-.27-3.23-.81l.25-.86c.8.9,1.71,1.39,2.93,1.39,1.82,0,3.2-1.37,3.2-3.31s-1.5-3.55-4.96-3.55h-.61l.54-6.18h6.28l-.43,1.28h-5.61l-.29,3.35h.71c4.02,0,5.84,1.96,5.84,4.45Z"/><path d="M53.61,306.74c0-4.25,2-6.88,5.14-6.88,2.96,0,5.12,2.41,5.12,6.66s-2.02,6.88-5.16,6.88c-2.96,0-5.11-2.41-5.11-6.66ZM62.01,306.7c0-3.89-1.14-6.59-3.32-6.59s-3.23,2.66-3.23,6.43,1.14,6.61,3.32,6.61,3.23-2.66,3.23-6.45Z"/><path d="M72.43,312.59l.27-1.01c.91.99,1.77,1.53,3.05,1.53,1.68,0,3.11-1.21,3.11-3.24,0-1.67-1.23-3.04-3.18-3.28l-.68-.07-.07-.2.62-.2c1.39-.45,2.7-1.58,2.7-3.21,0-1.44-1.02-2.23-2.32-2.23-1.57,0-2.66,1.03-3.09,1.64l-.23-.11c.73-1.1,1.98-2.36,4.07-2.36,1.82,0,3.3.99,3.3,2.68,0,1.48-1.34,2.72-2.73,3.19v.04c1.7.31,3.21,1.66,3.21,3.56,0,2.47-2.02,4.07-4.71,4.07-1.04,0-2.12-.25-3.32-.81Z"/><path d="M83.16,312.3l1.27-1.28,1.27,1.28-1.27,1.26-1.27-1.26Z"/><path d="M95.7,300.07v.07l-4.77,13.04h-1.61l5.59-11.83h-2.23c-2.32,0-4.21.14-5.43.43l.32-1.71h8.12Z"/><path d="M108.95,300.07c-.86,1.8-1.54,3.48-2.46,5.74l-3.11,7.65h-.07l-5.41-13.4h1.98l4.25,10.64,2.02-5.02c1.21-2.99,1.5-4.36,1.57-5.62h1.23Z"/><path d="M119.63,299.86v13.32h-1.64v-11.13c-.62.38-1.39.67-2.07.86v-.22c1.18-.45,2.71-1.55,3.64-2.84h.07Z"/><path d="M131.58,311.58l-.46,1.6h-8v-.07l1.04-1.08c3.5-3.66,5.21-6.16,5.21-8.41,0-1.78-1.07-2.88-2.64-2.88-1.18,0-2.41.56-3.34,2.2l-.23-.11c.5-1.01,1.66-2.97,4.32-2.97,2.11,0,3.77,1.26,3.77,3.51s-1.87,4.45-6.52,8.46l-.12.11h1.3c2.32,0,3.89-.11,5.68-.36Z"/><path d="M134.71,306.74c0-4.25,2-6.88,5.14-6.88,2.96,0,5.12,2.41,5.12,6.66s-2.02,6.88-5.16,6.88c-2.96,0-5.11-2.41-5.11-6.66ZM143.12,306.7c0-3.89-1.14-6.59-3.32-6.59s-3.23,2.66-3.23,6.43,1.14,6.61,3.32,6.61,3.23-2.66,3.23-6.45Z"/><path d="M148.33,306.74c0-4.25,2-6.88,5.14-6.88,2.96,0,5.12,2.41,5.12,6.66s-2.02,6.88-5.16,6.88c-2.96,0-5.11-2.41-5.11-6.66ZM156.74,306.7c0-3.89-1.14-6.59-3.32-6.59s-3.23,2.66-3.23,6.43,1.14,6.61,3.32,6.61,3.23-2.66,3.23-6.45Z"/><path d="M176.6,306.81v6.37h-1.68v-6.41c0-.74-.02-2.72-2.09-2.72-.96,0-1.77.41-2.73,1.44.09.38.14.81.14,1.31v6.37h-1.7v-6.41c0-.74,0-2.72-2.07-2.72-.93,0-1.7.38-2.59,1.26v7.87h-1.7v-9.27l1.62-.49h.07v1.55c.96-.97,1.91-1.57,3.34-1.57s2.36.58,2.79,1.76c1.05-1.08,2.04-1.76,3.57-1.76,1.96,0,3.02,1.08,3.02,3.4Z"/><path d="M186.66,308.88h-5.07c-.79,2.11-1,3.24-1.05,4.3h-1.23c.86-1.8,1.54-3.47,2.46-5.74l3.11-7.65h.07l5.41,13.4h-1.98l-1.71-4.3ZM186.53,308.56l-2.41-6.01-2.02,5.02-.39.99h4.82Z"/><path d="M201.39,306.81v6.37h-1.68v-6.41c0-.74-.02-2.72-2.09-2.72-.95,0-1.82.38-2.75,1.28v7.85h-1.68v-14.04l1.61-.54h.07v6.39c1-.97,2.04-1.59,3.48-1.59,1.96,0,3.03,1.08,3.03,3.4Z"/><path d="M216.11,303.55l-.5,1.33c-.32-.14-.7-.22-.98-.22-.96,0-1.79.7-2.23,1.66v6.86h-1.7v-9.27l1.59-.49h.07v2.38c.66-1.46,1.66-2.36,2.91-2.36.32,0,.62.05.84.11Z"/><path d="M219.43,307.73v.32c0,2.99,1.45,4.57,3.37,4.57,1.07,0,2.34-.54,3.16-1.73l.21.13c-1.02,1.57-2.43,2.38-4.11,2.38-2.55,0-4.45-1.93-4.45-4.84,0-3.12,2.05-5.15,4.8-5.15,2.57,0,3.89,1.78,3.86,4.32h-6.86ZM219.45,307.44h5.21c.11-2.27-.86-3.76-2.37-3.76s-2.66,1.57-2.84,3.76Z"/><path d="M229.08,308.5c0-3.06,2.09-5.1,4.68-5.1,1.62,0,2.8.63,3.59,1.64l-.73.65c-.75-1.21-1.57-2.02-2.77-2.02-1.71,0-2.93,1.73-2.93,4.43,0,2.93,1.37,4.52,3.25,4.52,1.04,0,2.25-.54,3.07-1.73l.21.13c-.95,1.44-2.25,2.38-3.98,2.38-2.5,0-4.39-1.93-4.39-4.9Z"/><path d="M248.68,306.81v6.37h-1.68v-6.41c0-.74-.02-2.72-2.09-2.72-.95,0-1.82.38-2.75,1.28v7.85h-1.68v-14.04l1.61-.54h.07v6.39c1-.97,2.04-1.59,3.48-1.59,1.96,0,3.03,1.08,3.03,3.4Z"/><path d="M260.45,312.75v.11c-.29.18-.84.45-1.48.45-1.14,0-1.37-.85-1.41-1.33-.93.88-2.18,1.39-3.3,1.39-1.5,0-2.5-.88-2.5-2.21,0-1.67,1.59-2.72,4.03-2.99.64-.07,1.21-.11,1.75-.16v-1.03c0-1.78-.52-2.97-2.29-2.97-.96,0-1.8.34-2.68,1.08l-.16-.2c.96-.9,1.96-1.48,3.5-1.48,2.2,0,3.32,1.08,3.32,3.4v4.61c0,.86,0,1.37.87,1.37.12,0,.23-.02.34-.04ZM257.54,311.63v-3.37c-2.43.25-4.11.85-4.11,2.59,0,1.26.79,1.85,1.75,1.85.77,0,1.62-.36,2.36-1.08Z"/><path d="M268.81,303.55l-.5,1.33c-.32-.14-.7-.22-.98-.22-.96,0-1.79.7-2.23,1.66v6.86h-1.7v-9.27l1.59-.49h.07v2.38c.66-1.46,1.66-2.36,2.91-2.36.32,0,.62.05.84.11Z"/><path d="M279.38,314.06c0,1.98-2.23,3.44-5.02,3.44-2.29,0-4.05-.99-4.05-2.59,0-.38.09-.77.29-1.21l1-.29h.07c-.18.49-.29.94-.29,1.35,0,1.46,1.09,2.45,2.98,2.45,2.34,0,3.91-.97,3.91-2.47,0-.97-.75-1.53-2.34-1.62l-2.8-.18c-1.25-.07-2.09-.54-2.09-1.48,0-.68.43-1.15,1.27-1.66l.36-.22c-1.09-.54-1.8-1.57-1.8-2.86,0-1.96,1.64-3.33,3.82-3.33.95,0,1.8.25,2.45.72.46-.67,1.2-1.3,2.39-1.3l-.16,1.44c-.34-.11-.71-.2-1.04-.2-.39,0-.71.07-.96.23.68.58,1.09,1.42,1.09,2.41,0,1.94-1.64,3.31-3.82,3.31-.61,0-1.16-.11-1.66-.31l-.39.27c-.41.27-.52.54-.52.81,0,.38.29.65,1.25.7l2.95.18c2,.11,3.12.88,3.12,2.38ZM272.47,306.72c0,1.8.86,3.02,2.2,3.02s2.18-1.21,2.18-3.01-.86-3.04-2.2-3.04-2.18,1.22-2.18,3.03Z"/><path d="M283.48,307.73v.32c0,2.99,1.45,4.57,3.37,4.57,1.07,0,2.34-.54,3.16-1.73l.21.13c-1.02,1.57-2.43,2.38-4.11,2.38-2.55,0-4.45-1.93-4.45-4.84,0-3.12,2.05-5.15,4.8-5.15,2.57,0,3.89,1.78,3.86,4.32h-6.86ZM283.49,307.44h5.21c.11-2.27-.86-3.76-2.37-3.76s-2.66,1.57-2.84,3.76Z"/><path d="M301.58,312.75v.11c-.29.18-.84.45-1.48.45-1.14,0-1.37-.85-1.41-1.33-.93.88-2.18,1.39-3.3,1.39-1.5,0-2.5-.88-2.5-2.21,0-1.67,1.59-2.72,4.03-2.99.64-.07,1.21-.11,1.75-.16v-1.03c0-1.78-.52-2.97-2.29-2.97-.96,0-1.8.34-2.68,1.08l-.16-.2c.96-.9,1.96-1.48,3.5-1.48,2.2,0,3.32,1.08,3.32,3.4v4.61c0,.86,0,1.37.87,1.37.12,0,.23-.02.34-.04ZM298.67,311.63v-3.37c-2.43.25-4.11.85-4.11,2.59,0,1.26.79,1.85,1.75,1.85.77,0,1.62-.36,2.36-1.08Z"/><path d="M313.48,308.25c0,3.08-2.11,5.15-4.61,5.15-1.37,0-2.45-.47-3.25-1.26l-1,1.12h-.07v-14.12l1.61-.54h.07v6.32c.88-.94,1.95-1.51,3.18-1.51,2.32,0,4.07,2,4.07,4.84ZM311.66,308.41c0-2.93-1.18-4.41-2.79-4.41-.89,0-1.86.45-2.64,1.39v5.91c.46,1.1,1.37,1.82,2.48,1.82,1.73,0,2.95-1.8,2.95-4.7Z"/><path d="M316.88,299.14l1.62-.54h.07v14.58h-1.7v-14.04Z"/><path d="M323.77,307.73v.32c0,2.99,1.45,4.57,3.37,4.57,1.07,0,2.34-.54,3.16-1.73l.21.13c-1.02,1.57-2.43,2.38-4.11,2.38-2.55,0-4.45-1.93-4.45-4.84,0-3.12,2.05-5.15,4.8-5.15,2.57,0,3.89,1.78,3.86,4.32h-6.86ZM323.79,307.44h5.21c.11-2.27-.86-3.76-2.37-3.76s-2.66,1.57-2.84,3.76Z"/><path d="M348.36,308.25c0,3.08-2.11,5.15-4.61,5.15-1.37,0-2.45-.47-3.25-1.26l-1,1.12h-.07v-14.12l1.61-.54h.07v6.32c.88-.94,1.95-1.51,3.18-1.51,2.32,0,4.07,2,4.07,4.84ZM346.54,308.41c0-2.93-1.18-4.41-2.79-4.41-.89,0-1.86.45-2.64,1.39v5.91c.46,1.1,1.37,1.82,2.48,1.82,1.73,0,2.95-1.8,2.95-4.7Z"/><path d="M359.56,312.75v.11c-.29.18-.84.45-1.48.45-1.14,0-1.37-.85-1.41-1.33-.93.88-2.18,1.39-3.3,1.39-1.5,0-2.5-.88-2.5-2.21,0-1.67,1.59-2.72,4.03-2.99.64-.07,1.21-.11,1.75-.16v-1.03c0-1.78-.52-2.97-2.29-2.97-.96,0-1.8.34-2.68,1.08l-.16-.2c.96-.9,1.96-1.48,3.5-1.48,2.2,0,3.32,1.08,3.32,3.4v4.61c0,.86,0,1.37.87,1.37.12,0,.23-.02.34-.04ZM356.65,311.63v-3.37c-2.43.25-4.11.85-4.11,2.59,0,1.26.79,1.85,1.75,1.85.77,0,1.62-.36,2.36-1.08Z"/><path d="M367.56,312.55c-.75.5-1.5.85-2.5.85-2.2,0-2.32-1.69-2.32-2.47v-6.91h-1.37v-.31l1.3-.09,1.7-3.06h.07v3.06h3.05l-.23.4h-2.82v6.88c0,.52,0,1.89,1.45,1.89.41,0,.95-.11,1.54-.45l.14.22Z"/><path d="M375.7,312.55c-.75.5-1.5.85-2.5.85-2.2,0-2.32-1.69-2.32-2.47v-6.91h-1.37v-.31l1.3-.09,1.7-3.06h.07v3.06h3.05l-.23.4h-2.82v6.88c0,.52,0,1.89,1.45,1.89.41,0,.95-.11,1.54-.45l.14.22Z"/><path d="M379.33,307.73v.32c0,2.99,1.45,4.57,3.37,4.57,1.07,0,2.34-.54,3.16-1.73l.21.13c-1.02,1.57-2.43,2.38-4.11,2.38-2.55,0-4.45-1.93-4.45-4.84,0-3.12,2.05-5.15,4.8-5.15,2.57,0,3.89,1.78,3.86,4.32h-6.86ZM379.35,307.44h5.21c.11-2.27-.86-3.76-2.37-3.76s-2.66,1.57-2.84,3.76Z"/><path d="M394.87,303.55l-.5,1.33c-.32-.14-.7-.22-.98-.22-.96,0-1.79.7-2.23,1.66v6.86h-1.7v-9.27l1.59-.49h.07v2.38c.66-1.46,1.66-2.36,2.91-2.36.32,0,.62.05.84.11Z"/><path d="M405.37,303.62c-.75,1.55-1.32,3.01-2.29,5.35l-2.36,5.73c-.86,2.07-2.23,2.7-3.84,2.7l.11-1.03c.29.09.59.13.88.13.88,0,1.96-.49,2.52-1.82l.59-1.44-4.16-9.61h1.82l3.21,7.45.93-2.23c.96-2.36,1.45-4.12,1.55-5.22h1.04Z"/><path d="M24.19,331.65c0,4.23-2.79,6.7-7.2,6.7h-4.25v-13.11h4.55c4.12,0,6.89,2.25,6.89,6.41ZM22.19,331.74c0-3.71-1.98-6.21-5.05-6.21h-2.57v12.37c.46.11,1.3.16,2.73.16,3.11,0,4.89-2.29,4.89-6.32Z"/><path d="M27.21,333.63c0-3.04,2.09-5.06,4.87-5.06s4.71,1.89,4.71,4.95-2.09,5.04-4.87,5.04-4.71-1.87-4.71-4.93ZM34.98,333.63c0-2.88-1.23-4.81-3-4.81s-2.95,1.85-2.95,4.7,1.23,4.79,3,4.79,2.95-1.85,2.95-4.68Z"/><path d="M48.62,338l-1.59.5-.5-1.57v-.04c-.87.95-2.05,1.66-3.43,1.66-1.98,0-3.05-1.08-3.05-3.38v-6.1l1.62-.49h.07v6.63c0,.74,0,2.72,2.09,2.72.89,0,1.91-.56,2.7-1.44v-7.42l1.62-.49h.07v8.12l.39,1.3Z"/><path d="M61.03,333.41c0,3.08-2.11,5.15-4.61,5.15-1.37,0-2.45-.47-3.25-1.26l-1,1.12h-.07v-14.12l1.61-.54h.07v6.32c.87-.94,1.95-1.51,3.18-1.51,2.32,0,4.07,2,4.07,4.84ZM59.21,333.57c0-2.93-1.18-4.41-2.79-4.41-.89,0-1.86.45-2.64,1.39v5.91c.46,1.1,1.37,1.82,2.48,1.82,1.73,0,2.95-1.8,2.95-4.7Z"/><path d="M64.43,324.3l1.62-.54h.07v14.58h-1.7v-14.04Z"/><path d="M71.32,332.89v.32c0,2.99,1.45,4.57,3.37,4.57,1.07,0,2.34-.54,3.16-1.73l.21.13c-1.02,1.57-2.43,2.38-4.11,2.38-2.55,0-4.45-1.93-4.45-4.84,0-3.12,2.05-5.15,4.8-5.15,2.57,0,3.89,1.78,3.86,4.32h-6.86ZM71.34,332.6h5.21c.11-2.27-.86-3.76-2.37-3.76s-2.66,1.57-2.84,3.76Z"/><path d="M87.24,325.24h1.82v13.11h-1.82v-13.11Z"/><path d="M101.23,331.97v6.37h-1.7v-6.41c0-.74,0-2.72-2.09-2.72-.93,0-1.82.38-2.73,1.28v7.85h-1.7v-9.27l1.62-.49h.07v1.55c1-.97,2.04-1.57,3.46-1.57,1.98,0,3.05,1.08,3.05,3.4Z"/><path d="M102.9,342.23c1.41-.31,2.25-1.66,2.25-3.58v-9.58l1.62-.49h.07v9.94c0,2.36-1.89,3.64-3.87,3.93l-.07-.22ZM104.77,325.85l1.21-1.22,1.21,1.22-1.21,1.22-1.21-1.22Z"/><path d="M112.04,332.89v.32c0,2.99,1.45,4.57,3.37,4.57,1.07,0,2.34-.54,3.16-1.73l.21.13c-1.02,1.57-2.43,2.38-4.11,2.38-2.55,0-4.45-1.93-4.45-4.84,0-3.12,2.05-5.15,4.8-5.15,2.57,0,3.89,1.78,3.86,4.32h-6.86ZM112.06,332.6h5.21c.11-2.27-.86-3.76-2.37-3.76s-2.66,1.57-2.84,3.76Z"/><path d="M121.69,333.66c0-3.06,2.09-5.1,4.68-5.1,1.62,0,2.8.63,3.59,1.64l-.73.65c-.75-1.21-1.57-2.02-2.77-2.02-1.71,0-2.93,1.73-2.93,4.43,0,2.93,1.37,4.52,3.25,4.52,1.04,0,2.25-.54,3.07-1.73l.21.13c-.95,1.44-2.25,2.38-3.98,2.38-2.5,0-4.39-1.93-4.39-4.9Z"/><path d="M138.51,337.71c-.75.5-1.5.85-2.5.85-2.2,0-2.32-1.69-2.32-2.47v-6.91h-1.37v-.31l1.3-.09,1.7-3.06h.07v3.06h3.05l-.23.4h-2.82v6.88c0,.52,0,1.89,1.45,1.89.41,0,.95-.11,1.54-.45l.14.22Z"/><path d="M142.14,332.89v.32c0,2.99,1.45,4.57,3.37,4.57,1.07,0,2.34-.54,3.16-1.73l.21.13c-1.02,1.57-2.43,2.38-4.11,2.38-2.55,0-4.45-1.93-4.45-4.84,0-3.12,2.05-5.15,4.8-5.15,2.57,0,3.89,1.78,3.86,4.32h-6.86ZM142.15,332.6h5.21c.11-2.27-.86-3.76-2.37-3.76s-2.66,1.57-2.84,3.76Z"/><path d="M159.51,338.51l-.46-1.48c-.87.95-1.95,1.53-3.2,1.53-2.32,0-4.07-2-4.07-4.83,0-3.08,2.11-5.17,4.61-5.17,1.04,0,1.93.36,2.62.99v-5.26l1.62-.54h.07v12.95l.39,1.3-1.59.5ZM159.01,336.62v-5.92c-.45-1.1-1.36-1.82-2.46-1.82-1.75,0-2.95,1.78-2.95,4.68s1.18,4.41,2.8,4.41c.89,0,1.82-.45,2.61-1.35Z"/><path d="M178.76,328.84c0,2.45-1.93,4.03-5.04,4.03-.55,0-1.16-.05-1.55-.11v5.58h-1.82v-13.11h3.37c3.34,0,5.04,1.3,5.04,3.6ZM176.83,329.05c0-2.07-1.04-3.53-3.37-3.53h-1.29v6.93c.32.07.73.13,1.25.13,2.27,0,3.41-1.33,3.41-3.53Z"/><path d="M180.94,333.63c0-3.04,2.09-5.06,4.87-5.06s4.71,1.89,4.71,4.95-2.09,5.04-4.87,5.04-4.71-1.87-4.71-4.93ZM188.71,333.63c0-2.88-1.23-4.81-3-4.81s-2.95,1.85-2.95,4.7,1.23,4.79,3,4.79,2.95-1.85,2.95-4.68Z"/><path d="M193.93,324.3l1.62-.54h.07v14.58h-1.7v-14.04Z"/><path d="M207.05,328.78c-.75,1.55-1.32,3.01-2.29,5.35l-2.36,5.73c-.86,2.07-2.23,2.7-3.84,2.7l.11-1.03c.29.09.59.13.87.13.87,0,1.96-.49,2.52-1.82l.59-1.44-4.16-9.61h1.82l3.21,7.45.93-2.23c.96-2.36,1.45-4.12,1.55-5.22h1.04Z"/><path d="M208.95,333.66c0-3.06,2.09-5.1,4.68-5.1,1.62,0,2.8.63,3.59,1.64l-.73.65c-.75-1.21-1.57-2.02-2.77-2.02-1.71,0-2.93,1.73-2.93,4.43,0,2.93,1.37,4.52,3.25,4.52,1.04,0,2.25-.54,3.07-1.73l.21.13c-.95,1.44-2.25,2.38-3.98,2.38-2.5,0-4.39-1.93-4.39-4.9Z"/><path d="M228.32,337.91v.11c-.29.18-.84.45-1.48.45-1.14,0-1.37-.85-1.41-1.33-.93.88-2.18,1.39-3.3,1.39-1.5,0-2.5-.88-2.5-2.21,0-1.67,1.59-2.72,4.03-2.99.64-.07,1.21-.11,1.75-.16v-1.03c0-1.78-.52-2.97-2.29-2.97-.96,0-1.8.34-2.68,1.08l-.16-.2c.96-.9,1.96-1.48,3.5-1.48,2.2,0,3.32,1.08,3.32,3.4v4.61c0,.86,0,1.37.87,1.37.12,0,.23-.02.34-.04ZM225.41,336.8v-3.37c-2.43.25-4.11.85-4.11,2.59,0,1.26.79,1.85,1.75,1.85.77,0,1.62-.36,2.36-1.08Z"/><path d="M236.68,328.71l-.5,1.33c-.32-.14-.7-.22-.98-.22-.96,0-1.79.7-2.23,1.66v6.86h-1.7v-9.27l1.59-.49h.07v2.38c.66-1.46,1.66-2.36,2.91-2.36.32,0,.62.05.84.11Z"/><path d="M248.47,333.41c0,3.08-2.11,5.15-4.61,5.15-1.37,0-2.45-.47-3.25-1.26l-1,1.12h-.07v-14.12l1.61-.54h.07v6.32c.87-.94,1.95-1.51,3.18-1.51,2.32,0,4.07,2,4.07,4.84ZM246.65,333.57c0-2.93-1.18-4.41-2.79-4.41-.89,0-1.86.45-2.64,1.39v5.91c.46,1.1,1.37,1.82,2.48,1.82,1.73,0,2.95-1.8,2.95-4.7Z"/><path d="M251.33,333.63c0-3.04,2.09-5.06,4.87-5.06s4.71,1.89,4.71,4.95-2.09,5.04-4.87,5.04-4.71-1.87-4.71-4.93ZM259.1,333.63c0-2.88-1.23-4.81-3-4.81s-2.95,1.85-2.95,4.7,1.23,4.79,3,4.79,2.95-1.85,2.95-4.68Z"/><path d="M272.47,331.97v6.37h-1.7v-6.41c0-.74,0-2.72-2.09-2.72-.93,0-1.82.38-2.73,1.28v7.85h-1.7v-9.27l1.62-.49h.07v1.55c1-.97,2.04-1.57,3.46-1.57,1.98,0,3.05,1.08,3.05,3.4Z"/><path d="M284.22,337.91v.11c-.29.18-.84.45-1.48.45-1.14,0-1.37-.85-1.41-1.33-.93.88-2.18,1.39-3.3,1.39-1.5,0-2.5-.88-2.5-2.21,0-1.67,1.59-2.72,4.03-2.99.64-.07,1.21-.11,1.75-.16v-1.03c0-1.78-.52-2.97-2.29-2.97-.96,0-1.8.34-2.68,1.08l-.16-.2c.96-.9,1.96-1.48,3.5-1.48,2.2,0,3.32,1.08,3.32,3.4v4.61c0,.86,0,1.37.87,1.37.12,0,.23-.02.34-.04ZM281.31,336.8v-3.37c-2.43.25-4.11.85-4.11,2.59,0,1.26.79,1.85,1.75,1.85.77,0,1.62-.36,2.36-1.08Z"/><path d="M292.23,337.71c-.75.5-1.5.85-2.5.85-2.2,0-2.32-1.69-2.32-2.47v-6.91h-1.37v-.31l1.3-.09,1.7-3.06h.07v3.06h3.05l-.23.4h-2.82v6.88c0,.52,0,1.89,1.45,1.89.41,0,.95-.11,1.54-.45l.14.22Z"/><path d="M295.85,332.89v.32c0,2.99,1.45,4.57,3.37,4.57,1.07,0,2.34-.54,3.16-1.73l.21.13c-1.02,1.57-2.43,2.38-4.11,2.38-2.55,0-4.45-1.93-4.45-4.84,0-3.12,2.05-5.15,4.8-5.15,2.57,0,3.89,1.78,3.86,4.32h-6.86ZM295.87,332.6h5.21c.11-2.27-.86-3.76-2.37-3.76s-2.66,1.57-2.84,3.76Z"/><path d="M311.12,332.87c0-3.47,1.05-6.39,2.79-8.61l.23.16c-1.57,2.09-2.23,5.04-2.23,8.34s.66,6.32,2.23,8.41l-.23.16c-1.73-2.21-2.79-4.99-2.79-8.46Z"/><path d="M325.94,328.84c0,2.45-1.93,4.03-5.04,4.03-.55,0-1.16-.05-1.55-.11v5.58h-1.82v-13.11h3.37c3.34,0,5.04,1.3,5.04,3.6ZM324.01,329.05c0-2.07-1.04-3.53-3.37-3.53h-1.29v6.93c.32.07.73.13,1.25.13,2.27,0,3.41-1.33,3.41-3.53Z"/><path d="M328.89,331.9c0-4.2,2.84-6.88,6.61-6.88,2.11,0,3.86.94,4.87,2.11l-.89.81c-.91-1.53-2.34-2.63-4.07-2.63-2.73,0-4.52,2.63-4.52,6.14,0,3.98,2.16,6.32,5.04,6.32,1.55,0,3.25-.67,4.41-2.47l.21.13c-1.18,1.93-3,3.13-5.43,3.13-3.57,0-6.23-2.61-6.23-6.66Z"/><path d="M342.74,341.17c1.57-2.09,2.23-5.04,2.23-8.34s-.66-6.32-2.23-8.41l.23-.16c1.73,2.21,2.79,4.99,2.79,8.46s-1.05,6.39-2.79,8.61l-.23-.16Z"/><path d="M354.27,337.61l.32-1.13c.86,1.06,2.55,1.8,4,1.8,1.73,0,2.91-1.08,2.91-2.56,0-1.73-1.54-2.5-2.86-3.12l-.89-.4c-1.41-.65-3.29-1.58-3.29-3.73,0-1.98,1.62-3.46,4.11-3.46,1.46,0,2.91.52,3.64.95l-.29,1.01c-.79-.83-2.07-1.67-3.55-1.67-1.66,0-2.61,1.04-2.61,2.3,0,1.55,1.36,2.23,2.79,2.9l.89.41c1.61.76,3.34,1.62,3.34,3.85s-1.84,3.78-4.36,3.78c-1.55,0-3.36-.54-4.16-.95Z"/><path d="M365.65,333.63c0-3.04,2.09-5.06,4.87-5.06s4.71,1.89,4.71,4.95-2.09,5.04-4.87,5.04-4.71-1.87-4.71-4.93ZM373.42,333.63c0-2.88-1.23-4.81-3-4.81s-2.95,1.85-2.95,4.7,1.23,4.79,3,4.79,2.95-1.85,2.95-4.68Z"/><path d="M378.63,324.3l1.62-.54h.07v14.58h-1.7v-14.04Z"/><path d="M392.19,337.91v.11c-.29.18-.84.45-1.48.45-1.14,0-1.37-.85-1.41-1.33-.93.88-2.18,1.39-3.3,1.39-1.5,0-2.5-.88-2.5-2.21,0-1.67,1.59-2.72,4.03-2.99.64-.07,1.21-.11,1.75-.16v-1.03c0-1.78-.52-2.97-2.29-2.97-.96,0-1.8.34-2.68,1.08l-.16-.2c.96-.9,1.96-1.48,3.5-1.48,2.2,0,3.32,1.08,3.32,3.4v4.61c0,.86,0,1.37.87,1.37.12,0,.23-.02.34-.04ZM389.28,336.8v-3.37c-2.43.25-4.11.85-4.11,2.59,0,1.26.79,1.85,1.75,1.85.77,0,1.62-.36,2.36-1.08Z"/><path d="M400.54,328.71l-.5,1.33c-.32-.14-.7-.22-.98-.22-.96,0-1.79.7-2.23,1.66v6.86h-1.7v-9.27l1.59-.49h.07v2.38c.66-1.46,1.66-2.36,2.91-2.36.32,0,.62.05.84.11Z"/><path d="M417.17,328.84c0,2.45-1.93,4.03-5.04,4.03-.55,0-1.16-.05-1.55-.11v5.58h-1.82v-13.11h3.37c3.34,0,5.04,1.3,5.04,3.6ZM415.24,329.05c0-2.07-1.04-3.53-3.37-3.53h-1.29v6.93c.32.07.73.13,1.25.13,2.27,0,3.41-1.33,3.41-3.53Z"/><path d="M428.05,337.91v.11c-.29.18-.84.45-1.48.45-1.14,0-1.37-.85-1.41-1.33-.93.88-2.18,1.39-3.3,1.39-1.5,0-2.5-.88-2.5-2.21,0-1.67,1.59-2.72,4.03-2.99.64-.07,1.21-.11,1.75-.16v-1.03c0-1.78-.52-2.97-2.29-2.97-.96,0-1.8.34-2.68,1.08l-.16-.2c.96-.9,1.96-1.48,3.5-1.48,2.2,0,3.32,1.08,3.32,3.4v4.61c0,.86,0,1.37.87,1.37.12,0,.23-.02.34-.04ZM425.14,336.8v-3.37c-2.43.25-4.11.85-4.11,2.59,0,1.26.79,1.85,1.75,1.85.77,0,1.62-.36,2.36-1.08Z"/><path d="M439.21,331.97v6.37h-1.7v-6.41c0-.74,0-2.72-2.09-2.72-.93,0-1.82.38-2.73,1.28v7.85h-1.7v-9.27l1.62-.49h.07v1.55c1-.97,2.04-1.57,3.46-1.57,1.98,0,3.05,1.08,3.05,3.4Z"/><path d="M444.3,332.89v.32c0,2.99,1.45,4.57,3.37,4.57,1.07,0,2.34-.54,3.16-1.73l.21.13c-1.02,1.57-2.43,2.38-4.11,2.38-2.55,0-4.45-1.93-4.45-4.84,0-3.12,2.05-5.15,4.8-5.15,2.57,0,3.89,1.78,3.86,4.32h-6.86ZM444.32,332.6h5.21c.11-2.27-.86-3.76-2.37-3.76s-2.66,1.57-2.84,3.76Z"/><path d="M454.48,324.3l1.62-.54h.07v14.58h-1.7v-14.04Z"/><path d="M477.29,331.65c0,4.23-2.79,6.7-7.2,6.7h-4.25v-13.11h4.55c4.12,0,6.89,2.25,6.89,6.41ZM475.29,331.74c0-3.71-1.98-6.21-5.05-6.21h-2.57v12.37c.46.11,1.3.16,2.73.16,3.11,0,4.89-2.29,4.89-6.32Z"/><path d="M489.27,338l-1.59.5-.5-1.57v-.04c-.88.95-2.05,1.66-3.43,1.66-1.98,0-3.05-1.08-3.05-3.38v-6.1l1.62-.49h.07v6.63c0,.74,0,2.72,2.09,2.72.89,0,1.91-.56,2.7-1.44v-7.42l1.62-.49h.07v8.12l.39,1.3Z"/><path d="M492.13,337.7l.27-.92c.73.86,1.87,1.53,3.28,1.53s2.32-.76,2.32-1.84c0-1.15-1.09-1.62-2.21-2.09l-.73-.31c-1.16-.5-2.75-1.17-2.75-2.88,0-1.51,1.29-2.63,3.32-2.63,1.27,0,2.46.4,3.09.76l-.25.85c-.62-.61-1.73-1.35-3-1.35s-2.02.76-2.02,1.64c0,1.13,1.23,1.59,2.23,2.02l.71.31c1.12.47,2.75,1.15,2.75,2.93,0,1.64-1.36,2.84-3.64,2.84-1.2,0-2.57-.34-3.38-.86Z"/><path d="M507.68,337.71c-.75.5-1.5.85-2.5.85-2.2,0-2.32-1.69-2.32-2.47v-6.91h-1.37v-.31l1.3-.09,1.7-3.06h.07v3.06h3.05l-.23.4h-2.82v6.88c0,.52,0,1.89,1.45,1.89.41,0,.95-.11,1.54-.45l.14.22Z"/><path d="M515.53,331.9c0-4.2,2.84-6.88,6.61-6.88,2.11,0,3.86.94,4.87,2.11l-.89.81c-.91-1.53-2.34-2.63-4.07-2.63-2.73,0-4.52,2.63-4.52,6.14,0,3.98,2.16,6.32,5.04,6.32,1.55,0,3.25-.67,4.41-2.47l.21.13c-1.18,1.93-3,3.13-5.43,3.13-3.57,0-6.23-2.61-6.23-6.66Z"/><path d="M529.71,333.63c0-3.04,2.09-5.06,4.87-5.06s4.71,1.89,4.71,4.95-2.09,5.04-4.87,5.04-4.71-1.87-4.71-4.93ZM537.47,333.63c0-2.88-1.23-4.81-3-4.81s-2.95,1.85-2.95,4.7,1.23,4.79,3,4.79,2.95-1.85,2.95-4.68Z"/><path d="M549.89,328.78c-.77,1.55-1.38,2.97-2.41,5.4l-1.89,4.43h-.12l-4.2-9.83h1.82l3.16,7.44.93-2.14c1.05-2.45,1.57-4.2,1.68-5.29h1.04Z"/><path d="M553.5,332.89v.32c0,2.99,1.45,4.57,3.37,4.57,1.07,0,2.34-.54,3.16-1.73l.21.13c-1.02,1.57-2.43,2.38-4.11,2.38-2.55,0-4.45-1.93-4.45-4.84,0-3.12,2.05-5.15,4.8-5.15,2.57,0,3.89,1.78,3.86,4.32h-6.86ZM553.51,332.6h5.21c.11-2.27-.86-3.76-2.37-3.76s-2.66,1.57-2.84,3.76Z"/><path d="M569.03,328.71l-.5,1.33c-.32-.14-.7-.22-.98-.22-.96,0-1.79.7-2.23,1.66v6.86h-1.7v-9.27l1.59-.49h.07v2.38c.66-1.46,1.66-2.36,2.91-2.36.32,0,.62.05.84.11Z"/><path d="M19.3,362.15l-.34,1.35h-6.21v-13.11h1.82v12.78h.34c1.07,0,2.5-.2,4.36-1.03h.04Z"/><path d="M30.6,362.3l-.34,1.21h-7.69v-13.11h7.48l.21,1.13h-.04c-1.64-.56-3.3-.81-4.86-.81h-.98v5.8h.82c1.93,0,3.2-.13,3.75-.36h.04v1.12h-.04c-.55-.23-1.82-.43-3.75-.43h-.82v6.34h1.04c1.54,0,3.43-.23,5.14-.88h.04Z"/><path d="M45.42,356.81c0,4.23-2.79,6.7-7.2,6.7h-4.25v-13.11h4.55c4.12,0,6.89,2.25,6.89,6.41ZM43.42,356.9c0-3.71-1.98-6.21-5.05-6.21h-2.57v12.37c.46.11,1.3.16,2.73.16,3.11,0,4.89-2.29,4.89-6.32Z"/><path d="M54.02,362.77l.32-1.13c.86,1.06,2.55,1.8,4,1.8,1.73,0,2.91-1.08,2.91-2.56,0-1.73-1.54-2.5-2.86-3.12l-.89-.4c-1.41-.65-3.29-1.58-3.29-3.73,0-1.98,1.62-3.46,4.11-3.46,1.46,0,2.91.52,3.64.95l-.29,1.01c-.79-.83-2.07-1.67-3.55-1.67-1.66,0-2.61,1.05-2.61,2.3,0,1.55,1.36,2.23,2.79,2.9l.89.41c1.61.76,3.34,1.62,3.34,3.85s-1.84,3.78-4.36,3.78c-1.55,0-3.36-.54-4.16-.95Z"/><path d="M74.8,358.57c0,3.08-2.11,5.15-4.61,5.15-1.04,0-1.93-.36-2.62-.99v4.88h-1.7v-13.38l1.62-.49h.07v1.49c.87-.94,1.93-1.51,3.16-1.51,2.32,0,4.07,2,4.07,4.84ZM72.98,358.73c0-2.93-1.16-4.41-2.77-4.41-.89,0-1.86.45-2.64,1.37v5.91c.45,1.12,1.36,1.84,2.46,1.84,1.75,0,2.95-1.8,2.95-4.7Z"/><path d="M78.2,349.46l1.62-.54h.07v14.58h-1.7v-14.04Z"/><path d="M91.75,363.07v.11c-.29.18-.84.45-1.48.45-1.14,0-1.37-.85-1.41-1.33-.93.88-2.18,1.39-3.3,1.39-1.5,0-2.5-.88-2.5-2.21,0-1.67,1.59-2.72,4.03-2.99.64-.07,1.21-.11,1.75-.16v-1.03c0-1.78-.52-2.97-2.29-2.97-.96,0-1.8.34-2.68,1.08l-.16-.2c.96-.9,1.96-1.48,3.5-1.48,2.2,0,3.32,1.08,3.32,3.4v4.61c0,.86,0,1.37.87,1.37.12,0,.23-.02.34-.04ZM88.84,361.96v-3.37c-2.43.25-4.11.85-4.11,2.59,0,1.26.79,1.85,1.75,1.85.77,0,1.62-.36,2.36-1.08Z"/><path d="M94.09,362.86l.27-.92c.73.86,1.87,1.53,3.28,1.53s2.32-.76,2.32-1.84c0-1.15-1.09-1.62-2.21-2.09l-.73-.31c-1.16-.5-2.75-1.17-2.75-2.88,0-1.51,1.29-2.63,3.32-2.63,1.27,0,2.46.4,3.09.76l-.25.85c-.62-.61-1.73-1.35-3-1.35s-2.02.76-2.02,1.64c0,1.13,1.23,1.58,2.23,2.02l.71.31c1.12.47,2.75,1.15,2.75,2.93,0,1.64-1.36,2.84-3.64,2.84-1.2,0-2.57-.34-3.37-.86Z"/><path d="M112.5,357.13v6.37h-1.68v-6.41c0-.74-.02-2.72-2.09-2.72-.95,0-1.82.38-2.75,1.28v7.85h-1.68v-14.04l1.61-.54h.07v6.39c1-.97,2.04-1.59,3.48-1.59,1.96,0,3.03,1.08,3.03,3.4Z"/><path d="M128.63,362.15l-.34,1.35h-6.21v-13.11h1.82v12.78h.34c1.07,0,2.5-.2,4.36-1.03h.04Z"/><path d="M132.35,358.05v.32c0,2.99,1.45,4.57,3.37,4.57,1.07,0,2.34-.54,3.16-1.73l.21.13c-1.02,1.57-2.43,2.38-4.11,2.38-2.55,0-4.45-1.93-4.45-4.84,0-3.12,2.05-5.15,4.8-5.15,2.57,0,3.89,1.78,3.86,4.32h-6.86ZM132.37,357.76h5.21c.11-2.27-.86-3.76-2.37-3.76s-2.66,1.57-2.84,3.76Z"/><path d="M150.69,357.13v6.37h-1.7v-6.41c0-.74,0-2.72-2.09-2.72-.93,0-1.82.38-2.73,1.28v7.85h-1.7v-9.27l1.62-.49h.07v1.55c1-.97,2.04-1.57,3.46-1.57,1.98,0,3.05,1.08,3.05,3.4Z"/><path d="M153.85,362.86l.27-.92c.73.86,1.87,1.53,3.28,1.53s2.32-.76,2.32-1.84c0-1.15-1.09-1.62-2.21-2.09l-.73-.31c-1.16-.5-2.75-1.17-2.75-2.88,0-1.51,1.29-2.63,3.32-2.63,1.27,0,2.46.4,3.09.76l-.25.85c-.62-.61-1.73-1.35-3-1.35s-2.02.76-2.02,1.64c0,1.13,1.23,1.58,2.23,2.02l.71.31c1.12.47,2.75,1.15,2.75,2.93,0,1.64-1.36,2.84-3.64,2.84-1.2,0-2.57-.34-3.37-.86Z"/><path d="M169.84,350.4h1.82v13.11h-1.82v-13.11Z"/><path d="M183.84,357.13v6.37h-1.7v-6.41c0-.74,0-2.72-2.09-2.72-.93,0-1.82.38-2.73,1.28v7.85h-1.7v-9.27l1.62-.49h.07v1.55c1-.97,2.04-1.57,3.46-1.57,1.98,0,3.05,1.08,3.05,3.4Z"/><path d="M187.13,358.82c0-3.06,2.09-5.1,4.68-5.1,1.62,0,2.8.63,3.59,1.64l-.73.65c-.75-1.21-1.57-2.02-2.77-2.02-1.71,0-2.93,1.73-2.93,4.43,0,2.93,1.38,4.52,3.25,4.52,1.04,0,2.25-.54,3.07-1.73l.21.13c-.95,1.44-2.25,2.38-3.98,2.38-2.5,0-4.39-1.93-4.39-4.9Z"/><path d="M198.57,349.46l1.62-.54h.07v14.58h-1.7v-14.04Z"/><path d="M212.63,363.16l-1.59.5-.5-1.57v-.04c-.87.95-2.05,1.66-3.43,1.66-1.98,0-3.05-1.08-3.05-3.38v-6.1l1.62-.49h.07v6.63c0,.74,0,2.72,2.09,2.72.89,0,1.91-.56,2.7-1.44v-7.42l1.62-.49h.07v8.12l.39,1.3Z"/><path d="M223.34,363.67l-.46-1.48c-.87.95-1.95,1.53-3.2,1.53-2.32,0-4.07-2-4.07-4.83,0-3.08,2.11-5.17,4.61-5.17,1.04,0,1.93.36,2.62.99v-5.26l1.62-.54h.07v12.95l.39,1.3-1.59.5ZM222.84,361.78v-5.92c-.45-1.1-1.36-1.82-2.46-1.82-1.75,0-2.95,1.78-2.95,4.68s1.18,4.41,2.8,4.41c.89,0,1.82-.45,2.61-1.35Z"/><path d="M229.72,358.05v.32c0,2.99,1.45,4.57,3.37,4.57,1.07,0,2.34-.54,3.16-1.73l.21.13c-1.02,1.57-2.43,2.38-4.11,2.38-2.55,0-4.45-1.93-4.45-4.84,0-3.12,2.05-5.15,4.8-5.15,2.57,0,3.89,1.78,3.86,4.32h-6.86ZM229.74,357.76h5.21c.11-2.27-.86-3.76-2.37-3.76s-2.66,1.57-2.84,3.76Z"/><path d="M247.09,363.67l-.46-1.48c-.88.95-1.95,1.53-3.2,1.53-2.32,0-4.07-2-4.07-4.83,0-3.08,2.11-5.17,4.61-5.17,1.04,0,1.93.36,2.62.99v-5.26l1.62-.54h.07v12.95l.39,1.3-1.59.5ZM246.59,361.78v-5.92c-.45-1.1-1.36-1.82-2.46-1.82-1.75,0-2.95,1.78-2.95,4.68s1.18,4.41,2.8,4.41c.89,0,1.82-.45,2.61-1.35Z"/><path d="M21.35,376.84h-.04c-1.43-.68-2.43-.96-3.5-.96h-.41v12.78h-1.82v-12.78h-.43c-1.07,0-2.07.27-3.5.96h-.04l.25-1.28h9.25l.23,1.28Z"/><path d="M35.3,379.11c-.7,1.55-1.25,2.97-2.23,5.49l-1.68,4.34h-.12l-2.61-7.09-2.68,7.09h-.12l-3.89-9.83h1.8l2.84,7.24,2.7-7.24h.11l2.66,7.18.7-1.84c1.02-2.63,1.39-4.27,1.48-5.35h1.05Z"/><path d="M37.8,376.17l1.21-1.22,1.21,1.22-1.21,1.22-1.21-1.22ZM38.18,379.4l1.61-.49h.07v9.76h-1.68v-9.27Z"/><path d="M43.14,388.02l.27-.92c.73.86,1.87,1.53,3.28,1.53s2.32-.76,2.32-1.84c0-1.15-1.09-1.62-2.21-2.09l-.73-.31c-1.16-.5-2.75-1.17-2.75-2.88,0-1.51,1.29-2.63,3.32-2.63,1.27,0,2.46.4,3.09.76l-.25.85c-.62-.61-1.73-1.35-3-1.35s-2.02.76-2.02,1.64c0,1.13,1.23,1.58,2.23,2.02l.71.31c1.12.47,2.75,1.15,2.75,2.93,0,1.64-1.36,2.84-3.64,2.84-1.2,0-2.57-.34-3.37-.86Z"/><path d="M58.69,388.04c-.75.5-1.5.85-2.5.85-2.2,0-2.32-1.69-2.32-2.47v-6.91h-1.37v-.31l1.3-.09,1.7-3.06h.07v3.06h3.05l-.23.4h-2.82v6.88c0,.52,0,1.89,1.45,1.89.41,0,.95-.11,1.54-.45l.14.22Z"/><path d="M66.55,376.17l1.21-1.22,1.21,1.22-1.21,1.22-1.21-1.22ZM66.93,379.4l1.61-.49h.07v9.76h-1.68v-9.27Z"/><path d="M80.71,382.29v6.37h-1.7v-6.41c0-.74,0-2.72-2.09-2.72-.93,0-1.82.38-2.73,1.28v7.85h-1.7v-9.27l1.62-.49h.07v1.55c1-.97,2.04-1.57,3.46-1.57,1.98,0,3.05,1.08,3.05,3.4Z"/><path d="M101.68,382.73v4.52c-1.14.85-2.77,1.64-5.07,1.64-4.16,0-6.94-2.47-6.94-6.68s2.95-6.86,6.84-6.86c2.09,0,3.84.9,4.89,2.11l-.89.81c-.89-1.51-2.3-2.63-4.16-2.63-2.86,0-4.68,2.54-4.68,6.45s2,6.48,5.04,6.48c1.3,0,2.52-.45,3.3-1.08v-4.43h-2.98l-.2-.32h4.86Z"/><path d="M110.65,379.03l-.5,1.33c-.32-.14-.7-.22-.98-.22-.96,0-1.79.7-2.23,1.66v6.86h-1.7v-9.27l1.59-.49h.07v2.38c.66-1.46,1.66-2.36,2.91-2.36.32,0,.62.05.84.11Z"/><path d="M112.17,383.95c0-3.04,2.09-5.06,4.87-5.06s4.71,1.89,4.71,4.95-2.09,5.04-4.87,5.04-4.71-1.87-4.71-4.93ZM119.93,383.95c0-2.88-1.23-4.81-3-4.81s-2.95,1.85-2.95,4.7,1.23,4.79,3,4.79,2.95-1.85,2.95-4.68Z"/><path d="M133.58,388.33l-1.59.5-.5-1.57v-.04c-.87.95-2.05,1.66-3.43,1.66-1.98,0-3.05-1.08-3.05-3.38v-6.1l1.62-.49h.07v6.63c0,.74,0,2.72,2.09,2.72.89,0,1.91-.56,2.7-1.44v-7.42l1.62-.49h.07v8.12l.39,1.3Z"/><path d="M145.26,382.29v6.37h-1.7v-6.41c0-.74,0-2.72-2.09-2.72-.93,0-1.82.38-2.73,1.28v7.85h-1.7v-9.27l1.62-.49h.07v1.55c1-.97,2.04-1.57,3.46-1.57,1.98,0,3.05,1.08,3.05,3.4Z"/><path d="M156.28,388.83l-.46-1.48c-.87.95-1.95,1.53-3.2,1.53-2.32,0-4.07-2-4.07-4.83,0-3.08,2.11-5.17,4.61-5.17,1.04,0,1.93.36,2.62.99v-5.26l1.62-.54h.07v12.95l.39,1.3-1.59.5ZM155.78,386.94v-5.92c-.45-1.1-1.36-1.82-2.46-1.82-1.75,0-2.95,1.78-2.95,4.68s1.18,4.41,2.8,4.41c.89,0,1.82-.45,2.61-1.35Z"/><path d="M166.43,387.93l.32-1.13c.86,1.06,2.55,1.8,4,1.8,1.73,0,2.91-1.08,2.91-2.56,0-1.73-1.54-2.5-2.86-3.12l-.89-.4c-1.41-.65-3.29-1.58-3.29-3.73,0-1.98,1.62-3.46,4.11-3.46,1.46,0,2.91.52,3.64.95l-.29,1.01c-.79-.83-2.07-1.67-3.55-1.67-1.66,0-2.61,1.04-2.61,2.3,0,1.55,1.36,2.23,2.79,2.9l.89.41c1.61.76,3.34,1.62,3.34,3.85s-1.84,3.78-4.36,3.78c-1.55,0-3.36-.54-4.16-.95Z"/><path d="M183.41,388.04c-.75.5-1.5.85-2.5.85-2.2,0-2.32-1.69-2.32-2.47v-6.91h-1.37v-.31l1.3-.09,1.7-3.06h.07v3.06h3.05l-.23.4h-2.82v6.88c0,.52,0,1.89,1.45,1.89.41,0,.95-.11,1.54-.45l.14.22Z"/><path d="M194.05,388.24v.11c-.29.18-.84.45-1.48.45-1.14,0-1.37-.85-1.41-1.33-.93.88-2.18,1.39-3.3,1.39-1.5,0-2.5-.88-2.5-2.21,0-1.67,1.59-2.72,4.03-2.99.64-.07,1.21-.11,1.75-.16v-1.03c0-1.78-.52-2.97-2.29-2.97-.96,0-1.8.34-2.68,1.08l-.16-.2c.96-.9,1.96-1.48,3.5-1.48,2.2,0,3.32,1.08,3.32,3.4v4.61c0,.86,0,1.37.87,1.37.12,0,.23-.02.34-.04ZM191.14,387.12v-3.37c-2.43.25-4.11.85-4.11,2.59,0,1.26.79,1.85,1.75,1.85.77,0,1.62-.36,2.36-1.08Z"/><path d="M198.63,374.08h.07v14.58h-1.68v-14.04l1.61-.54ZM204.91,386.78v2.29h-.09l-5.66-5.8,1.57-1.37c1.39-1.22,2.18-1.95,2.89-2.79h1.23v.04c-1.41.94-2.54,1.78-3.93,3.02l-.32.29,4.3,4.32Z"/><path d="M208.81,383.21v.32c0,2.99,1.45,4.57,3.37,4.57,1.07,0,2.34-.54,3.16-1.73l.21.13c-1.02,1.57-2.43,2.38-4.11,2.38-2.55,0-4.45-1.93-4.45-4.84,0-3.12,2.05-5.15,4.8-5.15,2.57,0,3.89,1.78,3.86,4.32h-6.86ZM208.82,382.92h5.21c.11-2.27-.86-3.76-2.37-3.76s-2.66,1.57-2.84,3.76Z"/><path d="M224.72,375.56h1.82v13.11h-1.82v-13.11Z"/><path d="M238.72,382.29v6.37h-1.7v-6.41c0-.74,0-2.72-2.09-2.72-.93,0-1.82.38-2.73,1.28v7.85h-1.7v-9.27l1.62-.49h.07v1.55c1-.97,2.04-1.57,3.46-1.57,1.98,0,3.05,1.08,3.05,3.4Z"/><path d="M242.01,383.99c0-3.06,2.09-5.1,4.68-5.1,1.62,0,2.8.63,3.59,1.64l-.73.65c-.75-1.21-1.57-2.02-2.77-2.02-1.71,0-2.93,1.73-2.93,4.43,0,2.93,1.38,4.52,3.25,4.52,1.04,0,2.25-.54,3.07-1.73l.21.13c-.95,1.44-2.25,2.38-3.98,2.38-2.5,0-4.39-1.93-4.39-4.9Z"/><path d="M253.46,374.62l1.62-.54h.07v14.58h-1.7v-14.04Z"/><path d="M267.51,388.33l-1.59.5-.5-1.57v-.04c-.88.95-2.05,1.66-3.43,1.66-1.98,0-3.05-1.08-3.05-3.38v-6.1l1.62-.49h.07v6.63c0,.74,0,2.72,2.09,2.72.89,0,1.91-.56,2.7-1.44v-7.42l1.62-.49h.07v8.12l.39,1.3Z"/><path d="M278.22,388.83l-.46-1.48c-.88.95-1.95,1.53-3.2,1.53-2.32,0-4.07-2-4.07-4.83,0-3.08,2.11-5.17,4.61-5.17,1.04,0,1.93.36,2.62.99v-5.26l1.62-.54h.07v12.95l.39,1.3-1.59.5ZM277.72,386.94v-5.92c-.45-1.1-1.36-1.82-2.46-1.82-1.75,0-2.95,1.78-2.95,4.68s1.18,4.41,2.8,4.41c.89,0,1.82-.45,2.61-1.35Z"/><path d="M284.6,383.21v.32c0,2.99,1.45,4.57,3.37,4.57,1.07,0,2.34-.54,3.16-1.73l.21.13c-1.02,1.57-2.43,2.38-4.11,2.38-2.55,0-4.45-1.93-4.45-4.84,0-3.12,2.05-5.15,4.8-5.15,2.57,0,3.89,1.78,3.86,4.32h-6.86ZM284.62,382.92h5.21c.11-2.27-.86-3.76-2.37-3.76s-2.66,1.57-2.84,3.76Z"/><path d="M301.98,388.83l-.46-1.48c-.88.95-1.95,1.53-3.2,1.53-2.32,0-4.07-2-4.07-4.83,0-3.08,2.11-5.17,4.61-5.17,1.04,0,1.93.36,2.62.99v-5.26l1.62-.54h.07v12.95l.39,1.3-1.59.5ZM301.48,386.94v-5.92c-.45-1.1-1.36-1.82-2.46-1.82-1.75,0-2.95,1.78-2.95,4.68s1.18,4.41,2.8,4.41c.89,0,1.82-.45,2.61-1.35Z"/><path d="M12.74,400.72h1.82v13.11h-1.82v-13.11Z"/><path d="M27.33,404.32c0,2.45-1.93,4.03-5.04,4.03-.55,0-1.16-.05-1.55-.11v5.58h-1.82v-13.11h3.37c3.34,0,5.04,1.3,5.04,3.6ZM25.4,404.54c0-2.07-1.04-3.53-3.37-3.53h-1.29v6.93c.32.07.73.13,1.25.13,2.27,0,3.41-1.33,3.41-3.53Z"/><path d="M35.58,406.27l4.14,5.28v2.68h-.09l-5.25-6.63-1.18,1.66c-1.43,2.05-1.95,3.49-2.16,4.57h-1.89c1.04-1.08,2.41-2.84,3.78-4.77l1.21-1.75-5.21-6.59h2.29l4.12,5.26.5-.7c1.43-2.03,2.27-3.47,2.57-4.56h1.41c-.96,1.08-2.21,2.63-3.7,4.75l-.55.79Z"/><path d="M50.21,409.8c0,2.56-2.05,4.25-4.62,4.25-1.07,0-2.21-.27-3.23-.81l.25-.86c.8.9,1.71,1.39,2.93,1.39,1.82,0,3.2-1.37,3.2-3.31s-1.5-3.55-4.96-3.55h-.61l.54-6.18h6.28l-.43,1.28h-5.61l-.29,3.35h.71c4.02,0,5.84,1.96,5.84,4.45Z"/><path d="M3.7,105.43c0,1.02-.83,1.85-1.85,1.85s-1.85-.83-1.85-1.85.83-1.85,1.85-1.85,1.85.83,1.85,1.85Z"/><path d="M3.7,179.47c0,1.02-.83,1.85-1.85,1.85s-1.85-.83-1.85-1.85.83-1.85,1.85-1.85,1.85.83,1.85,1.85Z"/><path d="M3.7,206.13c0,1.02-.83,1.85-1.85,1.85s-1.85-.83-1.85-1.85.83-1.85,1.85-1.85,1.85.83,1.85,1.85Z"/><path d="M3.7,232.8c0,1.02-.83,1.85-1.85,1.85s-1.85-.83-1.85-1.85.83-1.85,1.85-1.85,1.85.83,1.85,1.85Z"/><path d="M3.7,332.62c0,1.02-.83,1.85-1.85,1.85s-1.85-.83-1.85-1.85.83-1.85,1.85-1.85,1.85.83,1.85,1.85Z"/><path d="M3.7,357.03c0,1.02-.83,1.85-1.85,1.85s-1.85-.83-1.85-1.85.83-1.85,1.85-1.85,1.85.83,1.85,1.85Z"/><path d="M3.7,381.45c0,1.02-.83,1.85-1.85,1.85s-1.85-.83-1.85-1.85.83-1.85,1.85-1.85,1.85.83,1.85,1.85Z"/><path d="M3.7,405.87c0,1.02-.83,1.85-1.85,1.85s-1.85-.83-1.85-1.85.83-1.85,1.85-1.85,1.85.83,1.85,1.85Z"/><line class="cls-1" x1="138.61" y1=".38" x2="342.47" y2=".38"/><path class="cls-3" d="M177.25,11.41c-1.21,3.12-2.1,5.85-3.34,9.57l-4.12,12.75h-.11l-5.49-17.1-5.61,17.1h-.11l-7.23-22.32h3.05l5.44,17.04,5.61-17.04h.11l5.47,17.04,2.47-7.65c1.46-4.38,1.91-7.2,2.13-9.39h1.74Z"/><path class="cls-3" d="M187.48,26.08h-7.96c-1.23,3.51-1.57,5.4-1.65,7.17h-1.93c1.35-3,2.41-5.79,3.87-9.57l4.88-12.75h.11l8.49,22.32h-3.11l-2.69-7.17ZM187.28,25.54l-3.78-10.02-3.17,8.37-.62,1.65h7.57Z"/><path class="cls-3" d="M210.83,30.1v3.81h-.17l-8.3-9.9c-.39-.48-.67-.63-1.46-.63h-1.88v9.87h-2.86V11.41h5.02c5.38,0,8.27,1.8,8.27,5.52,0,3.09-2.24,4.71-4.91,5.7l6.28,7.47ZM206.56,17.14c0-3.18-1.79-5.25-5.49-5.25h-2.05v10.83c.65.12,2.02.18,2.58.18,3.06,0,4.96-2.64,4.96-5.76Z"/><path class="cls-3" d="M232.15,33.25l-1.74-19.95-6.87,18.57h-.11l-7.6-17.82-.79,9.63c-.36,4.2-.34,7.17-.11,9.57h-1.68c.5-2.4.87-5.4,1.23-9.6l.9-10.74-.62-1.41v-.09h3.08l6.75,16.05,5.91-16.05h2.58l1.91,21.84h-2.86Z"/><path class="cls-3" d="M269.12,11.41c-1.2,3.12-2.1,5.85-3.34,9.57l-4.12,12.75h-.11l-5.49-17.1-5.61,17.1h-.11l-7.23-22.32h3.05l5.44,17.04,5.61-17.04h.11l5.47,17.04,2.47-7.65c1.46-4.38,1.91-7.2,2.13-9.39h1.74Z"/><path class="cls-3" d="M287.67,11.41v21.84h-2.86v-11.1h-9.98v11.1h-2.86V11.41h2.86v10.2h9.98v-10.2h2.86Z"/><path class="cls-3" d="M292.54,11.41h2.86v21.84h-2.86V11.41Z"/><path class="cls-3" d="M313.79,13.54h-.06c-2.24-1.14-3.81-1.59-5.49-1.59h-.64v21.3h-2.86V11.95h-.67c-1.68,0-3.25.45-5.49,1.59h-.06l.39-2.13h14.52l.37,2.13Z"/><path class="cls-3" d="M329.51,31.24l-.53,2.01h-12.08V11.41h11.74l.34,1.89h-.06c-2.58-.93-5.19-1.35-7.62-1.35h-1.54v9.66h1.29c3.03,0,5.02-.21,5.89-.6h.06v1.86h-.06c-.87-.39-2.86-.72-5.89-.72h-1.29v10.56h1.63c2.41,0,5.38-.39,8.07-1.47h.06Z"/><path class="cls-2" d="M144.35,46.39v10.02h1.01c3.03,0,5.02-.21,5.89-.6h.06v1.86h-.06c-.87-.39-2.86-.72-5.89-.72h-1.01v10.74h-2.86v-21.84h11.27l.36,1.89h-.06c-2.58-.93-5.21-1.35-7.62-1.35h-1.09Z"/><path class="cls-2" d="M166.55,65.44l-.53,2.25h-9.75v-21.84h2.86v21.3h.53c1.68,0,3.92-.33,6.84-1.71h.06Z"/><path class="cls-2" d="M169.71,45.85h2.86v21.84h-2.86v-21.84Z"/><path class="cls-2" d="M176.49,56.95c0-6.99,4.46-11.46,10.37-11.46,3.31,0,6.05,1.56,7.65,3.51l-1.4,1.35c-1.43-2.55-3.67-4.38-6.39-4.38-4.29,0-7.09,4.38-7.09,10.23,0,6.63,3.39,10.53,7.91,10.53,2.44,0,5.1-1.11,6.92-4.11l.34.21c-1.85,3.21-4.71,5.22-8.52,5.22-5.61,0-9.78-4.35-9.78-11.1Z"/><path class="cls-2" d="M197.96,45.85h2.86v21.84h-2.86v-21.84ZM206.09,52.87l-2.02,2.07,9.28,9.54v3.87h-.17l-11.46-11.85,4.01-4.08c3.03-3.06,4.6-5.1,5.38-6.57h2.24v.06c-2.38,2.1-4.65,4.32-7.26,6.96Z"/><path class="cls-2" d="M229.26,65.68l-.53,2.01h-12.08v-21.84h11.74l.34,1.89h-.06c-2.58-.93-5.19-1.35-7.62-1.35h-1.54v9.66h1.29c3.03,0,5.02-.21,5.89-.6h.06v1.86h-.06c-.87-.39-2.86-.72-5.89-.72h-1.29v10.56h1.63c2.41,0,5.38-.39,8.07-1.47h.06Z"/><path class="cls-2" d="M247.26,64.54v3.81h-.17l-8.3-9.9c-.39-.48-.67-.63-1.46-.63h-1.88v9.87h-2.86v-21.84h5.02c5.38,0,8.27,1.8,8.27,5.52,0,3.09-2.24,4.71-4.91,5.7l6.28,7.47ZM243,51.58c0-3.18-1.79-5.25-5.49-5.25h-2.05v10.83c.65.12,2.02.18,2.58.18,3.06,0,4.96-2.64,4.96-5.76Z"/><path class="cls-2" d="M260.26,46.39v10.02h1.01c3.03,0,5.02-.21,5.89-.6h.06v1.86h-.06c-.87-.39-2.86-.72-5.89-.72h-1.01v10.74h-2.86v-21.84h11.27l.36,1.89h-.06c-2.58-.93-5.21-1.35-7.62-1.35h-1.09Z"/><path class="cls-2" d="M282.45,65.44l-.53,2.25h-9.75v-21.84h2.86v21.3h.53c1.68,0,3.92-.33,6.84-1.71h.06Z"/><path class="cls-2" d="M295.04,60.52h-7.96c-1.23,3.51-1.57,5.4-1.65,7.17h-1.93c1.35-3,2.41-5.79,3.87-9.57l4.88-12.75h.11l8.49,22.32h-3.11l-2.69-7.17ZM294.84,59.98l-3.78-10.02-3.17,8.37-.62,1.65h7.57Z"/><path class="cls-2" d="M321.61,67.69l-1.74-19.95-6.87,18.57h-.11l-7.6-17.82-.79,9.63c-.36,4.2-.34,7.17-.11,9.57h-1.68c.5-2.4.87-5.4,1.23-9.6l.9-10.74-.62-1.41v-.09h3.08l6.75,16.05,5.91-16.05h2.58l1.91,21.84h-2.86Z"/><path class="cls-2" d="M341.14,65.68l-.53,2.01h-12.08v-21.84h11.74l.34,1.89h-.06c-2.58-.93-5.19-1.35-7.62-1.35h-1.54v9.66h1.29c3.03,0,5.02-.21,5.89-.6h.06v1.86h-.06c-.87-.39-2.86-.72-5.89-.72h-1.29v10.56h1.63c2.41,0,5.38-.39,8.07-1.47h.06Z"/></g></svg>