<?xml version="1.0" encoding="UTF-8"?><svg id="_圖層_2" xmlns="http://www.w3.org/2000/svg" viewBox="0 0 527.94 219.6"><defs><style>.cls-1{fill:#fff;}</style></defs><g id="_圖層_1-2"><path class="cls-1" d="M26.57,14.82c-.26-1.63-1.1-2.6-2.19-3.19-1.1-.58-2.45-.84-3.93-.84-3.35,0-4.84.97-4.84,2.67,0,7.02,26.7,2.66,26.7,19.7,0,10.86-8.97,16.12-21.74,16.12S.32,42.06,0,33.61h14.58c.32,1.69,1.23,2.92,2.52,3.7,1.23.78,2.84,1.17,4.32,1.17,3.81,0,6.32-1.23,6.32-3.44,0-7.09-26.7-2.21-26.7-20.09C1.03,5.01,9.55,0,21.16,0c12.9,0,18.77,6.63,19.87,14.82h-14.45Z"/><path class="cls-1" d="M49.47,1.24h13.42v17.03c2.71-3.44,5.74-5.26,10.26-5.26,8.9,0,13.09,5.26,13.09,14.62v20.41h-13.42v-18.01c0-3.38-.9-6.37-4.71-6.37-4.13,0-5.22,2.67-5.22,7.02v17.36h-13.42V1.24Z"/><path class="cls-1" d="M118.35,48.04l-.64-3.64c-3.81,3.58-7.68,4.62-12.71,4.62-6.39,0-12.06-3.18-12.06-10.27,0-15.47,24.06-8.45,24.06-14.82,0-2.47-2.97-2.79-4.39-2.79-1.87,0-4.39.39-4.71,3.32h-12.9c0-7.22,5.1-11.44,18.45-11.44,16,0,16.96,5.98,16.96,14.11v15.93c0,1.95.06,2.92,1.81,4.35v.65h-13.87ZM116.99,32.96c-4.39,2.14-10.19,1.1-10.19,5.52,0,1.69,1.61,2.86,4.26,2.86,4.71,0,6.26-3.71,5.93-8.38Z"/><path class="cls-1" d="M161.69,48.04c-17.61.97-19.74-.26-19.74-12.03v-14.24h-4.77v-7.8h4.97V3.38h13.22v10.59h6.45v7.8h-6.45v12.35c0,3.12.45,4.22,4.19,4.22h2.13v9.69Z"/><path class="cls-1" d="M192.25,48.04c-17.61.97-19.74-.26-19.74-12.03v-14.24h-4.77v-7.8h4.97V3.38h13.22v10.59h6.45v7.8h-6.45v12.35c0,3.12.45,4.22,4.19,4.22h2.13v9.69Z"/><path class="cls-1" d="M212.83,34.06c0,4.03,3.1,6.7,6.64,6.7,2.13,0,4.06-.97,5.03-2.99h12.84c-2.32,8.45-10.84,11.25-18.7,11.25-10.84,0-19.22-6.24-19.22-17.68s8.32-18.33,19.16-18.33c12.51,0,20.06,8.71,19.87,21.06h-25.61ZM225.02,27.17c0-3.12-2.77-5.92-5.93-5.92-4,0-6.26,2.28-6.26,5.92h12.19Z"/><path class="cls-1" d="M245.72,13.98h12.19v6.89h.13c1.87-5.33,5.16-7.87,10.38-7.87.58,0,1.16.13,1.74.19v13.52c-.9-.13-1.87-.39-2.77-.39-5.48,0-8.26,2.6-8.26,9.95v11.77h-13.42V13.98Z"/><path class="cls-1" d="M300.02,48.04V1.24h22.38c13.35,0,19.8,6.17,19.8,15.8s-5.93,16.45-19.29,16.45h-7.68v14.56h-15.22ZM321.56,22.56c3.55,0,6.13-1.43,6.13-5.46,0-4.35-4.9-4.94-8.13-4.94h-4.32v10.4h6.32Z"/><path class="cls-1" d="M348.19,13.98h12.19v6.89h.13c1.87-5.33,5.16-7.87,10.38-7.87.58,0,1.16.13,1.74.19v13.52c-.9-.13-1.87-.39-2.77-.39-5.48,0-8.26,2.6-8.26,9.95v11.77h-13.42V13.98Z"/><path class="cls-1" d="M395.66,13c11.93,0,19.29,7.09,19.29,17.68,0,12.48-8.38,18.33-19.22,18.33s-19.22-5.98-19.22-17.62,7.74-18.4,19.16-18.4ZM389.92,30.68c0,6.44,2.39,9.23,5.8,9.23,3.61,0,5.81-2.79,5.81-9.23,0-5.01-2.19-8.78-5.68-8.58-4.58,0-5.93,4.75-5.93,8.58Z"/><path class="cls-1" d="M440.61,13c11.93,0,19.29,7.09,19.29,17.68,0,12.48-8.38,18.33-19.22,18.33s-19.22-5.98-19.22-17.62,7.74-18.4,19.16-18.4ZM434.87,30.68c0,6.44,2.39,9.23,5.8,9.23,3.61,0,5.81-2.79,5.81-9.23,0-5.01-2.19-8.78-5.68-8.58-4.58,0-5.93,4.75-5.93,8.58Z"/><path class="cls-1" d="M488.21,13.98v7.8h-5.61v26.26h-13.42v-26.26h-4.45v-7.8h4.51c0-12.03,4.64-13.98,13.22-13.98h5.74v8.52c-4.39,0-5.93,0-5.61,5.46h5.61Z"/><path class="cls-1" d="M1.55,113.04v-46.8h22.38c13.35,0,19.8,6.17,19.8,15.8s-5.93,16.45-19.29,16.45h-7.68v14.56H1.55ZM23.09,87.56c3.55,0,6.13-1.43,6.13-5.46,0-4.35-4.9-4.94-8.13-4.94h-4.32v10.4h6.32Z"/><path class="cls-1" d="M67.78,78c11.93,0,19.29,7.09,19.29,17.68,0,12.48-8.38,18.33-19.22,18.33s-19.22-5.98-19.22-17.62,7.74-18.4,19.16-18.4ZM62.04,95.68c0,6.44,2.39,9.23,5.8,9.23,3.61,0,5.81-2.79,5.81-9.23,0-5.01-2.19-8.78-5.68-8.58-4.58,0-5.93,4.75-5.93,8.58Z"/><path class="cls-1" d="M95.32,113.04v-46.8h13.42v46.8h-13.42Z"/><path class="cls-1" d="M134.53,99.97l5.87-21h12.9l-10.84,31.79c-3.55,10.53-4.97,13.85-16.9,13.85-2.45,0-4.9-.26-5.93-.26v-9.43c.97,0,1.87.07,2.77.07,4.19,0,5.16-1.24,3.81-5l-11.09-31.01h13.48l5.93,21Z"/><path class="cls-1" d="M182.32,91.98c-.06-1.5-.58-2.67-1.42-3.51-.84-.91-2-1.36-3.48-1.36-5.03,0-5.87,5.26-5.87,9.29,0,5.13,1.93,8.52,5.87,8.52,3.48,0,4.84-2.41,5.22-5.07h13.54c-1.16,10.33-9.42,14.17-18.77,14.17-10.9,0-19.29-6.17-19.29-17.68s8.13-18.33,19.29-18.33c9.03,0,17.54,3.9,18.51,13.98h-13.61Z"/><path class="cls-1" d="M228.05,113.04l-.65-3.64c-3.81,3.58-7.68,4.62-12.71,4.62-6.39,0-12.06-3.18-12.06-10.27,0-15.47,24.06-8.45,24.06-14.82,0-2.47-2.97-2.79-4.39-2.79-1.87,0-4.39.39-4.71,3.32h-12.9c0-7.22,5.1-11.44,18.45-11.44,16,0,16.96,5.98,16.96,14.11v15.93c0,1.95.06,2.92,1.81,4.35v.65h-13.87ZM226.69,97.96c-4.39,2.14-10.19,1.1-10.19,5.52,0,1.69,1.61,2.86,4.26,2.86,4.71,0,6.26-3.71,5.93-8.38Z"/><path class="cls-1" d="M249.33,78.98h12.19v6.89h.13c1.87-5.33,5.16-7.87,10.38-7.87.58,0,1.16.13,1.74.19v13.52c-.9-.13-1.87-.39-2.77-.39-5.48,0-8.26,2.6-8.26,9.95v11.77h-13.42v-34.06Z"/><path class="cls-1" d="M293.06,82.42c2.64-3.12,5.74-4.42,9.74-4.42,8.64,0,14.71,7.54,14.71,17.81s-4.26,18.2-15.29,18.2c-5.61,0-8.71-2.54-10.38-5.79h-.13v4.81h-12.06v-46.8h13.42v16.19ZM304.08,96.27c0-3.64-1.35-7.8-5.68-7.8-4.06,0-5.68,4.03-5.68,7.54s1.29,8.25,5.68,8.25,5.68-4.29,5.68-8Z"/><path class="cls-1" d="M342.91,78c11.93,0,19.29,7.09,19.29,17.68,0,12.48-8.38,18.33-19.22,18.33s-19.22-5.98-19.22-17.62,7.74-18.4,19.16-18.4ZM337.17,95.68c0,6.44,2.39,9.23,5.8,9.23,3.61,0,5.81-2.79,5.81-9.23,0-5.01-2.19-8.78-5.68-8.58-4.58,0-5.93,4.75-5.93,8.58Z"/><path class="cls-1" d="M369.54,78.98h12.25v5.33c3.03-4.09,6.32-6.3,11.42-6.3,8.9,0,13.09,5.26,13.09,14.62v20.41h-13.42v-18.01c0-3.38-.9-6.37-4.71-6.37-4.13,0-5.22,2.67-5.22,7.02v17.36h-13.42v-34.06Z"/><path class="cls-1" d="M438.42,113.04l-.64-3.64c-3.81,3.58-7.68,4.62-12.71,4.62-6.39,0-12.06-3.18-12.06-10.27,0-15.47,24.06-8.45,24.06-14.82,0-2.47-2.97-2.79-4.39-2.79-1.87,0-4.39.39-4.71,3.32h-12.9c0-7.22,5.1-11.44,18.45-11.44,16,0,16.96,5.98,16.96,14.11v15.93c0,1.95.06,2.92,1.81,4.35v.65h-13.87ZM437.07,97.96c-4.39,2.14-10.19,1.1-10.19,5.52,0,1.69,1.61,2.86,4.26,2.86,4.71,0,6.26-3.71,5.93-8.38Z"/><path class="cls-1" d="M481.76,113.04c-17.61.97-19.74-.26-19.74-12.03v-14.24h-4.77v-7.8h4.97v-10.59h13.22v10.59h6.45v7.8h-6.45v12.35c0,3.12.45,4.22,4.19,4.22h2.13v9.69Z"/><path class="cls-1" d="M502.33,99.06c0,4.03,3.1,6.7,6.64,6.7,2.13,0,4.06-.97,5.03-2.99h12.84c-2.32,8.45-10.84,11.25-18.7,11.25-10.84,0-19.22-6.24-19.22-17.68s8.32-18.33,19.16-18.33c12.51,0,20.06,8.71,19.87,21.06h-25.61ZM514.52,92.17c0-3.12-2.77-5.92-5.93-5.92-4,0-6.26,2.28-6.26,5.92h12.19Z"/><path class="cls-1" d="M7.87,189.61c-3.42-6.63-6.97-16.38-6.97-29.58,0-11.9,3.93-21.13,7.03-28.8h11.48c-3.48,9.23-6.06,19.05-6.06,28.99s2.26,20.02,5.87,29.38H7.87Z"/><path class="cls-1" d="M28.57,178.04v-46.8h22.38c13.35,0,19.8,6.17,19.8,15.8s-5.93,16.45-19.29,16.45h-7.68v14.56h-15.22ZM50.11,152.56c3.55,0,6.13-1.43,6.13-5.46,0-4.35-4.9-4.94-8.13-4.94h-4.32v10.4h6.32Z"/><path class="cls-1" d="M106.87,149.11c-.45-4.88-3.48-7.67-8.26-7.67-5.35,0-8.58,4.62-8.58,13.65,0,6.57,1.42,12.74,9.16,12.74,4.9,0,7.22-3.45,7.8-7.93h14.64c-1.35,12.09-9.93,19.37-22.19,19.37-15.35,0-24.64-9.49-24.64-24.7s10.19-24.57,23.16-24.57c14.19,0,22.12,7.09,23.35,19.11h-14.45Z"/><path class="cls-1" d="M140.6,131.24c3.42,6.63,6.97,16.38,6.97,29.58,0,11.9-3.93,21.13-7.03,28.8h-11.48c3.48-9.23,6.06-19.05,6.06-28.99s-2.26-20.02-5.87-29.38h11.35Z"/><path class="cls-1" d="M180.84,178.04v-46.8h15.22v35.88h20.9v10.92h-36.12Z"/><path class="cls-1" d="M236.3,164.06c0,4.03,3.1,6.7,6.64,6.7,2.13,0,4.06-.97,5.03-2.99h12.84c-2.32,8.45-10.84,11.25-18.7,11.25-10.84,0-19.22-6.24-19.22-17.68s8.32-18.33,19.16-18.33c12.51,0,20.06,8.71,19.87,21.06h-25.61ZM248.49,157.17c0-3.12-2.77-5.92-5.93-5.92-4,0-6.26,2.28-6.26,5.92h12.19Z"/><path class="cls-1" d="M268.94,143.98h12.25v5.33c3.03-4.09,6.32-6.3,11.42-6.3,8.9,0,13.09,5.26,13.09,14.62v20.41h-13.42v-18.01c0-3.38-.9-6.37-4.71-6.37-4.13,0-5.22,2.67-5.22,7.02v17.36h-13.42v-34.06Z"/><path class="cls-1" d="M325.69,167.44c0,1.37.52,2.41,1.42,3.12.84.65,2,1.04,3.29,1.04,2.06,0,4.26-.65,4.26-3.05,0-5.46-20.7-1.11-20.7-14.3,0-8.71,8.97-11.25,16-11.25s16,1.69,16.77,10.73h-12.19c-.13-1.11-.58-1.89-1.29-2.47-.71-.58-1.68-.84-2.71-.84-2.32,0-3.81.71-3.81,2.41,0,4.75,21.35,1.56,21.35,14.3,0,7.09-5.8,11.89-18.19,11.89-7.74,0-16.25-2.4-16.96-11.57h12.77Z"/><path class="cls-1" d="M356,178.04v-13.39h13.67v13.39h-13.67Z"/><path class="cls-1" d="M9.11,211.88l-.47,1.88H0v-18.2h2.53v17.75h.47c1.49,0,3.47-.27,6.05-1.42h.05Z"/><path class="cls-1" d="M22.62,213.15v.15c-.4.25-1.17.62-2.06.62-1.59,0-1.91-1.17-1.96-1.85-1.29,1.22-3.03,1.92-4.59,1.92-2.08,0-3.47-1.22-3.47-3.07,0-2.32,2.21-3.77,5.61-4.15.89-.1,1.69-.15,2.43-.22v-1.42c0-2.47-.72-4.12-3.18-4.12-1.34,0-2.51.47-3.72,1.5l-.22-.28c1.34-1.25,2.73-2.05,4.86-2.05,3.05,0,4.61,1.5,4.61,4.72v6.4c0,1.2,0,1.9,1.22,1.9.17,0,.32-.03.47-.05ZM18.58,211.6v-4.67c-3.37.35-5.71,1.17-5.71,3.6,0,1.75,1.09,2.58,2.43,2.58,1.07,0,2.26-.5,3.27-1.5Z"/><path class="cls-1" d="M37.41,206.9c0,4.27-2.93,7.15-6.4,7.15-1.91,0-3.4-.65-4.52-1.75l-1.39,1.55h-.1v-19.59l2.23-.75h.1v8.77c1.22-1.3,2.7-2.1,4.42-2.1,3.23,0,5.66,2.77,5.66,6.72ZM34.88,207.13c0-4.07-1.64-6.12-3.87-6.12-1.24,0-2.58.62-3.67,1.92v8.2c.65,1.52,1.91,2.52,3.45,2.52,2.41,0,4.09-2.5,4.09-6.52Z"/><path class="cls-1" d="M53.56,212.88c-1.04.7-2.08,1.17-3.47,1.17-3.05,0-3.23-2.35-3.23-3.42v-9.6h-1.91v-.42l1.81-.12,2.36-4.25h.1v4.25h4.24l-.32.55h-3.92v9.55c0,.72,0,2.62,2.01,2.62.57,0,1.31-.15,2.13-.62l.2.3Z"/><path class="cls-1" d="M56.85,206.18v.45c0,4.15,2.01,6.35,4.69,6.35,1.49,0,3.25-.75,4.39-2.4l.3.17c-1.41,2.17-3.37,3.3-5.71,3.3-3.55,0-6.18-2.67-6.18-6.72,0-4.32,2.85-7.15,6.67-7.15,3.57,0,5.41,2.47,5.36,6h-9.53ZM56.88,205.78h7.25c.15-3.15-1.19-5.22-3.3-5.22s-3.7,2.17-3.94,5.22Z"/><path class="cls-1" d="M68.34,212.85l.37-1.28c1.02,1.2,2.6,2.12,4.56,2.12s3.23-1.05,3.23-2.55c0-1.6-1.51-2.25-3.08-2.9l-1.02-.42c-1.61-.7-3.82-1.62-3.82-4,0-2.1,1.79-3.65,4.61-3.65,1.76,0,3.42.55,4.29,1.05l-.35,1.17c-.87-.85-2.41-1.87-4.17-1.87s-2.8,1.05-2.8,2.27c0,1.57,1.71,2.2,3.1,2.8l.99.43c1.56.65,3.82,1.6,3.82,4.07,0,2.27-1.89,3.95-5.06,3.95-1.66,0-3.57-.47-4.69-1.2Z"/><path class="cls-1" d="M88.21,212.88c-1.04.7-2.08,1.17-3.47,1.17-3.05,0-3.23-2.35-3.23-3.42v-9.6h-1.91v-.42l1.81-.12,2.36-4.25h.1v4.25h4.24l-.32.55h-3.92v9.55c0,.72,0,2.62,2.01,2.62.57,0,1.31-.15,2.13-.62l.2.3Z"/><path class="cls-1" d="M91.51,206.18v.45c0,4.15,2.01,6.35,4.69,6.35,1.49,0,3.25-.75,4.39-2.4l.3.17c-1.41,2.17-3.37,3.3-5.71,3.3-3.55,0-6.18-2.67-6.18-6.72,0-4.32,2.85-7.15,6.67-7.15,3.57,0,5.41,2.47,5.36,6h-9.53ZM91.53,205.78h7.25c.15-3.15-1.19-5.22-3.3-5.22s-3.7,2.17-3.94,5.22Z"/><path class="cls-1" d="M113.91,213.98l-.64-2.05c-1.22,1.32-2.7,2.12-4.44,2.12-3.23,0-5.66-2.77-5.66-6.7,0-4.27,2.93-7.17,6.4-7.17,1.44,0,2.68.5,3.65,1.37v-7.3l2.26-.75h.1v17.97l.55,1.8-2.21.7ZM113.21,211.35v-8.22c-.62-1.53-1.89-2.52-3.42-2.52-2.43,0-4.09,2.47-4.09,6.5s1.64,6.12,3.9,6.12c1.24,0,2.53-.62,3.62-1.88Z"/><path class="cls-1" d="M135.19,213.98l-.64-2.05c-1.22,1.32-2.7,2.12-4.44,2.12-3.23,0-5.66-2.77-5.66-6.7,0-4.27,2.93-7.17,6.4-7.17,1.44,0,2.68.5,3.65,1.37v-7.3l2.26-.75h.1v17.97l.55,1.8-2.21.7ZM134.5,211.35v-8.22c-.62-1.53-1.89-2.52-3.42-2.52-2.43,0-4.09,2.47-4.09,6.5s1.64,6.12,3.9,6.12c1.24,0,2.53-.62,3.62-1.88Z"/><path class="cls-1" d="M152.26,213.28l-2.21.7-.69-2.17v-.05c-1.22,1.33-2.85,2.3-4.76,2.3-2.75,0-4.24-1.5-4.24-4.7v-8.47l2.26-.67h.1v9.2c0,1.02,0,3.77,2.9,3.77,1.24,0,2.65-.77,3.75-2v-10.3l2.26-.67h.1v11.27l.55,1.8Z"/><path class="cls-1" d="M162.85,200.38l-.69,1.85c-.45-.2-.97-.3-1.36-.3-1.34,0-2.48.97-3.1,2.3v9.52h-2.36v-12.87l2.21-.67h.1v3.3c.92-2.03,2.31-3.27,4.04-3.27.45,0,.87.08,1.17.15Z"/><path class="cls-1" d="M175.32,213.15v.15c-.4.25-1.17.62-2.06.62-1.59,0-1.91-1.17-1.96-1.85-1.29,1.22-3.03,1.92-4.59,1.92-2.08,0-3.47-1.22-3.47-3.07,0-2.32,2.21-3.77,5.61-4.15.89-.1,1.69-.15,2.43-.22v-1.42c0-2.47-.72-4.12-3.18-4.12-1.34,0-2.51.47-3.72,1.5l-.22-.28c1.34-1.25,2.73-2.05,4.86-2.05,3.05,0,4.61,1.5,4.61,4.72v6.4c0,1.2,0,1.9,1.22,1.9.17,0,.32-.03.47-.05ZM171.28,211.6v-4.67c-3.37.35-5.71,1.17-5.71,3.6,0,1.75,1.09,2.58,2.43,2.58,1.07,0,2.26-.5,3.27-1.5Z"/><path class="cls-1" d="M190.11,206.9c0,4.27-2.93,7.15-6.4,7.15-1.91,0-3.4-.65-4.52-1.75l-1.39,1.55h-.1v-19.59l2.23-.75h.1v8.77c1.22-1.3,2.7-2.1,4.42-2.1,3.23,0,5.66,2.77,5.66,6.72ZM187.58,207.13c0-4.07-1.64-6.12-3.87-6.12-1.24,0-2.58.62-3.67,1.92v8.2c.65,1.52,1.91,2.52,3.45,2.52,2.41,0,4.09-2.5,4.09-6.52Z"/><path class="cls-1" d="M192.56,196.41l1.69-1.7,1.69,1.7-1.69,1.7-1.69-1.7ZM193.08,200.88l2.23-.67h.1v13.55h-2.33v-12.87Z"/><path class="cls-1" d="M199.16,194.26l2.26-.75h.1v20.25h-2.36v-19.5Z"/><path class="cls-1" d="M204.72,196.41l1.69-1.7,1.69,1.7-1.69,1.7-1.69-1.7ZM205.24,200.88l2.23-.67h.1v13.55h-2.33v-12.87Z"/><path class="cls-1" d="M218.83,212.88c-1.04.7-2.08,1.17-3.47,1.17-3.05,0-3.23-2.35-3.23-3.42v-9.6h-1.91v-.42l1.81-.12,2.36-4.25h.1v4.25h4.24l-.32.55h-3.92v9.55c0,.72,0,2.62,2.01,2.62.57,0,1.31-.15,2.13-.62l.2.3Z"/><path class="cls-1" d="M231.53,200.48c-1.04,2.15-1.84,4.17-3.18,7.42l-3.27,7.95c-1.19,2.87-3.1,3.75-5.33,3.75l.15-1.42c.4.12.82.17,1.22.17,1.22,0,2.73-.67,3.5-2.52l.82-2-5.78-13.35h2.53l4.47,10.35,1.29-3.1c1.34-3.27,2.01-5.72,2.16-7.25h1.44Z"/></g></svg>