<?xml version="1.0" encoding="UTF-8"?><svg id="_圖層_2" xmlns="http://www.w3.org/2000/svg" viewBox="0 0 1086.06 160.37"><defs><style>.cls-1{fill:#fff;}</style></defs><g id="_圖層_1-2"><path class="cls-1" d="M357.16,30.16h.13l5.22-28.93h14.71l-11.55,46.8h-14.96l-5.35-27.17h-.13l-5.29,27.17h-14.96l-11.55-46.8h14.71l5.22,28.93h.13l5.55-28.93h12.58l5.55,28.93Z"/><path class="cls-1" d="M404.18,48.04l-.64-3.64c-3.81,3.58-7.68,4.62-12.71,4.62-6.39,0-12.06-3.18-12.06-10.27,0-15.47,24.06-8.45,24.06-14.82,0-2.47-2.97-2.79-4.39-2.79-1.87,0-4.39.39-4.71,3.32h-12.9c0-7.22,5.1-11.44,18.45-11.44,16,0,16.96,5.98,16.96,14.11v15.93c0,1.95.06,2.92,1.81,4.35v.65h-13.87ZM402.83,32.96c-4.39,2.14-10.19,1.1-10.19,5.52,0,1.69,1.61,2.86,4.26,2.86,4.71,0,6.26-3.71,5.93-8.38Z"/><path class="cls-1" d="M425.46,13.98h12.19v6.89h.13c1.87-5.33,5.16-7.87,10.38-7.87.58,0,1.16.13,1.74.19v13.52c-.9-.13-1.87-.39-2.77-.39-5.48,0-8.26,2.6-8.26,9.95v11.77h-13.42V13.98Z"/><path class="cls-1" d="M456.74,13.98h12.32v5.07c1.68-2.6,5.87-6.04,10.71-6.04,6.06,0,9.42,2.6,11.03,6.24,2.9-4.1,6.71-6.24,11.67-6.24,9.87,0,12.96,5.59,12.96,14.89v20.15h-13.42v-17.36c0-5.01-.97-7.02-4.52-7.02-3.93,0-4.71,3.45-4.71,7.54v16.84h-13.42v-17.36c0-5.01-.97-7.02-4.51-7.02-3.93,0-4.71,3.45-4.71,7.54v16.84h-13.42V13.98Z"/><path class="cls-1" d="M587.73,30.16h.13l5.22-28.93h14.71l-11.55,46.8h-14.96l-5.35-27.17h-.13l-5.29,27.17h-14.96l-11.55-46.8h14.71l5.22,28.93h.13l5.55-28.93h12.58l5.55,28.93Z"/><path class="cls-1" d="M613.2,1.24h13.42v17.03c2.71-3.44,5.74-5.26,10.26-5.26,8.9,0,13.09,5.26,13.09,14.62v20.41h-13.42v-18.01c0-3.38-.9-6.37-4.71-6.37-4.13,0-5.22,2.67-5.22,7.02v17.36h-13.42V1.24Z"/><path class="cls-1" d="M659.05,0h13.42v9.62h-13.42V0ZM659.05,48.04V13.98h13.42v34.06h-13.42Z"/><path class="cls-1" d="M703.88,48.04c-17.61.97-19.74-.26-19.74-12.03v-14.24h-4.77v-7.8h4.97V3.38h13.22v10.59h6.45v7.8h-6.45v12.35c0,3.12.45,4.22,4.19,4.22h2.13v9.69Z"/><path class="cls-1" d="M724.45,34.06c0,4.03,3.1,6.7,6.64,6.7,2.13,0,4.06-.97,5.03-2.99h12.84c-2.32,8.45-10.84,11.25-18.71,11.25-10.84,0-19.22-6.24-19.22-17.68s8.32-18.33,19.16-18.33c12.51,0,20.06,8.71,19.87,21.06h-25.61ZM736.64,27.17c0-3.12-2.77-5.92-5.93-5.92-4,0-6.26,2.28-6.26,5.92h12.19Z"/><path class="cls-1" d="M757.73,53.82c2-.26,3.48-.91,4.51-1.88,1.03-.98,1.61-2.34,1.74-3.9h-6.26v-13.39h13.67v11.31c0,8.71-5.29,13.07-13.67,13.52v-5.66Z"/><path class="cls-1" d="M32.06,84.11c-.45-4.88-3.48-7.67-8.26-7.67-5.35,0-8.58,4.62-8.58,13.65,0,6.57,1.42,12.74,9.16,12.74,4.9,0,7.22-3.45,7.8-7.93h14.64c-1.35,12.09-9.93,19.37-22.19,19.37-15.35,0-24.64-9.49-24.64-24.7s10.19-24.57,23.16-24.57c14.19,0,22.12,7.09,23.35,19.11h-14.45Z"/><path class="cls-1" d="M72.11,78c11.93,0,19.29,7.08,19.29,17.68,0,12.48-8.38,18.33-19.22,18.33s-19.22-5.98-19.22-17.62,7.74-18.4,19.16-18.4ZM66.37,95.68c0,6.44,2.39,9.23,5.8,9.23,3.61,0,5.81-2.79,5.81-9.23,0-5.01-2.19-8.78-5.68-8.58-4.58,0-5.93,4.75-5.93,8.58Z"/><path class="cls-1" d="M99.64,113.04v-46.8h13.42v46.8h-13.42Z"/><path class="cls-1" d="M140.47,78c11.93,0,19.29,7.08,19.29,17.68,0,12.48-8.38,18.33-19.22,18.33s-19.22-5.98-19.22-17.62,7.74-18.4,19.16-18.4ZM134.73,95.68c0,6.44,2.39,9.23,5.8,9.23,3.61,0,5.81-2.79,5.81-9.23,0-5.01-2.19-8.78-5.68-8.58-4.58,0-5.93,4.75-5.93,8.58Z"/><path class="cls-1" d="M167.36,78.98h12.19v6.89h.13c1.87-5.33,5.16-7.87,10.38-7.87.58,0,1.16.13,1.74.19v13.52c-.9-.13-1.87-.39-2.77-.39-5.48,0-8.26,2.6-8.26,9.95v11.77h-13.42v-34.06Z"/><path class="cls-1" d="M251.46,84.11c-.45-4.88-3.48-7.67-8.26-7.67-5.35,0-8.58,4.62-8.58,13.65,0,6.57,1.42,12.74,9.16,12.74,4.9,0,7.22-3.45,7.8-7.93h14.64c-1.35,12.09-9.93,19.37-22.19,19.37-15.35,0-24.64-9.49-24.64-24.7s10.19-24.57,23.16-24.57c14.19,0,22.12,7.09,23.35,19.11h-14.45Z"/><path class="cls-1" d="M273.19,66.24h13.42v17.03c2.71-3.44,5.74-5.26,10.26-5.26,8.9,0,13.09,5.26,13.09,14.62v20.41h-13.42v-18.01c0-3.38-.9-6.37-4.71-6.37-4.13,0-5.22,2.67-5.22,7.02v17.36h-13.42v-46.8Z"/><path class="cls-1" d="M342.07,113.04l-.64-3.64c-3.81,3.58-7.68,4.62-12.71,4.62-6.39,0-12.06-3.18-12.06-10.27,0-15.47,24.06-8.45,24.06-14.82,0-2.47-2.97-2.79-4.39-2.79-1.87,0-4.39.39-4.71,3.32h-12.9c0-7.22,5.1-11.44,18.45-11.44,16,0,16.96,5.98,16.96,14.11v15.93c0,1.95.06,2.92,1.81,4.35v.65h-13.87ZM340.72,97.96c-4.39,2.14-10.19,1.1-10.19,5.52,0,1.69,1.61,2.86,4.26,2.86,4.71,0,6.26-3.71,5.93-8.38Z"/><path class="cls-1" d="M363.1,78.98h12.25v5.33c3.03-4.09,6.32-6.3,11.42-6.3,8.9,0,13.09,5.26,13.09,14.62v20.41h-13.42v-18.01c0-3.38-.9-6.37-4.71-6.37-4.13,0-5.22,2.67-5.22,7.02v17.36h-13.42v-34.06Z"/><path class="cls-1" d="M422.37,114.79c0,.39.26.98.84,1.5.58.52,1.55.84,2.9.84,3.87,0,5.42-1.75,5.42-6.63v-2.79c-1.94,1.95-4.84,3.71-9.67,3.71-9.35,0-14.71-7.41-14.71-16.12s4-17.29,15.09-17.29c4.06,0,7.87,2.14,10.26,5.46v-4.49h11.8v27.43c0,10.21-1.16,18.2-17.8,18.2-11.93,0-16.96-4.81-17.61-9.82h13.48ZM420.56,95.42c0,3.38,1.68,6.56,5.29,6.63,4.13.2,5.68-3.38,5.68-7.02s-1.42-7.34-5.68-7.34c-4.06-.07-5.29,3.31-5.29,7.74Z"/><path class="cls-1" d="M453.9,65h13.42v9.62h-13.42v-9.62ZM453.9,113.04v-34.06h13.42v34.06h-13.42Z"/><path class="cls-1" d="M476.41,78.98h12.25v5.33c3.03-4.09,6.32-6.3,11.42-6.3,8.9,0,13.09,5.26,13.09,14.62v20.41h-13.42v-18.01c0-3.38-.9-6.37-4.71-6.37-4.13,0-5.22,2.67-5.22,7.02v17.36h-13.42v-34.06Z"/><path class="cls-1" d="M535.68,114.79c0,.39.26.98.84,1.5.58.52,1.55.84,2.9.84,3.87,0,5.42-1.75,5.42-6.63v-2.79c-1.94,1.95-4.84,3.71-9.67,3.71-9.35,0-14.71-7.41-14.71-16.12s4-17.29,15.09-17.29c4.06,0,7.87,2.14,10.25,5.46v-4.49h11.8v27.43c0,10.21-1.16,18.2-17.8,18.2-11.93,0-16.96-4.81-17.61-9.82h13.48ZM533.87,95.42c0,3.38,1.68,6.56,5.29,6.63,4.13.2,5.68-3.38,5.68-7.02s-1.42-7.34-5.68-7.34c-4.06-.07-5.29,3.31-5.29,7.74Z"/><path class="cls-1" d="M621.26,109.07c-3.1,2.66-9.29,5.2-15.35,5.2-8.51,0-16.38-3.97-16.38-13,0-6.89,3.87-11.57,9.74-14.56-2.39-2.54-4-5.13-4-8.78,0-8.78,8.45-11.7,15.8-11.7,8.58,0,15.48,4.81,15.48,12.35,0,5.59-2.84,9.23-7.55,11.83l4,4.16c1.29-1.1,2.26-2.41,3.03-3.9h12.25c-2.13,4.1-4.64,8-7.8,11.38l10.58,10.99h-16.12l-3.68-3.96ZM607.46,94.45c-2.51,1.3-5.03,2.92-5.03,5.59s1.87,4.29,4.51,4.29c1.48,0,3.87-.91,5.16-1.69,1.87-1.11,2.19-.91,1.35-1.82l-6-6.37ZM606.88,77.87c0,2.34,1.74,3.96,3.93,5.46,3.03-1.43,5.74-3.06,4.58-6.89-.64-1.43-2.52-2.08-4-2.08-2.26,0-4.51.91-4.51,3.51Z"/><path class="cls-1" d="M702.78,84.11c-.45-4.88-3.48-7.67-8.26-7.67-5.35,0-8.58,4.62-8.58,13.65,0,6.57,1.42,12.74,9.16,12.74,4.9,0,7.22-3.45,7.8-7.93h14.64c-1.35,12.09-9.93,19.37-22.19,19.37-15.35,0-24.64-9.49-24.64-24.7s10.19-24.57,23.16-24.57c14.19,0,22.12,7.09,23.35,19.11h-14.45Z"/><path class="cls-1" d="M742.83,78c11.93,0,19.29,7.08,19.29,17.68,0,12.48-8.38,18.33-19.22,18.33s-19.22-5.98-19.22-17.62,7.74-18.4,19.16-18.4ZM737.09,95.68c0,6.44,2.39,9.23,5.8,9.23,3.61,0,5.8-2.79,5.8-9.23,0-5.01-2.19-8.78-5.68-8.58-4.58,0-5.93,4.75-5.93,8.58Z"/><path class="cls-1" d="M770.37,113.04v-46.8h13.42v46.8h-13.42Z"/><path class="cls-1" d="M811.19,78c11.93,0,19.29,7.08,19.29,17.68,0,12.48-8.38,18.33-19.22,18.33s-19.22-5.98-19.22-17.62,7.74-18.4,19.16-18.4ZM805.45,95.68c0,6.44,2.39,9.23,5.8,9.23,3.61,0,5.8-2.79,5.8-9.23,0-5.01-2.19-8.78-5.68-8.58-4.58,0-5.93,4.75-5.93,8.58Z"/><path class="cls-1" d="M838.09,78.98h12.19v6.89h.13c1.87-5.33,5.16-7.87,10.38-7.87.58,0,1.16.13,1.74.19v13.52c-.9-.13-1.87-.39-2.77-.39-5.48,0-8.26,2.6-8.26,9.95v11.77h-13.42v-34.06Z"/><path class="cls-1" d="M893.61,113.04v-46.8h15.22v35.88h20.9v10.92h-36.12Z"/><path class="cls-1" d="M955.08,78c11.93,0,19.29,7.08,19.29,17.68,0,12.48-8.38,18.33-19.22,18.33s-19.22-5.98-19.22-17.62,7.74-18.4,19.16-18.4ZM949.34,95.68c0,6.44,2.39,9.23,5.8,9.23,3.61,0,5.8-2.79,5.8-9.23,0-5.01-2.19-8.78-5.68-8.58-4.58,0-5.93,4.75-5.93,8.58Z"/><path class="cls-1" d="M1004.86,91.98c-.06-1.5-.58-2.67-1.42-3.51-.84-.91-2-1.36-3.48-1.36-5.03,0-5.87,5.26-5.87,9.29,0,5.13,1.94,8.52,5.87,8.52,3.48,0,4.84-2.41,5.22-5.07h13.54c-1.16,10.33-9.42,14.17-18.77,14.17-10.9,0-19.29-6.17-19.29-17.68s8.13-18.33,19.29-18.33c9.03,0,17.54,3.9,18.51,13.98h-13.61Z"/><path class="cls-1" d="M1040.4,103.48v9.56h-13.42v-46.8h13.42v23.14l8.58-10.4h15.67l-12.51,13.2,14.12,20.87h-16.12l-7.22-12.09-2.52,2.54Z"/><path class="cls-1" d="M1072.39,113.04v-13.39h13.67v13.39h-13.67Z"/><path class="cls-1" d="M325.49,153.49l.45-1.58c1.19,1.47,3.55,2.5,5.56,2.5,2.41,0,4.04-1.5,4.04-3.55,0-2.4-2.13-3.47-3.97-4.32l-1.24-.55c-1.96-.9-4.56-2.2-4.56-5.17,0-2.75,2.26-4.8,5.71-4.8,2.03,0,4.04.72,5.06,1.32l-.4,1.4c-1.09-1.15-2.88-2.32-4.94-2.32-2.31,0-3.62,1.45-3.62,3.2,0,2.15,1.89,3.1,3.87,4.02l1.24.57c2.23,1.05,4.64,2.25,4.64,5.35s-2.56,5.25-6.05,5.25c-2.16,0-4.66-.75-5.78-1.32Z"/><path class="cls-1" d="M352.01,154.04l-2.21.7-.69-2.17v-.05c-1.22,1.33-2.85,2.3-4.76,2.3-2.75,0-4.24-1.5-4.24-4.7v-8.47l2.26-.67h.1v9.2c0,1.02,0,3.77,2.9,3.77,1.24,0,2.65-.77,3.75-2v-10.3l2.26-.67h.1v11.27l.55,1.8Z"/><path class="cls-1" d="M354.64,137.17l1.69-1.7,1.69,1.7-1.69,1.7-1.69-1.7ZM355.16,141.64l2.23-.67h.1v13.55h-2.33v-12.87Z"/><path class="cls-1" d="M368.75,153.64c-1.04.7-2.08,1.17-3.47,1.17-3.05,0-3.23-2.35-3.23-3.42v-9.6h-1.91v-.42l1.81-.12,2.36-4.25h.1v4.25h4.24l-.32.55h-3.92v9.55c0,.72,0,2.62,2.01,2.62.57,0,1.31-.15,2.13-.62l.2.3Z"/><path class="cls-1" d="M381.8,153.92v.15c-.4.25-1.17.62-2.06.62-1.59,0-1.91-1.17-1.96-1.85-1.29,1.22-3.03,1.92-4.59,1.92-2.08,0-3.47-1.22-3.47-3.07,0-2.32,2.21-3.77,5.61-4.15.89-.1,1.69-.15,2.43-.22v-1.42c0-2.47-.72-4.12-3.18-4.12-1.34,0-2.51.47-3.72,1.5l-.22-.28c1.34-1.25,2.73-2.05,4.86-2.05,3.05,0,4.61,1.5,4.61,4.72v6.4c0,1.2,0,1.9,1.22,1.9.17,0,.32-.03.47-.05ZM377.76,152.37v-4.67c-3.37.35-5.71,1.17-5.71,3.6,0,1.75,1.09,2.58,2.43,2.58,1.07,0,2.26-.5,3.27-1.5Z"/><path class="cls-1" d="M396.58,147.67c0,4.27-2.93,7.15-6.4,7.15-1.91,0-3.4-.65-4.52-1.75l-1.39,1.55h-.1v-19.59l2.23-.75h.1v8.77c1.22-1.3,2.7-2.1,4.42-2.1,3.23,0,5.66,2.77,5.66,6.72ZM394.05,147.89c0-4.07-1.64-6.12-3.87-6.12-1.24,0-2.58.62-3.67,1.92v8.2c.65,1.52,1.91,2.52,3.45,2.52,2.41,0,4.09-2.5,4.09-6.52Z"/><path class="cls-1" d="M399.56,135.02l2.26-.75h.1v20.25h-2.36v-19.5Z"/><path class="cls-1" d="M407.4,146.94v.45c0,4.15,2.01,6.35,4.69,6.35,1.49,0,3.25-.75,4.39-2.4l.3.17c-1.41,2.17-3.37,3.3-5.71,3.3-3.55,0-6.18-2.67-6.18-6.72,0-4.32,2.85-7.15,6.67-7.15,3.57,0,5.41,2.47,5.36,6h-9.53ZM407.42,146.54h7.25c.15-3.15-1.19-5.22-3.3-5.22s-3.7,2.17-3.94,5.22Z"/><path class="cls-1" d="M428.98,138.77v2.47h4.17l-.35.55h-3.82v12.72h-2.36v-12.72h-1.91v-.55h1.91v-2.35c0-3.1,1.69-4.72,4.27-4.72,1.29,0,2.63.38,3.89,1.15l-.17.3c-1.12-.5-1.94-.6-2.65-.6-1.86,0-2.98,1.17-2.98,3.75Z"/><path class="cls-1" d="M433.29,147.97c0-4.22,2.9-7.02,6.77-7.02s6.55,2.62,6.55,6.87-2.9,7-6.77,7-6.55-2.6-6.55-6.85ZM444.09,147.97c0-4-1.71-6.67-4.17-6.67s-4.09,2.57-4.09,6.52,1.71,6.65,4.17,6.65,4.09-2.57,4.09-6.5Z"/><path class="cls-1" d="M457.03,141.14l-.69,1.85c-.45-.2-.97-.3-1.36-.3-1.34,0-2.48.97-3.1,2.3v9.52h-2.36v-12.87l2.21-.67h.1v3.3c.92-2.03,2.31-3.27,4.04-3.27.45,0,.87.08,1.17.15Z"/><path class="cls-1" d="M475.69,153.92v.15c-.4.25-1.17.62-2.06.62-1.59,0-1.91-1.17-1.96-1.85-1.29,1.22-3.03,1.92-4.59,1.92-2.08,0-3.47-1.22-3.47-3.07,0-2.32,2.21-3.77,5.61-4.15.89-.1,1.69-.15,2.43-.22v-1.42c0-2.47-.72-4.12-3.18-4.12-1.34,0-2.51.47-3.72,1.5l-.22-.28c1.34-1.25,2.73-2.05,4.86-2.05,3.05,0,4.61,1.5,4.61,4.72v6.4c0,1.2,0,1.9,1.22,1.9.17,0,.32-.03.47-.05ZM471.64,152.37v-4.67c-3.37.35-5.71,1.17-5.71,3.6,0,1.75,1.09,2.58,2.43,2.58,1.07,0,2.26-.5,3.27-1.5Z"/><path class="cls-1" d="M478.12,135.02l2.26-.75h.1v20.25h-2.36v-19.5Z"/><path class="cls-1" d="M484.19,135.02l2.26-.75h.1v20.25h-2.36v-19.5Z"/><path class="cls-1" d="M503.44,153.64c-1.04.7-2.08,1.17-3.47,1.17-3.05,0-3.23-2.35-3.23-3.42v-9.6h-1.91v-.42l1.81-.12,2.36-4.25h.1v4.25h4.24l-.32.55h-3.92v9.55c0,.72,0,2.62,2.01,2.62.57,0,1.31-.15,2.13-.62l.2.3Z"/><path class="cls-1" d="M516.14,141.25c-1.04,2.15-1.84,4.17-3.18,7.42l-3.27,7.95c-1.19,2.87-3.1,3.75-5.33,3.75l.15-1.42c.4.12.82.17,1.22.17,1.22,0,2.73-.67,3.5-2.52l.82-2-5.78-13.35h2.53l4.47,10.35,1.29-3.1c1.34-3.27,2.01-5.72,2.16-7.25h1.44Z"/><path class="cls-1" d="M530.73,147.67c0,4.27-2.93,7.15-6.4,7.15-1.44,0-2.68-.5-3.65-1.38v6.77h-2.36v-18.57l2.26-.67h.1v2.07c1.22-1.3,2.68-2.1,4.39-2.1,3.23,0,5.66,2.77,5.66,6.72ZM528.2,147.89c0-4.07-1.61-6.12-3.85-6.12-1.24,0-2.58.62-3.67,1.9v8.2c.62,1.55,1.89,2.55,3.42,2.55,2.43,0,4.09-2.5,4.09-6.52Z"/><path class="cls-1" d="M535.46,146.94v.45c0,4.15,2.01,6.35,4.69,6.35,1.49,0,3.25-.75,4.39-2.4l.3.17c-1.41,2.17-3.37,3.3-5.71,3.3-3.55,0-6.18-2.67-6.18-6.72,0-4.32,2.85-7.15,6.67-7.15,3.57,0,5.41,2.47,5.36,6h-9.53ZM535.49,146.54h7.24c.15-3.15-1.19-5.22-3.3-5.22s-3.7,2.17-3.94,5.22Z"/><path class="cls-1" d="M546.95,153.62l.37-1.28c1.02,1.2,2.6,2.12,4.56,2.12s3.23-1.05,3.23-2.55c0-1.6-1.51-2.25-3.08-2.9l-1.02-.42c-1.61-.7-3.82-1.62-3.82-4,0-2.1,1.79-3.65,4.61-3.65,1.76,0,3.42.55,4.29,1.05l-.35,1.17c-.87-.85-2.41-1.87-4.17-1.87s-2.8,1.05-2.8,2.27c0,1.57,1.71,2.2,3.1,2.8l.99.43c1.56.65,3.82,1.6,3.82,4.07,0,2.27-1.89,3.95-5.06,3.95-1.66,0-3.57-.47-4.69-1.2Z"/><path class="cls-1" d="M564.63,147.97c0-4.22,2.9-7.02,6.77-7.02s6.55,2.62,6.55,6.87-2.9,7-6.77,7-6.55-2.6-6.55-6.85ZM575.43,147.97c0-4-1.71-6.67-4.17-6.67s-4.09,2.57-4.09,6.52,1.71,6.65,4.17,6.65,4.09-2.57,4.09-6.5Z"/><path class="cls-1" d="M583.71,138.77v2.47h4.17l-.35.55h-3.82v12.72h-2.36v-12.72h-1.91v-.55h1.91v-2.35c0-3.1,1.69-4.72,4.27-4.72,1.29,0,2.63.38,3.9,1.15l-.17.3c-1.12-.5-1.94-.6-2.65-.6-1.86,0-2.98,1.17-2.98,3.75Z"/><path class="cls-1" d="M606.28,153.92v.15c-.4.25-1.17.62-2.06.62-1.59,0-1.91-1.17-1.96-1.85-1.29,1.22-3.03,1.92-4.59,1.92-2.08,0-3.47-1.22-3.47-3.07,0-2.32,2.21-3.77,5.61-4.15.89-.1,1.69-.15,2.43-.22v-1.42c0-2.47-.72-4.12-3.18-4.12-1.34,0-2.51.47-3.72,1.5l-.22-.28c1.34-1.25,2.73-2.05,4.86-2.05,3.05,0,4.62,1.5,4.62,4.72v6.4c0,1.2,0,1.9,1.22,1.9.17,0,.32-.03.47-.05ZM602.24,152.37v-4.67c-3.37.35-5.71,1.17-5.71,3.6,0,1.75,1.09,2.58,2.43,2.58,1.07,0,2.26-.5,3.27-1.5Z"/><path class="cls-1" d="M610.2,146.94v.45c0,4.15,2.01,6.35,4.69,6.35,1.49,0,3.25-.75,4.39-2.4l.3.17c-1.41,2.17-3.37,3.3-5.71,3.3-3.55,0-6.18-2.67-6.18-6.72,0-4.32,2.85-7.15,6.67-7.15,3.57,0,5.41,2.47,5.36,6h-9.53ZM610.23,146.54h7.24c.15-3.15-1.19-5.22-3.3-5.22s-3.7,2.17-3.94,5.22Z"/><path class="cls-1" d="M621.69,153.62l.37-1.28c1.02,1.2,2.61,2.12,4.57,2.12s3.23-1.05,3.23-2.55c0-1.6-1.51-2.25-3.08-2.9l-1.02-.42c-1.61-.7-3.82-1.62-3.82-4,0-2.1,1.79-3.65,4.62-3.65,1.76,0,3.42.55,4.29,1.05l-.35,1.17c-.87-.85-2.41-1.87-4.17-1.87s-2.8,1.05-2.8,2.27c0,1.57,1.71,2.2,3.1,2.8l.99.43c1.56.65,3.82,1.6,3.82,4.07,0,2.27-1.89,3.95-5.06,3.95-1.66,0-3.57-.47-4.69-1.2Z"/><path class="cls-1" d="M641.56,153.64c-1.04.7-2.08,1.17-3.47,1.17-3.05,0-3.23-2.35-3.23-3.42v-9.6h-1.91v-.42l1.81-.12,2.36-4.25h.1v4.25h4.24l-.32.55h-3.92v9.55c0,.72,0,2.62,2.01,2.62.57,0,1.31-.15,2.13-.62l.2.3Z"/><path class="cls-1" d="M654.93,145.67v8.85h-2.33v-8.9c0-1.03-.03-3.77-2.9-3.77-1.31,0-2.53.52-3.82,1.77v10.9h-2.33v-19.5l2.23-.75h.1v8.87c1.39-1.35,2.83-2.2,4.84-2.2,2.73,0,4.22,1.5,4.22,4.72Z"/><path class="cls-1" d="M665.69,153.64c-1.04.7-2.08,1.17-3.47,1.17-3.05,0-3.23-2.35-3.23-3.42v-9.6h-1.91v-.42l1.81-.12,2.36-4.25h.1v4.25h4.24l-.32.55h-3.92v9.55c0,.72,0,2.62,2.01,2.62.57,0,1.31-.15,2.13-.62l.2.3Z"/><path class="cls-1" d="M667.2,137.17l1.69-1.7,1.69,1.7-1.69,1.7-1.69-1.7ZM667.72,141.64l2.23-.67h.1v13.55h-2.33v-12.87Z"/><path class="cls-1" d="M673.06,148.02c0-4.25,2.9-7.07,6.5-7.07,2.26,0,3.9.87,4.99,2.27l-1.02.9c-1.04-1.67-2.18-2.8-3.85-2.8-2.38,0-4.07,2.4-4.07,6.15,0,4.07,1.91,6.27,4.52,6.27,1.44,0,3.13-.75,4.27-2.4l.3.17c-1.31,2-3.13,3.3-5.53,3.3-3.47,0-6.1-2.67-6.1-6.8Z"/><path class="cls-1" d="M704.49,145.67v8.85h-2.36v-8.9c0-1.03,0-3.77-2.9-3.77-1.29,0-2.53.52-3.8,1.77v10.9h-2.36v-12.87l2.26-.67h.1v2.15c1.39-1.35,2.83-2.17,4.81-2.17,2.75,0,4.24,1.5,4.24,4.72Z"/><path class="cls-1" d="M709.82,146.94v.45c0,4.15,2.01,6.35,4.69,6.35,1.49,0,3.25-.75,4.39-2.4l.3.17c-1.42,2.17-3.37,3.3-5.71,3.3-3.55,0-6.18-2.67-6.18-6.72,0-4.32,2.85-7.15,6.67-7.15,3.57,0,5.41,2.47,5.36,6h-9.53ZM709.84,146.54h7.25c.15-3.15-1.19-5.22-3.3-5.22s-3.7,2.17-3.95,5.22Z"/><path class="cls-1" d="M723.98,146.94v.45c0,4.15,2.01,6.35,4.69,6.35,1.49,0,3.25-.75,4.39-2.4l.3.17c-1.42,2.17-3.37,3.3-5.71,3.3-3.55,0-6.18-2.67-6.18-6.72,0-4.32,2.85-7.15,6.67-7.15,3.57,0,5.41,2.47,5.36,6h-9.53ZM724.01,146.54h7.25c.15-3.15-1.19-5.22-3.3-5.22s-3.7,2.17-3.95,5.22Z"/><path class="cls-1" d="M746.38,154.74l-.64-2.05c-1.22,1.32-2.71,2.12-4.44,2.12-3.23,0-5.66-2.77-5.66-6.7,0-4.27,2.93-7.17,6.4-7.17,1.44,0,2.68.5,3.65,1.37v-7.3l2.26-.75h.1v17.97l.54,1.8-2.21.7ZM745.69,152.12v-8.22c-.62-1.53-1.89-2.52-3.42-2.52-2.43,0-4.09,2.47-4.09,6.5s1.64,6.12,3.9,6.12c1.24,0,2.53-.62,3.62-1.88Z"/><path class="cls-1" d="M750.82,153.62l.37-1.28c1.02,1.2,2.61,2.12,4.57,2.12s3.23-1.05,3.23-2.55c0-1.6-1.51-2.25-3.08-2.9l-1.02-.42c-1.61-.7-3.82-1.62-3.82-4,0-2.1,1.79-3.65,4.62-3.65,1.76,0,3.42.55,4.29,1.05l-.35,1.17c-.87-.85-2.41-1.87-4.17-1.87s-2.8,1.05-2.8,2.27c0,1.57,1.71,2.2,3.1,2.8l.99.43c1.56.65,3.82,1.6,3.82,4.07,0,2.27-1.89,3.95-5.06,3.95-1.66,0-3.57-.47-4.69-1.2Z"/></g></svg>