<?xml version="1.0" encoding="UTF-8"?><svg id="_圖層_2" xmlns="http://www.w3.org/2000/svg" viewBox="0 0 202.35 44.61"><g id="_圖層_1-2"><path d="M34.35.41c-1.1,2.68-1.92,5.03-3.05,8.23l-3.76,10.97h-.1l-5.02-14.71-5.12,14.71h-.1L10.59.41h2.79l4.97,14.66L23.47.41h.1l4.99,14.66,2.25-6.58c1.33-3.77,1.74-6.19,1.95-8.08h1.59Z"/><path d="M45.49,13.03h-7.27c-1.13,3.02-1.43,4.64-1.51,6.17h-1.77c1.23-2.58,2.2-4.98,3.53-8.23L42.93,0h.1l7.76,19.2h-2.84l-2.46-6.17ZM45.31,12.57l-3.46-8.62-2.89,7.2-.56,1.42h6.91Z"/><path d="M68.61,16.49v3.28h-.15l-7.58-8.51c-.36-.41-.61-.54-1.33-.54h-1.72v8.49h-2.61V.41h4.58c4.92,0,7.55,1.55,7.55,4.75,0,2.66-2.05,4.05-4.48,4.9l5.74,6.42ZM64.72,5.34c0-2.73-1.64-4.51-5.02-4.51h-1.87v9.31c.59.1,1.84.15,2.36.15,2.79,0,4.53-2.27,4.53-4.95Z"/><path d="M89.89,19.2l-1.59-17.16-6.27,15.97h-.1l-6.94-15.33-.72,8.28c-.33,3.61-.31,6.17-.1,8.23h-1.54c.46-2.06.79-4.64,1.13-8.26l.82-9.24-.56-1.21v-.08h2.82l6.17,13.8L88.41.41h2.36l1.74,18.78h-2.61Z"/><path d="M127.25.41c-1.1,2.68-1.92,5.03-3.05,8.23l-3.76,10.97h-.1l-5.02-14.71-5.12,14.71h-.1L103.49.41h2.79l4.97,14.66L116.37.41h.1l4.99,14.66,2.25-6.58c1.33-3.77,1.74-6.19,1.95-8.08h1.59Z"/><path d="M146,.41v18.78h-2.61v-9.55h-9.12v9.55h-2.61V.41h2.61v8.77h9.12V.41h2.61Z"/><path d="M152.25.41h2.61v18.78h-2.61V.41Z"/><path d="M173.45,2.25h-.05c-2.05-.98-3.48-1.37-5.02-1.37h-.59v18.32h-2.61V.88h-.61c-1.54,0-2.97.39-5.02,1.37h-.05l.36-1.83h13.26l.33,1.83Z"/><path d="M189.61,17.47l-.49,1.73h-11.04V.41h10.73l.31,1.62h-.05c-2.36-.8-4.74-1.16-6.96-1.16h-1.41v8.31h1.18c2.77,0,4.58-.18,5.38-.52h.05v1.6h-.05c-.79-.33-2.61-.62-5.38-.62h-1.18v9.08h1.49c2.2,0,4.92-.33,7.37-1.26h.05Z"/><path d="M12.06,30.57c0,3.51-2.77,5.78-7.22,5.78-.79,0-1.66-.08-2.23-.16v8H0v-18.78h4.84c4.79,0,7.22,1.86,7.22,5.16ZM9.29,30.88c0-2.97-1.48-5.06-4.84-5.06h-1.84v9.93c.46.1,1.05.18,1.79.18,3.25,0,4.89-1.91,4.89-5.06Z"/><path d="M23.74,38.03h-7.27c-1.13,3.02-1.43,4.64-1.51,6.17h-1.77c1.23-2.58,2.2-4.98,3.53-8.23l4.46-10.97h.1l7.76,19.2h-2.84l-2.46-6.17ZM23.56,37.57l-3.46-8.62-2.89,7.2-.56,1.42h6.91Z"/><path d="M42.87,42.26l-.49,1.94h-8.91v-18.78h2.61v18.32h.49c1.54,0,3.58-.28,6.25-1.47h.05Z"/><path d="M63.89,44.2l-1.59-17.16-6.27,15.97h-.1l-6.94-15.33-.72,8.28c-.33,3.61-.31,6.17-.1,8.23h-1.54c.46-2.06.79-4.64,1.13-8.26l.82-9.24-.56-1.21v-.08h2.82l6.17,13.8,5.4-13.8h2.36l1.74,18.78h-2.61Z"/><path d="M78.92,43.14l.46-1.63c1.23,1.52,3.66,2.58,5.74,2.58,2.48,0,4.17-1.55,4.17-3.66,0-2.48-2.2-3.59-4.1-4.46l-1.28-.57c-2.02-.93-4.71-2.27-4.71-5.34,0-2.84,2.33-4.95,5.89-4.95,2.1,0,4.17.75,5.22,1.37l-.41,1.45c-1.13-1.19-2.97-2.4-5.1-2.4-2.38,0-3.74,1.5-3.74,3.3,0,2.22,1.95,3.2,3.99,4.15l1.28.59c2.3,1.08,4.79,2.32,4.79,5.52s-2.64,5.42-6.25,5.42c-2.23,0-4.81-.77-5.97-1.37Z"/><path d="M110.65,25.41v18.78h-2.61v-9.55h-9.12v9.55h-2.61v-18.78h2.61v8.77h9.12v-8.77h2.61Z"/><path d="M125.5,38.03h-7.27c-1.13,3.02-1.43,4.64-1.51,6.17h-1.77c1.23-2.58,2.2-4.98,3.53-8.23l4.46-10.97h.1l7.76,19.2h-2.84l-2.46-6.17ZM125.32,37.57l-3.46-8.62-2.89,7.2-.56,1.42h6.91Z"/><path d="M151.65,34.6c0,6.06-3.99,9.6-10.32,9.6h-6.09v-18.78h6.53c5.92,0,9.88,3.23,9.88,9.19ZM148.78,34.73c0-5.32-2.84-8.9-7.25-8.9h-3.69v17.73c.66.16,1.87.23,3.92.23,4.46,0,7.02-3.28,7.02-9.06Z"/><path d="M156.16,34.99c0-6.04,4.3-9.88,9.86-9.88s9.52,3.59,9.52,9.52-4.3,9.88-9.86,9.88-9.52-3.59-9.52-9.52ZM172.67,34.91c0-5.62-2.84-9.39-6.86-9.39s-6.79,3.66-6.79,9.19,2.84,9.39,6.94,9.39,6.71-3.64,6.71-9.19Z"/><path d="M202.35,25.41c-1.1,2.68-1.92,5.03-3.05,8.23l-3.76,10.97h-.1l-5.02-14.71-5.12,14.71h-.1l-6.61-19.2h2.79l4.97,14.66,5.12-14.66h.1l4.99,14.66,2.25-6.58c1.33-3.77,1.74-6.19,1.95-8.08h1.59Z"/></g></svg>